<svg width="14" height="14" viewBox="0 0 14 14" fill="none" xmlns="http://www.w3.org/2000/svg">
<path d="M12.7887 12.7485C13.0173 12.502 13.1441 12.1767 13.2238 11.8998C13.3089 11.6044 13.367 11.2665 13.4076 10.9186C13.489 10.2213 13.5094 9.40365 13.5027 8.63838C13.4961 7.86879 13.4619 7.13161 13.4296 6.58826C13.4134 6.31613 13.3976 6.09152 13.3858 5.93446C13.3799 5.8559 13.375 5.79417 13.3715 5.75177L13.3675 5.70295L13.3664 5.68999L13.3659 5.68496C13.33 5.27231 12.9663 4.96693 12.5537 5.00288C12.141 5.03882 11.8357 5.40303 11.8716 5.81565L11.8718 5.81817L11.8728 5.82907L11.8765 5.87358C11.8797 5.91303 11.8843 5.9716 11.89 6.0468C11.9013 6.19725 11.9165 6.41405 11.9322 6.67741C11.9636 7.20506 11.9964 7.91529 12.0028 8.65134C12.0092 9.39171 11.9885 10.1379 11.9177 10.7446C11.9137 10.7787 11.9096 10.812 11.9054 10.8447L1.28033 0.219671C0.987436 -0.0732227 0.512563 -0.0732227 0.219669 0.21967C-0.0732231 0.512564 -0.0732231 0.987437 0.219669 1.28033L10.8472 11.9078C10.8328 11.9096 10.8183 11.9114 10.8037 11.9131C10.2039 11.9834 9.45344 12.0044 8.70345 11.9986C7.95815 11.9929 7.23435 11.961 6.69536 11.9303C6.42633 11.9151 6.20444 11.9001 6.05027 11.8891C5.9732 11.8836 5.91313 11.879 5.87261 11.8758L5.82685 11.8722L5.81236 11.871C5.39959 11.8368 5.03717 12.1436 5.00286 12.5563C4.96855 12.9691 5.27586 13.3316 5.68865 13.3659L5.69323 13.3663L5.70645 13.3674L5.7563 13.3713C5.79962 13.3747 5.86271 13.3795 5.94297 13.3852C6.10344 13.3967 6.3328 13.4122 6.61023 13.4279C7.16415 13.4594 7.91405 13.4926 8.69192 13.4986C9.46511 13.5045 10.2873 13.4838 10.9783 13.4029C11.3225 13.3625 11.657 13.3047 11.9461 13.2189C12.2096 13.1407 12.548 13.008 12.7887 12.7485Z" fill="#FFF000"/>
</svg>
