<svg width="56" height="56" viewBox="0 0 56 56" fill="none" xmlns="http://www.w3.org/2000/svg">
<rect width="56" height="56" rx="28" fill="#FFF000"/>
<path fill-rule="evenodd" clip-rule="evenodd" d="M24.301 21.15C24.3007 21.15 24.3014 21.15 24.301 21.15C24.3007 21.15 24.2993 21.15 24.299 21.15H22.2C21.6201 21.15 21.15 21.6201 21.15 22.2C21.15 22.7799 21.6201 23.25 22.2 23.25H23.25V27.7992C23.25 27.7996 23.25 27.8008 23.25 27.8012V32.35H22.2C21.6201 32.35 21.15 32.8201 21.15 33.4C21.15 33.9799 21.6201 34.45 22.2 34.45H25.35V36.2C25.35 36.7799 25.8201 37.25 26.4 37.25C26.9799 37.25 27.45 36.7799 27.45 36.2V34.45H28.85V36.2C28.85 36.7799 29.3201 37.25 29.9 37.25C30.4799 37.25 30.95 36.7799 30.95 36.2V34.45H31.3C33.0397 34.45 34.45 33.0397 34.45 31.3V29.9C34.45 29.0932 34.1467 28.3573 33.6479 27.8C34.1467 27.2427 34.45 26.5068 34.45 25.7V24.3C34.45 22.5603 33.0397 21.15 31.3 21.15H30.95V19.4C30.95 18.8201 30.4799 18.35 29.9 18.35C29.3201 18.35 28.85 18.8201 28.85 19.4V21.15H27.45V19.4C27.45 18.8201 26.9799 18.35 26.4 18.35C25.8201 18.35 25.35 18.8201 25.35 19.4V21.15H24.301ZM25.35 23.25V26.75H31.3C31.8799 26.75 32.35 26.2799 32.35 25.7V24.3C32.35 23.7201 31.8799 23.25 31.3 23.25L25.35 23.25ZM31.3 28.85H25.35V32.35H31.3C31.8799 32.35 32.35 31.8799 32.35 31.3V29.9C32.35 29.3201 31.8799 28.85 31.3 28.85Z" fill="#2A2A2A"/>
<path fill-rule="evenodd" clip-rule="evenodd" d="M27.8 12.75C19.4881 12.75 12.75 19.4881 12.75 27.8C12.75 36.1119 19.4881 42.85 27.8 42.85C36.1119 42.85 42.85 36.1119 42.85 27.8C42.85 19.4881 36.1119 12.75 27.8 12.75ZM14.85 27.8C14.85 20.6479 20.6479 14.85 27.8 14.85C34.9521 14.85 40.75 20.6479 40.75 27.8C40.75 34.9521 34.9521 40.75 27.8 40.75C20.6479 40.75 14.85 34.9521 14.85 27.8Z" fill="#2A2A2A"/>
</svg>
