<svg width="503" height="479" viewBox="0 0 503 479" fill="none" xmlns="http://www.w3.org/2000/svg">
<path d="M488.31 56.0499L432.66 0.409912L75.5901 0C64.0101 0 53.1202 4.50994 44.9202 12.6899L12.6899 44.9299C4.50994 53.1099 0 64 0 75.59V394.92L83.3201 478.24H127.81C139.28 478.24 150.48 473.54 158.53 465.34L167.94 455.75C178.34 445.15 184.06 431.13 184.06 416.29V302.59C191.35 309.27 200.73 312.92 210.66 312.92H370.21C388.52 312.92 405.48 302.26 413.42 285.75L497.62 110.76C506.44 92.42 502.7 70.4399 488.31 56.0499ZM403.54 79.5C397.85 91.3 385.72 98.9299 372.6 98.9299H141.29C134.62 98.9299 128.22 96.2899 123.51 91.5699L106.64 74.7C105.76 73.82 104.81 73.64 104.15 73.64C102.37 73.64 100.53 74.98 100.53 77.24V147.84H382.76L353.84 207.95C348.17 219.75 336.02 227.38 322.91 227.38H142.13C135.65 227.38 129.43 224.81 124.85 220.22L110.62 205.99C106.89 202.26 100.53 204.9 100.53 210.16V345.76C100.53 356.65 96.3299 366.93 88.7 374.71L79.29 384.31C74.04 389.64 66.76 392.7 59.28 392.7H21V79.59C21 72.01 23.95 64.8799 29.3 59.5299L61.53 27.3099C66.89 21.9499 74.0101 19 81.5901 19L432.45 19.4099L403.54 79.5Z" fill="#2A2A2A"/>
<path d="M432.45 19.4099L403.54 79.5C397.85 91.3 385.72 98.9299 372.6 98.9299H141.29C134.62 98.9299 128.22 96.2899 123.51 91.5699L106.64 74.7C105.76 73.82 104.81 73.64 104.15 73.64C102.37 73.64 100.53 74.98 100.53 77.24V147.84H382.76L353.84 207.95C348.17 219.75 336.02 227.38 322.91 227.38H142.13C135.65 227.38 129.43 224.81 124.85 220.22L110.62 205.99C106.89 202.26 100.53 204.9 100.53 210.16V345.76C100.53 356.65 96.3299 366.93 88.7 374.71L79.29 384.31C74.04 389.64 66.76 392.7 59.28 392.7H21V79.59C21 72.01 23.95 64.8799 29.3 59.5299L61.53 27.3099C66.89 21.9499 74.0101 19 81.5901 19L432.45 19.4099Z" fill="#FFF100"/>
</svg>
