<svg width="270" height="185" viewBox="0 0 270 185" fill="none" xmlns="http://www.w3.org/2000/svg">
<path d="M149.814 15.0513H77.0438C76.1138 15.0513 75.3638 15.8113 75.3638 16.7413V70.6213C75.3638 71.5513 76.1138 72.3113 77.0438 72.3113H163.294C164.224 72.3113 164.974 71.5513 164.974 70.6213V27.5013C164.974 26.8013 164.664 26.1313 164.124 25.6913L152.224 15.9213C151.544 15.3613 150.694 15.0613 149.824 15.0613L149.814 15.0513Z" fill="#FFF100"/>
<path d="M144.194 33.5313C147.032 33.5313 149.334 31.2121 149.334 28.3513C149.334 25.4904 147.032 23.1713 144.194 23.1713C141.355 23.1713 139.054 25.4904 139.054 28.3513C139.054 31.2121 141.355 33.5313 144.194 33.5313Z" fill="#F49D1B"/>
<path d="M152.014 33.5313C154.853 33.5313 157.154 31.2121 157.154 28.3513C157.154 25.4904 154.853 23.1713 152.014 23.1713C149.175 23.1713 146.874 25.4904 146.874 28.3513C146.874 31.2121 149.175 33.5313 152.014 33.5313Z" fill="#E41D22"/>
<path d="M131.884 57.3013H133.474V59.2313L134.884 57.4313C134.944 57.3513 135.044 57.3013 135.144 57.3013H136.714L134.754 59.8013C134.694 59.8713 134.694 59.9713 134.754 60.0413L136.714 62.5313H134.974L133.454 60.6313V62.5313H131.864V57.2913L131.884 57.3013Z" fill="#2A2A2A"/>
<path d="M141.234 57.3013L142.354 60.8913L143.474 57.3013H145.094L143.364 62.5413H141.354L139.774 57.7613C139.704 57.5413 139.864 57.3113 140.094 57.3113H141.234V57.3013Z" fill="#2A2A2A"/>
<path d="M148.164 58.6713C147.474 58.6713 146.924 59.1913 146.924 59.9213C146.924 60.6513 147.494 61.1713 148.164 61.1713C148.834 61.1713 149.394 60.6413 149.394 59.9213C149.394 59.2013 148.854 58.6713 148.164 58.6713ZM148.164 57.2313C149.744 57.2313 150.954 58.3413 150.954 59.9213C150.954 61.5013 149.684 62.6113 148.164 62.6113C146.644 62.6113 145.364 61.4713 145.364 59.9213C145.364 58.3713 146.584 57.2313 148.164 57.2313Z" fill="#2A2A2A"/>
<path d="M154.364 58.6713C153.674 58.6713 153.124 59.1913 153.124 59.9213C153.124 60.6513 153.694 61.1713 154.364 61.1713C155.034 61.1713 155.594 60.6413 155.594 59.9213C155.594 59.2013 155.054 58.6713 154.364 58.6713ZM154.364 57.2313C155.944 57.2313 157.154 58.3413 157.154 59.9213C157.154 61.5013 155.884 62.6113 154.364 62.6113C152.844 62.6113 151.564 61.4713 151.564 59.9213C151.564 58.3713 152.784 57.2313 154.364 57.2313Z" fill="#2A2A2A"/>
<path d="M137.954 58.2413V58.1113C137.954 58.0613 137.994 58.0113 138.054 58.0113H138.644C138.804 58.0113 138.934 57.8813 138.934 57.7113V57.2613H137.724C137.534 57.2613 137.384 57.4113 137.384 57.6013V62.5313H138.934V58.5313C138.934 58.3613 138.804 58.2313 138.644 58.2313H137.954V58.2413Z" fill="#2A2A2A"/>
<path d="M77.0438 15.0513C76.1138 15.0513 75.3638 15.8113 75.3638 16.7413V70.6213C75.3638 71.5513 76.1138 72.3113 77.0438 72.3113H102.864C127.484 65.8413 83.1038 13.0013 77.0438 15.0513Z" fill="#F2E108"/>
<path d="M43.9037 93.4913C42.6937 91.8113 41.8437 89.8613 41.5137 87.5113C47.5137 87.0713 52.8137 82.7713 55.5237 77.3513C58.2337 71.9313 58.6137 65.5713 57.7137 59.5713C56.8137 53.5713 54.6937 47.8313 52.8037 42.7313C48.9737 40.5113 44.2737 45.4213 40.0237 44.2413C37.8537 43.6413 36.4337 41.6113 34.6937 40.1713C32.9537 38.7213 30.0437 37.9813 28.6737 39.7813C27.7537 40.9813 28.0137 42.7513 27.2637 44.0613C25.9237 46.4013 22.3937 46.0313 20.2037 47.5813C18.3137 48.9213 17.7137 51.5813 18.1537 53.8713C18.5937 56.1613 19.8837 58.1913 21.6337 60.6013C20.0637 59.3113 18.4737 58.0113 16.6637 57.0913C14.8537 56.1713 12.7737 55.6713 10.7837 56.0713C7.30371 56.7613 4.76371 60.3313 4.81371 63.9113C4.86371 67.4913 7.22371 70.8113 10.3837 72.4313C12.2637 73.3913 14.4737 73.8013 16.1637 73.0813C19.6037 82.8813 22.2937 92.9513 24.3137 103.251C28.0837 104.921 32.5537 104.901 36.3037 103.191C40.0537 101.481 43.0237 98.1013 43.8937 93.5113L43.9037 93.4913Z" fill="#CCCBCB"/>
<path d="M124.214 81.3713C127.774 70.5213 127.344 58.6213 124.484 47.5613C124.104 46.0813 123.654 44.5713 122.704 43.3913C121.754 42.2113 120.144 41.4313 118.704 41.8713C117.444 42.2613 116.564 43.4813 116.234 44.7713C115.904 46.0613 115.994 47.4213 116.104 48.7513C115.724 46.0213 114.884 43.3513 113.714 40.8313C113.274 39.8913 112.724 38.9013 111.784 38.4913C110.764 38.0413 109.494 38.4313 108.724 39.2413C107.954 40.0513 107.604 41.2113 107.564 42.3313C107.524 43.4513 107.744 44.5713 107.974 45.6813C106.984 43.5513 105.644 41.9413 103.844 41.2413C102.894 40.8713 101.804 40.7613 100.864 41.1513C99.5337 41.7013 98.7237 43.1513 98.5337 44.5913C98.3437 46.0313 98.6437 47.4913 98.9537 48.9113C98.0837 47.4613 97.2337 46.4213 96.0737 45.9313C94.9137 45.4413 93.4237 45.6313 92.6337 46.6113C91.6537 47.8113 92.0137 49.5813 92.4237 51.0713C94.2637 57.7513 96.0937 64.4213 97.6937 71.3313C95.5637 72.0413 93.2537 72.1713 91.0437 72.0813C93.1537 76.5313 96.5937 80.3313 100.934 83.3313C108.014 80.0213 116.384 79.6213 124.234 81.3713H124.214Z" fill="#CCCBCB"/>
<path d="M234.774 61.5512C232.884 57.0912 232.744 51.9012 234.604 47.6612C233.004 42.0512 229.974 36.8612 225.874 32.7412C224.684 31.5512 223.344 30.3212 223.034 28.6612C222.704 26.9012 223.644 25.1712 224.584 23.6512C225.404 22.3212 226.334 20.9212 227.774 20.3312C230.184 19.3512 232.834 21.0312 234.684 22.8712C238.594 26.7512 241.394 31.7512 242.644 37.5812C245.524 35.8212 247.614 33.0112 250.204 30.8412C252.794 28.6712 256.404 27.0912 259.504 28.4212C261.714 29.3712 263.164 31.6312 263.724 33.9912C264.284 36.3512 264.094 38.8112 263.724 41.4812C266.754 43.8312 267.854 48.3912 266.254 52.0712C267.964 52.8412 268.844 55.0912 268.144 57.1612C269.434 59.1812 269.324 61.9212 268.234 64.0612C267.144 66.2012 265.184 67.8012 263.054 68.8812C260.924 69.9612 258.594 70.5812 256.294 70.8912C255.964 73.2712 245.644 75.3512 242.094 70.3612C239.684 66.9812 237.784 63.2112 234.784 61.5712L234.774 61.5512Z" fill="#CCCBCB"/>
<path d="M164.964 71.4613C164.944 61.9813 164.924 52.5013 164.904 43.3113C166.944 43.2813 168.994 43.2513 171.014 43.5713C171.584 43.6613 172.174 43.7913 172.614 44.1713C173.054 44.5513 173.284 45.2313 172.994 45.9913C174.514 45.8813 176.044 45.7713 177.554 45.9913C179.064 46.2113 180.564 46.7713 181.664 47.8413C182.294 48.4613 182.764 49.2213 183.234 49.9813C184.774 52.4913 186.324 55.0013 188.144 57.8613C189.474 57.5713 191.044 57.3413 192.024 58.2813C192.744 58.9713 192.874 60.0513 192.974 61.0513C193.234 63.8313 193.454 66.6113 193.354 69.5013C193.604 70.5113 192.954 71.5613 192.084 72.1013C191.214 72.6413 190.144 72.7713 189.124 72.8413C185.984 73.0513 182.804 72.8413 179.774 72.7113C178.484 70.3713 175.984 68.7513 173.334 68.5413C170.684 68.3313 167.964 69.5313 164.974 71.4913L164.964 71.4613Z" fill="#CCCBCB"/>
<path d="M172.094 83.9813C176.059 83.9813 179.274 80.7353 179.274 76.7313C179.274 72.7272 176.059 69.4813 172.094 69.4813C168.128 69.4813 164.914 72.7272 164.914 76.7313C164.914 80.7353 168.128 83.9813 172.094 83.9813Z" fill="#CCCBCB"/>
<path d="M15.9838 109.691C13.7538 107.171 13.2038 103.271 14.6538 100.221C16.1038 97.1713 19.4538 95.1513 22.7238 95.8113C23.5138 98.2513 24.0338 100.111 24.2438 102.861C28.1938 104.501 32.8538 104.981 36.6638 103.041C40.4738 101.101 43.0238 97.3713 43.9038 93.4913C42.2838 91.8313 41.3138 89.7913 41.3238 87.4813C45.1538 87.2313 47.8838 85.9413 50.9238 83.3313C54.6938 84.7813 57.9838 89.0813 58.1038 93.0013C70.4538 90.1213 83.1438 88.6912 95.5038 88.6313C97.7438 85.1012 101.564 82.8413 105.554 81.6613C109.544 80.4813 113.744 80.2913 117.894 80.1013C119.844 80.0113 121.844 79.9313 123.714 80.5313C125.584 81.1313 127.304 82.5612 127.874 84.0212C144.574 84.5012 161.374 84.9713 177.914 82.6213C194.464 80.2713 210.894 74.9213 224.244 64.7813C225.924 63.5013 230.304 60.8913 232.384 60.5613C238.994 59.5213 248.174 74.6812 245.684 81.7013C244.564 84.8512 241.344 88.7913 238.754 90.8913C224.564 102.451 206.424 107.661 188.664 111.851C166.434 117.091 145.914 115.341 119.944 118.321C119.994 118.201 108.394 140.041 98.9138 151.601C106.414 163.461 118.044 172.611 131.274 177.061C129.464 179.481 127.094 181.481 123.804 183.341C95.2638 183.241 66.7238 183.141 38.0038 184.181C35.3338 181.101 33.2638 177.491 31.5038 173.751C18.5038 170.501 7.72383 159.531 4.60383 146.391C1.48383 133.251 6.18383 118.541 16.0438 109.401C16.0438 109.491 16.0238 109.571 15.9638 109.671L15.9838 109.691Z" fill="#848585"/>
<path d="M9.03366 56.7412C11.5537 55.8713 14.3837 56.2912 16.7737 57.4712C19.1637 58.6512 21.1937 60.4612 23.5837 62.5112C21.4937 59.3512 20.1337 55.7112 19.6137 51.9512C19.4437 50.6912 19.3837 49.3212 20.0637 48.2612C21.5137 46.0012 24.9237 46.3313 27.1237 44.8113C32.9937 40.7612 32.8237 41.1013 40.0137 44.2413C44.2537 46.7913 47.0637 43.7413 51.1037 43.3113C53.0537 43.1013 55.0237 42.8913 56.8737 42.2213C58.7237 41.5513 60.4537 40.3713 61.4137 38.6513C63.1037 35.6013 63.8037 32.6912 60.4937 32.1012C57.0837 31.4912 57.5337 24.8712 53.5337 25.3112C50.0937 25.6912 49.8737 18.9313 43.4137 20.1213C39.6637 20.8113 36.6637 16.1112 34.2937 14.8112C31.8937 13.4912 22.3337 16.3112 19.2437 21.4012C15.9337 26.8512 17.8937 28.0612 10.6837 30.3312C9.27366 30.7812 8.35366 31.6613 7.19366 32.5813C6.03366 33.5013 5.09366 34.8812 5.17366 36.3712C5.24366 37.6012 5.99366 38.7612 5.84366 39.9812C5.59366 42.0212 3.16366 42.8713 1.73366 44.3313C0.383663 45.7013 -0.116336 47.8612 0.493664 49.7012C1.10366 51.5412 2.79366 52.9512 4.69366 53.2312C3.57366 54.2812 2.43366 55.3512 1.70366 56.6912C0.973663 58.0312 0.683662 59.7312 1.35366 61.1212C2.02366 62.5112 4.91366 62.5412 4.95366 62.3712C5.30366 60.8512 6.95366 57.4712 9.04366 56.7512L9.03366 56.7412Z" fill="#848585"/>
<path d="M123.254 183.801C139.954 170.571 149.654 150.291 164.834 135.311C171.134 129.091 179.204 123.561 187.994 124.231C197.834 124.971 205.394 133.131 211.194 141.191C218.764 151.711 225.164 163.031 231.544 174.331C234.014 176.081 235.514 178.751 236.184 181.621C224.124 183.451 212.214 184.191 200.414 183.361C198.264 181.801 189.924 176.841 188.264 174.621C186.184 178.161 183.844 181.931 182.514 184.201C164.264 184.281 142.514 184.211 123.244 183.811L123.254 183.801Z" fill="#CCCBCB"/>
<path d="M20.3137 112.031C16.7537 115.911 15.5337 121.411 15.1137 126.671C14.4137 135.411 15.6037 144.411 19.3937 152.301C23.1937 160.191 29.7337 166.871 37.8637 169.961C47.8837 173.771 59.0337 171.931 69.6937 169.961C70.0937 169.921 70.4837 169.881 71.0437 169.691C63.2137 172.651 55.0337 174.871 46.6837 175.281C38.3337 175.691 29.7637 174.211 22.4537 170.131C12.1237 164.371 4.85368 153.371 3.53368 141.541C2.22368 129.711 7.12368 117.431 15.8137 109.371C17.0637 110.941 20.3237 112.191 20.3237 112.021L20.3137 112.031Z" fill="#6C6C6C"/>
<path d="M65.7136 104.271C71.7336 105.871 77.3936 108.851 81.8636 113.191C80.0436 115.011 78.2236 116.831 76.2236 119.161C74.1036 113.391 70.4036 108.211 65.7136 104.271Z" fill="#6C6C6C"/>
<path d="M22.3237 94.0713C11.7537 99.3713 12.7137 103.681 14.6537 107.611C16.2737 110.891 17.9837 111.461 22.3237 113.171C27.2537 115.101 32.4437 115.051 37.5937 113.821C36.3237 114.531 34.7437 113.681 34.3737 112.441C34.0037 111.201 34.5537 109.841 35.3937 108.861C36.2337 107.881 37.3437 107.181 38.3437 106.361C42.0837 103.311 43.9437 98.3413 43.9037 93.4913C42.9137 97.4513 40.3737 101.291 36.5237 103.101C32.6737 104.911 28.9437 104.781 24.1637 102.871C24.2437 101.101 24.0337 99.3013 22.3137 94.0713H22.3237Z" fill="#6C6C6C"/>
<path d="M123.094 110.941C156.594 114.711 191.284 109.931 221.674 95.2213C227.014 92.6313 232.284 89.7013 236.554 85.5713C240.834 81.4413 244.124 77.2113 243.984 70.9513C247.204 76.0713 247.574 80.6613 242.674 86.8413C238.924 91.5813 234.044 95.2513 228.754 98.1413C195.754 116.161 157.454 119.241 119.944 118.341C121.354 115.241 123.634 110.691 123.084 110.951L123.094 110.941Z" fill="#6C6C6C"/>
<path d="M23.4937 62.4213C21.0137 59.0713 17.7637 56.3113 14.0637 54.4113C12.7137 53.7213 11.1737 53.0013 10.6737 51.5613C10.1437 50.0413 11.0237 48.4313 11.7337 47.1613C11.0237 47.3213 10.3037 47.4713 9.5837 47.3813C8.8637 47.2913 8.14371 46.8813 7.8737 46.2013C7.5837 45.4813 7.8637 44.6613 8.1337 43.9313C8.7237 42.3813 9.3137 40.8313 9.8737 39.3213C9.05371 39.4313 8.2637 38.8113 7.9437 38.0413C7.6237 37.2713 7.67371 36.4013 7.80371 35.5713C8.11371 33.6013 8.9737 31.5513 10.7237 30.6013C10.7837 30.4213 10.8337 30.2513 11.0037 30.0113C9.47371 30.7013 7.96371 31.5213 6.82371 32.7613C5.68371 34.0013 4.94371 35.7013 5.21371 37.3713C5.36371 38.3213 5.8437 39.2413 5.7437 40.2113C5.6337 41.2713 4.84371 42.1313 3.99371 42.7613C3.14371 43.3913 2.1837 43.8713 1.4337 44.6313C0.0637041 46.0013 -0.386296 48.2313 0.353704 50.0313C1.0837 51.8313 2.9537 53.1013 4.7637 53.2313C3.0737 54.6313 1.69371 55.8513 0.993706 57.9513C0.793706 58.5513 0.723705 59.8713 0.863705 60.4813C1.0437 61.2813 1.7137 61.8913 2.4537 62.2313C3.1937 62.5713 4.0037 62.8713 4.9437 62.3813C6.0237 57.8913 10.0737 54.3513 17.3437 57.7813C19.1037 58.6113 21.7437 60.7713 23.5037 62.4413L23.4937 62.4213Z" fill="#6C6C6C"/>
<path d="M16.2937 73.5612C19.6437 83.0012 22.1337 92.7513 23.5537 102.721C25.6337 103.561 27.8437 104.081 30.3537 104.231C27.8737 98.2613 26.3137 91.9012 25.7937 85.5912C30.7237 86.8512 35.8237 87.6812 40.9137 87.3812C31.2837 86.8012 23.4437 83.8312 20.6337 75.9212C19.9837 74.1012 18.3837 74.1712 16.2937 73.5612Z" fill="#ACACAC"/>
<path d="M19.3636 71.2113C18.3336 71.9413 18.3636 71.8213 17.6636 71.9513C16.9636 72.0813 16.2436 72.0013 15.5336 71.8913C13.1936 71.5213 10.8136 70.7613 9.11359 69.1013C7.41359 67.4313 6.61359 64.6713 7.74359 62.5713C8.79359 60.6213 11.2436 59.7413 13.4236 60.0213C15.6036 60.3013 17.5636 61.5213 19.6236 62.8713C19.0136 59.9113 16.7036 57.3313 13.8036 56.5913C10.9036 55.8513 7.56359 57.0713 5.94359 59.6113C4.20359 62.3613 4.65359 66.1313 6.42359 68.8613C7.81359 70.9913 10.0336 72.6013 12.4836 73.2113C15.1636 73.8713 17.6536 73.2213 19.3436 71.2113H19.3636Z" fill="#ACACAC"/>
<path d="M19.8938 63.5912C18.2438 63.7112 16.6538 64.4912 15.5438 65.7212C15.0538 66.2612 14.6038 66.9212 13.9138 67.1712C12.9638 67.5012 11.9538 66.9312 11.1138 66.3812C10.1538 65.7512 9.12375 65.0412 8.74375 63.9412C8.19375 62.3312 9.42375 60.5012 11.0338 59.9612C12.6438 59.4212 14.4238 59.9012 15.9038 60.7212C17.3838 61.5412 18.6738 62.6712 19.9038 63.6012L19.8938 63.5912Z" fill="#ACACAC"/>
<path d="M25.1938 45.6512C23.1638 46.0812 20.8638 46.7012 19.9338 48.5712C19.3338 49.7612 19.4638 51.1912 19.7038 52.5012C20.2838 55.6912 21.4538 59.4512 23.2938 62.1512C21.9238 58.3612 21.9238 57.0312 21.5438 54.7312C21.1638 52.4312 21.6238 49.7212 23.5738 48.4812C25.3638 47.3512 27.7838 47.8212 29.6238 46.7612C30.9938 45.9712 31.8538 44.4212 33.2838 43.7412C34.5638 43.1412 36.0738 43.3512 37.4038 43.8212C38.7338 44.2912 39.9838 44.9912 41.3438 45.3712C42.7038 45.7512 44.2638 45.7712 45.4238 45.0212C43.2138 45.6812 40.8838 44.6312 38.8238 43.5712C36.7738 42.5112 34.5138 41.3712 32.2538 41.8512C29.4138 42.4512 27.4138 45.1912 25.2038 45.6512H25.1938Z" fill="#ACACAC"/>
<path d="M48.5538 64.2113C48.7138 63.5213 48.7938 62.7713 48.5038 62.1313C48.2138 61.4913 47.4638 61.0113 46.8038 61.2513C46.3838 61.4013 46.1038 61.7813 45.8138 62.1213C44.7238 63.4013 43.2438 64.3313 41.6238 64.7513C41.5938 65.4613 42.2538 66.0113 42.9338 66.2113C43.6538 66.4213 44.4138 66.3513 45.1638 66.2713C45.6038 66.2313 46.0538 66.1813 46.4638 66.0213C47.4238 65.6313 47.9938 64.6713 48.5538 64.2213V64.2113Z" fill="#ACACAC"/>
<path d="M91.0236 72.0812C93.4436 77.3012 96.5336 80.7513 100.854 83.6613C103.574 82.2313 105.924 81.4812 107.844 81.1012C106.514 80.6812 105.394 79.7312 104.564 78.6012C103.554 77.2312 99.6836 71.5712 96.6236 52.1412C96.3736 50.5512 94.5436 46.7512 93.0136 46.3712C92.2736 46.7812 91.8836 47.6612 91.8336 48.5112C91.7836 49.3612 92.0136 50.2012 92.2436 51.0212C94.1636 57.9112 95.7936 64.6712 97.6536 71.3412C94.5136 72.3012 90.6836 72.0812 91.0336 72.0912L91.0236 72.0812Z" fill="#ACACAC"/>
<path d="M105.494 66.7413C104.464 61.7913 102.854 56.9713 100.724 52.4013C99.8638 50.5613 100.474 51.1713 99.1838 48.9713C97.5538 46.2013 98.3538 43.1013 100.074 41.6113C97.4738 46.0713 106.624 56.2913 106.564 64.3313C106.564 65.3213 106.404 66.4513 105.494 66.7413Z" fill="#ACACAC"/>
<path d="M112.664 64.7612C112.554 59.1112 111.384 53.4812 109.234 48.2612C108.534 46.5612 107.724 44.8612 107.574 43.0312C107.434 41.2012 108.144 39.1512 109.864 38.4312C108.754 40.0312 108.654 42.1612 109.044 44.0712C109.434 45.9812 110.284 47.7712 110.954 49.6012C112.744 54.4612 113.354 59.7512 112.624 64.8912C112.624 64.8912 112.654 64.8812 112.654 64.7612H112.664Z" fill="#ACACAC"/>
<path d="M119.414 63.7713C118.924 58.0413 118.014 53.3913 116.224 48.1513C115.944 47.2713 115.804 45.2013 116.134 44.3013C116.464 43.4013 117.404 42.5613 118.184 42.1613C117.524 43.7313 117.484 45.5013 117.724 47.1913C117.964 48.8813 118.464 50.5213 118.834 52.1813C119.704 56.0213 119.904 60.0213 119.344 63.9213C119.344 63.9213 119.424 63.9113 119.404 63.7513L119.414 63.7713Z" fill="#ACACAC"/>
<path d="M267.854 53.6113C268.064 54.3813 267.854 55.2213 267.444 55.9013C267.034 56.5813 266.454 57.1413 265.864 57.6713C264.134 59.2313 262.304 60.6813 260.374 61.9913C258.814 63.0513 257.184 64.0413 255.384 64.6013C253.584 65.1613 251.604 65.2613 249.774 64.4813C250.034 65.7613 251.224 66.6913 252.494 66.9613C253.764 67.2313 255.074 66.9413 256.304 66.5313C259.914 65.3113 263.084 62.9913 265.784 60.2713C266.684 59.3713 267.554 58.3913 268.034 57.2013C268.514 56.0113 268.554 54.5813 267.844 53.6113H267.854Z" fill="#ACACAC"/>
<path d="M245.974 59.7713C249.534 60.2913 253.194 59.1413 256.224 57.1913C259.254 55.2413 261.734 52.5213 263.984 49.6913C264.694 48.8013 265.404 47.8713 265.774 46.7913C266.144 45.7113 266.124 44.2813 265.464 43.3913C266.744 44.8813 267.454 48.1913 266.554 51.2313C266.164 52.5313 264.814 53.8513 263.384 55.1313C260.194 57.9913 256.414 60.1713 252.384 61.5713C251.214 61.9713 249.984 62.3213 248.754 62.1313C247.524 61.9413 246.334 61.1113 245.964 59.7813L245.974 59.7713Z" fill="#ACACAC"/>
<path d="M244.104 52.0413C244.334 52.4313 244.794 52.6313 245.244 52.6613C245.694 52.6913 246.134 52.5612 246.564 52.4212C252.834 50.4212 258.314 45.9713 261.584 40.2113C262.274 39.0013 262.864 37.7313 263.174 36.3713C263.484 35.0113 263.474 33.5613 263.124 32.2513C263.654 33.1013 263.844 34.1213 263.954 35.1213C264.184 37.2113 264.404 39.4913 263.714 41.4813C262.854 43.9513 260.814 45.9013 259.004 47.7713C257.444 49.3813 255.784 50.9112 253.884 52.1012C251.984 53.2913 249.844 54.1313 247.624 54.2913C246.824 54.3513 245.984 54.3113 245.254 53.9412C244.524 53.5712 243.954 52.8313 244.104 52.0513V52.0413Z" fill="#ACACAC"/>
<path d="M256.474 37.5813C255.114 38.2113 253.564 38.2413 252.104 38.5813C248.764 39.3613 245.884 41.9013 244.594 45.2913C245.714 43.1713 247.934 41.9013 250.104 40.9313C252.274 39.9613 254.604 39.1413 256.444 37.6513C256.444 37.6513 256.434 37.6713 256.464 37.5813H256.474Z" fill="#ACACAC"/>
<path d="M241.784 41.4313C233.024 11.5513 225.064 22.8813 225.064 22.8813C225.064 22.8813 227.264 19.0413 230.284 20.0913C232.004 20.6913 233.644 21.5113 234.924 22.8213C237.664 25.6213 240.394 30.5313 241.374 33.2313C242.064 35.1313 242.744 36.5413 242.764 38.5613C242.784 40.5813 243.184 40.7013 241.784 41.4313Z" fill="#ACACAC"/>
<path d="M182.524 184.191C186.104 181.101 186.894 178.381 188.404 174.771C191.374 178.441 196.154 180.631 200.134 183.591C203.504 183.711 207.774 183.641 211.894 183.641C204.584 179.771 198.734 173.221 195.614 165.511C195.044 164.091 194.544 162.611 193.614 161.401C192.684 160.191 191.204 159.271 189.704 159.501C182.714 169.281 174.094 177.351 164.304 184.181C174.504 184.181 176.894 184.121 182.524 184.181V184.191Z" fill="#ACACAC"/>
<path d="M95.7237 88.5713C92.2937 98.3013 87.1937 107.521 80.1537 115.011C73.1137 122.501 64.0537 128.211 54.0737 130.501C50.4037 131.341 46.5637 131.711 42.8937 130.901C39.2237 130.091 35.7137 127.991 33.7837 124.731" stroke="#5D5D5D" stroke-width="0.42" stroke-miterlimit="10"/>
<path d="M121.624 114.761C125.544 104.931 127.684 94.3913 127.904 83.7913" stroke="#5D5D5D" stroke-width="0.42" stroke-miterlimit="10"/>
<path d="M31.7136 174.271C56.0636 178.411 82.2336 169.331 98.9136 150.951" stroke="#5D5D5D" stroke-width="0.42" stroke-miterlimit="10"/>
<path d="M75.8338 118.331C73.9838 112.651 70.2638 107.601 65.4038 104.171" stroke="#5D5D5D" stroke-width="0.42" stroke-miterlimit="10"/>
<path d="M58.3037 93.0813C59.7037 111.901 28.9537 121.311 16.0737 109.421" stroke="#5D5D5D" stroke-width="0.42" stroke-miterlimit="10"/>
<path d="M99.0137 48.6313C102.214 55.1313 104.164 59.9913 105.444 67.1313" stroke="#808080" stroke-width="0.42" stroke-miterlimit="10"/>
<path d="M41.3238 87.4812C37.9238 87.1012 34.5038 86.7112 31.2538 85.6312C28.0038 84.5512 24.9138 82.7012 22.9138 79.9012" stroke="#808080" stroke-width="0.42" stroke-miterlimit="10"/>
<path d="M16.1638 73.2113C18.9838 72.0913 21.2738 69.7213 22.3138 66.8513" stroke="#808080" stroke-width="0.42" stroke-miterlimit="10"/>
<path d="M8.28377 64.1613C7.90377 62.9113 8.60377 61.5012 9.70377 60.8012C10.8038 60.1012 12.1838 60.0113 13.4638 60.2213C16.1438 60.6713 18.4438 62.3213 20.6338 63.9313" stroke="#808080" stroke-width="0.42" stroke-miterlimit="10"/>
<path d="M12.8938 67.7512C12.9338 66.2912 13.6038 64.8512 14.6938 63.9012C15.7838 62.9512 17.2938 62.4712 18.7338 62.6412" stroke="#808080" stroke-width="0.42" stroke-miterlimit="10"/>
<path d="M108.084 45.4012C110.964 52.3212 112.264 57.6812 112.554 65.1812" stroke="#808080" stroke-width="0.42" stroke-miterlimit="10"/>
<path d="M115.614 46.2413C117.684 52.5813 118.994 57.4513 119.284 64.0413" stroke="#808080" stroke-width="0.42" stroke-miterlimit="10"/>
<path d="M97.6538 71.3713C97.9638 73.3513 98.1938 72.7713 97.6938 74.7113" stroke="#808080" stroke-width="0.42" stroke-miterlimit="10"/>
<path d="M263.854 41.4012C261.154 46.5412 256.814 50.7812 251.634 53.3312C249.744 54.2612 247.454 54.9612 245.594 53.9612C243.484 52.8312 242.904 49.8612 243.744 47.6012C244.584 45.3412 245.144 44.0012 247.044 42.5412C249.024 41.0312 252.114 40.9212 256.744 37.3712" stroke="#808080" stroke-width="0.42" stroke-miterlimit="10"/>
<path d="M266.414 51.8513C258.314 61.1413 250.214 62.9313 247.914 61.9013C246.564 61.3013 245.744 59.8013 245.684 58.3113C245.624 56.8213 246.204 55.3713 247.044 54.1513" stroke="#808080" stroke-width="0.42" stroke-miterlimit="10"/>
<path d="M268.454 57.1013C262.294 65.5713 254.694 67.3913 252.734 67.1213C250.564 66.8213 248.914 64.4713 249.344 62.3113" stroke="#808080" stroke-width="0.42" stroke-miterlimit="10"/>
<path d="M256.764 70.5713C255.684 71.3013 254.144 70.8813 253.214 69.9713C252.284 69.0613 251.804 67.7813 251.364 66.5513" stroke="#808080" stroke-width="0.42" stroke-miterlimit="10"/>
<path d="M242.644 37.5813C243.174 39.4613 242.644 41.0313 242.644 41.0313" stroke="#808080" stroke-width="0.42" stroke-miterlimit="10"/>
<path d="M42.7437 55.3613C42.6737 56.4413 43.3237 57.4513 44.1237 58.1613C44.9237 58.8713 45.8837 59.3813 46.7437 60.0313C47.6037 60.6813 48.3937 61.5213 48.6037 62.5813C48.9037 64.0813 47.8737 65.6513 46.4737 66.2413" stroke="#808080" stroke-width="0.42" stroke-miterlimit="10"/>
<path d="M46.5337 53.8312C48.0737 51.6812 50.7137 50.3812 53.3437 50.4712" stroke="#808080" stroke-width="0.42" stroke-miterlimit="10"/>
<path d="M28.1936 56.6312C29.1336 55.6312 30.4736 55.0212 31.8436 54.9812C33.2136 54.9412 34.5836 55.4712 35.5836 56.4212" stroke="#808080" stroke-width="0.42" stroke-miterlimit="10"/>
<path d="M46.7336 53.5513C48.2736 52.1513 50.6436 51.7413 52.5636 52.5613" stroke="#808080" stroke-width="0.42" stroke-miterlimit="10"/>
<path d="M35.6438 56.3813C33.2438 55.7013 30.4838 56.5813 28.9038 58.5313" stroke="#808080" stroke-width="0.42" stroke-miterlimit="10"/>
<path d="M39.1836 72.8113C44.3436 73.6813 49.8736 71.9313 53.4636 68.2613C52.2436 70.6313 49.7236 72.1013 47.1336 72.6813C44.5436 73.2513 41.8536 73.0613 39.1836 72.8113Z" fill="#808080"/>
<path d="M44.8137 76.1313C46.8737 77.1113 49.5137 76.7213 51.2037 75.1713" stroke="#808080" stroke-width="0.42" stroke-miterlimit="10"/>
<path d="M193.264 68.9512C190.374 68.9512 187.504 69.3412 184.614 69.4212C181.724 69.5012 178.774 69.2612 176.134 68.0812C174.814 67.4912 173.514 66.6512 172.064 66.6512C170.814 66.6512 169.664 67.2912 168.624 67.9812C167.334 68.8312 166.114 69.7912 165.074 70.8212C164.864 71.2012 164.794 71.6612 164.974 72.1812C167.184 70.4112 169.604 68.5612 172.424 68.4412C174.714 68.3412 177.014 69.5112 178.294 71.4312C178.654 71.9612 178.964 72.5712 179.534 72.8712C179.964 73.1012 180.474 73.1012 180.964 73.0912C184.244 73.0512 187.524 73.0212 190.804 72.9812C191.444 72.9812 192.124 72.9512 192.644 72.5912C193.194 72.2012 193.454 71.5012 193.474 70.8212C193.494 70.1412 193.294 69.4812 193.264 68.9512Z" fill="#808080"/>
<path d="M172.094 80.2113C173.999 80.2113 175.544 78.6532 175.544 76.7313C175.544 74.8093 173.999 73.2513 172.094 73.2513C170.188 73.2513 168.644 74.8093 168.644 76.7313C168.644 78.6532 170.188 80.2113 172.094 80.2113Z" fill="#808080"/>
<path d="M176.704 69.7212C176.234 69.7212 175.704 69.9212 175.394 70.3012C174.814 70.0112 174.484 69.8712 173.934 69.7312C174.064 69.5612 174.174 69.3312 174.294 69.1612C174.414 68.9912 174.594 68.8412 174.804 68.8212C174.934 68.8112 175.074 68.8512 175.194 68.9012C175.734 69.1212 176.244 69.4312 176.714 69.7212H176.704Z" fill="#808080"/>
<path d="M174.934 68.8312C173.714 68.2512 172.264 68.1913 171.004 68.6613C170.734 68.8413 170.664 69.3012 170.854 69.6312C171.894 69.4712 173.064 69.4112 174.314 69.8312C174.404 69.3812 174.464 68.9512 174.934 68.8312Z" fill="#818282"/>
<path d="M183.634 50.5813C180.844 50.4913 178.044 50.4013 175.254 50.3013C174.944 50.2913 174.594 50.2913 174.344 50.4813C174.064 50.7013 173.994 51.0913 173.964 51.4513C173.844 52.9813 173.804 54.5713 174.304 56.0213C174.434 56.4013 177.384 58.6413 178.164 58.0913C178.374 57.9413 184.704 58.1213 188.124 57.8313C187.724 57.2013 184.554 52.4213 183.624 50.5713L183.634 50.5813Z" fill="#818282"/>
<path d="M173.074 46.0213C171.564 45.9413 170.054 45.8513 168.554 45.7813C167.834 45.4113 167.194 44.9913 166.644 44.5313C168.444 44.4413 170.274 44.5613 171.994 44.8813C172.284 44.9313 172.594 45.0013 172.794 45.1413C173.124 45.3713 173.054 45.7113 173.074 46.0213Z" fill="#818282"/>
<path d="M177.364 17.9613L177.564 17.6413L177.364 17.9613Z" fill="#818282"/>
<path d="M193.234 64.3713C192.924 64.4013 187.764 64.4713 187.754 64.4413C187.734 64.3513 186.204 66.9613 186.254 66.9713C186.304 66.9813 186.884 67.1213 187.204 67.2013C187.294 67.2213 193.174 67.2413 193.354 67.1313C193.324 67.1013 193.264 64.4113 193.234 64.3713Z" fill="#AFAFAF"/>
<path d="M192.904 60.5612L190.024 60.8012C189.784 60.8212 189.534 60.8412 189.324 60.9612C189.044 61.1212 188.874 61.4112 188.724 61.6912C188.494 62.1012 188.274 62.5112 188.044 62.9112C187.994 63.0012 187.944 63.1112 187.984 63.2112C188.034 63.3512 188.224 63.3612 188.374 63.3512C189.954 63.2312 191.534 63.1112 193.124 63.0112C193.194 62.9712 192.914 60.6412 192.904 60.5612Z" fill="#AFAFAF"/>
<g style="mix-blend-mode:multiply" opacity="0.14">
<path d="M168.244 43.4213C169.524 44.2613 169.404 46.2013 170.254 47.4813C171.034 48.6613 172.534 49.1213 173.934 49.3213C175.334 49.5213 176.804 49.5713 178.034 50.2713C179.854 51.2913 180.264 51.6613 181.014 53.6213C181.764 55.5813 181.014 58.0313 181.014 58.0313C181.014 58.0313 190.384 57.8813 186.264 66.4413C184.714 69.6713 184.204 72.3613 180.684 72.8613C180.684 72.8613 181.204 72.9113 181.344 72.9213C184.294 72.9213 187.234 72.9213 190.184 72.9213C190.944 72.9213 191.744 72.9213 192.414 72.5413C193.494 71.9513 193.914 70.4013 193.434 69.4613C193.384 66.6113 193.244 63.7613 193.014 60.9213C192.954 60.1713 192.864 59.3813 192.424 58.7813C191.934 58.1013 191.744 57.6913 190.914 57.6713C190.084 57.6513 189.624 57.4013 188.144 57.8313C187.774 57.3613 182.614 48.9713 182.444 48.7413C179.874 45.1713 175.354 45.8613 173.084 46.0113C172.954 46.0113 173.324 45.3113 172.914 44.4913C172.334 43.3413 168.824 43.3313 167.994 43.2713C167.994 43.2513 167.994 43.2413 168.254 43.4113L168.244 43.4213Z" fill="#484747"/>
</g>
<g style="mix-blend-mode:hard-light" opacity="0.28">
<path d="M25.5938 21.4013C26.7638 23.0813 28.8938 23.7113 30.7838 24.4913C32.6738 25.2713 34.6738 26.6213 34.8538 28.6713C34.9338 29.5413 34.6538 30.4413 34.9038 31.2813C35.3038 32.6213 36.8238 33.2013 38.1338 33.6513C39.4438 34.1013 40.9438 34.8313 41.1438 36.2113C41.3938 37.9113 39.4438 39.1413 37.7338 39.2413C36.0338 39.3413 34.2738 38.8413 32.6438 39.3613C30.5638 40.0213 29.2638 42.2613 29.1538 44.4513C29.0438 46.6413 29.9238 48.7813 31.0538 50.6513C32.1838 52.5313 33.5738 54.2413 34.6538 56.1513C37.4838 61.1513 38.0038 67.1413 37.9838 72.9013C37.9738 75.4413 37.8638 78.0413 36.9538 80.4113C36.0438 82.7813 34.2138 84.9213 31.5738 85.9313C31.9238 91.7513 34.6138 97.3913 38.5738 101.321C41.1338 100.351 44.2538 101.131 46.0738 103.201C47.8938 105.271 48.2938 108.481 47.3938 111.961C51.7438 118.501 57.9838 123.751 64.5038 127.031C57.8738 130.131 50.4838 131.591 43.9238 132.991C53.0538 148.661 70.2038 159.261 87.8338 161.081C95.8738 174.161 110.984 182.501 125.614 182.871C135.664 184.771 145.944 179.821 153.474 172.841C161.004 165.861 166.454 156.961 172.684 148.771C176.304 144.011 180.614 139.201 186.404 137.851C192.194 136.501 199.454 140.451 199.824 146.471C202.424 152.031 206.664 156.801 212.834 160.201C215.244 161.061 217.714 161.921 220.264 161.921C221.544 161.921 222.854 161.671 224.024 161.141C220.014 154.321 215.834 147.601 211.224 141.191C206.634 134.811 200.924 128.381 193.864 125.611C189.404 125.451 184.934 125.291 180.474 125.131C174.634 126.901 169.304 130.931 164.854 135.321C152.114 147.891 143.234 164.181 130.844 176.921C117.794 172.411 106.354 163.351 98.9438 151.621C108.424 140.061 120.024 118.211 119.974 118.341C120.004 118.341 120.024 118.341 120.054 118.341C120.284 117.231 120.764 116.171 121.224 115.131C123.314 110.391 124.994 105.471 126.644 100.251C167.134 103.991 208.884 91.6013 241.384 66.1513C243.844 65.4113 246.094 63.9513 248.344 61.7813C255.364 60.0513 261.744 55.8213 266.114 50.0113C266.394 49.6413 266.674 49.2613 266.984 48.8913C266.994 48.5713 267.004 48.2613 266.984 47.9513C266.984 47.8913 266.984 47.8313 266.984 47.7713C266.984 47.7413 266.984 47.7213 266.984 47.6913C266.864 45.9013 266.294 44.3113 265.514 43.4013C265.534 43.4313 265.554 43.4713 265.574 43.5013C265.104 42.7613 264.514 42.1013 263.824 41.5513C263.844 41.5013 263.874 41.4613 263.894 41.4213L263.794 41.3613C264.434 39.4013 264.214 37.1813 263.994 35.1313C263.884 34.1513 263.704 33.1613 263.194 32.3213C262.444 30.6213 261.214 29.1513 259.534 28.4313C256.434 27.1013 252.824 28.6713 250.234 30.8513C247.654 33.0213 245.574 35.8013 242.714 37.5713C242.524 36.1113 242.004 34.9113 241.464 33.4313C241.454 33.4013 241.444 33.3713 241.434 33.3413C241.424 33.3113 241.414 33.2813 241.404 33.2613C241.324 33.0413 241.224 32.8013 241.124 32.5513C240.394 30.7513 239.494 29.0513 238.454 27.4713C237.394 25.7713 236.174 24.1013 234.954 22.8513C233.974 21.8513 232.774 21.1313 231.494 20.5813C231.434 20.5513 231.374 20.5313 231.314 20.5113C230.984 20.3713 230.644 20.2413 230.314 20.1213C227.304 19.0613 225.094 22.9113 225.094 22.9113C225.094 22.9113 225.094 22.9113 225.094 22.9013C224.924 23.1613 224.754 23.4213 224.594 23.6813C223.664 25.2013 222.724 26.9313 223.044 28.6913C223.354 30.3513 224.694 31.5813 225.884 32.7713C229.984 36.8913 233.024 42.0813 234.614 47.6913C232.874 51.6713 232.884 56.4813 234.454 60.7413C233.754 60.5413 233.064 60.4813 232.394 60.5913C230.314 60.9213 225.934 63.5313 224.254 64.8113C210.904 74.9513 194.474 80.3013 177.924 82.6513C177.234 82.7513 176.554 82.8313 175.864 82.9213C177.914 81.6413 179.284 79.3613 179.284 76.7513C179.284 73.3113 176.914 70.4413 173.724 69.7013C173.794 69.7213 173.864 69.7213 173.944 69.7413C174.004 69.7513 174.054 69.7713 174.104 69.7813C174.174 69.8013 174.244 69.8213 174.314 69.8413C174.664 69.9513 174.964 70.0913 175.394 70.3013C175.684 69.9513 176.174 69.7513 176.624 69.7313C177.274 70.2013 177.854 70.7713 178.304 71.4413C178.664 71.9713 178.974 72.5813 179.544 72.8813C179.974 73.1113 180.484 73.1113 180.974 73.1013C184.254 73.0613 187.534 73.0313 190.814 72.9913C191.454 72.9913 192.134 72.9613 192.654 72.6013C193.034 72.3313 193.274 71.9213 193.394 71.4613C193.694 70.8013 193.724 70.0313 193.444 69.4813C193.424 68.4813 193.394 67.4913 193.354 66.5013C193.344 66.1113 193.324 65.7213 193.304 65.3313C193.304 65.1613 193.284 65.0013 193.274 64.8313C193.274 64.6013 193.254 64.4413 193.244 64.3913C193.184 63.2413 193.104 62.0913 193.004 60.9413C192.944 60.2113 192.864 59.4513 192.454 58.8513C192.364 58.6913 192.264 58.5413 192.144 58.4113C191.824 57.9713 191.564 57.7013 190.904 57.6813C190.564 57.6013 190.204 57.5813 189.834 57.5913C189.414 57.5713 188.914 57.6113 188.134 57.8413C186.524 55.3113 185.134 53.0513 183.764 50.8313C183.714 50.7413 183.674 50.6613 183.634 50.5813H183.614C183.484 50.3713 183.364 50.1713 183.234 49.9613C182.984 49.5613 182.734 49.1613 182.464 48.7813C182.464 48.7713 182.444 48.7513 182.444 48.7513C182.364 48.6413 182.274 48.5313 182.194 48.4213C182.024 48.2113 181.854 48.0113 181.664 47.8213C181.204 47.3713 180.664 47.0113 180.094 46.7313C180.004 46.6913 179.914 46.6413 179.824 46.6013C179.794 46.5813 179.754 46.5713 179.724 46.5513C179.034 46.2513 178.314 46.0713 177.604 45.9713C177.594 45.9713 177.584 45.9713 177.564 45.9713C177.534 45.9713 177.504 45.9713 177.474 45.9613C177.384 45.9513 177.294 45.9413 177.194 45.9313C175.834 45.7813 174.454 45.8713 173.084 45.9713C173.084 45.9113 173.084 45.8413 173.084 45.7713C173.084 45.7513 173.084 45.7213 173.084 45.6913C173.184 45.2313 173.104 44.8113 172.904 44.4913C172.904 44.4913 172.904 44.4913 172.904 44.4813C172.854 44.3813 172.774 44.2913 172.684 44.2113C172.664 44.1913 172.644 44.1713 172.624 44.1513C172.604 44.1413 172.584 44.1213 172.574 44.1113C172.154 43.7813 171.614 43.6513 171.094 43.5713C169.924 43.3413 168.564 43.3113 168.044 43.2813C168.054 43.2813 168.074 43.2913 168.084 43.3013C167.034 43.2713 165.974 43.2813 164.924 43.3013C164.944 52.3713 164.964 61.7213 164.984 71.0713C164.874 71.4013 164.854 71.7713 164.984 72.1813C166.754 70.7613 168.654 69.3013 170.794 68.7113C170.864 68.6913 170.934 68.6813 171.004 68.6713C170.744 68.8413 170.674 69.2813 170.844 69.6013C167.474 70.2013 164.914 73.1613 164.914 76.7313C164.914 79.8913 166.924 82.5713 169.724 83.5613C155.854 84.8113 141.844 84.4213 127.904 84.0213C127.904 83.9413 127.904 83.8613 127.904 83.7813L127.864 84.0013C127.354 82.7313 125.984 81.4813 124.404 80.7913C127.764 70.1013 127.304 58.4213 124.494 47.5513C124.114 46.0713 123.664 44.5613 122.714 43.3813C121.754 42.2013 120.154 41.4213 118.714 41.8613C118.214 42.0113 117.784 42.2913 117.414 42.6613C116.874 43.0913 116.364 43.6713 116.144 44.2913C115.934 44.8813 115.914 45.9513 116.014 46.8713C116.014 47.0713 116.014 47.2613 116.034 47.4613C115.904 47.0513 115.774 46.6413 115.634 46.2213V46.2713C115.194 44.4013 114.544 42.5713 113.724 40.8213C113.284 39.8813 112.734 38.8913 111.794 38.4813C111.174 38.2113 110.474 38.2413 109.844 38.4813C109.864 38.4613 109.874 38.4313 109.894 38.4113C109.544 38.5513 109.244 38.7513 108.974 38.9913C108.884 39.0613 108.804 39.1413 108.724 39.2213C107.944 40.0313 107.604 41.1913 107.564 42.3113C107.524 43.4413 107.744 44.5513 107.974 45.6613C106.984 43.5313 105.644 41.9213 103.844 41.2213C102.894 40.8513 101.804 40.7413 100.864 41.1313C100.094 41.4513 99.5038 42.0613 99.1038 42.8013C98.2538 44.2413 97.9938 46.2313 98.7938 48.1513C98.8438 48.4013 98.8938 48.6413 98.9438 48.8913C98.0738 47.4413 97.2238 46.4013 96.0638 45.9113C94.9038 45.4213 93.4138 45.6113 92.6238 46.5913C92.5238 46.7113 92.4538 46.8313 92.3838 46.9613C92.0638 47.4013 91.8838 47.9613 91.8538 48.5113C91.8038 49.3613 92.0338 50.2013 92.2638 51.0213C94.1838 57.9113 95.8138 64.6713 97.6738 71.3413C97.6138 71.3613 97.5538 71.3713 97.5038 71.3913C95.3538 72.0113 92.9138 72.1013 91.7438 72.1013C91.5138 72.1013 91.2838 72.1013 91.0538 72.0813C93.4738 77.3013 96.5638 80.7513 100.884 83.6613C100.904 83.6513 100.924 83.6413 100.944 83.6313C98.7738 84.8713 96.8738 86.5313 95.5338 88.6413C83.1738 88.6913 70.4838 90.1213 58.1338 93.0113C58.0138 89.0913 54.7338 84.7913 50.9538 83.3413C52.8438 81.6713 54.4238 79.6113 55.5538 77.3513C58.2638 71.9313 58.6438 65.5713 57.7438 59.5713C56.8638 53.7113 54.8238 48.1113 52.9738 43.0913C54.3138 42.9213 55.6438 42.6713 56.9138 42.2113C58.7638 41.5413 60.4938 40.3613 61.4538 38.6413C63.1438 35.5913 63.8438 32.6813 60.5338 32.0913C57.1238 31.4813 57.5738 24.8613 53.5738 25.3013C50.1338 25.6813 49.9138 18.9213 43.4538 20.1113C39.7038 20.8013 36.7038 16.1013 34.3338 14.8013C32.8738 14.0013 28.7938 14.7313 25.1038 16.5613C24.5938 18.2013 24.6638 20.0113 25.6238 21.4013H25.5938ZM116.074 48.5013C116.074 48.5913 116.084 48.6713 116.094 48.7613C116.064 48.5213 116.014 48.2713 115.974 48.0313L116.074 48.5013ZM112.424 80.4513C110.884 80.5913 109.354 80.7913 107.854 81.1113C107.834 81.1113 107.814 81.0913 107.794 81.0913C109.314 80.7813 110.864 80.5713 112.424 80.4613V80.4513ZM49.1938 84.6913C47.6338 85.7913 46.0938 86.5513 44.3638 87.0013C46.0838 86.5113 47.7138 85.7213 49.1938 84.6913Z" fill="#FFF100"/>
</g>
<path d="M39.1836 0.521257C66.5436 -0.168743 94.2636 -0.178743 121.624 0.521257C94.2636 1.22126 66.5436 1.21126 39.1836 0.521257Z" fill="#FAE924"/>
<path d="M44.3638 17.6413C48.6538 17.2413 53.1438 17.1613 57.4638 17.1313C61.7838 17.1513 66.2638 17.2313 70.5638 17.6413C66.2738 18.0513 61.7838 18.1213 57.4638 18.1513C53.1438 18.1213 48.6638 18.0513 44.3638 17.6413Z" fill="#FAE924"/>
<path d="M175.534 25.0613C178.964 24.6613 182.544 24.5813 186.004 24.5513C189.464 24.5713 193.044 24.6513 196.474 25.0613C193.044 25.4713 189.464 25.5413 186.004 25.5713C182.544 25.5413 178.964 25.4713 175.534 25.0613Z" fill="#FAE924"/>
<path d="M170.744 35.5813C185.264 34.8913 200.004 34.8813 214.524 35.5813C200.004 36.2813 185.264 36.2713 170.744 35.5813Z" fill="#FAE924"/>
<path d="M217.324 7.26125C231.104 6.57125 245.084 6.56125 258.864 7.26125C245.084 7.96125 231.104 7.95125 217.324 7.26125Z" fill="#FAE924"/>
<path d="M233.944 14.4813C238.454 14.0813 243.154 14.0013 247.684 13.9713C252.214 13.9913 256.914 14.0713 261.424 14.4813C256.924 14.8913 252.214 14.9613 247.684 14.9913C243.154 14.9613 238.454 14.8913 233.944 14.4813Z" fill="#FAE924"/>
<path d="M61.0938 51.6613C65.2937 50.9713 69.5938 50.9613 73.7838 51.6613C69.5838 52.3613 65.2838 52.3513 61.0938 51.6613Z" fill="#FAE924"/>
<path d="M61.0938 25.0613C64.3637 24.3713 67.7738 24.3613 71.0438 25.0613C67.7738 25.7613 64.3637 25.7513 61.0938 25.0613Z" fill="#FAE924"/>
<path d="M61.0938 74.7113C64.3637 74.0213 67.7738 74.0113 71.0438 74.7113C67.7738 75.4113 64.3637 75.4013 61.0938 74.7113Z" fill="#FAE924"/>
<path d="M75.3738 79.9013C77.9338 79.5013 80.6138 79.4213 83.2038 79.3913C85.8238 79.4013 88.4338 79.4913 91.0338 79.9013C88.4338 80.3013 85.8238 80.3913 83.2038 80.4113C80.6138 80.3813 77.9338 80.3113 75.3738 79.9013Z" fill="#FAE924"/>
<path d="M134.304 124.181C139.824 123.781 145.594 123.701 151.144 123.671C156.694 123.691 162.454 123.771 167.984 124.181C162.464 124.591 156.694 124.661 151.144 124.691C145.594 124.661 139.834 124.591 134.304 124.181Z" fill="#FAE924"/>
<path d="M222.964 106.771C227.994 106.371 233.244 106.291 238.294 106.261C243.344 106.281 248.594 106.361 253.624 106.771C248.594 107.181 243.344 107.251 238.294 107.281C233.244 107.251 227.994 107.181 222.964 106.771Z" fill="#FAE924"/>
<path d="M214.514 111.261C228.294 110.571 242.264 110.561 256.044 111.261C242.264 111.961 228.294 111.951 214.514 111.261Z" fill="#FAE924"/>
<path d="M121.624 145.191C124.334 144.791 127.164 144.711 129.894 144.681C132.664 144.691 135.414 144.781 138.164 145.191C135.414 145.591 132.654 145.681 129.894 145.701C127.164 145.671 124.334 145.601 121.624 145.191Z" fill="#FAE924"/>
<path d="M110.244 150.951C112.944 150.551 115.774 150.471 118.504 150.441C121.264 150.451 124.014 150.541 126.764 150.951C124.024 151.351 121.264 151.441 118.504 151.461C115.774 151.431 112.954 151.361 110.244 150.951Z" fill="#FAE924"/>
<path d="M85.0037 4.03126C114.244 3.34126 143.824 3.34126 173.074 4.03126C143.834 4.72126 114.254 4.72126 85.0037 4.03126Z" fill="#FAE924"/>
</svg>
