<svg width="270" height="185" viewBox="0 0 179 290" fill="none" xmlns="http://www.w3.org/2000/svg">
<path d="M106.78 289.532C142.524 289.532 171.5 283.08 171.5 275.122C171.5 267.163 142.524 260.712 106.78 260.712C71.0362 260.712 42.0601 267.163 42.0601 275.122C42.0601 283.08 71.0362 289.532 106.78 289.532Z" fill="#7E8185"/>
<path d="M108.16 281.272C142.501 281.272 170.34 276.669 170.34 270.992C170.34 265.314 142.501 260.712 108.16 260.712C73.8189 260.712 45.98 265.314 45.98 270.992C45.98 276.669 73.8189 281.272 108.16 281.272Z" fill="#B0B3BA"/>
<path d="M128.44 65.9717C144.68 117.782 149.55 140.332 152.41 156.572C155.5 174.162 116.76 168.762 100.31 165.102C90.0201 162.812 72.55 177.472 65.52 170.382C52 156.742 80.0201 86.1116 79.3301 86.6416C40.6401 116.652 23.9 88.1916 14.27 63.0616C23.32 64.5316 32.9701 61.6716 39.7601 55.3116C39.7301 55.3316 39.7 55.3417 39.92 55.5917C49.42 91.1117 60.5801 54.8916 93.4401 58.9116C99.1201 59.6116 97.6401 64.9216 103.32 65.6116C115.83 67.1416 120.54 66.4217 125.47 63.4717" fill="#91969B"/>
<path d="M19.91 57.3716C13.37 55.9816 8.96003 49.9317 6.13003 43.9117C3.32003 37.9417 1.42003 31.5416 0.500026 25.0016C0.340026 23.8516 0.229992 22.6017 0.839992 21.6017C1.44999 20.6017 3.09 20.2117 3.97 21.5417C3.1 19.1617 2.73002 16.6117 2.87002 14.0817C2.91002 13.3517 3.01998 12.5717 3.51998 12.0317C4.12998 11.3717 5.17004 11.2717 6.01004 11.5517C6.85004 11.8317 7.55999 12.4217 8.45999 13.8017C8.13999 11.6417 8.67 9.36167 9.91 7.54167C10.4 6.82167 11.06 6.14163 11.92 6.00163C13.32 5.77163 14.46 7.05164 15.16 8.26164C15.96 9.63164 16.59 11.1116 17.41 13.2416C18.05 11.0716 19.44 8.69164 21.71 8.51164C23.27 8.39164 24.73 9.45166 25.53 10.7817C26.33 12.1117 26.62 13.6817 26.89 15.2217C28.14 22.3317 28.5 27.0917 30.2 33.1717C30.73 32.4817 31.51 29.7317 33.41 25.8117C34.75 23.0317 37.6 22.3716 39.82 24.4916C41.72 26.3016 42.96 27.8717 41.23 31.1917C38.62 36.1717 39.37 42.6116 36.83 48.3616C33.02 57.0116 25.21 58.4916 19.91 57.3616V57.3716Z" fill="#BEC0C7"/>
<path d="M72.17 145.222C58.18 187.322 55.07 223.122 73.28 252.612C74.95 255.312 98.98 251.152 98.98 251.152C98.98 251.152 79.24 193.092 106.78 163.972C106.11 155.732 111.38 142.232 109.04 137.642C102.03 123.862 74.2 153.382 72.17 145.222Z" fill="#BABCC3"/>
<path d="M111.34 158.232C107.99 134.692 139.9 138.912 140.21 139.332C143 140.502 160.64 205.992 143.55 252.972C142.69 255.342 121.03 250.112 117.59 250.892C120.13 238.642 126.87 197.242 111.34 158.232Z" fill="#BABCC3"/>
<path d="M126.42 23.6017L126.45 25.5016C127.42 24.3516 129.19 24.1617 130.51 24.8217C131.83 25.4817 132.72 26.8417 133.09 28.2817C133.46 29.7217 133.38 31.2417 133.17 32.7117C132.9 34.6017 132.4 36.5216 131.21 38.0016C130.02 39.4816 127.99 40.4017 126.19 39.8317C125.6 45.5217 121.7 50.9217 116.35 53.3017C117.18 55.2917 118.18 57.4817 119.52 59.4517C118.4 60.9817 116.21 61.4916 114.23 61.6316C108.67 62.0016 103 60.5217 98.3299 57.4617C99.9899 55.5517 100.92 53.4717 101.05 51.3417C96.6899 49.8717 93.5799 45.5417 93.0999 40.8517C91.1299 40.8117 89.2699 39.1216 88.4499 37.1216C87.6299 35.1216 87.6799 32.8717 87.9299 30.7217C88.0699 29.5217 88.2799 28.3116 88.8699 27.2616C89.4599 26.2116 90.4999 25.3517 91.6899 25.2817C92.8799 25.2117 94.1399 26.1217 94.1999 27.3217C94.5599 25.4617 94.5799 23.9217 94.4199 22.4317C98.9899 18.7717 104.86 16.8116 110.69 16.9916C116.52 17.1716 122.26 19.5016 126.52 23.5216C126.44 23.5316 126.36 23.5516 126.43 23.6216L126.42 23.6017Z" fill="#BEC0C7"/>
<path d="M95.0299 14.7716C93.9499 15.3516 92.8498 15.9416 91.9598 16.7916C91.0698 17.6416 90.3999 18.8116 90.4199 20.0516C90.4399 21.2916 91.2598 22.5516 92.4598 22.7916C93.7798 23.0616 95.0099 22.1216 96.1099 21.3316C100.24 18.3616 107.57 16.4516 112.36 17.0816C118.51 17.8816 121.1 19.5715 125.08 22.7415C126.76 24.0815 127.26 24.0115 128.86 23.7315C130.46 23.4515 131.48 21.6115 131.22 19.9915C130.96 18.3715 129.69 17.0616 128.1 16.4416C128.77 13.9616 129.42 11.2616 128.42 8.90158C127.68 7.17158 126.17 5.92161 124.67 4.81161C121.56 2.49161 118.1 0.351595 114.24 0.0415951C109.98 -0.308405 105.89 1.61156 102.05 3.50156C99.8299 4.60156 97.5499 5.76162 95.9799 7.69162C94.4099 9.62162 94.1699 9.75162 94.8499 14.8116C94.8199 14.8216 94.7799 14.8316 95.0399 14.7716H95.0299Z" fill="#91969B"/>
<path d="M36.7098 49.5616C32.8798 54.9416 21.2499 57.4916 15.0599 55.2916C13.1299 54.6016 10.8298 55.9416 10.3498 57.1216C9.56984 59.0016 10.0599 62.7716 14.6899 64.0216C16.8399 64.6016 19.0499 64.9117 21.2599 64.7217C26.4599 64.2717 31.5499 62.5316 35.9399 59.6916C37.3899 58.7516 38.7998 57.6616 39.7098 56.1916C40.6198 54.7216 40.9398 52.7717 40.1598 51.2217C39.4598 49.8217 37.4198 48.5816 36.7198 49.5616H36.7098Z" fill="#7A7E80"/>
<path d="M99.42 56.0016C99.42 56.0016 97.39 54.5516 96.21 54.8816C95.03 55.2116 93.19 56.9416 93.43 58.8816C93.85 62.3716 96.89 63.8017 101.79 65.8117C104.53 66.9417 107.51 67.3717 110.47 67.4217C114.97 67.5017 119.5 66.7317 123.64 64.9717C124.42 64.6417 125.24 64.2217 125.59 63.4417C125.91 62.7217 125.74 61.8816 125.44 61.1616C124.92 59.9316 123.96 58.8516 122.72 58.3916C121.48 57.9316 120.18 57.9816 119.27 59.0316C119.35 60.5216 117.7 60.7017 116.66 60.9317C110.62 62.2617 105.53 60.6316 99.92 57.9916C98.48 57.3116 99.43 55.9916 99.43 55.9916L99.42 56.0016Z" fill="#7A7E80"/>
<path d="M94.57 263.972C95.83 257.992 87.83 254.942 84.24 253.772C80.65 252.602 76.23 253.402 72.51 253.772C64.1 254.602 58.18 265.812 58.44 269.452C58.67 272.652 56.83 279.932 63.09 279.492C71.37 278.912 78.93 277.952 86.06 277.452C97.02 276.682 100.23 259.622 100.29 256.052C100.31 254.762 99.27 252.022 98.98 251.142C97.99 251.142 95.99 252.452 96.13 251.652C96.98 246.782 95.6 234.812 71.77 243.612C65.32 245.992 71.12 251.282 69.91 253.772" fill="#8C9095"/>
<path d="M104.05 17.7117C103.21 17.8617 102.02 16.9816 102.11 16.1216C102.2 15.2616 102.88 14.5817 103.64 14.2017C104.4 13.8217 105.25 13.6616 106.06 13.3916C107.51 12.9116 108.69 11.6916 109.59 10.7516C108.73 8.56159 109.41 6.33162 110.77 4.41162C112.13 2.49162 114.24 1.20168 116.36 0.471681C111.92 -0.808319 107.25 1.07162 103 2.91162C100.5 4.00162 97.71 5.54162 95.98 7.66162C94.14 9.92162 93.81 10.5816 94.85 14.7816C93.38 15.6816 93.04 15.8116 92.05 16.6816C91.06 17.5516 90.34 18.8116 90.4 20.1316C90.46 21.4516 91.46 22.7517 92.77 22.8517C93.95 22.9417 94.97 22.1216 95.92 21.4216C98.17 19.7716 101.18 18.5017 104.06 17.6917L104.05 17.7117Z" fill="#7D8083"/>
<path d="M102.1 65.9016C103.05 65.6116 103.5 64.4516 103.34 63.4716C103.18 62.4916 102.57 61.6516 101.99 60.8416C101.41 60.0316 102.11 59.8816 102.01 58.9516C101.66 58.8316 99.5999 57.9116 99.3199 57.5616C98.8999 57.0316 99.2298 56.5215 99.4598 55.9915C98.5798 55.3015 97.5298 54.7316 96.4198 54.7916C94.8198 54.8916 93.5199 56.3815 93.3299 57.9815C93.1399 59.5815 93.8698 61.2015 94.9698 62.3715C96.0798 63.5415 97.5198 64.3215 98.9698 64.9915C99.9698 65.4515 101.05 66.2016 102.09 65.8916L102.1 65.9016Z" fill="#7D8083"/>
<path d="M102.07 58.9816C102.16 58.2716 102.95 57.8517 103.66 57.8317C104.37 57.8117 105.07 58.0416 105.78 58.0416C106.73 58.0416 107.63 57.6516 108.44 57.1516C109.25 56.6516 109.97 56.0316 110.77 55.5216C112.31 54.5416 114.07 53.9916 115.71 53.3816C110.8 54.3916 105.57 53.7617 101 51.6017C100.94 53.1917 100.18 54.6616 99.41 56.0516C99.24 56.3516 99.0901 56.6516 99.1301 57.1216C99.1801 57.6416 99.6701 57.8616 100 58.0516C100.64 58.4316 101.32 58.7416 102.04 58.9816C102.04 58.9816 102.04 58.9816 102.07 58.9816Z" fill="#ACB0B6"/>
<path d="M93.9899 29.8416C93.3199 28.3816 92.0599 27.5415 90.8699 28.3615C90.4399 28.6615 90.1399 29.1216 89.9899 29.6216C89.5699 31.0016 89.2398 32.5416 89.6598 33.9616C90.0098 35.1316 90.9699 36.1816 92.1799 36.3116L93.9798 33.0616C92.3698 36.3216 92.2799 40.5816 93.8099 44.1816C95.3399 47.7816 98.4399 50.6716 102.13 51.9016C98.9899 49.9316 96.6099 47.0716 95.4399 43.7616C94.2699 40.4516 94.3098 36.7116 95.5498 33.4216C96.3198 31.3816 97.5399 29.4915 97.9899 27.3615C98.2099 26.3015 98.2399 25.1916 98.6299 24.1816C99.1499 22.8416 100.26 21.8116 101.46 21.0316C103.89 19.4416 106.76 18.6616 109.63 18.3716C112.51 18.0716 115.41 18.2316 118.19 18.4116C114.21 17.0016 109.86 16.6016 105.72 17.3716C98.6198 18.6916 94.7099 22.1416 94.4299 22.4716C94.4299 22.4716 94.1599 27.4317 93.9999 29.8517L93.9899 29.8416Z" fill="#ACB0B6"/>
<path d="M126.63 35.2716C126.42 33.8116 126.25 32.3116 126.51 30.8616C126.77 29.4116 127.51 27.9717 128.76 27.2117C129.34 26.8517 130.11 26.6616 130.7 27.0116C131.31 27.3616 131.52 28.1417 131.6 28.8517C131.96 32.1017 130.54 35.5016 127.99 37.5216C127.8 37.6716 127.57 37.8317 127.33 37.8117C126.82 37.7817 126.64 37.0917 126.72 36.5817C126.8 36.0717 126.96 35.4916 126.63 35.2716Z" fill="#ACB0B6"/>
<path d="M3.14996 20.8317C1.54996 20.3417 0.899985 22.7416 1.10999 24.3716C2.30999 33.8616 5.83001 43.4017 11.95 50.3217C14.56 53.2717 17.75 55.2216 21.18 55.9816C17.66 56.7516 13.83 55.4817 10.98 52.5817C8.12998 49.6817 6.13996 45.8317 4.45996 41.9317C1.97996 36.1917 0.02 30.0217 0 23.8217C0 22.9317 0.0499683 21.9817 0.529968 21.3317C1.00997 20.6817 2.64001 20.1217 3.14001 20.8217L3.14996 20.8317Z" fill="#ACB0B6"/>
<path d="M3.86995 11.7616C2.30995 12.6116 2.88995 16.8416 3.05995 17.9016C4.10995 24.5416 6.01994 30.4317 9.10994 36.1917C9.48994 35.9317 10.5299 35.2517 10.7999 35.0717C8.34994 29.7817 6.33995 24.2916 4.80995 18.6616C4.18995 16.4016 3.55996 13.9716 3.87996 11.7716L3.86995 11.7616Z" fill="#ACB0B6"/>
<path d="M14.33 32.8716C12.04 27.8116 10.28 22.5016 9.09996 17.0616C8.72996 15.3816 8.29994 13.7516 8.39994 12.0316C8.49994 10.3116 9.04994 8.29164 10.3999 6.93164C9.08994 9.66164 9.68 13.0816 10.33 16.0416C11.54 21.5516 13.24 26.9417 15.42 32.1917C15.08 32.4717 14.68 32.6816 14.32 32.8616L14.33 32.8716Z" fill="#ACB0B6"/>
<path d="M22.6599 31.1116C20.7599 25.9116 19.6499 20.4316 19.3499 14.8916C19.2399 12.8416 19.29 10.6316 20.68 8.78162C18.96 9.44162 17.92 11.2916 17.69 13.1216C17.46 14.9516 17.89 16.8017 18.31 18.6017C19.28 22.6917 20.2799 27.0116 21.4099 31.0416C21.8499 31.1016 22.2499 30.9216 22.6499 31.1116H22.6599Z" fill="#ACB0B6"/>
<path d="M32.2601 38.3417C32.3701 35.4917 31.0201 34.2916 33.3201 31.0316C36.9301 25.9116 34.9301 24.6717 34.6301 24.5817C34.2401 24.4517 33.5201 25.6416 33.3201 26.0116C32.1501 28.2116 31.35 29.8716 31.35 29.8716C31.35 29.8716 30.04 33.0016 30.27 33.3116C30.57 33.7116 31.6601 35.8517 32.2501 38.3417H32.2601Z" fill="#ACB0B6"/>
<path d="M105.29 41.7516C107.19 39.9516 107.68 40.6817 108.61 40.8517C109.48 41.0117 111.25 40.9917 111.72 41.5617C110.55 42.1817 106.15 42.3716 105.29 41.7516Z" fill="#656768"/>
<path d="M25.2601 64.0917C28.4501 70.9517 31.69 77.8916 36.4 83.7916C41.11 89.6916 47.52 94.5516 54.92 95.8716C53.27 98.5616 50.6301 99.5717 47.5001 99.4517C39.1801 99.1217 30.8301 93.0517 25.8101 86.3217C20.7901 79.6017 17.77 71.6016 14.54 64.0016C19.87 65.7316 25.45 63.7817 25.27 64.1017L25.2601 64.0917Z" fill="#878B90"/>
<path d="M69.2701 245.102C72.3701 242.982 75.9802 241.622 79.7002 241.192C74.2702 226.222 71.9001 210.122 72.7701 194.202C73.2101 186.212 74.5501 177.992 78.8601 171.262C79.1401 170.822 79.4501 170.312 79.3202 169.802C79.1502 169.152 78.3801 168.902 77.7301 168.762C75.0101 168.162 71.9702 167.612 69.5802 169.052C68.0302 169.992 67.0301 171.622 66.2101 173.242C60.6801 184.052 60.0601 196.722 60.6201 208.872C61.2101 221.562 63.1001 234.622 69.2801 245.092L69.2701 245.102Z" fill="#A6A9B0"/>
<path d="M131.18 240.432C133.55 222.182 134.47 203.742 133.94 185.342C133.82 181.272 133.63 177.182 132.75 173.212C132.4 171.642 131.8 169.912 130.35 169.232C129.2 168.702 127.86 168.992 126.65 169.362C123.02 170.482 119.59 172.242 116.55 174.552C122.27 198.542 122.57 221.342 118.33 247.082C118.22 247.952 117.17 250.112 117.32 249.872C117.99 249.782 119.49 249.292 120.16 249.202C120.16 246.822 120.64 243.962 122.89 242.262C125.14 240.562 128.9 239.622 131.19 240.412L131.18 240.432Z" fill="#A6A9B0"/>
<path d="M82.4401 252.312C80.6701 252.962 79.52 255.002 79.98 256.972C83.7 260.362 85.57 265.712 84.79 270.892C86.81 273.542 91.02 274.122 93.78 272.012C93.13 274.092 91.29 275.612 89.27 276.412C87.25 277.212 85.07 277.382 82.91 277.542C76.33 278.042 69.74 278.542 63.16 279.042C62.05 279.122 60.85 279.192 59.91 278.592C58.69 277.822 58.33 276.222 58.17 274.792C56.64 261.182 70.0701 252.702 70.0701 252.702C70.0701 252.702 68.11 249.712 68.28 247.752C68.48 245.432 68.8601 245.522 70.6901 244.102C73.2801 242.102 77.4301 240.772 79.7001 241.202C79.7001 241.292 81.8801 248.812 82.4401 252.322V252.312Z" fill="#83878B"/>
<path d="M94.1799 27.1017C94.0799 28.3517 94.0999 29.6116 94.2299 30.8616" stroke="#656768" stroke-miterlimit="10"/>
<path d="M93.0802 40.8517C92.5802 38.0517 92.8901 35.1216 93.9601 32.4916" stroke="#656768" stroke-miterlimit="10"/>
<path d="M126.26 39.9016C126.53 38.1016 126.63 36.2717 126.55 34.4617" stroke="#656768" stroke-miterlimit="10"/>
<path d="M126.43 25.5616C126.46 26.3216 126.43 27.0917 126.33 27.8417" stroke="#656768" stroke-miterlimit="10"/>
<path d="M126.78 33.0216C127.09 31.0816 128.23 29.2917 129.86 28.2117" stroke="#656768" stroke-miterlimit="10"/>
<path d="M90.49 29.1416C92.01 30.2316 93.14 31.8717 93.62 33.6917" stroke="#656768" stroke-miterlimit="10"/>
<path d="M127.06 32.9617C128.08 32.2717 129.27 31.8417 130.49 31.7217" stroke="#656768" stroke-miterlimit="10"/>
<path d="M89.1299 31.8517C90.6599 31.7817 92.2099 32.3317 93.3599 33.3517" stroke="#656768" stroke-miterlimit="10"/>
<path d="M104.49 40.9816C104.92 39.1216 106.81 37.7216 108.7 37.8816C110.59 38.0416 112.23 39.7316 112.35 41.6416" stroke="#656768" stroke-miterlimit="10"/>
<path d="M110.5 45.3616C109.04 44.4016 107.23 43.9917 105.49 44.2217C104.97 44.2917 104.4 44.4717 104.18 44.9517C104.02 45.3117 104.13 45.7517 104.37 46.0617C104.61 46.3717 104.96 46.5717 105.33 46.7217C106.55 47.2117 107.91 47.1916 109.21 47.0116C109.54 46.9616 109.87 46.9116 110.16 46.7416C110.45 46.5716 110.69 46.2917 110.72 45.9617C110.75 45.6317 110.5 45.2717 110.5 45.3517V45.3616Z" fill="#656768"/>
<path d="M104.22 33.7117C104.53 31.9817 104.82 30.1416 104.18 28.5016C104.04 28.1416 103.72 27.7516 103.37 27.8716C103.14 27.9516 103.04 28.2117 102.97 28.4417C102.4 30.2917 102.3 32.2817 102.66 34.1817C102.72 34.4917 102.83 34.8517 103.12 34.9717C103.4 35.1017 103.74 34.9317 103.93 34.6817C104.12 34.4317 104.15 34.1117 104.22 33.7117Z" fill="#656768"/>
<path d="M117.28 34.6716C117.71 32.9616 118.13 31.1516 117.61 29.4716C117.5 29.1116 117.21 28.6916 116.84 28.7916C116.61 28.8516 116.49 29.1016 116.4 29.3316C115.71 31.1316 115.46 33.1116 115.69 35.0316C115.73 35.3516 115.81 35.7117 116.09 35.8517C116.36 35.9917 116.72 35.8516 116.91 35.6216C117.1 35.3916 117.17 35.0716 117.27 34.6716H117.28Z" fill="#656768"/>
<path d="M100.94 51.3417C105.51 53.9117 111.08 54.6116 116.13 53.2516L116.17 53.2716" stroke="#656768" stroke-miterlimit="10"/>
<path d="M3.87988 21.5016C5.07988 26.6316 6.86987 31.6117 9.17987 36.3417" stroke="#656768" stroke-miterlimit="10"/>
<path d="M8.57007 13.8916C9.64007 20.4316 11.5701 26.8217 14.3101 32.8517" stroke="#656768" stroke-miterlimit="10"/>
<path d="M17.45 12.8616C18.27 19.0816 19.6099 25.2217 21.4699 31.2017" stroke="#656768" stroke-miterlimit="10"/>
<path d="M8.04004 37.5516C12.09 33.0316 18.3601 30.5716 24.3901 31.1616" stroke="#656768" stroke-miterlimit="10"/>
<path d="M30.28 33.3116C31.48 35.3516 32.25 37.6516 32.53 40.0116" stroke="#656768" stroke-miterlimit="10"/>
<path d="M101 28.0016C101.28 27.2116 101.56 26.3916 102.11 25.7616C102.66 25.1316 103.54 24.7116 104.34 24.9516C104.09 24.3416 103.32 24.0515 102.69 24.2415C102.06 24.4315 101.59 24.9816 101.35 25.6016C101.11 26.2216 101.09 26.9016 101 28.0016Z" fill="#656768"/>
<path d="M119.52 28.6216C119.24 27.8216 118.95 27.0116 118.4 26.3716C117.85 25.7316 116.97 25.3117 116.17 25.5517C116.42 24.9317 117.2 24.6517 117.83 24.8417C118.46 25.0317 118.94 25.5917 119.17 26.2117C119.4 26.8317 119.43 27.5116 119.52 28.6216Z" fill="#656768"/>
<path d="M94.6201 15.3816C99.7001 12.2016 105.73 10.5817 111.7 10.7817C117.67 10.9817 123.58 13.0117 128.43 16.5317" stroke="#5C6162" stroke-miterlimit="10"/>
<path d="M80.53 81.8016C84.12 74.1016 86.59 64.8616 93.9 60.6216" stroke="#BABCC3" stroke-miterlimit="10"/>
<path d="M98.9801 251.152C91.2001 256.732 91.9701 260.722 87.9301 262.532C83.9601 258.202 81.3801 255.872 76.3401 255.582C71.3001 255.292 66.2001 257.052 62.1001 260.622C64.3101 257.092 68.5001 253.442 68.4901 253.772C71.1601 251.002 77.6501 250.702 80.9301 251.652C91.3501 254.692 92.5201 247.252 98.9901 251.142L98.9801 251.152Z" fill="#787D80"/>
<path d="M58.4101 271.872C60.5401 265.732 65.6101 271.732 81.4101 271.732C89.7501 271.732 92.5701 268.752 96.0801 261.372C97.2901 258.832 99.1801 256.152 99.8401 253.772C101.18 256.912 98.34 265.932 96.7701 269.372C95.2001 272.822 93.7201 274.222 90.7401 275.952C87.8201 277.642 86.2401 277.302 79.4301 278.012C73.7201 278.602 69.7501 278.812 64.0401 279.412C62.8101 279.542 59.9001 280.342 58.6801 276.642C58.3201 275.552 58.2301 273.042 58.4101 271.872Z" fill="#787D80"/>
<path d="M120.94 263.042C120.04 256.972 128.2 254.582 131.85 253.712C135.5 252.842 139.87 254.012 143.55 254.682C151.89 256.202 157.12 267.872 156.65 271.482C156.23 274.652 157.62 282.072 151.41 281.112C143.18 279.852 135.7 278.272 128.62 277.192C117.73 275.522 115.55 258.242 115.71 254.672C115.77 253.382 116.97 250.742 117.31 249.882C118.3 249.962 120.21 251.432 120.12 250.622C119.57 245.702 121.65 233.862 144.9 244.602C151.19 247.512 145.08 252.312 146.14 254.892" fill="#8C9095"/>
<path d="M131.03 240.622C128.43 239.912 125.5 240.512 123.38 242.192C121.26 243.882 120 246.602 120.08 249.332C118.26 249.122 116.69 250.902 116.43 252.732C116.17 254.562 116.86 256.382 117.53 258.102C118.36 260.242 119.2 262.372 120.03 264.512C121.04 267.112 122.12 269.802 124.16 271.682C126.19 273.562 128.96 274.412 131.69 274.812C133.38 275.062 135.24 275.122 136.66 274.172C138.36 273.032 138.93 270.802 139.16 268.762C139.61 264.712 138.98 260.122 135.86 257.542C134.67 256.562 133.09 255.822 132.61 254.342C132.32 253.442 132.51 252.472 132.64 251.532C133.16 247.712 132.48 243.742 130.8 240.272C130.8 240.422 130.8 240.562 131.02 240.612L131.03 240.622Z" fill="#83878B"/>
<path d="M117.32 249.882C124.75 256.092 123.74 260.002 127.66 262.152C131.88 258.162 134.59 256.052 139.64 256.172C144.69 256.292 149.67 258.472 153.55 262.372C151.56 258.672 147.59 254.682 147.59 255.012C145.09 252.022 138.64 251.192 135.31 251.872C124.74 254.042 124.01 246.522 117.33 249.882H117.32Z" fill="#787D80"/>
<path d="M156.54 273.892C154.78 267.592 149.37 273.152 133.6 271.852C125.28 271.162 122.65 267.962 119.58 260.312C118.52 257.682 116.8 254.852 116.29 252.422C114.76 255.442 117.06 264.672 118.41 268.242C119.76 271.812 121.16 273.332 124.03 275.302C126.85 277.232 128.44 277.022 135.19 278.292C140.85 279.352 144.8 279.892 150.46 280.952C151.68 281.182 154.54 282.222 155.97 278.632C156.39 277.582 156.64 275.072 156.53 273.892H156.54Z" fill="#787D80"/>
<path opacity="0.27" d="M90.8901 21.9016C94.4301 20.9216 97.3701 18.4717 100.68 16.8517C104.69 14.8817 109.28 14.1416 113.69 14.7516C118.11 15.3616 122.33 17.3216 125.66 20.3116C126.38 20.9616 127.08 21.6617 127.95 22.0917C128.82 22.5217 129.93 22.6116 130.77 22.0516C130.29 23.1216 129.15 23.8116 127.99 23.9016C126.83 23.9916 125.66 23.5216 124.79 22.7716C120.98 19.4216 116.05 17.3716 111.01 17.0516C105.96 16.7316 100.82 18.1317 96.6201 20.9717C95.7201 21.5817 94.8301 22.2717 93.8001 22.5917C92.7601 22.9217 91.5001 22.8016 90.9101 21.9116L90.8901 21.9016Z" fill="#E4791D"/>
<g opacity="0.27">
<path d="M39.9499 55.7217C40.6499 54.3217 40.8498 52.6117 40.1498 51.2117C39.4498 49.8117 37.4098 48.5716 36.7098 49.5516C36.3398 50.0716 35.8999 50.5616 35.3899 51.0316C35.9199 50.2316 36.3999 49.3416 36.8299 48.3616C39.3599 42.6116 38.6099 36.1716 41.2299 31.1916C42.2699 29.2116 42.2399 27.8516 41.6399 26.6916C38.4799 23.3016 30.4799 33.5416 29.6999 44.1516C28.4399 61.2516 14.6099 55.1716 14.6099 55.1716C14.6099 55.1716 18.2099 56.9916 22.6599 56.2016C23.4999 56.0516 23.2899 70.1516 44.1399 91.1816C45.4599 92.5116 44.4899 95.6416 43.4299 98.8216C44.5399 99.1016 45.6699 99.3016 46.7899 99.3916C47.1599 97.9816 47.5299 96.5616 47.8899 95.1516C49.2499 89.8716 50.2598 84.5816 51.3398 79.2516C51.9098 76.4616 52.5899 73.6916 53.3099 70.9316C47.7499 72.4716 43.7099 69.7317 39.9399 55.7117L39.9499 55.7217Z" fill="#E4791D"/>
<path d="M100.12 254.812C100.06 254.422 99.9699 254.072 99.8499 253.772C99.5399 252.702 99.1399 251.642 98.9799 251.152C98.9799 251.152 84.8999 209.732 97.1199 179.312C95.3699 179.772 93.6399 180.382 91.9499 181.212C86.4999 183.892 81.0898 186.632 75.3398 188.632C70.4998 190.312 65.6399 191.912 60.7999 193.592C60.3499 198.662 60.3799 203.822 60.6099 208.892C61.1799 221.112 62.9599 233.672 68.6099 243.942C68.8099 244.372 69.0098 244.802 69.2198 245.232C68.6098 245.772 68.4098 246.272 68.2798 247.762C68.1298 249.562 69.7498 252.202 70.0298 252.642C69.4398 252.962 68.9099 253.342 68.4799 253.782C68.4799 253.482 64.9199 256.572 62.6299 259.822C61.6599 261.132 60.7299 262.602 59.9799 264.222C59.1199 265.952 58.5898 267.552 58.4698 268.712C58.3098 269.462 58.2099 270.242 58.1399 271.032C83.5699 277.142 95.8699 264.932 100.18 257.452C100.25 256.882 100.28 256.412 100.29 256.062C100.29 255.722 100.23 255.292 100.12 254.812Z" fill="#E4791D"/>
<path d="M160.45 154.592C161.14 154.262 162.49 153.772 162.7 152.572C162.75 152.302 162.77 152.042 162.75 151.772C162.81 151.802 162.86 151.842 162.92 151.872C167.56 143.362 174.49 130.192 177.2 117.102C175.85 111.552 173.87 106.182 171.14 101.152C163.51 87.0516 150.9 76.5216 138.85 66.0316C137.77 65.0916 136.7 64.1416 135.68 63.1416C132.11 61.3416 129.01 60.6415 125.52 61.3715C125.53 61.3915 125.56 61.4716 125.58 61.5916C125.53 61.4516 125.49 61.3116 125.43 61.1816C124.91 59.9516 123.95 58.8716 122.71 58.4116C121.47 57.9516 120.17 58.0016 119.26 59.0416C118.06 57.1816 117.12 55.1516 116.35 53.2916C121.7 50.9116 125.6 45.5216 126.19 39.8216C126.21 39.8216 126.24 39.8316 126.26 39.8416V39.8916C126.26 39.8916 126.26 39.8616 126.26 39.8416C128.04 40.3616 130.02 39.4515 131.2 37.9915C131.6 37.4915 131.92 36.9415 132.18 36.3715C131.24 34.6715 129.43 34.0116 126.62 35.2716C99.1199 47.6316 92.8799 30.1516 89.6499 33.9616C88.8399 34.9216 88.3799 35.6216 88.1499 36.2816C88.2299 36.5616 88.3199 36.8316 88.4299 37.1016C89.2199 39.0216 90.9699 40.6516 92.8599 40.8216C93.0299 41.9716 93.3399 43.1116 93.7999 44.1916C94.2099 45.1616 94.7299 46.0716 95.3499 46.9116C96.2799 48.2616 97.46 49.4216 98.83 50.2816C99.52 50.7516 100.26 51.1515 101.03 51.4915C101.03 51.5315 101.03 51.5815 101.02 51.6215C101.02 51.8015 101 51.9816 100.97 52.1516C100.9 52.5916 100.79 53.0316 100.65 53.4616C100.38 54.2516 99.9999 55.0115 99.5999 55.7515C99.5499 55.8315 99.5099 55.9115 99.4599 55.9815C98.5899 55.3015 97.5399 54.7316 96.4399 54.8016C95.5099 54.8616 94.6799 55.3916 94.1099 56.1416C97.6999 58.9216 101.12 62.0015 104.4 65.1115C108.4 68.9015 111.98 73.1316 115.97 76.9416C120.16 80.9416 125.25 84.0215 129.96 87.3615C132.15 88.9115 134.24 90.5416 136.26 92.3116C136.36 92.4016 136.47 92.4916 136.57 92.5816C136.37 91.9116 136.17 91.2316 135.97 90.5516C139.48 93.5516 143.02 96.5816 146.96 99.9116C147.57 100.442 148.13 100.932 148.63 101.362C150.54 103.072 152.93 105.362 153.46 106.562C154.02 107.832 154.21 110.362 154.12 112.082C153.98 114.102 153.58 116.372 153.03 118.882C152.61 120.572 152.08 122.532 151.47 125.462C151.35 125.952 151.23 126.452 151.11 126.952C150.36 129.792 149.06 133.922 148.91 136.172C148.89 136.502 148.88 136.822 148.89 137.152C148.89 137.162 148.89 137.182 148.89 137.192C148.89 137.212 148.89 137.242 148.9 137.262C148.9 137.432 148.92 137.592 148.93 137.762C148.84 137.802 148.75 137.842 148.66 137.902C148.52 137.272 148.37 136.632 148.22 135.982C146.76 137.962 145.23 139.972 142.88 140.902C140.34 141.902 137.61 142.482 135.35 144.092C133.24 145.592 132.25 147.912 130.39 149.632C129.52 150.432 128.54 151.122 127.57 151.802C127.06 152.162 126.59 152.562 126.11 152.962C125.93 153.112 125.8 153.422 125.78 153.362C125.81 154.212 127.02 155.572 127.32 156.382C127.94 158.032 127.77 159.772 126.81 161.262C124.35 165.082 119.27 164.882 116.54 168.012C116.98 168.232 117.33 168.652 117.44 169.332C117.76 171.242 117.7 173.202 116.6 174.692C122.29 198.642 122.58 221.392 118.35 247.092C118.34 247.162 118.33 247.232 118.31 247.292C118.1 248.252 117.19 250.112 117.33 249.892C117.14 250.372 116.68 251.402 116.31 252.442C116.28 252.512 116.25 252.582 116.22 252.652C121.27 262.412 130.03 276.932 155.66 266.692C155.09 265.242 154.32 263.682 153.32 262.162C153.4 262.232 153.48 262.312 153.55 262.382C151.56 258.682 147.59 254.692 147.59 255.022C147.18 254.532 146.67 254.112 146.08 253.732C146.5 251.252 149.77 247.732 146.03 245.232C152.58 221.572 151.57 194.612 148.68 173.812C152.18 170.032 155.76 165.192 156.98 163.052C158.25 160.832 159.24 156.972 159.84 154.822C160.05 154.772 160.25 154.702 160.45 154.612V154.592Z" fill="#E4791D"/>
</g>
<path d="M51.2 77.7515L30.3499 162.712C25.3199 183.212 44.95 201.162 64.92 194.322L153.59 163.942C173.47 157.132 178.05 131.082 161.67 117.902L93.85 63.3216C78.64 51.0716 55.85 58.7815 51.2 77.7515Z" fill="#A36222"/>
<path d="M55.8598 74.3117L35.0099 159.272C29.9799 179.772 49.6099 197.722 69.5799 190.882L158.25 160.502C178.13 153.692 182.71 127.642 166.33 114.462L98.5099 59.8816C83.2999 47.6316 60.5098 55.3417 55.8598 74.3117Z" fill="#E4791D"/>
<path d="M59.1401 60.9517L30.1701 179.022C27.1601 191.302 39.3601 201.222 52.1001 196.862L175.33 154.642C34.4501 195.922 89.8001 81.0917 59.1501 60.9417L59.1401 60.9517Z" fill="#D46F1B"/>
<path d="M61.7 91.6616L48.8399 144.062C43.8099 164.562 63.4399 182.512 83.4099 175.672L138.1 156.932C157.98 150.122 162.56 124.072 146.18 110.892L104.35 77.2216C89.1399 64.9716 66.35 72.6816 61.7 91.6516V91.6616Z" stroke="#EDE9E7" stroke-width="3" stroke-miterlimit="10"/>
<path d="M99.38 154.072L86.25 115.072C85.71 113.462 86.56 111.712 88.16 111.162L97.08 108.102C98.68 107.552 100.41 108.422 100.96 110.032L114.09 149.032C114.63 150.642 113.78 152.392 112.18 152.942L103.26 156.002C101.66 156.552 99.93 155.682 99.38 154.072Z" fill="white"/>
<path d="M90.2853 101.847C94.7146 100.194 97.0799 95.5701 95.5683 91.5185C94.0567 87.4669 89.2406 85.522 84.8113 87.1746C80.3819 88.8271 78.0167 93.4513 79.5283 97.5029C81.0399 101.554 85.856 103.499 90.2853 101.847Z" fill="white"/>
<path d="M97.32 154.802L84.19 115.802C83.65 114.192 84.4999 112.442 86.0999 111.892L95.0199 108.832C96.6199 108.282 98.3499 109.152 98.8999 110.762L112.03 149.762C112.57 151.372 111.72 153.122 110.12 153.672L101.2 156.732C99.6 157.282 97.87 156.412 97.32 154.802Z" fill="#DFDFE5"/>
<path d="M88.2211 102.584C92.6504 100.932 95.0157 96.3075 93.5041 92.256C91.9925 88.2044 87.1764 86.2595 82.7471 87.912C78.3177 89.5645 75.9525 94.1887 77.4641 98.2403C78.9757 102.292 83.7917 104.237 88.2211 102.584Z" fill="#DFDFE5"/>
<path d="M148.8 140.692C144.62 139.812 140 141.592 137.47 145.062C136.11 146.932 135.17 149.352 133.07 150.282C132.32 150.612 131.47 150.722 130.76 151.132C129.24 152.002 128.76 154.292 129.8 155.712C130.84 157.132 134.44 156.962 135.78 156.012C127.71 162.762 128.92 161.752 124.17 164.162C122.54 164.982 120.71 165.972 120.25 167.752C119.85 169.302 120.88 170.782 122.09 171.812C123.58 173.082 126.03 172.042 126.03 172.042C126.03 172.042 125.65 175.082 126.8 175.842C127.95 176.602 129.44 176.662 130.77 176.312C132.1 175.972 132.69 175.512 134.05 175.072C134.26 176.952 135.36 178.322 137.21 177.982C139.8 177.502 140.84 176.732 140.84 176.732C141.48 177.882 143.33 178.622 144.69 177.562C148.95 174.282 155.27 166.012 156.98 163.022C158.7 160.032 159.89 154.052 160.32 153.312C157.19 153.312 154.33 151.292 152.51 148.722C150.69 146.152 149.74 143.072 148.54 140.192C148.55 140.222 148.57 140.242 148.79 140.682L148.8 140.692Z" fill="#BEC0C7"/>
<path d="M150.12 137.862C149.34 136.922 147.63 138.662 147.18 139.802C146.73 140.942 147.12 142.232 147.53 143.392C148.46 146.002 149.55 148.612 151.28 150.772C153.01 152.932 155.46 154.622 158.2 154.892C158.96 154.972 159.75 154.932 160.44 154.602C161.13 154.272 162.48 153.782 162.69 152.582C162.9 151.382 162.75 150.422 160.02 148.682C155.61 145.862 151.51 142.462 150.12 137.872V137.862Z" fill="#7A7E80"/>
<path d="M149.14 147.342C149.39 145.272 150.86 143.412 152.84 142.682C151.45 141.452 150.61 139.842 150.16 137.842C149.67 137.382 148.85 137.662 148.35 138.112C147.12 139.212 146.8 141.072 147.12 142.702C147.44 144.332 148.3 145.792 149.15 147.342H149.14Z" fill="#656768"/>
<path d="M147.09 140.482C142.89 140.302 139.38 142.222 137.19 145.472C136.42 146.612 135.74 148.252 134.69 149.132C133.93 149.772 132.98 150.132 132.08 150.552C131.18 150.972 130.27 151.492 129.72 152.322C129.17 153.152 129.07 154.372 129.75 155.102C129.34 154.572 129.54 153.802 129.98 153.282C130.42 152.762 131.05 152.432 131.7 152.232C132.35 152.032 133.02 151.912 133.67 151.732C135.68 151.162 137.47 149.832 138.61 148.062C139.24 147.092 139.73 145.932 140.74 145.382C141.45 144.992 142.3 144.982 143.1 145.062C143.9 145.142 144.7 145.322 145.51 145.282C146.32 145.242 147.1 145.012 147.65 144.412C147.07 142.852 146.96 141.762 147.1 140.502L147.09 140.482Z" fill="#ACB0B6"/>
<path d="M120.37 169.462C119.88 168.302 120.34 166.912 121.19 165.992C122.04 165.072 123.19 164.502 124.32 163.972C128.97 161.782 131.78 159.882 135.32 156.362C137.25 155.382 138.94 153.912 140.18 152.122C138.85 155.712 135.89 158.412 132.91 160.802C130.07 163.092 129.08 165.062 125.63 166.212C124.61 166.552 123.54 166.802 122.58 167.292C121.62 167.782 120.73 168.562 120.37 169.482V169.462Z" fill="#ACB0B6"/>
<path d="M142.37 161.912C139.73 165.482 131.95 169.892 126.02 172.052C126.02 172.052 125.69 174.702 126.6 175.692C126 171.602 128.71 172.422 131.65 171.112C137.27 168.602 141.32 164.422 142.37 161.922V161.912Z" fill="#ACB0B6"/>
<path d="M146.52 165.412C145.44 169.242 141.99 171.082 137.87 173.712C135.88 174.982 135.15 177.492 135.15 177.492C135.15 177.492 133.91 176.282 134.05 175.082C139.15 172.672 144.3 169.102 146.53 165.412H146.52Z" fill="#ACB0B6"/>
<path d="M149.85 168.562L149.88 168.332C149.1 169.952 147.92 171.382 146.63 172.672C145.34 173.962 143.92 175.132 142.56 176.352C142.36 176.532 142.15 176.722 142.05 176.972C141.95 177.222 141.87 177.682 142.08 177.832C142.03 177.832 140.64 177.082 140.98 176.642C141.05 176.552 147.45 171.552 149.85 168.552V168.562Z" fill="#ACB0B6"/>
<path d="M126.02 172.042C131.56 169.832 137.19 167.792 142.26 161.742" stroke="#656768" stroke-miterlimit="10"/>
<path d="M134.04 175.082C143.89 170.412 146.26 165.742 146.26 165.742" stroke="#656768" stroke-miterlimit="10"/>
<path d="M140.83 176.742C143.94 174.472 147.9 171.182 149.86 168.122" stroke="#656768" stroke-miterlimit="10"/>
<path d="M134.14 156.592C137.9 155.532 139.92 152.372 141.87 149.242" stroke="#656768" stroke-miterlimit="10"/>
<path d="M125.51 61.3716C135.28 59.3216 142 68.4217 164.6 81.8017C191.42 97.6817 172.4 134.502 162.93 151.872C156.65 148.152 149.81 143.692 148.88 137.182C151.99 120.102 157.85 108.062 150.93 103.292C149.88 102.562 130.88 85.8017 129.88 84.4117C127.07 83.0217 119.14 67.4017 124.03 65.0517C126.35 63.9417 125.54 61.1716 125.52 61.3716H125.51Z" fill="#91969B"/>
<path d="M151.71 143.042C154.45 136.712 160.94 110.812 160.43 106.642C159.89 102.222 156.23 98.9216 152.69 96.2716C143.49 89.3816 133.32 83.8016 122.91 79.4216C131.56 86.7216 138.29 92.5916 146.94 99.8916C148.72 101.402 152.73 104.952 153.44 106.542C154.02 107.842 154.2 110.492 154.1 112.222C153.81 117.092 152.86 118.762 151.46 125.442C150.91 128.082 149.07 133.472 148.9 136.162C148.73 138.852 149.55 141.782 151.72 143.052L151.71 143.042Z" fill="#83878B"/>
<g opacity="0.27">
<path d="M142.72 178.032C142.94 176.602 144 175.042 145.02 173.882C154.13 163.532 160.28 150.922 166.32 138.492C171.02 128.812 175.85 118.102 173.29 107.632C171.13 98.8016 164.05 92.0317 156.48 87.1017C148.91 82.1717 140.51 78.5016 133.39 72.9216C129.98 70.2516 126.74 66.8417 125.64 62.7117C125.55 63.5217 125.18 64.4816 124.02 65.0416C120.31 66.8216 123.97 76.2316 127.19 81.2816C125.77 80.6316 124.35 80.0116 122.92 79.4116C131.57 86.7116 138.3 92.5816 146.95 99.8816C147.56 100.412 148.12 100.902 148.62 101.332C150.53 103.042 152.91 105.332 153.44 106.532C154 107.802 154.19 110.332 154.1 112.052C153.96 114.072 153.56 116.342 153.01 118.852C152.59 120.542 152.06 122.502 151.45 125.432C151.33 125.922 151.21 126.422 151.09 126.922C150.34 129.762 149.04 133.892 148.89 136.142C148.87 136.472 148.86 136.792 148.87 137.122C148.87 137.132 148.87 137.152 148.87 137.162C148.87 137.182 148.87 137.212 148.88 137.232C148.88 137.392 148.9 137.562 148.91 137.722C148.7 137.812 148.51 137.942 148.34 138.082C148.03 138.362 147.78 138.692 147.58 139.052C147.41 139.302 147.27 139.552 147.18 139.772C147.09 139.992 147.04 140.222 147.01 140.452C143.34 140.312 140.19 141.792 138 144.352C137.92 144.442 137.85 144.532 137.78 144.622C137.7 144.722 137.62 144.822 137.54 144.922C137.51 144.962 137.48 144.992 137.45 145.032C137.36 145.162 137.26 145.292 137.17 145.432C137.17 145.432 137.17 145.432 137.17 145.442C136.32 146.702 135.59 148.132 134.56 149.182C133.82 149.762 132.92 150.122 132.06 150.522C131.91 150.592 131.76 150.662 131.61 150.742C131.31 150.842 131.01 150.952 130.74 151.112C129.22 151.982 128.74 154.272 129.78 155.692C130.82 157.112 134.42 156.942 135.76 155.992C135.67 156.072 135.58 156.142 135.49 156.222C135.43 156.252 135.36 156.292 135.3 156.322C135.17 156.452 135.04 156.572 134.91 156.702C132.33 158.862 130.8 160.132 129.69 160.972C128.11 162.012 126.39 162.942 124.3 163.932C123.17 164.462 122.02 165.032 121.17 165.952C120.8 166.362 120.5 166.862 120.33 167.392C120.29 167.502 120.26 167.612 120.23 167.722C119.83 169.272 120.86 170.752 122.07 171.782C123.56 173.052 126.01 172.012 126.01 172.012C126.01 172.012 125.67 174.692 126.59 175.652C126.65 175.712 126.71 175.772 126.78 175.812C127.93 176.572 129.42 176.632 130.75 176.282C132.08 175.942 132.67 175.482 134.03 175.042C133.96 175.642 134.23 176.232 134.52 176.682C135.04 177.632 135.95 178.182 137.18 177.952C139.77 177.472 140.81 176.702 140.81 176.702C140.84 176.762 140.88 176.822 140.92 176.872C140.99 177.062 141.23 177.282 141.48 177.452C141.63 177.562 141.79 177.662 141.96 177.752C142.01 177.782 142.04 177.792 142.05 177.792C142.26 177.882 142.47 177.952 142.7 177.992L142.72 178.032Z" fill="#E4791D"/>
</g>
</svg>
