<svg width="24" height="24" viewBox="0 0 24 24" fill="none" xmlns="http://www.w3.org/2000/svg">
<path d="M15.2673 3.26078C15.9528 2.57526 17.0642 2.57526 17.7497 3.26078L20.7359 6.24693C21.4214 6.93244 21.4214 8.04389 20.7359 8.72941L17.7407 11.7246C17.4148 12.0505 17.0593 12.2228 16.7086 12.264C16.3615 12.3048 15.9573 12.2246 15.5152 11.9379C15.1677 11.7125 14.7033 11.8115 14.4779 12.159C14.2525 12.5065 14.3514 12.9709 14.699 13.1964C15.3973 13.6493 16.1478 13.8403 16.8838 13.7537C17.6164 13.6676 18.2727 13.3139 18.8013 12.7853L21.7965 9.79006C23.0678 8.51876 23.0678 6.45757 21.7965 5.18627L18.8104 2.20012C17.5391 0.928817 15.4779 0.928817 14.2066 2.20012L11.2114 5.19535C10.3172 6.08955 9.75876 7.83119 10.8572 9.3481C11.1001 9.68359 11.5691 9.75861 11.9045 9.51567C12.24 9.27273 12.3151 8.80382 12.0721 8.46833C11.5102 7.69231 11.7624 6.7657 12.2721 6.25601L15.2673 3.26078Z" fill="#FFF000"/>
<path d="M6.25617 12.2719C6.76586 11.7623 7.69246 11.51 8.46847 12.072C8.80396 12.3149 9.27287 12.2399 9.51581 11.9044C9.75875 11.5689 9.68373 11.1 9.34824 10.8571C7.83134 9.75862 6.0897 10.3171 5.19551 11.2113L2.2003 14.2065C0.929003 15.4778 0.929002 17.539 2.2003 18.8103L5.18643 21.7965C6.45772 23.0678 8.51891 23.0678 9.79021 21.7965L12.7854 18.8012C13.3141 18.2726 13.6677 17.6163 13.7539 16.8837C13.8404 16.1477 13.6495 15.3972 13.1965 14.6989C12.9711 14.3513 12.5066 14.2524 12.1591 14.4778C11.8116 14.7032 11.7126 15.1676 11.938 15.5151C12.2247 15.9572 12.305 16.3614 12.2641 16.7086C12.2229 17.0592 12.0506 17.4147 11.7248 17.7406L8.72954 20.7358C8.04403 21.4213 6.9326 21.4213 6.24709 20.7358L3.26096 17.7497C2.57545 17.0641 2.57545 15.9527 3.26096 15.2672L6.25617 12.2719Z" fill="#FFF000"/>
<path d="M14.9626 10.0516C15.2555 9.75874 15.2555 9.28386 14.9626 8.99097C14.6698 8.69808 14.1949 8.69808 13.902 8.99097L8.98896 13.904C8.69606 14.1969 8.69606 14.6718 8.98896 14.9647C9.28185 15.2576 9.75672 15.2576 10.0496 14.9647L14.9626 10.0516Z" fill="#FFF000"/>
</svg>
