<svg width="34" height="32" viewBox="0 0 34 32" fill="none" xmlns="http://www.w3.org/2000/svg">
<path d="M32.6738 3.75041L28.9502 0.0274281L5.05789 0C4.28304 0 3.55438 0.301769 3.0057 0.84911L0.84911 3.00635C0.301769 3.55369 0 4.28237 0 5.05788V26.4249L5.57511 32H8.55203C9.31951 32 10.0689 31.6855 10.6076 31.1368L11.2372 30.4952C11.9331 29.7859 12.3158 28.8478 12.3158 27.8548V20.2469C12.8036 20.6939 13.4312 20.9381 14.0957 20.9381H24.7715C25.9967 20.9381 27.1315 20.2248 27.6628 19.1201L33.2968 7.41118C33.8869 6.18401 33.6367 4.71328 32.6738 3.75041ZM27.0017 5.31951C26.621 6.10907 25.8093 6.6196 24.9314 6.6196H9.454C9.0077 6.6196 8.57946 6.44296 8.26431 6.12713L7.13551 4.99833C7.07662 4.93944 7.01306 4.9274 6.9689 4.9274C6.84979 4.9274 6.72667 5.01706 6.72667 5.16828V9.89227H25.6112L23.6762 13.9144C23.2968 14.7039 22.4838 15.2145 21.6066 15.2145H9.51021C9.07662 15.2145 8.66043 15.0425 8.35397 14.7354L7.40182 13.7832C7.15223 13.5336 6.72667 13.7103 6.72667 14.0622V23.1355C6.72667 23.8642 6.44563 24.552 5.93509 25.0726L5.30546 25.715C4.95417 26.0716 4.46705 26.2764 3.96655 26.2764H1.40515V5.32553C1.40515 4.81833 1.60255 4.34125 1.96053 3.98327L4.1171 1.82736C4.47575 1.46871 4.95216 1.27133 5.45936 1.27133L28.9361 1.29876L27.0017 5.31951Z" fill="white"/>
<path d="M28.9362 1.29874L27.0018 5.31949C26.621 6.10905 25.8094 6.61959 24.9315 6.61959H9.45406C9.00776 6.61959 8.57952 6.44294 8.26436 6.12711L7.13557 4.99831C7.07668 4.93943 7.01312 4.92739 6.96896 4.92739C6.84985 4.92739 6.72673 5.01705 6.72673 5.16827V9.89225H25.6113L23.6762 13.9143C23.2968 14.7039 22.4838 15.2144 21.6066 15.2144H9.51027C9.07668 15.2144 8.66049 15.0425 8.35403 14.7353L7.40188 13.7832C7.15229 13.5336 6.72673 13.7103 6.72673 14.0622V23.1355C6.72673 23.8641 6.44569 24.552 5.93515 25.0726L5.30552 25.7149C4.95423 26.0716 4.46711 26.2763 3.96661 26.2763H1.40521V5.32551C1.40521 4.81832 1.60261 4.34123 1.96059 3.98325L4.11716 1.82735C4.47581 1.4687 4.95222 1.27131 5.45942 1.27131L28.9362 1.29874Z" fill="#2A2A2A"/>
</svg>
