<svg width="192" height="317" viewBox="0 0 192 317" fill="none" xmlns="http://www.w3.org/2000/svg">
<path d="M105.395 51.1675C103.905 52.1575 101.905 52.3375 100.265 51.6175C98.6245 50.8975 97.3845 49.3175 97.3745 47.9175C95.5145 48.2075 93.5246 47.2275 92.6046 45.5775C91.6846 43.9275 91.8946 41.6975 93.4646 40.3275C92.4946 40.2275 91.5045 40.0875 90.6445 39.6275C89.7845 39.1675 89.0645 38.3275 89.0045 37.3475C88.9245 36.0775 89.9145 35.0075 90.8845 34.1875C96.0345 29.8575 102.905 27.6775 109.855 28.2975C113.765 25.8775 118.635 25.0975 123.405 26.1575C129.085 23.2775 136.115 23.2775 141.785 26.1775C143.215 26.9075 144.615 27.8675 145.335 29.3075C146.055 30.7475 145.875 32.7475 143.815 34.2075C145.025 35.5375 145.315 37.6375 144.515 39.2575C143.715 40.8675 141.865 41.8975 140.085 41.7075C138.355 41.5275 136.855 40.3175 135.885 38.8475C134.915 37.3775 134.405 35.6675 133.735 34.1875C127.695 32.8375 121.155 33.9075 115.835 37.0975C110.515 40.2875 106.485 45.5875 105.395 51.1675Z" fill="#6C6C6C"/>
<path d="M114.948 316.68C153.426 316.68 184.619 309.735 184.619 301.167C184.619 292.6 153.426 285.655 114.948 285.655C76.4701 285.655 45.2775 292.6 45.2775 301.167C45.2775 309.735 76.4701 316.68 114.948 316.68Z" fill="#7E8185"/>
<path d="M116.434 307.788C153.402 307.788 183.37 302.833 183.37 296.721C183.37 290.61 153.402 285.655 116.434 285.655C79.4658 285.655 49.4973 290.61 49.4973 296.721C49.4973 302.833 79.4658 307.788 116.434 307.788Z" fill="#B0B3BA"/>
<path d="M138.265 76.0182C155.748 131.792 160.99 156.066 164.069 173.549C167.395 192.484 125.692 186.671 107.983 182.731C96.9062 180.266 78.0998 196.048 70.532 188.415C55.9778 173.732 86.1413 97.6988 85.3985 98.2693C43.7489 130.575 25.7282 99.9379 15.3616 72.8856C25.1039 74.468 35.4921 71.3892 42.8015 64.5427C42.7692 64.5643 42.7369 64.5751 42.9737 64.8442C53.2005 103.081 65.2142 64.0906 100.588 68.4181C106.702 69.1716 105.109 74.8878 111.224 75.6306C124.691 77.2776 129.761 76.5026 135.068 73.327" fill="#91969B"/>
<path d="M21.433 66.7602C14.3927 65.2639 9.64542 58.7511 6.59893 52.2706C3.57398 45.8439 1.52863 38.9543 0.538253 31.914C0.366013 30.6761 0.247562 29.3306 0.904225 28.2541C1.56089 27.1776 3.32635 26.7577 4.27366 28.1894C3.33711 25.6273 2.93883 22.8823 3.08954 20.1588C3.1326 19.3729 3.25098 18.5332 3.78923 17.9519C4.44589 17.2414 5.5655 17.1338 6.46976 17.4352C7.37402 17.7366 8.13828 18.3718 9.10712 19.8573C8.76264 17.5321 9.3332 15.0777 10.6681 13.1185C11.1955 12.3434 11.906 11.6113 12.8318 11.4606C14.3389 11.213 15.5661 12.5909 16.3197 13.8935C17.1809 15.3683 17.8591 16.9615 18.7418 19.2544C19.4307 16.9184 20.9271 14.3564 23.3707 14.1626C25.05 14.0334 26.6217 15.1745 27.4829 16.6063C28.3441 18.038 28.6564 19.7282 28.947 21.386C30.2926 29.0399 30.6802 34.164 32.5102 40.7091C33.0808 39.9663 33.9204 37.0059 35.9657 32.7861C37.4082 29.7934 40.4763 29.0828 42.8661 31.365C44.9115 33.3135 46.2463 35.0037 44.3839 38.5776C41.5743 43.9386 42.3817 50.8711 39.6474 57.061C35.5459 66.3727 27.1385 67.9659 21.433 66.7495V66.7602Z" fill="#BEC0C7"/>
<path d="M77.6907 161.331C62.6305 206.651 59.2826 245.19 78.8856 276.935C80.6834 279.842 106.552 275.364 106.552 275.364C106.552 275.364 85.3015 212.862 114.948 181.515C114.227 172.645 119.9 158.112 117.381 153.171C109.835 138.337 79.876 170.115 77.6907 161.331Z" fill="#BABCC3"/>
<path d="M119.857 175.336C116.251 149.995 150.602 154.538 150.936 154.99C153.939 156.25 172.928 226.749 154.531 277.323C153.605 279.874 130.288 274.244 126.585 275.084C129.32 261.897 136.575 217.33 119.857 175.336Z" fill="#BABCC3"/>
<path d="M136.091 30.4071L136.123 32.4523C137.167 31.2143 139.073 31.0099 140.493 31.7204C141.914 32.4309 142.873 33.8948 143.271 35.445C143.669 36.9952 143.583 38.6315 143.357 40.2139C143.066 42.2485 142.528 44.3153 141.247 45.9085C139.966 47.5017 137.781 48.4922 135.843 47.8786C135.208 54.0039 131.01 59.8169 125.25 62.379C126.144 64.5212 127.22 66.8787 128.663 68.9994C127.457 70.6465 125.1 71.1954 122.968 71.3461C116.983 71.7444 110.879 70.1513 105.852 66.8572C107.639 64.8011 108.64 62.562 108.78 60.2691C104.086 58.6866 100.738 54.0254 100.222 48.9766C98.101 48.9336 96.0988 47.1142 95.2161 44.9612C94.3333 42.8082 94.3871 40.3862 94.6563 38.0717C94.807 36.7799 95.033 35.4773 95.6682 34.347C96.3033 33.2166 97.4229 32.2909 98.7039 32.2155C99.9849 32.1402 101.341 33.1198 101.406 34.4116C101.793 32.4093 101.815 30.7515 101.643 29.1475C106.562 25.2075 112.881 23.0975 119.157 23.2913C125.433 23.4851 131.612 25.9933 136.198 30.3209C136.112 30.3316 136.026 30.3531 136.101 30.4285L136.091 30.4071Z" fill="#BEC0C7"/>
<path d="M39.5181 58.3529C35.3951 64.1444 22.8755 66.8895 16.212 64.5212C14.1343 63.7784 11.6584 65.2209 11.1417 66.4911C10.302 68.5149 10.8295 72.5734 15.8137 73.919C18.1281 74.5433 20.5072 74.8771 22.8863 74.6726C28.4841 74.1882 33.9634 72.315 38.6892 69.2578C40.2502 68.2459 41.768 67.0725 42.7476 65.4901C43.7272 63.9076 44.0717 61.8085 43.232 60.1399C42.4785 58.6328 40.2824 57.2979 39.5289 58.3529H39.5181Z" fill="#7A7E80"/>
<path d="M107.025 65.2855C107.025 65.2855 104.84 63.7246 103.57 64.0798C102.299 64.4351 100.319 66.2974 100.577 68.3858C101.029 72.1428 104.302 73.6822 109.577 75.846C112.526 77.0624 115.734 77.5253 118.921 77.5791C123.765 77.6652 128.641 76.8364 133.098 74.9418C133.938 74.5865 134.82 74.1344 135.197 73.2947C135.542 72.5196 135.359 71.6153 135.036 70.8402C134.476 69.5161 133.443 68.3535 132.108 67.8583C130.773 67.3631 129.373 67.417 128.394 68.5473C128.48 70.1513 126.704 70.3451 125.584 70.5927C119.082 72.0244 113.603 70.2696 107.564 67.4277C106.013 66.6957 107.036 65.2747 107.036 65.2747L107.025 65.2855Z" fill="#7A7E80"/>
<path d="M101.804 289.165C103.161 282.727 94.5487 279.444 90.6841 278.184C86.8194 276.925 82.0613 277.786 78.0568 278.184C69.0034 279.078 62.6306 291.145 62.9105 295.064C63.158 298.509 61.1773 306.345 67.9161 305.872C76.8295 305.247 84.9679 304.214 92.6433 303.676C104.442 302.847 107.897 284.482 107.962 280.639C107.983 279.25 106.864 276.3 106.552 275.353C105.486 275.353 103.333 276.763 103.484 275.902C104.399 270.66 102.913 257.774 77.2601 267.247C70.3167 269.809 76.5604 275.504 75.2578 278.184" fill="#8C9095"/>
<path d="M109.91 75.9427C110.933 75.6305 111.417 74.3818 111.245 73.3269C111.073 72.2719 110.416 71.3676 109.792 70.4957C109.167 69.6237 109.921 69.4622 109.813 68.4611C109.437 68.3319 107.219 67.3415 106.918 66.9647C106.465 66.3942 106.821 65.8451 107.068 65.2746C106.121 64.5318 104.991 63.9182 103.796 63.9828C102.073 64.0905 100.674 65.6944 100.469 67.4168C100.265 69.1392 101.051 70.8831 102.235 72.1426C103.43 73.4021 104.98 74.2418 106.541 74.963C107.617 75.4582 108.78 76.2656 109.899 75.9319L109.91 75.9427Z" fill="#7D8083"/>
<path d="M109.878 68.4935C109.975 67.7292 110.825 67.2772 111.59 67.2556C112.354 67.2341 113.107 67.4816 113.872 67.4816C114.894 67.4816 115.863 67.0618 116.735 66.5235C117.607 65.9853 118.382 65.3179 119.243 64.7689C120.901 63.7139 122.796 63.1218 124.561 62.4651C119.276 63.5524 113.646 62.8743 108.726 60.5491C108.662 62.2607 107.843 63.8431 107.014 65.3394C106.831 65.6624 106.67 65.9853 106.713 66.4912C106.767 67.051 107.294 67.2879 107.65 67.4924C108.339 67.9015 109.071 68.2351 109.846 68.4935C109.846 68.4935 109.846 68.4935 109.878 68.4935Z" fill="#ACB0B6"/>
<path d="M101.18 37.1244C100.459 35.5527 99.1023 34.6484 97.8212 35.5311C97.3583 35.854 97.0354 36.3492 96.8739 36.8875C96.4218 38.373 96.0665 40.0309 96.5186 41.5596C96.8954 42.8191 97.9289 43.9494 99.2314 44.0893L101.169 40.5907C99.436 44.1001 99.3391 48.6859 100.986 52.5613C102.633 56.4367 105.97 59.5478 109.943 60.8719C106.562 58.7512 104 55.6724 102.741 52.1092C101.481 48.5459 101.524 44.5199 102.859 40.9782C103.688 38.7822 105.001 36.7475 105.486 34.4546C105.723 33.3135 105.755 32.1187 106.175 31.0314C106.735 29.5889 107.929 28.4801 109.221 27.6404C111.837 25.9288 114.927 25.0891 118.016 24.7769C121.117 24.4539 124.238 24.6262 127.231 24.82C122.947 23.3021 118.264 22.8715 113.807 23.7004C106.164 25.1214 101.955 28.8354 101.654 29.1906C101.654 29.1906 101.363 34.5301 101.191 37.1352L101.18 37.1244Z" fill="#ACB0B6"/>
<path d="M116.305 2.23576C134.592 0.283224 141.028 11.4339 142.479 22.2058C144.066 22.5807 145.447 23.5924 146.16 24.9671C147.595 27.7372 144.83 29.1023 143.669 31.9965C127.262 26.9058 106.352 29.5017 92.5543 32.4591C89.1565 27.1515 94.7263 23.5921 96.0229 23.6854C96.1448 23.6641 97.3811 4.2528 116.305 2.23576Z" fill="#909090"/>
<path d="M109.918 28.9964C109.01 27.9586 108.44 26.6844 108.629 25.3045C108.819 23.9245 109.632 22.6596 110.783 22.1208C110.882 17.8268 111.339 13.4283 113.249 9.5955C115.159 5.7627 118.797 2.56561 123.149 2.27721C116.773 1.15671 109.951 2.90151 104.886 6.96849C99.8206 11.0355 96.5891 17.3498 96.3156 23.9371C94.347 23.986 92.459 25.2838 91.695 27.1237C90.931 28.9637 91.0375 30.9665 92.5642 32.4599C98.4501 29.3844 102.467 28.4603 109.928 28.9971L109.918 28.9964Z" fill="#7D7D7D"/>
<path d="M96.2806 24.0048L96.1861 23.5068C103.711 22.033 111.4 21.2127 119.061 21.0622L119.075 21.5645C111.445 21.7072 103.776 22.5289 96.2813 23.9948L96.2806 24.0048Z" fill="#5D5D5D"/>
<path d="M142.518 22.4994C136.716 21.2096 130.762 20.7612 124.817 21.1756L124.783 20.6719C130.769 20.2504 136.772 20.7024 142.624 22.0057L142.518 22.4994Z" fill="#5D5D5D"/>
<path d="M136.619 19.8995L136.6 20.1688L137.916 20.2635C138.106 20.2772 138.291 20.2103 138.44 20.0907L139.007 19.6001C139.007 19.6001 139.084 19.5053 139.088 19.4455L139.148 18.6176L136.136 18.4009C136.477 18.8065 136.66 19.331 136.619 19.8995Z" fill="#FFF100"/>
<path d="M137.768 14.9491C137.578 14.9354 137.393 14.9923 137.254 15.1226L136.729 15.5862L134.246 17.7736L134.465 14.7215L133.378 14.6432C133.318 14.6389 133.267 14.6553 133.224 14.6923L132.809 15.0334C132.809 15.0334 132.732 15.1281 132.727 15.188L132.407 19.6464C132.398 19.7661 132.491 19.8731 132.61 19.8817L133.877 19.9728C133.997 19.9814 134.104 19.8888 134.112 19.7691L134.256 17.7743C134.428 17.7466 134.6 17.7289 134.779 17.7418C135.318 17.7805 135.792 18.0252 136.136 18.4008L139.303 15.621C139.303 15.621 139.37 15.5256 139.375 15.4657L139.403 15.0668L137.768 14.9491Z" fill="#FFF100"/>
<path d="M136.317 42.9697C136.091 41.398 135.908 39.7832 136.188 38.2223C136.467 36.6614 137.264 35.1113 138.61 34.2932C139.234 33.9056 140.063 33.701 140.698 34.0778C141.355 34.4546 141.581 35.2943 141.667 36.0587C142.054 39.5573 140.526 43.2173 137.781 45.3918C137.576 45.5533 137.329 45.7255 137.07 45.704C136.521 45.6717 136.327 44.929 136.414 44.3799C136.5 43.8309 136.672 43.2065 136.317 42.9697Z" fill="#ACB0B6"/>
<path d="M3.39092 27.4251C1.66853 26.8976 0.968831 29.4811 1.1949 31.2358C2.48669 41.4518 6.27599 51.7216 12.8641 59.171C15.6738 62.3466 19.1078 64.4457 22.8002 65.2638C19.0109 66.0927 14.8879 64.7257 11.8199 61.6039C8.7519 58.482 6.60965 54.3375 4.80113 50.1391C2.13142 43.9601 0.0215299 37.3181 0 30.6438C0 29.6857 0.0537907 28.6631 0.570509 27.9633C1.08723 27.2636 2.84197 26.6608 3.38022 27.4143L3.39092 27.4251Z" fill="#ACB0B6"/>
<path d="M4.16599 17.6613C2.48666 18.5763 3.11103 23.1299 3.29403 24.271C4.42436 31.4189 6.48045 37.7595 9.80683 43.9601C10.2159 43.6802 11.3355 42.9482 11.6261 42.7545C8.98869 37.0598 6.82494 31.1498 5.1779 25.0891C4.51048 22.6562 3.83229 20.0403 4.17677 17.672L4.16599 17.6613Z" fill="#ACB0B6"/>
<path d="M15.4262 40.3862C12.961 34.9391 11.0663 29.223 9.79605 23.3668C9.39774 21.5583 8.93484 19.8036 9.04249 17.952C9.15014 16.1004 9.74221 13.9259 11.1955 12.4619C9.78527 15.4007 10.4205 19.0824 11.1202 22.2688C12.4227 28.2003 14.2527 34.0026 16.5995 39.6542C16.2335 39.9556 15.8029 40.1816 15.4154 40.3754L15.4262 40.3862Z" fill="#ACB0B6"/>
<path d="M24.3934 38.4915C22.3481 32.8937 21.1532 26.9945 20.8302 21.0307C20.7118 18.8239 20.7657 16.4449 22.262 14.4534C20.4104 15.1639 19.2909 17.1553 19.0433 19.1253C18.7957 21.0953 19.2586 23.0869 19.7107 25.0246C20.7549 29.4275 21.8314 34.0779 23.0478 38.4162C23.5215 38.4808 23.9521 38.287 24.3827 38.4915H24.3934Z" fill="#ACB0B6"/>
<path d="M34.7278 46.2746C34.8462 43.2066 33.3929 41.9148 35.8689 38.4054C39.755 32.8937 37.602 31.5589 37.2791 31.462C36.8592 31.3221 36.0842 32.6031 35.8689 33.0014C34.6094 35.3697 33.7481 37.1566 33.7481 37.1566C33.7481 37.1566 32.3379 40.5261 32.5855 40.8598C32.9084 41.2904 34.0819 43.5942 34.717 46.2746H34.7278Z" fill="#ACB0B6"/>
<path d="M113.344 49.9455C115.39 48.0078 115.917 48.7937 116.918 48.9767C117.855 49.1489 119.76 49.1274 120.266 49.741C119.007 50.4084 114.27 50.6129 113.344 49.9455Z" fill="#656768"/>
<path d="M27.1923 73.9943C30.6263 81.3791 34.1141 88.8499 39.1844 95.2012C44.2547 101.553 51.1551 106.784 59.1212 108.205C57.3449 111.101 54.503 112.188 51.1336 112.059C42.1771 111.704 33.1884 105.17 27.7844 97.9248C22.3803 90.6908 19.1293 82.0787 15.6522 73.8973C21.3899 75.7597 27.3968 73.6606 27.203 74.0051L27.1923 73.9943Z" fill="#878B90"/>
<path d="M74.5689 268.851C77.906 266.569 81.7922 265.105 85.7968 264.642C79.9514 248.527 77.4001 231.195 78.3366 214.057C78.8103 205.456 80.2528 196.607 84.8925 189.362C85.1939 188.889 85.5277 188.34 85.3877 187.791C85.2047 187.091 84.3758 186.822 83.6761 186.671C80.748 186.025 77.4755 185.433 74.9027 186.983C73.2341 187.995 72.1575 189.75 71.2748 191.494C65.3218 203.131 64.6544 216.77 65.2572 229.849C65.8924 243.51 67.9269 257.569 74.5797 268.84L74.5689 268.851Z" fill="#A6A9B0"/>
<path d="M141.215 263.824C143.766 244.178 144.756 224.327 144.186 204.52C144.057 200.138 143.852 195.735 142.905 191.462C142.528 189.772 141.882 187.909 140.321 187.177C139.083 186.607 137.641 186.919 136.338 187.317C132.431 188.523 128.738 190.417 125.466 192.904C131.623 218.729 131.946 243.273 127.382 270.982C127.263 271.919 126.133 274.244 126.295 273.986C127.016 273.889 128.631 273.362 129.352 273.265C129.352 270.703 129.869 267.624 132.291 265.794C134.713 263.964 138.76 262.952 141.226 263.802L141.215 263.824Z" fill="#A6A9B0"/>
<path d="M88.7464 276.613C86.841 277.312 85.603 279.508 86.0982 281.629C90.1027 285.278 92.1158 291.038 91.2761 296.614C93.4506 299.466 97.9827 300.091 100.954 297.819C100.254 300.059 98.2733 301.695 96.0988 302.556C93.9243 303.417 91.5775 303.6 89.2523 303.772C82.1689 304.311 75.0748 304.849 67.9915 305.387C66.7966 305.473 65.5048 305.549 64.4929 304.903C63.1795 304.074 62.792 302.352 62.6198 300.812C60.9727 286.161 75.4301 277.032 75.4301 277.032C75.4301 277.032 73.3201 273.814 73.5031 271.704C73.7184 269.206 74.1275 269.303 76.0975 267.775C78.8857 265.622 83.3531 264.19 85.7968 264.653C85.7968 264.75 88.1435 272.845 88.7464 276.623V276.613Z" fill="#83878B"/>
<path d="M101.384 34.1748C101.277 35.5204 101.298 36.8767 101.438 38.2223" stroke="#656768" stroke-width="1.0765" stroke-miterlimit="10"/>
<path d="M100.2 48.9767C99.662 45.9625 99.9957 42.8082 101.148 39.9771" stroke="#656768" stroke-width="1.0765" stroke-miterlimit="10"/>
<path d="M135.918 47.954C136.209 46.0163 136.317 44.0464 136.231 42.0979" stroke="#656768" stroke-width="1.0765" stroke-miterlimit="10"/>
<path d="M136.101 32.5171C136.134 33.3352 136.101 34.1642 135.994 34.9715" stroke="#656768" stroke-width="1.0765" stroke-miterlimit="10"/>
<path d="M136.478 40.5475C136.812 38.4591 138.039 36.5322 139.794 35.3696" stroke="#656768" stroke-width="1.0765" stroke-miterlimit="10"/>
<path d="M97.4122 36.3708C99.0484 37.5442 100.265 39.3097 100.782 41.269" stroke="#656768" stroke-width="1.0765" stroke-miterlimit="10"/>
<path d="M136.78 40.483C137.878 39.7403 139.159 39.2774 140.472 39.1482" stroke="#656768" stroke-width="1.0765" stroke-miterlimit="10"/>
<path d="M95.9481 39.2881C97.5952 39.2128 99.2637 39.8049 100.502 40.9029" stroke="#656768" stroke-width="1.0765" stroke-miterlimit="10"/>
<path d="M112.483 49.1164C112.946 47.1141 114.981 45.607 117.015 45.7793C119.05 45.9515 120.815 47.7708 120.944 49.8269" stroke="#656768" stroke-width="1.0765" stroke-miterlimit="10"/>
<path d="M106.211 55.0519C106.021 54.3319 105.851 53.5319 106.211 52.8919C106.511 52.3819 107.101 52.0919 107.691 52.0219C108.281 51.9519 108.871 52.0619 109.451 52.1819" fill="#656768"/>
<path d="M106.211 55.0519C106.021 54.3319 105.851 53.5319 106.211 52.8919C106.511 52.3819 107.101 52.0919 107.691 52.0219C108.281 51.9519 108.871 52.0619 109.451 52.1819" stroke="#A6A6A6" stroke-miterlimit="10"/>
<path d="M128.271 53.9019C124.941 55.7819 111.451 56.2119 108.271 54.1119C109.661 55.5519 114.971 56.1319 116.921 56.2819C121.871 56.6619 126.751 55.0919 128.271 53.9019Z" fill="#656768"/>
<path d="M112.192 41.2905C112.526 39.4282 112.838 37.4474 112.149 35.6819C111.999 35.2944 111.654 34.8745 111.277 35.0037C111.03 35.0898 110.922 35.3698 110.847 35.6174C110.233 37.6089 110.126 39.7511 110.513 41.7965C110.578 42.1302 110.696 42.5178 111.008 42.6469C111.31 42.7869 111.676 42.6038 111.88 42.3347C112.085 42.0656 112.117 41.7211 112.192 41.2905Z" fill="#656768"/>
<path d="M126.251 42.3237C126.714 40.4829 127.167 38.5345 126.607 36.726C126.488 36.3384 126.176 35.8863 125.778 35.9939C125.53 36.0585 125.401 36.3277 125.304 36.5753C124.561 38.513 124.292 40.6444 124.54 42.7112C124.583 43.0557 124.669 43.4433 124.97 43.594C125.261 43.7448 125.649 43.5939 125.853 43.3463C126.058 43.0987 126.133 42.7543 126.241 42.3237H126.251Z" fill="#656768"/>
<path d="M108.662 60.2692C113.581 63.0358 119.577 63.7892 125.014 62.3252L125.057 62.3467" stroke="#656768" stroke-width="1.0765" stroke-miterlimit="10"/>
<path d="M4.17676 28.1462C5.46855 33.6687 7.39547 39.0297 9.88218 44.1215" stroke="#656768" stroke-width="1.0765" stroke-miterlimit="10"/>
<path d="M9.22559 19.9541C10.3774 26.9944 12.4551 33.8733 15.4047 40.3646" stroke="#656768" stroke-width="1.0765" stroke-miterlimit="10"/>
<path d="M18.7849 18.8453C19.6676 25.5411 21.11 32.1509 23.1123 38.5884" stroke="#656768" stroke-width="1.0765" stroke-miterlimit="10"/>
<path d="M8.65497 45.4241C13.0148 40.5583 19.7645 37.9101 26.2557 38.5453" stroke="#656768" stroke-width="1.0765" stroke-miterlimit="10"/>
<path d="M32.5963 40.8599C33.888 43.0559 34.717 45.5318 35.0184 48.0723" stroke="#656768" stroke-width="1.0765" stroke-miterlimit="10"/>
<path d="M108.726 35.1436C109.028 34.2931 109.329 33.4104 109.921 32.7322C110.513 32.054 111.46 31.602 112.322 31.8603C112.052 31.2037 111.224 30.8914 110.545 31.0959C109.867 31.3005 109.361 31.8927 109.103 32.5601C108.845 33.2275 108.823 33.9594 108.726 35.1436Z" fill="#656768"/>
<path d="M128.663 35.811C128.361 34.9498 128.049 34.0778 127.457 33.3889C126.865 32.6999 125.918 32.2478 125.057 32.5062C125.326 31.8388 126.165 31.5374 126.844 31.7419C127.522 31.9465 128.038 32.5493 128.286 33.2167C128.534 33.8842 128.566 34.6161 128.663 35.811Z" fill="#656768"/>
<path d="M86.6902 93.0592C90.5549 84.7701 93.2138 74.8233 101.083 70.2589" stroke="#BABCC3" stroke-width="1.0765" stroke-miterlimit="10"/>
<path d="M106.552 275.364C98.1765 281.371 99.0054 285.666 94.6563 287.614C90.3826 282.953 87.6052 280.445 82.1797 280.133C76.7542 279.82 71.264 281.715 66.8504 285.558C69.2295 281.758 73.74 277.829 73.7292 278.184C76.6035 275.202 83.5899 274.879 87.1209 275.902C98.3379 279.174 99.5974 271.165 106.562 275.353L106.552 275.364Z" fill="#787D80"/>
<path d="M62.8781 297.669C65.1711 291.059 70.6289 297.518 87.6376 297.518C96.6155 297.518 99.6513 294.31 103.43 286.366C104.732 283.631 106.767 280.746 107.477 278.184C108.92 281.564 105.863 291.274 104.173 294.978C102.482 298.691 100.889 300.199 97.6813 302.061C94.5379 303.88 92.837 303.514 85.5061 304.278C79.3593 304.914 75.0856 305.14 68.9388 305.786C67.6147 305.926 64.4821 306.787 63.1688 302.804C62.7813 301.63 62.6844 298.928 62.8781 297.669Z" fill="#787D80"/>
<path d="M130.191 288.163C129.223 281.629 138.007 279.056 141.936 278.12C145.865 277.183 150.57 278.443 154.531 279.164C163.509 280.8 169.139 293.363 168.633 297.249C168.181 300.661 169.677 308.649 162.992 307.616C154.133 306.259 146.081 304.558 138.459 303.396C126.736 301.598 124.389 282.996 124.561 279.153C124.626 277.764 125.918 274.922 126.284 273.997C127.35 274.083 129.406 275.665 129.309 274.793C128.717 269.497 130.956 256.751 155.984 268.313C162.755 271.445 156.178 276.613 157.319 279.39" fill="#8C9095"/>
<path d="M141.053 264.028C138.254 263.264 135.1 263.91 132.818 265.719C130.536 267.538 129.18 270.466 129.266 273.405C127.306 273.179 125.616 275.095 125.336 277.065C125.057 279.035 125.799 280.994 126.521 282.846C127.414 285.149 128.318 287.442 129.212 289.746C130.299 292.545 131.462 295.441 133.658 297.464C135.843 299.488 138.825 300.403 141.764 300.834C143.583 301.103 145.585 301.168 147.114 300.145C148.944 298.918 149.558 296.517 149.805 294.321C150.29 289.961 149.611 285.02 146.253 282.243C144.972 281.188 143.271 280.391 142.754 278.798C142.442 277.829 142.647 276.785 142.786 275.773C143.346 271.661 142.614 267.387 140.806 263.652C140.806 263.813 140.806 263.964 141.043 264.018L141.053 264.028Z" fill="#83878B"/>
<path d="M126.295 273.997C134.293 280.682 133.206 284.891 137.426 287.205C141.968 282.91 144.886 280.639 150.322 280.768C155.758 280.897 161.119 283.244 165.296 287.442C163.154 283.459 158.88 279.164 158.88 279.519C156.189 276.3 149.246 275.407 145.661 276.139C134.282 278.475 133.496 270.38 126.305 273.997H126.295Z" fill="#787D80"/>
<path d="M168.515 299.843C166.62 293.061 160.796 299.047 143.82 297.647C134.864 296.905 132.032 293.46 128.728 285.225C127.586 282.393 125.735 279.347 125.186 276.731C123.539 279.982 126.015 289.918 127.468 293.761C128.921 297.604 130.428 299.241 133.518 301.361C136.554 303.439 138.265 303.213 145.532 304.58C151.625 305.721 155.877 306.302 161.97 307.443C163.283 307.691 166.362 308.811 167.901 304.946C168.353 303.816 168.622 301.114 168.504 299.843H168.515Z" fill="#787D80"/>
<g opacity="0.27">
<path d="M43.006 64.9841C43.7595 63.477 43.9748 61.6362 43.2212 60.1291C42.4677 58.622 40.2716 57.2871 39.5181 58.3421C39.1198 58.9018 38.6462 59.4293 38.0972 59.9353C38.6677 59.0741 39.1844 58.1159 39.6473 57.061C42.3709 50.8711 41.5635 43.9386 44.3839 38.5776C45.5034 36.4461 45.4712 34.9821 44.8253 33.7334C41.4235 30.084 32.8116 41.1073 31.9719 52.529C30.6155 70.937 15.7275 64.392 15.7275 64.392C15.7275 64.392 19.6029 66.3512 24.3933 65.5008C25.2976 65.3393 25.0716 80.5179 47.5165 103.157C48.9375 104.588 47.8933 107.958 46.7522 111.381C47.9471 111.682 49.1635 111.898 50.3692 111.995C50.7675 110.477 51.1658 108.948 51.5534 107.43C53.0174 101.746 54.1046 96.0517 55.2672 90.314C55.8808 87.3105 56.6129 84.3287 57.388 81.3576C51.4027 83.0154 47.0536 80.0658 42.9952 64.9733L43.006 64.9841Z" fill="#FFF100"/>
<path d="M107.779 279.304C107.714 278.884 107.617 278.507 107.488 278.184C107.154 277.032 106.724 275.891 106.551 275.364C106.551 275.364 91.3944 230.775 104.549 198.028C102.665 198.524 100.803 199.18 98.9837 200.074C93.1168 202.959 87.2929 205.908 81.1031 208.061C75.8928 209.87 70.6611 211.592 65.4509 213.401C64.9664 218.859 64.9987 224.413 65.2463 229.871C65.8599 243.026 67.7761 256.547 73.8583 267.602C74.0736 268.065 74.2889 268.528 74.5149 268.991C73.8583 269.572 73.643 270.11 73.503 271.714C73.3416 273.652 75.0855 276.494 75.3869 276.968C74.7518 277.312 74.1812 277.721 73.7183 278.195C73.7183 277.872 69.886 281.198 67.4209 284.697C66.3767 286.107 65.3755 287.69 64.5681 289.434C63.6423 291.296 63.0718 293.018 62.9426 294.267C62.7704 295.075 62.6628 295.914 62.5874 296.765C89.9627 303.342 103.204 290.198 107.843 282.146C107.919 281.532 107.951 281.026 107.962 280.649C107.962 280.283 107.897 279.821 107.779 279.304Z" fill="#FFF100"/>
<path d="M172.724 171.417C173.467 171.062 174.92 170.535 175.146 169.243C175.2 168.952 175.221 168.672 175.2 168.382C175.264 168.414 175.318 168.457 175.383 168.489C180.378 159.328 187.838 145.151 190.755 131.059C189.302 125.085 187.17 119.304 184.232 113.889C176.018 98.7107 162.443 87.3752 149.471 76.0827C148.309 75.0708 147.157 74.0481 146.059 72.9716C142.216 71.034 138.879 70.2804 135.122 71.0662C135.133 71.0878 135.165 71.174 135.186 71.3032C135.133 71.1524 135.089 71.0017 135.025 70.8618C134.465 69.5377 133.432 68.375 132.097 67.8798C130.762 67.3846 129.363 67.4385 128.383 68.558C127.091 66.5557 126.079 64.3705 125.25 62.3682C131.01 59.8061 135.208 54.0038 135.843 47.8678C135.865 47.8678 135.897 47.8786 135.918 47.8894V47.9431C135.918 47.9431 135.918 47.9109 135.918 47.8894C137.835 48.4491 139.966 47.4694 141.236 45.8977C141.667 45.3595 142.011 44.7674 142.291 44.1538C141.279 42.3238 139.331 41.6133 136.306 42.9697C106.702 56.2752 99.9849 37.4581 96.5078 41.5595C95.6358 42.593 95.1407 43.3465 94.8931 44.057C94.9792 44.3584 95.0761 44.6491 95.1945 44.9398C96.0449 47.0066 97.9288 48.7613 99.9634 48.9443C100.146 50.1823 100.48 51.4095 100.975 52.5721C101.417 53.6163 101.976 54.5959 102.644 55.5001C103.645 56.9534 104.915 58.2021 106.39 59.1279C107.133 59.6339 107.929 60.0644 108.758 60.4304C108.758 60.4735 108.758 60.5273 108.748 60.5704C108.748 60.7642 108.726 60.958 108.694 61.141C108.618 61.6146 108.5 62.0883 108.349 62.5512C108.059 63.4017 107.65 64.2197 107.219 65.0163C107.165 65.1024 107.122 65.1885 107.068 65.2639C106.132 64.5319 105.001 63.9183 103.817 63.9937C102.816 64.0583 101.923 64.6288 101.309 65.4362C105.174 68.4288 108.855 71.7444 112.386 75.0923C116.692 79.1722 120.546 83.7259 124.841 87.8274C129.352 92.1333 134.831 95.4489 139.901 99.0444C142.259 100.713 144.509 102.468 146.683 104.373C146.791 104.47 146.909 104.567 147.017 104.664C146.802 103.943 146.586 103.21 146.371 102.478C150.15 105.708 153.96 108.97 158.202 112.554C158.858 113.125 159.461 113.652 160 114.115C162.056 115.956 164.629 118.421 165.199 119.713C165.802 121.08 166.006 123.804 165.91 125.655C165.759 127.83 165.328 130.274 164.736 132.976C164.284 134.795 163.714 136.905 163.057 140.059C162.928 140.586 162.798 141.125 162.669 141.663C161.862 144.72 160.462 149.166 160.301 151.588C160.279 151.943 160.269 152.288 160.28 152.643C160.28 152.654 160.28 152.676 160.28 152.686C160.28 152.708 160.279 152.74 160.29 152.762C160.29 152.945 160.312 153.117 160.323 153.3C160.226 153.343 160.129 153.386 160.032 153.451C159.881 152.772 159.72 152.083 159.558 151.384C157.987 153.515 156.34 155.679 153.81 156.68C151.075 157.757 148.137 158.381 145.704 160.114C143.432 161.729 142.367 164.226 140.364 166.078C139.428 166.939 138.373 167.682 137.329 168.414C136.78 168.801 136.274 169.232 135.757 169.663C135.563 169.824 135.423 170.158 135.402 170.093C135.434 171.008 136.737 172.472 137.059 173.344C137.727 175.12 137.544 176.993 136.51 178.597C133.862 182.71 128.394 182.494 125.455 185.864C125.928 186.101 126.305 186.553 126.424 187.285C126.768 189.341 126.704 191.451 125.519 193.055C131.645 218.837 131.957 243.327 127.403 270.993C127.393 271.069 127.382 271.144 127.36 271.209C127.134 272.242 126.155 274.244 126.305 274.007C126.101 274.524 125.606 275.633 125.207 276.753C125.175 276.828 125.143 276.903 125.11 276.979C130.547 287.485 139.977 303.116 167.567 292.093C166.954 290.532 166.125 288.852 165.048 287.216C165.135 287.291 165.221 287.377 165.296 287.453C163.154 283.47 158.88 279.175 158.88 279.53C158.439 279.002 157.89 278.55 157.255 278.141C157.707 275.471 161.227 271.682 157.201 268.991C164.252 243.521 163.165 214.499 160.053 192.108C163.821 188.038 167.675 182.828 168.988 180.524C170.355 178.135 171.421 173.979 172.067 171.665C172.293 171.611 172.509 171.536 172.724 171.439V171.417Z" fill="#FFF100"/>
</g>
<path d="M55.1166 88.6993L32.6716 180.159C27.2568 202.227 48.3884 221.55 69.8861 214.187L165.339 181.483C186.74 174.152 191.67 146.109 174.037 131.921L101.029 73.1655C84.6556 59.9784 60.1223 68.2782 55.1166 88.6993Z" fill="#C3B404"/>
<path d="M60.133 84.9963L37.6881 176.455C32.2733 198.524 53.405 217.847 74.9026 210.483L170.356 177.779C191.756 170.449 196.687 142.406 179.054 128.218L106.046 69.4624C89.6721 56.2753 65.1388 64.5751 60.133 84.9963Z" fill="#FFF100"/>
<path d="M61 81.5L32.4778 197.716C29.2376 210.935 42.3708 221.614 56.0854 216.921L173 177C21.3432 221.438 100.5 93.5 66.5 73L66 73.5L65.5 74L64 76L61 81.5Z" fill="#E2D420"/>
<path d="M66.4198 103.673L52.576 160.082C47.1612 182.15 68.2928 201.473 89.7905 194.11L148.664 173.936C170.065 166.605 174.995 138.563 157.362 124.374L112.332 88.1288C95.9588 74.9417 71.4255 83.2414 66.4198 103.663V103.673Z" stroke="#61615C" stroke-width="3.22949" stroke-miterlimit="10"/>
<path d="M106.982 170.858L92.8479 128.874C92.2666 127.141 93.1816 125.257 94.904 124.665L104.506 121.371C106.229 120.779 108.091 121.715 108.683 123.449L122.818 165.432C123.399 167.165 122.484 169.049 120.761 169.641L111.159 172.935C109.437 173.527 107.574 172.591 106.982 170.858Z" fill="#4B4B42"/>
<path d="M97.1917 114.638C101.96 112.859 104.506 107.881 102.879 103.519C101.252 99.1577 96.0671 97.0641 91.299 98.843C86.5308 100.622 83.9846 105.6 85.6119 109.961C87.2391 114.323 92.4236 116.416 97.1917 114.638Z" fill="#4B4B42"/>
<path d="M104.765 171.643L90.6302 129.66C90.0489 127.927 90.9639 126.043 92.6863 125.451L102.289 122.157C104.011 121.565 105.873 122.501 106.465 124.234L120.6 166.218C121.181 167.951 120.266 169.835 118.544 170.427L108.941 173.721C107.219 174.313 105.357 173.377 104.765 171.643Z" fill="#61615C"/>
<path d="M94.9695 115.431C99.7377 113.653 102.284 108.675 100.657 104.313C99.0294 99.9517 93.8449 97.858 89.0767 99.637C84.3086 101.416 81.7624 106.394 83.3896 110.755C85.0169 115.117 90.2013 117.21 94.9695 115.431Z" fill="#61615C"/>
<path d="M160.183 156.454C155.683 155.507 150.709 157.423 147.986 161.158C146.522 163.171 145.51 165.776 143.249 166.778C142.442 167.133 141.527 167.251 140.763 167.693C139.126 168.629 138.61 171.094 139.729 172.623C140.849 174.152 144.724 173.969 146.167 172.946C137.479 180.212 138.782 179.125 133.669 181.719C131.914 182.602 129.944 183.668 129.449 185.584C129.018 187.253 130.127 188.846 131.429 189.955C133.033 191.322 135.671 190.202 135.671 190.202C135.671 190.202 135.262 193.475 136.5 194.293C137.738 195.111 139.342 195.176 140.773 194.799C142.205 194.433 142.84 193.938 144.304 193.464C144.53 195.488 145.714 196.962 147.706 196.596C150.494 196.08 151.614 195.251 151.614 195.251C152.303 196.489 154.294 197.286 155.758 196.144C160.344 192.614 167.148 183.711 168.988 180.492C170.84 177.273 172.121 170.836 172.584 170.039C169.214 170.039 166.136 167.865 164.176 165.098C162.217 162.332 161.195 159.016 159.903 155.916C159.913 155.948 159.935 155.97 160.172 156.443L160.183 156.454Z" fill="#BEC0C7"/>
<path d="M161.604 153.407C160.764 152.395 158.923 154.269 158.439 155.496C157.954 156.723 158.374 158.112 158.815 159.36C159.817 162.17 160.99 164.98 162.852 167.305C164.715 169.63 167.352 171.449 170.302 171.74C171.12 171.826 171.97 171.783 172.713 171.428C173.456 171.073 174.909 170.545 175.135 169.253C175.361 167.962 175.2 166.928 172.261 165.055C167.514 162.019 163.1 158.359 161.604 153.418V153.407Z" fill="#7A7E80"/>
<path d="M160.549 163.613C160.818 161.384 162.4 159.382 164.532 158.596C163.035 157.272 162.131 155.539 161.647 153.386C161.119 152.891 160.236 153.192 159.698 153.677C158.374 154.861 158.03 156.863 158.374 158.618C158.719 160.373 159.644 161.944 160.559 163.613H160.549Z" fill="#656768"/>
<path d="M158.342 156.228C153.821 156.034 150.042 158.101 147.685 161.6C146.856 162.827 146.124 164.592 144.993 165.54C144.175 166.229 143.152 166.616 142.184 167.068C141.215 167.52 140.235 168.08 139.643 168.974C139.051 169.867 138.943 171.181 139.675 171.966C139.234 171.396 139.449 170.567 139.923 170.007C140.397 169.447 141.075 169.092 141.775 168.877C142.474 168.661 143.196 168.532 143.895 168.338C146.059 167.725 147.986 166.293 149.213 164.388C149.891 163.344 150.419 162.095 151.506 161.503C152.27 161.083 153.185 161.072 154.047 161.158C154.908 161.244 155.769 161.438 156.641 161.395C157.513 161.352 158.353 161.104 158.945 160.459C158.32 158.779 158.202 157.606 158.353 156.249L158.342 156.228Z" fill="#ACB0B6"/>
<path d="M129.578 187.425C129.05 186.176 129.546 184.68 130.461 183.689C131.376 182.699 132.614 182.085 133.83 181.515C138.836 179.157 141.861 177.112 145.671 173.323C147.749 172.268 149.568 170.685 150.903 168.758C149.472 172.623 146.285 175.53 143.077 178.102C140.02 180.568 138.954 182.688 135.24 183.926C134.142 184.292 132.99 184.561 131.957 185.089C130.923 185.616 129.965 186.456 129.578 187.446V187.425Z" fill="#ACB0B6"/>
<path d="M153.261 179.297C150.419 183.14 142.044 187.888 135.66 190.213C135.66 190.213 135.305 193.066 136.284 194.131C135.638 189.729 138.556 190.611 141.721 189.201C147.771 186.499 152.13 181.999 153.261 179.308V179.297Z" fill="#ACB0B6"/>
<path d="M157.728 183.065C156.566 187.188 152.852 189.169 148.417 192C146.274 193.367 145.488 196.069 145.488 196.069C145.488 196.069 144.154 194.767 144.304 193.475C149.794 190.88 155.338 187.037 157.739 183.065H157.728Z" fill="#ACB0B6"/>
<path d="M161.313 186.456L161.345 186.208C160.506 187.952 159.235 189.492 157.847 190.88C156.458 192.269 154.929 193.529 153.465 194.842C153.25 195.036 153.024 195.24 152.916 195.509C152.809 195.778 152.723 196.274 152.949 196.435C152.895 196.435 151.398 195.628 151.764 195.154C151.84 195.057 158.729 189.675 161.313 186.445V186.456Z" fill="#ACB0B6"/>
<path d="M135.66 190.202C141.624 187.823 147.684 185.627 153.142 179.114" stroke="#656768" stroke-width="1.0765" stroke-miterlimit="10"/>
<path d="M144.294 193.475C154.897 188.447 157.448 183.42 157.448 183.42" stroke="#656768" stroke-width="1.0765" stroke-miterlimit="10"/>
<path d="M151.603 195.262C154.951 192.818 159.214 189.276 161.324 185.982" stroke="#656768" stroke-width="1.0765" stroke-miterlimit="10"/>
<path d="M144.401 173.57C148.449 172.429 150.623 169.027 152.722 165.658" stroke="#656768" stroke-width="1.0765" stroke-miterlimit="10"/>
<path d="M135.111 71.0663C145.628 68.8595 152.862 78.6556 177.191 93.0592C206.063 110.154 185.588 149.79 175.394 168.489C168.633 164.485 161.27 159.684 160.269 152.676C163.617 134.289 169.925 121.328 162.476 116.193C161.345 115.407 140.892 97.3651 139.815 95.8688C136.79 94.3725 128.254 77.5576 133.518 75.0279C136.015 73.8329 135.143 70.851 135.122 71.0663H135.111Z" fill="#91969B"/>
<path d="M163.315 158.984C166.265 152.17 173.251 124.288 172.702 119.799C172.121 115.041 168.181 111.489 164.37 108.636C154.466 101.219 143.518 95.2121 132.312 90.4971C141.624 98.3555 148.869 104.675 158.18 112.533C160.097 114.158 164.413 117.98 165.178 119.692C165.802 121.091 165.996 123.944 165.888 125.806C165.576 131.049 164.553 132.846 163.046 140.037C162.454 142.879 160.473 148.682 160.29 151.577C160.107 154.473 160.99 157.627 163.326 158.995L163.315 158.984Z" fill="#83878B"/>
<g opacity="0.27">
<path d="M153.638 196.65C153.874 195.111 155.015 193.432 156.113 192.183C165.92 181.041 172.541 167.466 179.043 154.086C184.102 143.665 189.302 132.136 186.546 120.865C184.221 111.359 176.599 104.072 168.45 98.7646C160.301 93.4574 151.259 89.5066 143.594 83.4998C139.923 80.6255 136.435 76.9547 135.251 72.5088C135.154 73.3808 134.756 74.4141 133.507 75.017C129.513 76.9331 133.453 87.063 136.92 92.4993C135.391 91.7996 133.862 91.1321 132.323 90.4862C141.635 98.3447 148.879 104.664 158.191 112.522C158.848 113.093 159.451 113.62 159.989 114.083C162.045 115.924 164.607 118.389 165.178 119.681C165.78 121.048 165.985 123.772 165.888 125.623C165.737 127.798 165.307 130.241 164.715 132.943C164.263 134.763 163.692 136.872 163.035 140.027C162.906 140.554 162.777 141.092 162.648 141.631C161.84 144.688 160.441 149.134 160.28 151.556C160.258 151.911 160.247 152.256 160.258 152.611C160.258 152.622 160.258 152.643 160.258 152.654C160.258 152.675 160.258 152.708 160.269 152.729C160.269 152.901 160.29 153.085 160.301 153.257C160.075 153.354 159.87 153.494 159.687 153.644C159.354 153.946 159.085 154.301 158.869 154.688C158.686 154.958 158.536 155.227 158.439 155.464C158.342 155.7 158.288 155.948 158.256 156.196C154.305 156.045 150.914 157.638 148.557 160.394C148.47 160.491 148.395 160.588 148.32 160.685C148.234 160.792 148.147 160.9 148.061 161.008C148.029 161.051 147.997 161.083 147.964 161.126C147.868 161.266 147.76 161.406 147.663 161.557C147.663 161.557 147.663 161.557 147.663 161.567C146.748 162.924 145.962 164.463 144.853 165.593C144.057 166.218 143.088 166.605 142.162 167.036C142.001 167.111 141.839 167.187 141.678 167.273C141.355 167.38 141.032 167.499 140.741 167.671C139.105 168.608 138.588 171.073 139.708 172.601C140.827 174.13 144.703 173.947 146.145 172.924C146.048 173.01 145.951 173.086 145.855 173.172C145.79 173.204 145.715 173.247 145.65 173.28C145.51 173.42 145.37 173.549 145.23 173.689C142.453 176.014 140.806 177.381 139.611 178.285C137.91 179.405 136.058 180.406 133.809 181.472C132.592 182.042 131.354 182.656 130.439 183.646C130.041 184.088 129.718 184.626 129.535 185.196C129.492 185.315 129.459 185.433 129.427 185.552C128.997 187.22 130.105 188.813 131.408 189.922C133.012 191.289 135.649 190.17 135.649 190.17C135.649 190.17 135.283 193.055 136.274 194.088C136.338 194.153 136.403 194.217 136.478 194.261C137.716 195.079 139.32 195.143 140.752 194.766C142.184 194.4 142.819 193.905 144.283 193.432C144.207 194.077 144.498 194.713 144.81 195.197C145.37 196.22 146.35 196.812 147.674 196.564C150.462 196.048 151.581 195.219 151.581 195.219C151.614 195.283 151.657 195.348 151.7 195.402C151.775 195.606 152.034 195.843 152.303 196.026C152.464 196.144 152.636 196.252 152.819 196.349C152.873 196.381 152.906 196.392 152.916 196.392C153.142 196.489 153.368 196.564 153.616 196.607L153.638 196.65Z" fill="#FFF100"/>
</g>
</svg>
