<svg width="281" height="260" viewBox="0 0 281 260" fill="none" xmlns="http://www.w3.org/2000/svg">
<path d="M239.64 5.26001C248.3 8.16001 256.77 16.67 259.58 25.37C250.91 22.49 242.47 13.95 239.64 5.26001Z" fill="#FFF100"/>
<path d="M256.69 1.79993C254.28 11.8299 246 22.9 237 27.97C239.38 17.92 247.71 6.88993 256.69 1.79993Z" fill="#FFF100"/>
<path d="M248.42 0C252.81 8.75 253.27 21.01 248.99 29.87C244.99 21.47 244.58 8.51 248.42 0Z" fill="#FFF100"/>
<path d="M260.32 235.26C268.98 238.16 277.45 246.67 280.26 255.37C271.59 252.49 263.15 243.95 260.32 235.26Z" fill="#FFF100"/>
<path d="M279.03 233.27C275.3 242.87 265.59 252.71 256 256.5C259.71 246.88 269.45 237.09 279.03 233.27Z" fill="#FFF100"/>
<path d="M269.09 230C273.48 238.75 273.94 251.01 269.66 259.87C265.66 251.47 265.25 238.51 269.09 230Z" fill="#FFF100"/>
<path d="M4.31 167.27C12.97 170.17 21.44 178.68 24.25 187.38C15.58 184.5 7.14 175.96 4.31 167.27Z" fill="#FFF100"/>
<path d="M23.03 165.28C19.3 174.88 9.59 184.72 0 188.51C3.71 178.89 13.45 169.1 23.03 165.28Z" fill="#FFF100"/>
<path d="M13.09 162C17.48 170.75 17.94 183.01 13.66 191.87C9.65998 183.47 9.24999 170.51 13.09 162Z" fill="#FFF100"/>
</svg>
