<svg width="390" height="390" viewBox="0 0 390 390" fill="none" xmlns="http://www.w3.org/2000/svg">
<g filter="url(#filter0_f_4954_2832)">
<circle cx="194.547" cy="194.546" r="58.5" fill="#FFF100"/>
</g>
<path d="M184.641 92.2139C183.151 93.2039 181.151 93.3839 179.511 92.6639C177.871 91.9439 176.631 90.3639 176.621 88.9639C174.761 89.2539 172.771 88.2739 171.851 86.6239C170.931 84.9739 171.141 82.7439 172.711 81.3739C171.741 81.2739 170.751 81.1339 169.891 80.6739C169.031 80.2139 168.311 79.3739 168.251 78.3939C168.171 77.1239 169.161 76.0539 170.131 75.2339C175.281 70.9039 182.151 68.7239 189.101 69.3439C193.011 66.9239 197.881 66.1439 202.651 67.2039C208.331 64.3239 215.361 64.3239 221.031 67.2239C222.461 67.9539 223.861 68.9139 224.581 70.3539C225.301 71.7939 225.121 73.7939 223.061 75.2539C224.271 76.5839 224.561 78.6839 223.761 80.3039C222.961 81.9139 221.111 82.9439 219.331 82.7539C217.601 82.5739 216.101 81.3639 215.131 79.8939C214.161 78.4239 213.651 76.7139 212.981 75.2339C206.941 73.8839 200.401 74.9539 195.081 78.1439C189.761 81.3339 185.731 86.6339 184.641 92.2139Z" fill="#6C6C6C"/>
<path d="M194.194 357.726C232.672 357.726 263.865 350.781 263.865 342.214C263.865 333.646 232.672 326.701 194.194 326.701C155.716 326.701 124.523 333.646 124.523 342.214C124.523 350.781 155.716 357.726 194.194 357.726Z" fill="#7E8185"/>
<path d="M195.68 348.834C232.648 348.834 262.616 343.879 262.616 337.768C262.616 331.656 232.648 326.701 195.68 326.701C158.712 326.701 128.743 331.656 128.743 337.768C128.743 343.879 158.712 348.834 195.68 348.834Z" fill="#B0B3BA"/>
<path d="M217.511 117.065C234.994 172.838 240.236 197.113 243.315 214.595C246.641 233.531 204.938 227.718 187.229 223.778C176.152 221.313 157.346 237.094 149.778 229.462C135.224 214.778 165.387 138.745 164.644 139.316C122.995 171.621 104.974 140.984 94.6076 113.932C104.35 115.514 114.738 112.436 122.048 105.589C122.015 105.611 121.983 105.621 122.22 105.891C132.446 144.128 144.46 105.137 179.834 109.464C185.948 110.218 184.355 115.934 190.47 116.677C203.937 118.324 209.007 117.549 214.314 114.373" fill="#91969B"/>
<path d="M100.679 107.807C93.6387 106.31 88.8914 99.7976 85.8449 93.3171C82.82 86.8905 80.7746 80.0008 79.7842 72.9605C79.612 71.7226 79.4935 70.3771 80.1502 69.3006C80.8069 68.2241 82.5723 67.8042 83.5197 69.2359C82.5831 66.6738 82.1848 63.9288 82.3355 61.2053C82.3786 60.4194 82.497 59.5797 83.0352 58.9984C83.6919 58.2879 84.8115 58.1803 85.7157 58.4817C86.62 58.7831 87.3843 59.4183 88.3531 60.9038C88.0086 58.5786 88.5792 56.1242 89.914 54.165C90.4415 53.3899 91.152 52.6578 92.0778 52.5071C93.5849 52.2595 94.8121 53.6374 95.5657 54.94C96.4268 56.4148 97.105 58.008 97.9878 60.3009C98.6767 57.9649 100.173 55.4029 102.617 55.2091C104.296 55.0799 105.868 56.2211 106.729 57.6528C107.59 59.0845 107.902 60.7747 108.193 62.4325C109.539 70.0864 109.926 75.2105 111.756 81.7556C112.327 81.0128 113.166 78.0524 115.212 73.8326C116.654 70.8399 119.722 70.1294 122.112 72.4115C124.157 74.36 125.492 76.0502 123.63 79.6241C120.82 84.9851 121.628 91.9176 118.893 98.1075C114.792 107.419 106.384 109.012 100.679 107.796V107.807Z" fill="#BEC0C7"/>
<path d="M156.937 202.377C141.877 247.697 138.529 286.236 158.132 317.982C159.929 320.888 185.798 316.41 185.798 316.41C185.798 316.41 164.548 253.909 194.194 222.561C193.473 213.691 199.146 199.158 196.627 194.217C189.081 179.383 159.122 211.161 156.937 202.377Z" fill="#BABCC3"/>
<path d="M199.103 216.382C195.497 191.041 229.848 195.584 230.182 196.036C233.185 197.296 252.174 267.796 233.777 318.37C232.851 320.921 209.534 315.291 205.831 316.13C208.565 302.943 215.821 258.376 199.103 216.382Z" fill="#BABCC3"/>
<path d="M215.337 71.4535L215.369 73.4987C216.413 72.2607 218.319 72.0563 219.739 72.7668C221.16 73.4772 222.119 74.9412 222.517 76.4914C222.915 78.0415 222.829 79.6779 222.603 81.2603C222.312 83.2949 221.774 85.3617 220.493 86.9549C219.212 88.5481 217.027 89.5386 215.089 88.925C214.454 95.0502 210.256 100.863 204.496 103.425C205.39 105.568 206.466 107.925 207.909 110.046C206.703 111.693 204.346 112.242 202.214 112.393C196.229 112.791 190.125 111.198 185.098 107.904C186.885 105.848 187.886 103.608 188.026 101.315C183.332 99.733 179.984 95.0718 179.468 90.023C177.347 89.98 175.345 88.1606 174.462 86.0076C173.579 83.8546 173.633 81.4326 173.902 79.1181C174.053 77.8263 174.279 76.5237 174.914 75.3933C175.549 74.263 176.669 73.3373 177.95 73.2619C179.231 73.1865 180.587 74.1662 180.652 75.458C181.039 73.4557 181.061 71.7979 180.889 70.1939C185.808 66.2539 192.127 64.1439 198.403 64.3377C204.679 64.5315 210.858 67.0397 215.444 71.3673C215.358 71.378 215.272 71.3995 215.347 71.4749L215.337 71.4535Z" fill="#BEC0C7"/>
<path d="M118.764 99.3993C114.641 105.191 102.121 107.936 95.458 105.568C93.3803 104.825 90.9044 106.267 90.3876 107.538C89.548 109.561 90.0755 113.62 95.0597 114.965C97.3741 115.59 99.7532 115.924 102.132 115.719C107.73 115.235 113.209 113.361 117.935 110.304C119.496 109.292 121.014 108.119 121.994 106.536C122.973 104.954 123.318 102.855 122.478 101.186C121.724 99.6792 119.528 98.3443 118.775 99.3993H118.764Z" fill="#7A7E80"/>
<path d="M186.271 106.332C186.271 106.332 184.086 104.771 182.816 105.126C181.545 105.482 179.565 107.344 179.823 109.432C180.275 113.189 183.548 114.729 188.823 116.892C191.772 118.109 194.98 118.572 198.167 118.626C203.011 118.712 207.887 117.883 212.344 115.988C213.184 115.633 214.066 115.181 214.443 114.341C214.788 113.566 214.605 112.662 214.282 111.887C213.722 110.563 212.688 109.4 211.354 108.905C210.019 108.41 208.619 108.463 207.64 109.594C207.726 111.198 205.95 111.392 204.83 111.639C198.328 113.071 192.849 111.316 186.809 108.474C185.259 107.742 186.282 106.321 186.282 106.321L186.271 106.332Z" fill="#7A7E80"/>
<path d="M181.05 330.211C182.407 323.774 173.795 320.49 169.93 319.231C166.065 317.971 161.307 318.832 157.303 319.231C148.249 320.124 141.877 332.192 142.156 336.11C142.404 339.555 140.423 347.392 147.162 346.918C156.075 346.294 164.214 345.26 171.889 344.722C183.688 343.893 187.143 325.528 187.208 321.685C187.229 320.296 186.11 317.347 185.798 316.4C184.732 316.4 182.579 317.81 182.73 316.949C183.645 311.706 182.159 298.82 156.506 308.293C149.563 310.856 155.806 316.55 154.504 319.231" fill="#8C9095"/>
<path d="M189.156 116.989C190.179 116.677 190.663 115.428 190.491 114.373C190.319 113.318 189.662 112.414 189.038 111.542C188.413 110.67 189.167 110.509 189.059 109.508C188.683 109.378 186.465 108.388 186.164 108.011C185.711 107.441 186.067 106.892 186.314 106.321C185.367 105.578 184.237 104.965 183.042 105.029C181.319 105.137 179.92 106.741 179.715 108.463C179.511 110.186 180.297 111.93 181.481 113.189C182.676 114.449 184.226 115.288 185.787 116.01C186.863 116.505 188.026 117.312 189.145 116.978L189.156 116.989Z" fill="#7D8083"/>
<path d="M189.124 109.54C189.221 108.776 190.071 108.324 190.836 108.302C191.6 108.28 192.353 108.528 193.118 108.528C194.14 108.528 195.109 108.108 195.981 107.57C196.853 107.032 197.628 106.364 198.489 105.815C200.147 104.76 202.042 104.168 203.807 103.512C198.522 104.599 192.892 103.921 187.972 101.595C187.908 103.307 187.089 104.889 186.26 106.386C186.077 106.709 185.916 107.032 185.959 107.538C186.013 108.097 186.54 108.334 186.896 108.539C187.585 108.948 188.317 109.282 189.092 109.54C189.092 109.54 189.092 109.54 189.124 109.54Z" fill="#ACB0B6"/>
<path d="M180.426 78.1708C179.705 76.5991 178.348 75.6947 177.067 76.5775C176.604 76.9004 176.281 77.3956 176.12 77.9339C175.668 79.4194 175.312 81.0773 175.765 82.606C176.141 83.8655 177.175 84.9957 178.477 85.1357L180.415 81.6371C178.682 85.1465 178.585 89.7323 180.232 93.6077C181.879 97.4831 185.216 100.594 189.189 101.918C185.808 99.7975 183.246 96.7187 181.987 93.1555C180.727 89.5923 180.77 85.5663 182.105 82.0246C182.934 79.8285 184.247 77.7939 184.732 75.501C184.969 74.3599 185.001 73.165 185.421 72.0778C185.981 70.6353 187.175 69.5265 188.467 68.6868C191.083 66.9752 194.173 66.1355 197.262 65.8233C200.363 65.5003 203.484 65.6726 206.477 65.8664C202.193 64.3485 197.51 63.9179 193.053 64.7468C185.41 66.1678 181.201 69.8818 180.899 70.237C180.899 70.237 180.609 75.5764 180.437 78.1816L180.426 78.1708Z" fill="#ACB0B6"/>
<path d="M195.551 43.2821C213.838 41.3296 220.274 52.4803 221.725 63.2522C223.312 63.6271 224.693 64.6388 225.406 66.0135C226.841 68.7836 224.076 70.1487 222.915 73.0429C206.508 67.9522 185.598 70.5481 171.8 73.5055C168.402 68.1979 173.972 64.6385 175.269 64.7318C175.391 64.7105 176.627 45.2992 195.551 43.2821Z" fill="#909090"/>
<path d="M189.164 70.0428C188.256 69.005 187.686 67.7308 187.875 66.3509C188.065 64.9709 188.878 63.706 190.029 63.1672C190.128 58.8732 190.585 54.4747 192.495 50.6419C194.405 46.8091 198.043 43.612 202.395 43.3236C196.019 42.2031 189.196 43.9479 184.131 48.0149C179.067 52.0818 175.835 58.3962 175.562 64.9835C173.593 65.0324 171.705 66.3302 170.941 68.1701C170.177 70.01 170.283 72.0129 171.81 73.5063C177.696 70.4308 181.713 69.5067 189.173 70.0435L189.164 70.0428Z" fill="#7D7D7D"/>
<path d="M175.527 65.0512L175.432 64.5531C182.957 63.0794 190.646 62.2591 198.306 62.1085L198.32 62.6108C190.691 62.7536 183.022 63.5753 175.527 65.0412L175.527 65.0512Z" fill="#5D5D5D"/>
<path d="M221.764 63.5456C215.962 62.2559 210.008 61.8075 204.063 62.2218L204.029 61.7181C210.015 61.2966 216.018 61.7486 221.87 63.052L221.764 63.5456Z" fill="#5D5D5D"/>
<path d="M215.865 60.9456L215.846 61.2149L217.162 61.3097C217.352 61.3233 217.537 61.2564 217.686 61.1368L218.253 60.6462C218.253 60.6462 218.33 60.5515 218.334 60.4916L218.394 59.6638L215.382 59.447C215.723 59.8526 215.906 60.3771 215.865 60.9456Z" fill="#FFF100"/>
<path d="M217.013 55.9953C216.824 55.9817 216.639 56.0386 216.5 56.1689L215.975 56.6325L213.492 58.8198L213.711 55.7677L212.624 55.6895C212.564 55.6852 212.513 55.7016 212.47 55.7386L212.055 56.0796C212.055 56.0796 211.978 56.1744 211.973 56.2342L211.653 60.6927C211.644 60.8124 211.736 60.9193 211.856 60.9279L213.123 61.0191C213.243 61.0277 213.35 60.9351 213.358 60.8154L213.502 58.8206C213.674 58.7929 213.846 58.7751 214.025 58.7881C214.564 58.8268 215.038 59.0714 215.382 59.4471L218.549 56.6673C218.549 56.6673 218.616 56.5719 218.621 56.512L218.649 56.113L217.013 55.9953Z" fill="#FFF100"/>
<path d="M215.563 84.0161C215.337 82.4444 215.154 80.8296 215.434 79.2687C215.713 77.7078 216.51 76.1577 217.856 75.3396C218.48 74.952 219.309 74.7474 219.944 75.1242C220.601 75.501 220.827 76.3407 220.913 77.105C221.3 80.6037 219.772 84.2637 217.027 86.4382C216.822 86.5997 216.575 86.7719 216.316 86.7504C215.767 86.7181 215.573 85.9753 215.66 85.4263C215.746 84.8773 215.918 84.2529 215.563 84.0161Z" fill="#ACB0B6"/>
<path d="M82.6369 68.4715C80.9145 67.944 80.2148 70.5275 80.4409 72.2822C81.7327 82.4981 85.522 92.768 92.1101 100.217C94.9198 103.393 98.3538 105.492 102.046 106.31C98.2569 107.139 94.1339 105.772 91.0659 102.65C87.9979 99.5284 85.8556 95.3839 84.0471 91.1855C81.3774 85.0064 79.2675 78.3645 79.246 71.6902C79.246 70.7321 79.2998 69.7095 79.8165 69.0097C80.3332 68.31 82.0879 67.7072 82.6262 68.4607L82.6369 68.4715Z" fill="#ACB0B6"/>
<path d="M83.412 58.7075C81.7326 59.6225 82.357 64.1761 82.54 65.3172C83.6703 72.4652 85.7264 78.8058 89.0528 85.0064C89.4619 84.7265 90.5814 83.9945 90.8721 83.8007C88.2347 78.106 86.0709 72.196 84.4239 66.1354C83.7564 63.7025 83.0783 61.0866 83.4227 58.7183L83.412 58.7075Z" fill="#ACB0B6"/>
<path d="M94.6721 81.4326C92.207 75.9855 90.3123 70.2694 89.042 64.4132C88.6437 62.6047 88.1808 60.85 88.2885 58.9984C88.3961 57.1468 88.9882 54.9723 90.4415 53.5083C89.0312 56.4471 89.6664 60.1287 90.3662 63.3152C91.6687 69.2467 93.4987 75.049 95.8455 80.7006C95.4795 81.002 95.0489 81.228 94.6614 81.4218L94.6721 81.4326Z" fill="#ACB0B6"/>
<path d="M103.639 79.5379C101.594 73.9401 100.399 68.0409 100.076 62.0771C99.9578 59.8703 100.012 57.4913 101.508 55.4998C99.6564 56.2102 98.5368 58.2017 98.2892 60.1717C98.0416 62.1417 98.5045 64.1333 98.9567 66.071C100.001 70.4739 101.077 75.1243 102.294 79.4626C102.767 79.5272 103.198 79.3333 103.629 79.5379H103.639Z" fill="#ACB0B6"/>
<path d="M113.974 87.321C114.092 84.253 112.639 82.9612 115.115 79.4518C119.001 73.9401 116.848 72.6053 116.525 72.5084C116.105 72.3685 115.33 73.6494 115.115 74.0477C113.855 76.416 112.994 78.203 112.994 78.203C112.994 78.203 111.584 81.5725 111.831 81.9062C112.154 82.3368 113.328 84.6406 113.963 87.321H113.974Z" fill="#ACB0B6"/>
<path d="M192.59 90.9918C194.636 89.0541 195.163 89.8401 196.164 90.0231C197.101 90.1953 199.006 90.1738 199.512 90.7874C198.253 91.4548 193.516 91.6593 192.59 90.9918Z" fill="#656768"/>
<path d="M106.438 115.041C109.872 122.426 113.36 129.896 118.43 136.248C123.501 142.599 130.401 147.831 138.367 149.252C136.591 152.148 133.749 153.235 130.38 153.106C121.423 152.75 112.434 146.216 107.03 138.971C101.626 131.737 98.3753 123.125 94.8982 114.944C100.636 116.806 106.643 114.707 106.449 115.052L106.438 115.041Z" fill="#878B90"/>
<path d="M153.815 309.897C157.152 307.615 161.038 306.151 165.043 305.688C159.197 289.573 156.646 272.242 157.583 255.104C158.056 246.502 159.499 237.654 164.138 230.409C164.44 229.935 164.774 229.386 164.634 228.837C164.451 228.137 163.622 227.868 162.922 227.718C159.994 227.072 156.721 226.48 154.149 228.03C152.48 229.042 151.403 230.796 150.521 232.54C144.568 244.177 143.9 257.816 144.503 270.896C145.138 284.557 147.173 298.616 153.826 309.887L153.815 309.897Z" fill="#A6A9B0"/>
<path d="M220.461 304.87C223.012 285.224 224.002 265.374 223.432 245.566C223.303 241.185 223.098 236.782 222.151 232.508C221.774 230.818 221.128 228.956 219.567 228.224C218.329 227.653 216.887 227.965 215.584 228.364C211.677 229.569 207.984 231.464 204.712 233.951C210.869 259.776 211.192 284.32 206.628 312.029C206.509 312.966 205.379 315.291 205.541 315.032C206.262 314.935 207.876 314.408 208.598 314.311C208.598 311.749 209.115 308.67 211.537 306.84C213.959 305.01 218.006 303.998 220.472 304.849L220.461 304.87Z" fill="#A6A9B0"/>
<path d="M167.992 317.659C166.087 318.359 164.849 320.555 165.344 322.676C169.349 326.325 171.362 332.084 170.522 337.66C172.697 340.513 177.229 341.137 180.2 338.866C179.5 341.105 177.519 342.741 175.345 343.603C173.17 344.464 170.823 344.647 168.498 344.819C161.415 345.357 154.321 345.895 147.237 346.434C146.043 346.52 144.751 346.595 143.739 345.949C142.426 345.12 142.038 343.398 141.866 341.859C140.219 327.208 154.676 318.079 154.676 318.079C154.676 318.079 152.566 314.86 152.749 312.75C152.964 310.253 153.374 310.35 155.344 308.821C158.132 306.668 162.599 305.236 165.043 305.699C165.043 305.796 167.39 313.891 167.992 317.67V317.659Z" fill="#83878B"/>
<path d="M180.63 75.2212C180.523 76.5668 180.544 77.9231 180.684 79.2687" stroke="#656768" stroke-width="1.0765" stroke-miterlimit="10"/>
<path d="M179.446 90.0231C178.908 87.0089 179.242 83.8546 180.393 81.0234" stroke="#656768" stroke-width="1.0765" stroke-miterlimit="10"/>
<path d="M215.164 89.0004C215.455 87.0627 215.563 85.0927 215.477 83.1443" stroke="#656768" stroke-width="1.0765" stroke-miterlimit="10"/>
<path d="M215.347 73.5635C215.38 74.3816 215.347 75.2105 215.24 76.0179" stroke="#656768" stroke-width="1.0765" stroke-miterlimit="10"/>
<path d="M215.724 81.5939C216.058 79.5055 217.285 77.5786 219.04 76.416" stroke="#656768" stroke-width="1.0765" stroke-miterlimit="10"/>
<path d="M176.658 77.4172C178.294 78.5906 179.511 80.3561 180.028 82.3153" stroke="#656768" stroke-width="1.0765" stroke-miterlimit="10"/>
<path d="M216.026 81.5294C217.124 80.7866 218.405 80.3238 219.718 80.1946" stroke="#656768" stroke-width="1.0765" stroke-miterlimit="10"/>
<path d="M175.194 80.3345C176.841 80.2592 178.51 80.8513 179.748 81.9493" stroke="#656768" stroke-width="1.0765" stroke-miterlimit="10"/>
<path d="M191.729 90.1628C192.192 88.1605 194.227 86.6534 196.261 86.8257C198.296 86.9979 200.061 88.8172 200.19 90.8733" stroke="#656768" stroke-width="1.0765" stroke-miterlimit="10"/>
<path d="M185.457 96.0982C185.267 95.3782 185.097 94.5783 185.457 93.9383C185.757 93.4283 186.347 93.1383 186.937 93.0683C187.527 92.9983 188.117 93.1082 188.697 93.2282" fill="#656768"/>
<path d="M185.457 96.0982C185.267 95.3782 185.097 94.5783 185.457 93.9383C185.757 93.4283 186.347 93.1383 186.937 93.0683C187.527 92.9983 188.117 93.1082 188.697 93.2282" stroke="#A6A6A6" stroke-miterlimit="10"/>
<path d="M207.517 94.9482C204.187 96.8282 190.697 97.2583 187.517 95.1583C188.907 96.5983 194.217 97.1782 196.167 97.3282C201.117 97.7082 205.997 96.1382 207.517 94.9482Z" fill="#656768"/>
<path d="M191.438 82.3368C191.772 80.4745 192.084 78.4936 191.395 76.7282C191.245 76.3406 190.9 75.9208 190.523 76.05C190.276 76.1361 190.168 76.416 190.093 76.6636C189.479 78.6552 189.372 80.7974 189.759 82.8427C189.824 83.1764 189.942 83.564 190.254 83.6932C190.556 83.8331 190.922 83.6501 191.126 83.381C191.331 83.1118 191.363 82.7674 191.438 82.3368Z" fill="#656768"/>
<path d="M205.497 83.3701C205.96 81.5293 206.412 79.5809 205.853 77.7724C205.734 77.3848 205.422 76.9327 205.024 77.0403C204.776 77.1049 204.647 77.3741 204.55 77.6217C203.807 79.5593 203.538 81.6908 203.786 83.7576C203.829 84.1021 203.915 84.4897 204.216 84.6404C204.507 84.7911 204.895 84.6403 205.099 84.3927C205.304 84.1451 205.379 83.8007 205.487 83.3701H205.497Z" fill="#656768"/>
<path d="M187.908 101.316C192.827 104.082 198.823 104.836 204.26 103.372L204.303 103.393" stroke="#656768" stroke-width="1.0765" stroke-miterlimit="10"/>
<path d="M83.4227 69.1926C84.7145 74.7151 86.6415 80.0761 89.1282 85.1679" stroke="#656768" stroke-width="1.0765" stroke-miterlimit="10"/>
<path d="M88.4715 61.0005C89.6234 68.0408 91.701 74.9197 94.6506 81.411" stroke="#656768" stroke-width="1.0765" stroke-miterlimit="10"/>
<path d="M98.0308 59.8916C98.9135 66.5874 100.356 73.1972 102.358 79.6346" stroke="#656768" stroke-width="1.0765" stroke-miterlimit="10"/>
<path d="M87.901 86.4705C92.2608 81.6047 99.0104 78.9565 105.502 79.5917" stroke="#656768" stroke-width="1.0765" stroke-miterlimit="10"/>
<path d="M111.842 81.9062C113.134 84.1023 113.963 86.5782 114.264 89.1187" stroke="#656768" stroke-width="1.0765" stroke-miterlimit="10"/>
<path d="M187.972 76.1898C188.274 75.3394 188.575 74.4567 189.167 73.7785C189.759 73.1003 190.706 72.6482 191.568 72.9066C191.298 72.2499 190.47 71.9377 189.791 72.1422C189.113 72.3467 188.607 72.9389 188.349 73.6063C188.09 74.2738 188.069 75.0057 187.972 76.1898Z" fill="#656768"/>
<path d="M207.909 76.8574C207.607 75.9962 207.295 75.1242 206.703 74.4353C206.111 73.7463 205.164 73.2942 204.303 73.5526C204.572 72.8852 205.411 72.5838 206.09 72.7883C206.768 72.9929 207.284 73.5957 207.532 74.2631C207.78 74.9305 207.812 75.6625 207.909 76.8574Z" fill="#656768"/>
<path d="M165.936 134.106C169.801 125.817 172.46 115.87 180.329 111.305" stroke="#BABCC3" stroke-width="1.0765" stroke-miterlimit="10"/>
<path d="M185.798 316.41C177.422 322.417 178.251 326.712 173.902 328.661C169.629 323.999 166.851 321.491 161.426 321.179C156 320.867 150.51 322.761 146.096 326.604C148.475 322.804 152.986 318.875 152.975 319.23C155.849 316.249 162.836 315.926 166.367 316.948C177.584 320.221 178.843 312.212 185.808 316.399L185.798 316.41Z" fill="#787D80"/>
<path d="M142.124 338.715C144.417 332.105 149.875 338.564 166.884 338.564C175.862 338.564 178.897 335.356 182.676 327.412C183.978 324.678 186.013 321.793 186.723 319.23C188.166 322.611 185.109 332.321 183.418 336.024C181.728 339.738 180.135 341.245 176.927 343.107C173.784 344.927 172.083 344.56 164.752 345.325C158.605 345.96 154.332 346.186 148.185 346.832C146.861 346.972 143.728 347.833 142.415 343.85C142.027 342.677 141.93 339.975 142.124 338.715Z" fill="#787D80"/>
<path d="M209.437 329.21C208.469 322.675 217.253 320.103 221.182 319.166C225.111 318.23 229.816 319.489 233.777 320.21C242.755 321.847 248.385 334.409 247.879 338.295C247.427 341.708 248.923 349.695 242.238 348.662C233.379 347.306 225.327 345.605 217.705 344.442C205.982 342.644 203.635 324.043 203.807 320.199C203.872 318.811 205.164 315.969 205.53 315.043C206.596 315.129 208.652 316.712 208.555 315.84C207.963 310.543 210.202 297.798 235.23 309.359C242.001 312.492 235.424 317.659 236.565 320.436" fill="#8C9095"/>
<path d="M220.299 305.075C217.5 304.31 214.346 304.956 212.064 306.765C209.782 308.584 208.426 311.512 208.512 314.451C206.552 314.225 204.862 316.141 204.582 318.111C204.303 320.081 205.045 322.04 205.767 323.892C206.66 326.196 207.564 328.489 208.458 330.792C209.545 333.591 210.708 336.487 212.904 338.511C215.089 340.535 218.071 341.45 221.01 341.88C222.829 342.149 224.831 342.214 226.36 341.191C228.19 339.964 228.804 337.563 229.051 335.367C229.536 331.008 228.857 326.066 225.499 323.289C224.218 322.234 222.517 321.438 222 319.844C221.688 318.876 221.893 317.831 222.032 316.819C222.592 312.707 221.86 308.433 220.052 304.698C220.052 304.859 220.052 305.01 220.288 305.064L220.299 305.075Z" fill="#83878B"/>
<path d="M205.541 315.043C213.539 321.728 212.452 325.937 216.672 328.252C221.214 323.957 224.132 321.685 229.568 321.814C235.004 321.944 240.365 324.29 244.542 328.489C242.4 324.506 238.126 320.21 238.126 320.566C235.435 317.347 228.491 316.453 224.907 317.185C213.528 319.521 212.742 311.426 205.551 315.043H205.541Z" fill="#787D80"/>
<path d="M247.761 340.89C245.866 334.108 240.042 340.093 223.066 338.694C214.109 337.951 211.278 334.506 207.973 326.271C206.832 323.44 204.981 320.393 204.432 317.777C202.785 321.028 205.261 330.964 206.714 334.807C208.167 338.651 209.674 340.287 212.764 342.408C215.8 344.485 217.511 344.259 224.778 345.626C230.871 346.767 235.123 347.349 241.216 348.49C242.529 348.737 245.608 349.857 247.147 345.992C247.599 344.862 247.868 342.16 247.75 340.89H247.761Z" fill="#787D80"/>
<g opacity="0.27">
<path d="M122.252 106.031C123.006 104.524 123.221 102.683 122.467 101.176C121.714 99.6685 119.518 98.3336 118.764 99.3886C118.366 99.9484 117.892 100.476 117.343 100.982C117.914 100.121 118.43 99.1624 118.893 98.1075C121.617 91.9176 120.809 84.9851 123.63 79.6241C124.749 77.4927 124.717 76.0286 124.071 74.7799C120.67 71.1306 112.058 82.1538 111.218 93.5755C109.861 111.984 94.9735 105.438 94.9735 105.438C94.9735 105.438 98.8489 107.398 103.639 106.547C104.544 106.386 104.318 121.564 126.762 144.203C128.183 145.635 127.139 149.004 125.998 152.428C127.193 152.729 128.409 152.944 129.615 153.041C130.013 151.523 130.412 149.995 130.799 148.477C132.263 142.793 133.351 137.098 134.513 131.36C135.127 128.357 135.859 125.375 136.634 122.404C130.649 124.062 126.3 121.112 122.241 106.02L122.252 106.031Z" fill="#FFF100"/>
<path d="M187.025 320.35C186.96 319.93 186.863 319.554 186.734 319.231C186.4 318.079 185.97 316.938 185.797 316.41C185.797 316.41 170.64 271.822 183.795 239.075C181.911 239.57 180.049 240.227 178.23 241.12C172.363 244.005 166.539 246.955 160.349 249.108C155.139 250.916 149.907 252.639 144.697 254.447C144.212 259.905 144.245 265.46 144.492 270.917C145.106 284.072 147.022 297.593 153.104 308.649C153.32 309.112 153.535 309.574 153.761 310.037C153.104 310.619 152.889 311.157 152.749 312.761C152.588 314.699 154.331 317.54 154.633 318.014C153.998 318.359 153.427 318.768 152.964 319.241C152.964 318.918 149.132 322.245 146.667 325.743C145.623 327.154 144.621 328.736 143.814 330.48C142.888 332.342 142.318 334.065 142.189 335.314C142.016 336.121 141.909 336.961 141.833 337.811C169.209 344.388 182.45 331.244 187.089 323.192C187.165 322.579 187.197 322.073 187.208 321.696C187.208 321.33 187.143 320.867 187.025 320.35Z" fill="#FFF100"/>
<path d="M251.97 212.464C252.713 212.108 254.166 211.581 254.392 210.289C254.446 209.999 254.467 209.719 254.446 209.428C254.51 209.46 254.564 209.503 254.629 209.536C259.624 200.375 267.084 186.197 270.001 172.106C268.548 166.131 266.416 160.35 263.478 154.936C255.264 139.757 241.689 128.422 228.717 117.129C227.555 116.117 226.403 115.095 225.305 114.018C221.462 112.08 218.125 111.327 214.368 112.113C214.378 112.134 214.411 112.22 214.432 112.35C214.379 112.199 214.335 112.048 214.271 111.908C213.711 110.584 212.678 109.421 211.343 108.926C210.008 108.431 208.609 108.485 207.629 109.604C206.337 107.602 205.325 105.417 204.496 103.415C210.256 100.853 214.454 95.0502 215.089 88.9142C215.111 88.9142 215.143 88.925 215.164 88.9357V88.9895C215.164 88.9895 215.164 88.9573 215.164 88.9357C217.081 89.4955 219.212 88.5158 220.482 86.9441C220.913 86.4059 221.257 85.8138 221.537 85.2002C220.525 83.3702 218.577 82.6597 215.552 84.0161C185.948 97.3216 179.231 78.5045 175.754 82.6059C174.882 83.6394 174.387 84.3929 174.139 85.1033C174.225 85.4048 174.322 85.6955 174.44 85.9861C175.291 88.053 177.175 89.8077 179.209 89.9907C179.392 91.2287 179.726 92.4559 180.221 93.6185C180.663 94.6627 181.222 95.6423 181.89 96.5465C182.891 97.9998 184.161 99.2485 185.636 100.174C186.379 100.68 187.175 101.111 188.004 101.477C188.004 101.52 188.004 101.574 187.994 101.617C187.994 101.811 187.972 102.004 187.94 102.187C187.864 102.661 187.746 103.135 187.595 103.598C187.305 104.448 186.896 105.266 186.465 106.063C186.411 106.149 186.368 106.235 186.314 106.31C185.378 105.578 184.247 104.965 183.063 105.04C182.062 105.105 181.169 105.675 180.555 106.483C184.42 109.475 188.101 112.791 191.632 116.139C195.938 120.219 199.792 124.772 204.087 128.874C208.598 133.18 214.077 136.495 219.147 140.091C221.505 141.759 223.755 143.514 225.929 145.419C226.037 145.516 226.155 145.613 226.263 145.71C226.048 144.989 225.832 144.257 225.617 143.525C229.396 146.754 233.206 150.016 237.448 153.601C238.104 154.171 238.707 154.699 239.246 155.162C241.302 157.003 243.874 159.468 244.445 160.76C245.048 162.127 245.252 164.85 245.156 166.702C245.005 168.876 244.574 171.32 243.982 174.022C243.53 175.841 242.959 177.951 242.303 181.105C242.174 181.633 242.044 182.171 241.915 182.709C241.108 185.767 239.708 190.212 239.547 192.635C239.525 192.99 239.515 193.334 239.525 193.69C239.525 193.7 239.525 193.722 239.525 193.733C239.525 193.754 239.525 193.786 239.536 193.808C239.536 193.991 239.558 194.163 239.569 194.346C239.472 194.389 239.375 194.432 239.278 194.497C239.127 193.819 238.966 193.13 238.804 192.43C237.233 194.561 235.586 196.725 233.056 197.726C230.321 198.803 227.383 199.427 224.95 201.161C222.678 202.775 221.613 205.273 219.61 207.124C218.674 207.985 217.619 208.728 216.575 209.46C216.026 209.848 215.52 210.278 215.003 210.709C214.809 210.871 214.669 211.204 214.648 211.14C214.68 212.055 215.983 213.519 216.305 214.391C216.973 216.167 216.79 218.04 215.756 219.644C213.108 223.756 207.64 223.541 204.701 226.91C205.174 227.147 205.551 227.599 205.67 228.331C206.014 230.387 205.95 232.497 204.765 234.101C210.891 259.883 211.203 284.374 206.649 312.04C206.638 312.115 206.628 312.19 206.606 312.255C206.38 313.288 205.401 315.291 205.551 315.054C205.347 315.57 204.852 316.679 204.453 317.799C204.421 317.874 204.389 317.95 204.356 318.025C209.793 328.532 219.223 344.162 246.813 333.139C246.2 331.578 245.371 329.899 244.294 328.262C244.38 328.338 244.467 328.424 244.542 328.499C242.4 324.516 238.126 320.221 238.126 320.576C237.685 320.049 237.136 319.597 236.501 319.187C236.953 316.518 240.473 312.729 236.447 310.037C243.498 284.567 242.41 255.545 239.299 233.154C243.067 229.085 246.921 223.875 248.234 221.571C249.601 219.181 250.667 215.026 251.313 212.711C251.539 212.657 251.754 212.582 251.97 212.485V212.464Z" fill="#FFF100"/>
</g>
<path d="M134.363 129.746L111.918 221.205C106.503 243.273 127.634 262.596 149.132 255.233L244.585 222.529C265.986 215.198 270.916 187.155 253.283 172.967L180.275 114.212C163.902 101.025 139.368 109.325 134.363 129.746Z" fill="#C3B404"/>
<path d="M139.379 126.043L116.934 217.502C111.519 239.57 132.651 258.893 154.149 251.53L249.602 218.826C271.002 211.495 275.933 183.452 258.3 169.264L185.292 110.509C168.918 97.3217 144.385 105.622 139.379 126.043Z" fill="#FFF100"/>
<path d="M140.246 122.546L111.724 238.762C108.484 251.982 121.617 262.661 135.331 257.967L252.246 218.046C100.589 262.484 179.746 134.546 145.746 114.046L145.246 114.546L144.746 115.046L143.246 117.046L140.246 122.546Z" fill="#E2D420"/>
<path d="M145.666 144.72L131.822 201.128C126.407 223.196 147.539 242.52 169.036 235.156L227.91 214.983C249.311 207.652 254.241 179.609 236.608 165.421L191.578 129.175C175.205 115.988 150.671 124.288 145.666 144.709V144.72Z" stroke="#61615C" stroke-width="3.22949" stroke-miterlimit="10"/>
<path d="M186.228 211.904L172.094 169.921C171.513 168.187 172.428 166.304 174.15 165.711L183.752 162.417C185.475 161.825 187.337 162.762 187.929 164.495L202.063 206.478C202.645 208.212 201.73 210.095 200.007 210.688L190.405 213.982C188.683 214.574 186.82 213.637 186.228 211.904Z" fill="#4B4B42"/>
<path d="M176.438 155.684C181.206 153.905 183.752 148.927 182.125 144.566C180.498 140.204 175.313 138.111 170.545 139.89C165.777 141.668 163.231 146.646 164.858 151.008C166.485 155.369 171.67 157.463 176.438 155.684Z" fill="#4B4B42"/>
<path d="M184.011 212.69L169.876 170.707C169.295 168.973 170.21 167.089 171.932 166.497L181.535 163.203C183.257 162.611 185.119 163.548 185.711 165.281L199.846 207.264C200.427 208.997 199.512 210.881 197.79 211.473L188.187 214.767C186.465 215.36 184.603 214.423 184.011 212.69Z" fill="#61615C"/>
<path d="M174.215 156.478C178.984 154.699 181.53 149.721 179.903 145.359C178.275 140.998 173.091 138.904 168.323 140.683C163.555 142.462 161.008 147.44 162.636 151.802C164.263 156.163 169.447 158.257 174.215 156.478Z" fill="#61615C"/>
<path d="M239.429 197.5C234.929 196.553 229.955 198.469 227.232 202.205C225.768 204.218 224.756 206.823 222.495 207.824C221.688 208.179 220.773 208.298 220.009 208.739C218.372 209.676 217.856 212.141 218.975 213.669C220.095 215.198 223.97 215.015 225.413 213.992C216.725 221.259 218.028 220.171 212.914 222.766C211.16 223.648 209.19 224.714 208.695 226.63C208.264 228.299 209.373 229.892 210.675 231.001C212.279 232.368 214.917 231.249 214.917 231.249C214.917 231.249 214.508 234.521 215.746 235.339C216.984 236.157 218.588 236.222 220.019 235.845C221.451 235.479 222.086 234.984 223.55 234.51C223.776 236.534 224.96 238.009 226.952 237.643C229.74 237.126 230.86 236.297 230.86 236.297C231.549 237.535 233.54 238.332 235.004 237.191C239.59 233.66 246.393 224.757 248.234 221.539C250.086 218.32 251.367 211.882 251.83 211.086C248.46 211.086 245.382 208.911 243.422 206.145C241.463 203.378 240.44 200.062 239.149 196.962C239.159 196.994 239.181 197.016 239.418 197.49L239.429 197.5Z" fill="#BEC0C7"/>
<path d="M240.85 194.454C240.01 193.442 238.169 195.315 237.685 196.542C237.2 197.769 237.62 199.158 238.061 200.407C239.063 203.216 240.236 206.026 242.098 208.351C243.961 210.677 246.598 212.496 249.548 212.787C250.366 212.873 251.216 212.83 251.959 212.474C252.702 212.119 254.155 211.592 254.381 210.3C254.607 209.008 254.446 207.975 251.507 206.102C246.759 203.066 242.346 199.406 240.85 194.465V194.454Z" fill="#7A7E80"/>
<path d="M239.795 204.659C240.064 202.431 241.646 200.429 243.778 199.643C242.281 198.319 241.377 196.585 240.893 194.432C240.365 193.937 239.482 194.239 238.944 194.723C237.62 195.907 237.276 197.91 237.62 199.664C237.965 201.419 238.89 202.991 239.805 204.659H239.795Z" fill="#656768"/>
<path d="M237.588 197.274C233.066 197.08 229.288 199.147 226.93 202.646C226.102 203.873 225.37 205.639 224.239 206.586C223.421 207.275 222.398 207.663 221.43 208.115C220.461 208.567 219.481 209.127 218.889 210.02C218.297 210.914 218.189 212.227 218.921 213.013C218.48 212.442 218.695 211.613 219.169 211.053C219.643 210.494 220.321 210.138 221.021 209.923C221.72 209.708 222.441 209.579 223.141 209.385C225.305 208.771 227.232 207.34 228.459 205.434C229.137 204.39 229.665 203.141 230.752 202.549C231.516 202.129 232.431 202.119 233.293 202.205C234.154 202.291 235.015 202.485 235.887 202.441C236.759 202.398 237.599 202.151 238.191 201.505C237.566 199.826 237.448 198.652 237.599 197.296L237.588 197.274Z" fill="#ACB0B6"/>
<path d="M208.824 228.471C208.296 227.222 208.792 225.726 209.707 224.736C210.622 223.745 211.86 223.132 213.076 222.561C218.082 220.204 221.107 218.158 224.917 214.369C226.995 213.314 228.814 211.732 230.149 209.805C228.717 213.669 225.531 216.576 222.323 219.149C219.266 221.614 218.2 223.735 214.486 224.973C213.388 225.339 212.236 225.608 211.203 226.135C210.169 226.663 209.211 227.502 208.824 228.493V228.471Z" fill="#ACB0B6"/>
<path d="M232.507 220.344C229.665 224.187 221.29 228.934 214.906 231.259C214.906 231.259 214.551 234.112 215.53 235.178C214.884 230.775 217.802 231.658 220.967 230.247C227.017 227.545 231.376 223.046 232.507 220.355V220.344Z" fill="#ACB0B6"/>
<path d="M236.974 224.111C235.811 228.234 232.098 230.215 227.662 233.046C225.52 234.413 224.734 237.115 224.734 237.115C224.734 237.115 223.4 235.813 223.55 234.521C229.04 231.927 234.584 228.084 236.985 224.111H236.974Z" fill="#ACB0B6"/>
<path d="M240.559 227.502L240.591 227.255C239.752 228.999 238.481 230.538 237.093 231.927C235.704 233.316 234.175 234.575 232.711 235.888C232.496 236.082 232.27 236.287 232.162 236.556C232.055 236.825 231.969 237.32 232.195 237.482C232.141 237.482 230.644 236.674 231.01 236.201C231.086 236.104 237.975 230.721 240.559 227.492V227.502Z" fill="#ACB0B6"/>
<path d="M214.906 231.249C220.87 228.87 226.93 226.673 232.388 220.161" stroke="#656768" stroke-width="1.0765" stroke-miterlimit="10"/>
<path d="M223.539 234.521C234.143 229.494 236.694 224.467 236.694 224.467" stroke="#656768" stroke-width="1.0765" stroke-miterlimit="10"/>
<path d="M230.849 236.308C234.197 233.864 238.46 230.323 240.57 227.029" stroke="#656768" stroke-width="1.0765" stroke-miterlimit="10"/>
<path d="M223.647 214.617C227.695 213.476 229.869 210.074 231.968 206.704" stroke="#656768" stroke-width="1.0765" stroke-miterlimit="10"/>
<path d="M214.357 112.113C224.874 109.906 232.108 119.702 256.437 134.105C285.309 151.2 264.834 190.837 254.64 209.535C247.879 205.531 240.516 200.73 239.515 193.722C242.863 175.335 249.171 162.374 241.722 157.239C240.591 156.453 220.138 138.411 219.061 136.915C216.036 135.419 207.5 118.604 212.764 116.074C215.261 114.879 214.389 111.897 214.368 112.113H214.357Z" fill="#91969B"/>
<path d="M242.561 200.03C245.511 193.216 252.497 165.335 251.948 160.846C251.367 156.088 247.427 152.535 243.616 149.682C233.712 142.265 222.764 136.259 211.558 131.543C220.87 139.402 228.115 145.721 237.426 153.579C239.343 155.205 243.659 159.026 244.424 160.738C245.048 162.137 245.242 164.99 245.134 166.853C244.822 172.095 243.799 173.893 242.292 181.084C241.7 183.926 239.719 189.728 239.536 192.624C239.353 195.52 240.236 198.674 242.572 200.041L242.561 200.03Z" fill="#83878B"/>
<g opacity="0.27">
<path d="M232.884 237.697C233.12 236.157 234.261 234.478 235.359 233.229C245.166 222.087 251.787 208.513 258.289 195.132C263.348 184.712 268.548 173.182 265.792 161.911C263.467 152.406 255.845 145.118 247.696 139.811C239.547 134.504 230.504 130.553 222.84 124.546C219.169 121.672 215.681 118.001 214.497 113.555C214.4 114.427 214.002 115.461 212.753 116.063C208.759 117.98 212.699 128.109 216.166 133.546C214.637 132.846 213.108 132.179 211.569 131.533C220.881 139.391 228.125 145.71 237.437 153.568C238.094 154.139 238.697 154.667 239.235 155.129C241.291 156.97 243.853 159.435 244.424 160.727C245.026 162.094 245.231 164.818 245.134 166.669C244.983 168.844 244.553 171.288 243.961 173.99C243.509 175.809 242.938 177.919 242.281 181.073C242.152 181.6 242.023 182.139 241.894 182.677C241.086 185.734 239.687 190.18 239.526 192.602C239.504 192.957 239.493 193.302 239.504 193.657C239.504 193.668 239.504 193.69 239.504 193.7C239.504 193.722 239.504 193.754 239.515 193.776C239.515 193.948 239.536 194.131 239.547 194.303C239.321 194.4 239.116 194.54 238.933 194.691C238.6 194.992 238.331 195.347 238.115 195.735C237.932 196.004 237.782 196.273 237.685 196.51C237.588 196.747 237.534 196.994 237.502 197.242C233.551 197.091 230.16 198.685 227.802 201.44C227.716 201.537 227.641 201.634 227.566 201.731C227.479 201.839 227.393 201.946 227.307 202.054C227.275 202.097 227.243 202.129 227.21 202.172C227.114 202.312 227.006 202.452 226.909 202.603C226.909 202.603 226.909 202.603 226.909 202.614C225.994 203.97 225.208 205.509 224.099 206.64C223.303 207.264 222.334 207.652 221.408 208.082C221.247 208.158 221.085 208.233 220.924 208.319C220.601 208.427 220.278 208.545 219.987 208.717C218.351 209.654 217.834 212.119 218.954 213.648C220.073 215.176 223.949 214.993 225.391 213.971C225.294 214.057 225.197 214.132 225.1 214.218C225.036 214.251 224.961 214.294 224.896 214.326C224.756 214.466 224.616 214.595 224.476 214.735C221.699 217.06 220.052 218.427 218.857 219.332C217.156 220.451 215.304 221.452 213.054 222.518C211.838 223.089 210.6 223.702 209.685 224.693C209.287 225.134 208.964 225.672 208.781 226.243C208.738 226.361 208.705 226.48 208.673 226.598C208.243 228.267 209.351 229.86 210.654 230.969C212.258 232.336 214.895 231.216 214.895 231.216C214.895 231.216 214.529 234.101 215.52 235.135C215.584 235.199 215.649 235.264 215.724 235.307C216.962 236.125 218.566 236.19 219.998 235.813C221.43 235.447 222.065 234.952 223.529 234.478C223.453 235.124 223.744 235.759 224.056 236.243C224.616 237.266 225.596 237.858 226.92 237.611C229.708 237.094 230.827 236.265 230.827 236.265C230.86 236.33 230.903 236.394 230.946 236.448C231.021 236.652 231.28 236.889 231.549 237.072C231.71 237.191 231.882 237.298 232.065 237.395C232.119 237.428 232.152 237.438 232.162 237.438C232.388 237.535 232.614 237.611 232.862 237.654L232.884 237.697Z" fill="#FFF100"/>
</g>
<path d="M281.886 65.3064C290.546 68.2064 299.016 76.7164 301.826 85.4164C293.156 82.5364 284.716 73.9964 281.886 65.3064Z" fill="#FFF100"/>
<path d="M298.936 61.8462C296.526 71.8762 288.246 82.9462 279.246 88.0162C281.626 77.9662 289.956 66.9362 298.936 61.8462Z" fill="#FFF100"/>
<path d="M290.666 60.0464C295.056 68.7964 295.516 81.0564 291.236 89.9164C287.236 81.5164 286.826 68.5564 290.666 60.0464Z" fill="#FFF100"/>
<path d="M302.566 295.306C311.226 298.206 319.696 306.716 322.506 315.416C313.836 312.536 305.396 303.996 302.566 295.306Z" fill="#FFF100"/>
<path d="M321.276 293.316C317.546 302.916 307.836 312.756 298.246 316.546C301.956 306.926 311.696 297.136 321.276 293.316Z" fill="#FFF100"/>
<path d="M311.336 290.046C315.726 298.796 316.186 311.056 311.906 319.916C307.906 311.516 307.496 298.556 311.336 290.046Z" fill="#FFF100"/>
<path d="M46.556 227.316C55.216 230.216 63.686 238.726 66.496 247.426C57.826 244.546 49.386 236.006 46.556 227.316Z" fill="#FFF100"/>
<path d="M65.276 225.326C61.546 234.926 51.836 244.766 42.246 248.556C45.956 238.936 55.696 229.146 65.276 225.326Z" fill="#FFF100"/>
<path d="M55.336 222.046C59.726 230.796 60.186 243.056 55.906 251.916C51.906 243.516 51.496 230.556 55.336 222.046Z" fill="#FFF100"/>
<defs>
<filter id="filter0_f_4954_2832" x="0" y="-0.00012207" width="389.093" height="389.093" filterUnits="userSpaceOnUse" color-interpolation-filters="sRGB">
<feFlood flood-opacity="0" result="BackgroundImageFix"/>
<feBlend mode="normal" in="SourceGraphic" in2="BackgroundImageFix" result="shape"/>
<feGaussianBlur stdDeviation="68.0233" result="effect1_foregroundBlur_4954_2832"/>
</filter>
</defs>
</svg>
