<svg width="354" height="90" viewBox="0 0 354 90" fill="none" xmlns="http://www.w3.org/2000/svg">
<mask id="path-1-inside-1_9147_1713" fill="white">
<path d="M352.841 0.0420847C352.841 0.065255 352.822 0.0840669 352.799 0.0841689L327.343 0.196289C326.774 0.180144 326.401 0.201172 326.401 0.201172L327.343 0.196289C328.458 0.227935 330.332 0.408066 331.646 1.20801C333.63 2.41663 345.108 15.1012 348.793 19.1279C350.585 21.0863 351.711 23.1399 352.419 24.9285C352.724 25.7002 352.841 26.53 352.841 27.3599V82C352.841 86.4183 349.259 90 344.841 90H8.15917C3.74089 90 0.15918 86.4183 0.15918 82V8C0.15918 3.58172 3.7409 0 8.15918 0H352.799C352.822 0 352.841 0.0188419 352.841 0.0420847Z"/>
</mask>
<path d="M352.841 0.0420847C352.841 0.065255 352.822 0.0840669 352.799 0.0841689L327.343 0.196289C326.774 0.180144 326.401 0.201172 326.401 0.201172L327.343 0.196289C328.458 0.227935 330.332 0.408066 331.646 1.20801C333.63 2.41663 345.108 15.1012 348.793 19.1279C350.585 21.0863 351.711 23.1399 352.419 24.9285C352.724 25.7002 352.841 26.53 352.841 27.3599V82C352.841 86.4183 349.259 90 344.841 90H8.15917C3.74089 90 0.15918 86.4183 0.15918 82V8C0.15918 3.58172 3.7409 0 8.15918 0H352.799C352.822 0 352.841 0.0188419 352.841 0.0420847Z" fill="#212020"/>
<path d="M352.841 0.0420847C352.841 0.065255 352.822 0.0840669 352.799 0.0841689L327.343 0.196289C326.774 0.180144 326.401 0.201172 326.401 0.201172L327.343 0.196289C328.458 0.227935 330.332 0.408066 331.646 1.20801C333.63 2.41663 345.108 15.1012 348.793 19.1279C350.585 21.0863 351.711 23.1399 352.419 24.9285C352.724 25.7002 352.841 26.53 352.841 27.3599V82C352.841 86.4183 349.259 90 344.841 90H8.15917C3.74089 90 0.15918 86.4183 0.15918 82V8C0.15918 3.58172 3.7409 0 8.15918 0H352.799C352.822 0 352.841 0.0188419 352.841 0.0420847Z" fill="url(#paint0_linear_9147_1713)" fill-opacity="0.2"/>
<path d="M326.401 0.201172L326.345 -0.797237L326.407 1.20116L326.401 0.201172ZM331.646 1.20801L332.166 0.353935L332.166 0.353879L331.646 1.20801ZM348.793 19.1279L349.531 18.4529L349.531 18.4529L348.793 19.1279ZM352.419 24.9285L353.349 24.5606L352.419 24.9285ZM352.799 0.0841689L352.795 -0.915821L352.799 0.0841689ZM352.799 0.0841689L352.795 -0.915821L327.338 -0.803701L327.343 0.196289L327.347 1.19628L352.803 1.08416L352.799 0.0841689ZM327.343 0.196289L327.371 -0.803309C327.068 -0.811898 326.817 -0.810638 326.639 -0.807129C326.55 -0.805374 326.479 -0.803049 326.429 -0.801092C326.404 -0.800113 326.385 -0.799225 326.37 -0.798544C326.363 -0.798203 326.358 -0.797914 326.353 -0.797692C326.351 -0.79758 326.349 -0.797486 326.348 -0.797409C326.347 -0.797371 326.347 -0.797337 326.346 -0.797308C326.346 -0.797294 326.346 -0.797281 326.346 -0.797269C326.345 -0.797263 326.345 -0.797257 326.345 -0.797252C326.345 -0.797249 326.345 -0.797245 326.345 -0.797244C326.345 -0.79724 326.345 -0.797237 326.401 0.201172C326.458 1.19958 326.458 1.19958 326.458 1.19959C326.458 1.19959 326.458 1.19959 326.458 1.19959C326.457 1.1996 326.457 1.1996 326.457 1.1996C326.457 1.19961 326.457 1.19962 326.457 1.19962C326.457 1.19963 326.457 1.19963 326.457 1.19963C326.457 1.19963 326.457 1.19961 326.458 1.19957C326.459 1.19949 326.462 1.19935 326.467 1.19914C326.475 1.19874 326.489 1.19811 326.508 1.19737C326.545 1.19589 326.603 1.19396 326.678 1.19248C326.829 1.18951 327.048 1.18833 327.314 1.19589L327.343 0.196289ZM326.401 0.201172L326.407 1.20116L327.348 1.19628L327.343 0.196289L327.338 -0.803697L326.396 -0.798815L326.401 0.201172ZM327.343 0.196289L327.314 1.19589C328.414 1.22709 330.053 1.40936 331.125 2.06214L331.646 1.20801L332.166 0.353879C330.61 -0.593232 328.502 -0.771216 327.371 -0.803309L327.343 0.196289ZM331.646 1.20801L331.125 2.06208C331.278 2.15476 331.607 2.41959 332.124 2.89559C332.619 3.35159 333.233 3.95018 333.934 4.6564C335.337 6.06779 337.065 7.88393 338.851 9.79428C342.425 13.6145 346.209 17.7852 348.055 19.803L348.793 19.1279L349.531 18.4529C347.692 16.4439 343.895 12.2589 340.312 8.42807C338.521 6.51285 336.777 4.67956 335.353 3.24684C334.642 2.531 334.005 1.90887 333.478 1.42412C332.973 0.959355 332.51 0.563415 332.166 0.353935L331.646 1.20801ZM348.793 19.1279L348.055 19.803C349.752 21.6574 350.819 23.6017 351.489 25.2964L352.419 24.9285L353.349 24.5606C352.604 22.6782 351.418 20.5152 349.531 18.4529L348.793 19.1279ZM352.841 27.3599H351.841V82H352.841H353.841V27.3599H352.841ZM344.841 90V89H8.15917V90V91H344.841V90ZM0.15918 82H1.15918V8H0.15918H-0.84082V82H0.15918ZM8.15918 0V1H352.799V0V-1H8.15918V0ZM352.799 0V1C352.27 1 351.841 0.571136 351.841 0.0420847H352.841H353.841C353.841 -0.533452 353.374 -1 352.799 -1V0ZM0.15918 8H1.15918C1.15918 4.13401 4.29319 1 8.15918 1V0V-1C3.18862 -1 -0.84082 3.02944 -0.84082 8H0.15918ZM8.15917 90V89C4.29318 89 1.15918 85.866 1.15918 82H0.15918H-0.84082C-0.84082 86.9706 3.18861 91 8.15917 91V90ZM352.841 82H351.841C351.841 85.866 348.707 89 344.841 89V90V91C349.811 91 353.841 86.9706 353.841 82H352.841ZM352.419 24.9285L351.489 25.2964C351.736 25.9219 351.841 26.6202 351.841 27.3599H352.841H353.841C353.841 26.4397 353.712 25.4786 353.349 24.5606L352.419 24.9285ZM352.799 0.0841689L352.803 1.08416C353.377 1.08163 353.841 0.615821 353.841 0.0420847H352.841H351.841C351.841 -0.48531 352.267 -0.913499 352.795 -0.915821L352.799 0.0841689Z" fill="#3C3C3C" mask="url(#path-1-inside-1_9147_1713)"/>
<defs>
<linearGradient id="paint0_linear_9147_1713" x1="270.744" y1="90" x2="270.744" y2="0" gradientUnits="userSpaceOnUse">
<stop stop-opacity="0"/>
<stop offset="1" stop-color="#FFF100" stop-opacity="0.28"/>
</linearGradient>
</defs>
</svg>
