<svg width="49" height="49" viewBox="0 0 49 49" fill="none" xmlns="http://www.w3.org/2000/svg">
<rect x="0.5" y="0.5" width="48" height="48" rx="12" fill="#FEF100" fill-opacity="0.05"/>
<rect x="0.5" y="0.5" width="48" height="48" rx="12" stroke="#FEF100" stroke-dasharray="2 2"/>
<path d="M24.4983 27.25H24.5002L24.5012 27.249C24.9142 27.249 25.2502 26.915 25.2512 26.501L25.2772 16.04C26.0207 16.8261 26.8207 17.7831 26.9151 17.8961C26.9205 17.9025 26.9236 17.9062 26.9242 17.907C27.1882 18.226 27.6612 18.27 27.9802 18.005C28.2982 17.741 28.3422 17.268 28.0782 16.949C28.0092 16.865 26.3752 14.9 25.4352 14.101C25.1862 13.89 24.8792 13.766 24.5712 13.751H24.5572C24.2062 13.738 23.8662 13.857 23.5752 14.095C23.5722 14.097 23.5682 14.1 23.5652 14.103C22.6262 14.902 20.9922 16.867 20.9233 16.95C20.6583 17.269 20.7022 17.742 21.0212 18.006C21.3402 18.271 21.8122 18.227 22.0772 17.908C22.0892 17.893 22.9762 16.826 23.7762 15.985L23.7502 26.498C23.7492 26.912 24.0843 27.249 24.4983 27.25Z" fill="#FFF000"/>
<path d="M25.498 35.25C29.467 35.25 31.459 35.25 32.846 33.927C34.248 32.589 34.248 30.682 34.248 26.88C34.248 23.078 34.248 21.1701 32.845 19.8321C32.286 19.3001 31.589 18.961 30.652 18.765C30.246 18.681 29.849 18.941 29.764 19.346C29.68 19.752 29.94 20.1491 30.345 20.2341C31.007 20.3731 31.459 20.584 31.811 20.919C32.749 21.813 32.749 23.507 32.749 26.8799C32.749 30.2528 32.749 31.947 31.811 32.841C30.859 33.75 29.067 33.75 25.499 33.75H23.499C19.931 33.75 18.14 33.75 17.187 32.841C16.249 31.947 16.249 30.2531 16.249 26.8802C16.249 23.5072 16.249 21.814 17.186 20.92C17.539 20.585 17.992 20.3731 18.653 20.2351C19.059 20.1501 19.319 19.752 19.234 19.347C19.149 18.941 18.752 18.682 18.346 18.766C17.409 18.962 16.712 19.3011 16.152 19.8331C14.75 21.171 14.75 23.0789 14.75 26.8797C14.75 30.6804 14.75 32.5891 16.152 33.927C17.54 35.25 19.532 35.25 23.5 35.25H25.498Z" fill="#FFF000"/>
</svg>
