<svg width="1108" height="132" viewBox="0 0 1108 132" fill="none" xmlns="http://www.w3.org/2000/svg">
<path d="M1108 0.0400879C1108 0.0621896 1107.98 0.0801217 1107.96 0.0801756L1060.34 0.196289C1059.33 0.180405 1058.67 0.200477 1058.65 0.201172L1060.34 0.196289C1062.34 0.227924 1065.71 0.408038 1068.07 1.20801C1071.63 2.41606 1092.26 15.1011 1098.88 19.1279C1106.16 23.5523 1107.32 28.4637 1107.51 29.7036C1107.52 29.8222 1107.67 29.8782 1107.76 29.7977C1107.85 29.7152 1108 29.7798 1108 29.9026V124C1108 128.418 1104.42 132 1100 132H7.99999C3.58171 132 0 128.418 0 124V8C0 3.58172 3.58172 0 8 0H1107.96C1107.98 0 1108 0.017948 1108 0.0400879Z" fill="#FFFF79"/>
</svg>
