<svg width="264" height="51" viewBox="0 0 264 51" fill="none" xmlns="http://www.w3.org/2000/svg">
    <g clip-path="url(#clip0_445_3162)">
    <path d="M81.4711 6.54037H92.9521V20.1715L103.138 7.45354C103.603 6.87244 104.3 6.54037 105.039 6.54037H116.379L102.241 24.2475C101.835 24.7539 101.843 25.4678 102.241 25.9742L116.371 43.6066H103.86L92.9355 30.1333V43.6066H81.4545V6.54037H81.4711Z" fill="white"/>
    <path d="M148.838 6.54037L156.89 31.9679L164.943 6.54037H176.582L164.146 43.6066H149.635L138.278 9.76136C137.747 8.18407 138.926 6.54868 140.595 6.54868H148.838V6.54037Z" fill="white"/>
    <path d="M198.747 6.05888C210.145 6.05888 218.836 13.9453 218.836 25.1109C218.836 36.2764 209.671 44.1628 198.747 44.1628C187.822 44.1628 178.582 36.1104 178.582 25.1109C178.582 14.1114 187.357 6.05888 198.747 6.05888ZM198.747 16.2614C193.807 16.2614 189.823 19.9307 189.823 25.1109C189.823 30.291 193.965 33.9603 198.747 33.9603C203.528 33.9603 207.596 30.2163 207.596 25.1109C207.596 20.0054 203.694 16.2614 198.747 16.2614Z" fill="white"/>
    <path d="M243.467 6.05888C254.865 6.05888 263.557 13.9453 263.557 25.1109C263.557 36.2764 254.392 44.1628 243.467 44.1628C232.542 44.1628 223.302 36.1104 223.302 25.1109C223.302 14.1114 232.077 6.05888 243.467 6.05888ZM243.467 16.2614C238.527 16.2614 234.543 19.9307 234.543 25.1109C234.543 30.291 238.685 33.9603 243.467 33.9603C248.249 33.9603 252.316 30.2163 252.316 25.1109C252.316 20.0054 248.415 16.2614 243.467 16.2614Z" fill="white"/>
    <path d="M41.3748 47.5664V50.1067H54.0678C55.8941 50.1067 57.6457 49.3928 58.9408 48.1143L64.0628 43.0919C64.4696 42.6934 64.6937 42.1538 64.6937 41.581V33.7361H35.6965C39.2081 37.2892 41.3748 42.1705 41.3748 47.5581V47.5664Z" fill="#FFF100"/>
    <path d="M49.0372 0.115005C47.1943 0.115005 45.4343 0.845539 44.1227 2.14057L39.4655 6.77282L17.2341 29.0375V0.115005H6.7493C6.2097 0.115005 5.695 0.322543 5.29653 0.68781L1.53595 4.24086C1.11257 4.63933 0.871826 5.19553 0.871826 5.77664V50.1067H17.2341V29.0956C18.8363 28.6722 20.5215 28.4481 22.2565 28.4481C27.445 28.4481 32.1602 30.4653 35.6801 33.7444L64.0712 5.35326C64.4697 4.95479 64.6855 4.42349 64.6855 3.85899V0.115005H49.0372Z" fill="#FFF100"/>
    <path opacity="0.66" d="M48.9791 0.115005C47.1777 0.115005 45.4509 0.828936 44.1725 2.09907L39.4655 6.78112L17.2341 29.0458V0.115005H6.7493C6.2097 0.115005 5.695 0.322543 5.29653 0.68781L1.53595 4.24086C1.11257 4.63933 0.871826 5.19553 0.871826 5.77664V47.9981C0.871826 49.1603 1.8182 50.1067 2.98041 50.1067H15.1255C16.2877 50.1067 17.2341 49.1603 17.2341 47.9981V29.0956C18.8363 28.6722 20.5215 28.4481 22.2565 28.4481C27.445 28.4481 32.1602 30.4653 35.6801 33.7444L64.0712 5.35326C64.4697 4.95479 64.6855 4.42349 64.6855 3.85899V0.115005H48.9708H48.9791Z" fill="url(#paint0_linear_445_3162)"/>
    <path d="M125.228 13.1899V12.2933C125.228 11.9114 125.544 11.596 125.926 11.596H130.209C131.38 11.596 132.318 10.6496 132.318 9.4874V6.29962H123.593C122.248 6.29962 121.152 7.39542 121.152 8.74027V43.6066H132.31V15.3068C132.31 14.1362 131.363 13.1982 130.201 13.1982H125.22L125.228 13.1899Z" fill="white"/>
    </g>
    <defs>
    <linearGradient id="paint0_linear_445_3162" x1="26.7227" y1="-13.6157" x2="32.4342" y2="21.9895" gradientUnits="userSpaceOnUse">
    <stop offset="0.28" stop-color="white"/>
    <stop offset="0.56" stop-color="white" stop-opacity="0.59"/>
    <stop offset="0.86" stop-color="white" stop-opacity="0.17"/>
    <stop offset="1" stop-color="white" stop-opacity="0"/>
    </linearGradient>
    <clipPath id="clip0_445_3162">
    <rect width="262.676" height="50" fill="white" transform="translate(0.871826 0.115005)"/>
    </clipPath>
    </defs>
    </svg>
    