<svg width="80" height="96" viewBox="0 0 80 96" fill="none" xmlns="http://www.w3.org/2000/svg">
<path d="M76.9042 43.8194L23.7641 2.48138C22.3596 1.38648 20.4679 0.783142 18.4902 0.783142H9.7768C7.94241 0.783142 6.1367 1.31945 4.78957 2.28028L3.67169 3.06236C2.12392 4.15726 1.20677 5.72137 1.20677 7.35255L1.06349 57.7403L0.977417 85.6267C0.977417 87.1908 1.77999 88.7103 3.24177 89.8052L7.94245 93.3804C9.34691 94.4306 11.21 95.0339 13.1303 95.0339H42.6526C44.6016 95.0339 46.436 94.4529 47.8405 93.4027L76.8182 71.5047C78.28 70.4098 79.0825 68.9127 79.0825 67.3262V47.9085C79.0825 46.3667 78.3087 44.892 76.9042 43.7971V43.8194Z" stroke="#3C3C3C" stroke-width="0.436854" stroke-miterlimit="10"/>
</svg>
