<svg width="146" height="102" viewBox="0 0 146 102" fill="none" xmlns="http://www.w3.org/2000/svg">
<g clip-path="url(#clip0_7008_5868)">
<path d="M73 72C86.8071 72 98 60.8071 98 47C98 33.1929 86.8071 22 73 22C59.1929 22 48 33.1929 48 47C48 60.8071 59.1929 72 73 72Z" fill="#29292B"/>
<path d="M76.5071 59.5269H81.4764C82.1914 59.5269 82.8771 59.1775 83.3841 58.5519L85.3894 56.0941C85.5486 55.8991 85.6364 55.635 85.6364 55.3547V51.5156H74.2841C75.6589 53.2544 76.5071 55.6431 76.5071 58.2797V59.5269Z" fill="#FFF000"/>
<path d="M79.5069 35.0625C78.7854 35.0625 78.0964 35.42 77.5829 36.0537L75.7596 38.3206L67.0561 49.2162V35.0625H62.9514C62.7401 35.0625 62.5386 35.1641 62.3826 35.3428L60.9104 37.0816C60.7446 37.2766 60.6504 37.5487 60.6504 37.8331V59.5269H67.0561V49.2447C67.6834 49.0375 68.3431 48.9278 69.0224 48.9278C71.0536 48.9278 72.8996 49.915 74.2776 51.5197L85.3926 37.6259C85.5486 37.4309 85.6331 37.1709 85.6331 36.8947V35.0625H79.5069Z" fill="#FFF000"/>
</g>
<path d="M126.146 56.7371C123.517 57.8272 122.317 59.0966 121.481 61.6719C121.432 61.8465 121.299 62.0053 121.144 62.1286C120.989 62.2519 120.791 62.3217 120.59 62.3339C120.389 62.3462 120.203 62.2997 120.034 62.1961C119.865 62.0925 119.714 61.9493 119.644 61.7836C118.481 59.3298 117.158 58.2331 114.416 57.4503C114.23 57.4039 114.061 57.2826 113.931 57.1382C113.801 56.9938 113.748 56.8077 113.737 56.6191C113.725 56.4306 113.774 56.256 113.867 56.0804C113.978 55.9212 114.134 55.7979 114.31 55.7118C116.938 54.6218 118.118 53.3536 118.975 50.7771C119.024 50.6024 119.138 50.4448 119.312 50.3203C119.467 50.197 119.644 50.1285 119.847 50.1162C120.05 50.1038 120.255 50.1491 120.422 50.2528C120.589 50.3565 120.742 50.4996 120.812 50.6654C121.954 53.1203 123.298 54.2159 126.04 54.9986C126.226 55.045 126.395 55.1663 126.525 55.3107C126.655 55.4552 126.728 55.64 126.74 55.8286C126.751 56.0171 126.702 56.1917 126.589 56.3686C126.477 56.5454 126.323 56.6702 126.146 56.7371Z" fill="#29292B"/>
<path d="M116.035 7.98825C113.598 9.02424 112.48 10.1758 111.684 12.5808C111.611 12.7387 111.499 12.9021 111.38 12.9845C111.266 13.1089 111.061 13.1573 110.899 13.1671C110.696 13.1795 110.528 13.1505 110.358 13.0466C110.189 12.9394 110.058 12.8331 110.007 12.6828C108.926 10.3919 107.713 9.34611 105.17 8.6488C105.003 8.58061 104.833 8.51588 104.703 8.36713C104.611 8.21932 104.522 8.06805 104.51 7.87618C104.499 7.68431 104.531 7.5257 104.642 7.36552C104.754 7.20533 104.912 7.07819 105.072 7.02931C107.509 5.99332 108.627 4.84171 109.385 2.43903C109.458 2.28116 109.569 2.11772 109.687 1.99635C109.8 1.87194 110.005 1.82358 110.209 1.8112C110.371 1.80134 110.58 1.82778 110.749 1.93174C110.877 2.04147 111.05 2.14522 111.103 2.33457C112.184 4.62545 113.397 5.67123 115.978 6.36624C116.145 6.43443 116.315 6.49916 116.404 6.65043C116.492 6.8017 116.585 6.94951 116.596 7.14137C116.608 7.33324 116.576 7.49185 116.464 7.65204C116.309 7.77897 116.192 7.90034 116.035 7.98825Z" fill="#29292B"/>
<path d="M43.9104 17.5578C41.5657 18.5545 40.4904 19.6624 39.7249 21.9761C39.6542 22.128 39.5472 22.2852 39.432 22.3644C39.3227 22.4841 39.1256 22.5306 38.9696 22.5401C38.7738 22.552 38.6122 22.5242 38.4496 22.4242C38.2867 22.321 38.1606 22.2188 38.1118 22.0742C37.0716 19.8702 35.9044 18.8641 33.4583 18.1933C33.2978 18.1277 33.1341 18.0654 33.0088 17.9223C32.9202 17.7801 32.8347 17.6346 32.8235 17.45C32.8123 17.2654 32.843 17.1128 32.9502 16.9587C33.0574 16.8046 33.2099 16.6823 33.3636 16.6353C35.7083 15.6386 36.7836 14.5307 37.5126 12.2192C37.5833 12.0673 37.6904 11.9101 37.8032 11.7933C37.9125 11.6736 38.1096 11.6271 38.3054 11.6152C38.4614 11.6057 38.6629 11.6311 38.8255 11.7312C38.9485 11.8367 39.1145 11.9365 39.1655 12.1187C40.2057 14.3226 41.3729 15.3287 43.8555 15.9974C44.0161 16.063 44.1798 16.1252 44.2653 16.2708C44.3507 16.4163 44.4393 16.5585 44.4505 16.7431C44.4618 16.9277 44.4311 17.0802 44.3238 17.2344C44.1747 17.3565 44.0618 17.4732 43.9104 17.5578Z" fill="#29292B"/>
<path d="M30.3323 95.342C27.9876 96.3386 26.9122 97.4466 26.1468 99.7603C26.076 99.9121 25.969 100.069 25.8539 100.149C25.7446 100.268 25.5475 100.315 25.3915 100.324C25.1957 100.336 25.0341 100.308 24.8714 100.208C24.7086 100.105 24.5824 100.003 24.5337 99.8583C23.4935 97.6544 22.3263 96.6483 19.8802 95.9775C19.7196 95.9119 19.556 95.8496 19.4306 95.7065C19.342 95.5643 19.2566 95.4188 19.2454 95.2342C19.2341 95.0496 19.2648 94.897 19.3721 94.7429C19.4793 94.5888 19.6318 94.4665 19.7855 94.4194C22.1302 93.4228 23.2055 92.3149 23.9345 90.0034C24.0052 89.8515 24.1122 89.6943 24.2251 89.5775C24.3344 89.4578 24.5315 89.4113 24.7273 89.3994C24.8833 89.3899 25.0847 89.4153 25.2474 89.5153C25.3704 89.6209 25.5364 89.7207 25.5874 89.9029C26.6276 92.1068 27.7948 93.1129 30.2774 93.7815C30.438 93.8471 30.6017 93.9094 30.6871 94.0549C30.7726 94.2005 30.8612 94.3427 30.8724 94.5272C30.8836 94.7118 30.8529 94.8644 30.7457 95.0185C30.5966 95.1406 30.4837 95.2574 30.3323 95.342Z" fill="#29292B"/>
<path d="M128.504 18.2317C127.536 18.6432 127.092 19.1006 126.776 20.0558C126.747 20.1185 126.702 20.1834 126.655 20.2161C126.61 20.2655 126.528 20.2847 126.464 20.2886C126.383 20.2936 126.316 20.2821 126.249 20.2408C126.182 20.1982 126.13 20.156 126.11 20.0963C125.68 19.1864 125.199 18.771 124.189 18.4941C124.122 18.467 124.055 18.4413 124.003 18.3822C123.967 18.3235 123.931 18.2634 123.927 18.1872C123.922 18.111 123.935 18.048 123.979 17.9844C124.023 17.9208 124.086 17.8703 124.15 17.8509C125.118 17.4394 125.562 16.982 125.863 16.0277C125.892 15.965 125.936 15.9001 125.982 15.8519C126.028 15.8025 126.109 15.7833 126.19 15.7784C126.254 15.7744 126.337 15.7849 126.405 15.8262C126.455 15.8698 126.524 15.911 126.545 15.9862C126.974 16.8961 127.456 17.3115 128.481 17.5875C128.547 17.6146 128.615 17.6403 128.65 17.7004C128.686 17.7605 128.722 17.8192 128.727 17.8954C128.731 17.9716 128.719 18.0346 128.674 18.0982C128.613 18.1486 128.566 18.1968 128.504 18.2317Z" fill="#29292B"/>
<path d="M17.1112 87.929C16.1432 88.3405 15.6993 88.7978 15.3833 89.753C15.3541 89.8158 15.3099 89.8807 15.2624 89.9134C15.2172 89.9628 15.1359 89.982 15.0715 89.9859C14.9906 89.9908 14.9239 89.9793 14.8568 89.938C14.7895 89.8955 14.7374 89.8532 14.7173 89.7935C14.2879 88.8837 13.806 88.4683 12.7962 88.1913C12.7299 88.1643 12.6623 88.1386 12.6106 88.0795C12.574 88.0208 12.5387 87.9607 12.5341 87.8845C12.5294 87.8083 12.5421 87.7453 12.5864 87.6817C12.6306 87.618 12.6936 87.5675 12.7571 87.5481C13.725 87.1367 14.169 86.6793 14.4699 85.725C14.4991 85.6623 14.5433 85.5974 14.5899 85.5492C14.635 85.4997 14.7164 85.4805 14.7972 85.4756C14.8616 85.4717 14.9448 85.4822 15.012 85.5235C15.0628 85.5671 15.1313 85.6083 15.1523 85.6835C15.5818 86.5934 16.0636 87.0087 17.0886 87.2848C17.1549 87.3119 17.2224 87.3376 17.2577 87.3976C17.293 87.4577 17.3296 87.5164 17.3342 87.5926C17.3389 87.6688 17.3262 87.7318 17.2819 87.7955C17.2203 87.8459 17.1738 87.8941 17.1112 87.929Z" fill="#29292B"/>
<path d="M141.466 34.8897C138.887 35.986 137.704 37.2047 136.862 39.7498C136.785 39.9168 136.667 40.0898 136.54 40.1769C136.42 40.3086 136.203 40.3598 136.032 40.3702C135.816 40.3833 135.638 40.3527 135.46 40.2426C135.28 40.1292 135.142 40.0167 135.088 39.8576C133.944 37.4333 132.66 36.3266 129.969 35.5887C129.793 35.5165 129.613 35.448 129.475 35.2906C129.377 35.1342 129.283 34.9741 129.271 34.7711C129.259 34.568 129.292 34.4002 129.41 34.2306C129.528 34.0611 129.696 33.9266 129.865 33.8749C132.444 32.7785 133.627 31.5598 134.429 29.0172C134.507 28.8501 134.624 28.6772 134.749 28.5487C134.869 28.4171 135.086 28.3659 135.301 28.3528C135.473 28.3424 135.694 28.3703 135.873 28.4803C136.008 28.5965 136.191 28.7063 136.247 28.9066C137.391 31.331 138.675 32.4377 141.406 33.1732C141.583 33.2453 141.763 33.3138 141.857 33.4739C141.951 33.634 142.048 33.7904 142.061 33.9935C142.073 34.1965 142.039 34.3643 141.921 34.5339C141.757 34.6682 141.633 34.7966 141.466 34.8897Z" fill="#29292B"/>
<path d="M17.1356 47.077C15.0253 47.974 14.0575 48.9711 13.3686 51.0535C13.305 51.1902 13.2086 51.3317 13.105 51.403C13.0067 51.5107 12.8293 51.5526 12.6889 51.5611C12.5126 51.5718 12.3672 51.5468 12.2208 51.4567C12.0742 51.3639 11.9607 51.2719 11.9168 51.1417C10.9807 49.1582 9.93019 48.2527 7.72871 47.649C7.5842 47.5899 7.43688 47.5339 7.32411 47.4051C7.24437 47.2771 7.16745 47.1461 7.15735 46.98C7.14725 46.8139 7.17487 46.6765 7.27138 46.5378C7.36789 46.3991 7.50511 46.2891 7.64346 46.2467C9.75369 45.3497 10.7215 44.3526 11.3776 42.2723C11.4412 42.1356 11.5375 41.9941 11.6391 41.889C11.7375 41.7813 11.9148 41.7394 12.0911 41.7287C12.2315 41.7201 12.4128 41.743 12.5592 41.833C12.6699 41.928 12.8193 42.0179 12.8652 42.1818C13.8013 44.1654 14.8518 45.0709 17.0862 45.6726C17.2307 45.7317 17.378 45.7877 17.4549 45.9187C17.5319 46.0497 17.6116 46.1776 17.6217 46.3438C17.6318 46.5099 17.6042 46.6472 17.5077 46.7859C17.3734 46.8958 17.2719 47.0009 17.1356 47.077Z" fill="#29292B"/>
<defs>
<clipPath id="clip0_7008_5868">
<rect width="50" height="57" fill="white" transform="translate(48 15)"/>
</clipPath>
</defs>
</svg>
