<svg width="372" height="49" viewBox="0 0 372 49" fill="none" xmlns="http://www.w3.org/2000/svg">
<path d="M356 0C364.837 3.73669e-06 372 7.16345 372 16V33C372 41.8366 364.837 49 356 49H16C7.16345 49 0 41.8366 0 33V16C6.12085e-07 7.16344 7.16344 0 16 0H356Z" fill="#FAFAF0" fill-opacity="0.04"/>
<path d="M356 0C364.837 3.73669e-06 372 7.16345 372 16V33C372 41.8366 364.837 49 356 49H16C7.16345 49 0 41.8366 0 33V16C6.12085e-07 7.16344 7.16344 0 16 0H356Z" stroke="#FFF000"/>
<path d="M105.828 32.26C104.882 32.26 103.992 32.0733 103.158 31.7C102.325 31.32 101.592 30.8 100.958 30.14C100.332 29.4733 99.8384 28.7 99.4784 27.82C99.1251 26.94 98.9484 26 98.9484 25C98.9484 24 99.1251 23.06 99.4784 22.18C99.8384 21.3 100.332 20.53 100.958 19.87C101.592 19.2033 102.325 18.6833 103.158 18.31C103.992 17.93 104.882 17.74 105.828 17.74C106.962 17.74 108.005 18.0033 108.958 18.53C109.912 19.0567 110.702 19.7567 111.328 20.63L109.838 21.43C109.372 20.8167 108.782 20.33 108.068 19.97C107.362 19.6033 106.615 19.42 105.828 19.42C105.102 19.42 104.422 19.5667 103.788 19.86C103.162 20.1533 102.612 20.5567 102.138 21.07C101.665 21.5833 101.295 22.1767 101.028 22.85C100.762 23.5233 100.628 24.24 100.628 25C100.628 25.7667 100.762 26.4867 101.028 27.16C101.302 27.8333 101.675 28.4267 102.148 28.94C102.628 29.4533 103.182 29.8567 103.808 30.15C104.442 30.4367 105.115 30.58 105.828 30.58C106.642 30.58 107.395 30.3967 108.088 30.03C108.788 29.6567 109.372 29.17 109.838 28.57L111.328 29.38C110.702 30.2533 109.912 30.9533 108.958 31.48C108.005 32 106.962 32.26 105.828 32.26ZM122.192 25.78V32H120.512V26.15C120.512 25.6433 120.389 25.1833 120.142 24.77C119.896 24.3567 119.566 24.03 119.152 23.79C118.739 23.5433 118.279 23.42 117.772 23.42C117.272 23.42 116.812 23.5433 116.392 23.79C115.979 24.03 115.649 24.3567 115.402 24.77C115.156 25.1833 115.032 25.6433 115.032 26.15V32H113.352V17H115.032V23.25C115.386 22.7833 115.832 22.4133 116.372 22.14C116.912 21.86 117.499 21.72 118.132 21.72C118.879 21.72 119.559 21.9033 120.172 22.27C120.792 22.63 121.282 23.1167 121.642 23.73C122.009 24.3433 122.192 25.0267 122.192 25.78ZM132.037 22H133.717V32H132.037L131.967 30.31C131.654 30.89 131.22 31.36 130.667 31.72C130.12 32.08 129.467 32.26 128.707 32.26C127.974 32.26 127.287 32.1233 126.647 31.85C126.007 31.57 125.44 31.1867 124.947 30.7C124.46 30.2067 124.08 29.64 123.807 29C123.534 28.36 123.397 27.67 123.397 26.93C123.397 26.2167 123.53 25.5433 123.797 24.91C124.064 24.2767 124.434 23.7233 124.907 23.25C125.387 22.77 125.94 22.3967 126.567 22.13C127.194 21.8567 127.867 21.72 128.587 21.72C129.374 21.72 130.064 21.9067 130.657 22.28C131.25 22.6467 131.73 23.1233 132.097 23.71L132.037 22ZM128.677 30.63C129.337 30.63 129.907 30.47 130.387 30.15C130.874 29.8233 131.247 29.3833 131.507 28.83C131.774 28.2767 131.907 27.6667 131.907 27C131.907 26.32 131.774 25.7067 131.507 25.16C131.24 24.6067 130.864 24.17 130.377 23.85C129.897 23.5233 129.33 23.36 128.677 23.36C128.017 23.36 127.417 23.5233 126.877 23.85C126.337 24.1767 125.907 24.6167 125.587 25.17C125.274 25.7167 125.117 26.3267 125.117 27C125.117 27.6733 125.28 28.2867 125.607 28.84C125.934 29.3867 126.367 29.8233 126.907 30.15C127.447 30.47 128.037 30.63 128.677 30.63ZM135.716 32V22H137.396V23.25C137.749 22.7833 138.196 22.4133 138.736 22.14C139.276 21.86 139.862 21.72 140.496 21.72C140.882 21.72 141.256 21.77 141.616 21.87L140.936 23.55C140.662 23.4633 140.396 23.42 140.136 23.42C139.636 23.42 139.176 23.5433 138.756 23.79C138.342 24.03 138.012 24.3567 137.766 24.77C137.519 25.1833 137.396 25.6433 137.396 26.15V32H135.716ZM142.766 32V17H144.446V32H142.766ZM154.791 22H156.471V32H154.791L154.721 30.31C154.407 30.89 153.974 31.36 153.421 31.72C152.874 32.08 152.221 32.26 151.461 32.26C150.727 32.26 150.041 32.1233 149.401 31.85C148.761 31.57 148.194 31.1867 147.701 30.7C147.214 30.2067 146.834 29.64 146.561 29C146.287 28.36 146.151 27.67 146.151 26.93C146.151 26.2167 146.284 25.5433 146.551 24.91C146.817 24.2767 147.187 23.7233 147.661 23.25C148.141 22.77 148.694 22.3967 149.321 22.13C149.947 21.8567 150.621 21.72 151.341 21.72C152.127 21.72 152.817 21.9067 153.411 22.28C154.004 22.6467 154.484 23.1233 154.851 23.71L154.791 22ZM151.431 30.63C152.091 30.63 152.661 30.47 153.141 30.15C153.627 29.8233 154.001 29.3833 154.261 28.83C154.527 28.2767 154.661 27.6667 154.661 27C154.661 26.32 154.527 25.7067 154.261 25.16C153.994 24.6067 153.617 24.17 153.131 23.85C152.651 23.5233 152.084 23.36 151.431 23.36C150.771 23.36 150.171 23.5233 149.631 23.85C149.091 24.1767 148.661 24.6167 148.341 25.17C148.027 25.7167 147.871 26.3267 147.871 27C147.871 27.6733 148.034 28.2867 148.361 28.84C148.687 29.3867 149.121 29.8233 149.661 30.15C150.201 30.47 150.791 30.63 151.431 30.63ZM158.47 32V22H160.15V23.25C160.503 22.7833 160.95 22.4133 161.49 22.14C162.03 21.86 162.616 21.72 163.25 21.72C163.636 21.72 164.01 21.77 164.37 21.87L163.69 23.55C163.416 23.4633 163.15 23.42 162.89 23.42C162.39 23.42 161.93 23.5433 161.51 23.79C161.096 24.03 160.766 24.3567 160.52 24.77C160.273 25.1833 160.15 25.6433 160.15 26.15V32H158.47ZM177.469 29.36L178.969 30.17C178.516 30.8033 177.939 31.31 177.239 31.69C176.546 32.07 175.792 32.26 174.979 32.26C174.059 32.26 173.219 32.0233 172.459 31.55C171.706 31.0767 171.102 30.4433 170.649 29.65C170.202 28.85 169.979 27.9667 169.979 27C169.979 26.2667 170.109 25.5833 170.369 24.95C170.629 24.31 170.986 23.75 171.439 23.27C171.899 22.7833 172.432 22.4033 173.039 22.13C173.646 21.8567 174.292 21.72 174.979 21.72C175.792 21.72 176.546 21.91 177.239 22.29C177.939 22.67 178.516 23.18 178.969 23.82L177.469 24.63C177.149 24.2367 176.769 23.9333 176.329 23.72C175.889 23.5067 175.439 23.4 174.979 23.4C174.359 23.4 173.796 23.5667 173.289 23.9C172.789 24.2267 172.392 24.6633 172.099 25.21C171.806 25.7567 171.659 26.3533 171.659 27C171.659 27.6467 171.806 28.2433 172.099 28.79C172.399 29.33 172.799 29.7633 173.299 30.09C173.806 30.4167 174.366 30.58 174.979 30.58C175.472 30.58 175.936 30.4667 176.369 30.24C176.802 30.0133 177.169 29.72 177.469 29.36ZM184.998 32.26C184.078 32.26 183.238 32.0233 182.478 31.55C181.725 31.0767 181.122 30.4433 180.668 29.65C180.222 28.85 179.998 27.9667 179.998 27C179.998 26.2667 180.128 25.5833 180.388 24.95C180.648 24.31 181.005 23.75 181.458 23.27C181.918 22.7833 182.452 22.4033 183.058 22.13C183.665 21.8567 184.312 21.72 184.998 21.72C185.918 21.72 186.755 21.9567 187.508 22.43C188.268 22.9033 188.872 23.54 189.318 24.34C189.772 25.14 189.998 26.0267 189.998 27C189.998 27.7267 189.868 28.4067 189.608 29.04C189.348 29.6733 188.988 30.2333 188.528 30.72C188.075 31.2 187.545 31.5767 186.938 31.85C186.338 32.1233 185.692 32.26 184.998 32.26ZM184.998 30.58C185.625 30.58 186.188 30.4167 186.688 30.09C187.195 29.7567 187.592 29.32 187.878 28.78C188.172 28.2333 188.318 27.64 188.318 27C188.318 26.3467 188.168 25.7467 187.868 25.2C187.575 24.6533 187.178 24.2167 186.678 23.89C186.178 23.5633 185.618 23.4 184.998 23.4C184.372 23.4 183.808 23.5667 183.308 23.9C182.808 24.2267 182.412 24.6633 182.118 25.21C181.825 25.7567 181.678 26.3533 181.678 27C181.678 27.6667 181.828 28.2733 182.128 28.82C182.428 29.36 182.832 29.79 183.338 30.11C183.845 30.4233 184.398 30.58 184.998 30.58ZM200.493 25.78V32H198.813V26.15C198.813 25.6433 198.69 25.1833 198.443 24.77C198.196 24.3567 197.866 24.03 197.453 23.79C197.04 23.5433 196.58 23.42 196.073 23.42C195.573 23.42 195.113 23.5433 194.693 23.79C194.28 24.03 193.95 24.3567 193.703 24.77C193.456 25.1833 193.333 25.6433 193.333 26.15V32H191.653V22H193.333V23.25C193.686 22.7833 194.133 22.4133 194.673 22.14C195.213 21.86 195.8 21.72 196.433 21.72C197.18 21.72 197.86 21.9033 198.473 22.27C199.093 22.63 199.583 23.1167 199.943 23.73C200.31 24.3433 200.493 25.0267 200.493 25.78ZM210.348 32.19C209.808 32.17 209.281 32.07 208.768 31.89C208.261 31.7033 207.814 31.4533 207.428 31.14C207.048 30.82 206.771 30.4533 206.598 30.04L208.038 29.42C208.138 29.6467 208.318 29.86 208.578 30.06C208.838 30.26 209.138 30.42 209.478 30.54C209.818 30.66 210.161 30.72 210.508 30.72C210.874 30.72 211.218 30.6633 211.538 30.55C211.858 30.4367 212.118 30.27 212.318 30.05C212.524 29.8233 212.628 29.5533 212.628 29.24C212.628 28.9067 212.514 28.6467 212.288 28.46C212.068 28.2667 211.788 28.1167 211.448 28.01C211.114 27.8967 210.774 27.79 210.428 27.69C209.741 27.5167 209.128 27.31 208.588 27.07C208.048 26.8233 207.621 26.5133 207.308 26.14C207.001 25.76 206.848 25.2767 206.848 24.69C206.848 24.07 207.018 23.5333 207.358 23.08C207.704 22.6267 208.158 22.2767 208.718 22.03C209.278 21.7833 209.878 21.66 210.518 21.66C211.324 21.66 212.061 21.8333 212.728 22.18C213.394 22.5267 213.891 22.9967 214.218 23.59L212.868 24.38C212.754 24.14 212.581 23.93 212.348 23.75C212.114 23.5633 211.848 23.4167 211.548 23.31C211.248 23.2033 210.941 23.1467 210.628 23.14C210.241 23.1267 209.878 23.1767 209.538 23.29C209.204 23.4033 208.934 23.5767 208.728 23.81C208.528 24.0367 208.428 24.32 208.428 24.66C208.428 24.9933 208.534 25.2467 208.748 25.42C208.968 25.5933 209.251 25.7333 209.598 25.84C209.951 25.94 210.334 26.0567 210.748 26.19C211.354 26.3833 211.921 26.6067 212.448 26.86C212.974 27.1133 213.398 27.43 213.718 27.81C214.044 28.19 214.204 28.66 214.198 29.22C214.198 29.8333 214.014 30.37 213.648 30.83C213.281 31.2833 212.804 31.63 212.218 31.87C211.638 32.11 211.014 32.2167 210.348 32.19ZM220.213 32.26C219.293 32.26 218.453 32.0233 217.693 31.55C216.94 31.0767 216.337 30.4433 215.883 29.65C215.437 28.85 215.213 27.9667 215.213 27C215.213 26.2667 215.343 25.5833 215.603 24.95C215.863 24.31 216.22 23.75 216.673 23.27C217.133 22.7833 217.667 22.4033 218.273 22.13C218.88 21.8567 219.527 21.72 220.213 21.72C221.133 21.72 221.97 21.9567 222.723 22.43C223.483 22.9033 224.087 23.54 224.533 24.34C224.987 25.14 225.213 26.0267 225.213 27C225.213 27.7267 225.083 28.4067 224.823 29.04C224.563 29.6733 224.203 30.2333 223.743 30.72C223.29 31.2 222.76 31.5767 222.153 31.85C221.553 32.1233 220.907 32.26 220.213 32.26ZM220.213 30.58C220.84 30.58 221.403 30.4167 221.903 30.09C222.41 29.7567 222.807 29.32 223.093 28.78C223.387 28.2333 223.533 27.64 223.533 27C223.533 26.3467 223.383 25.7467 223.083 25.2C222.79 24.6533 222.393 24.2167 221.893 23.89C221.393 23.5633 220.833 23.4 220.213 23.4C219.587 23.4 219.023 23.5667 218.523 23.9C218.023 24.2267 217.627 24.6633 217.333 25.21C217.04 25.7567 216.893 26.3533 216.893 27C216.893 27.6667 217.043 28.2733 217.343 28.82C217.643 29.36 218.047 29.79 218.553 30.11C219.06 30.4233 219.613 30.58 220.213 30.58ZM228.548 37H226.868V22H228.548V23.71C228.888 23.1233 229.341 22.65 229.908 22.29C230.475 21.9233 231.148 21.74 231.928 21.74C232.655 21.74 233.335 21.8767 233.968 22.15C234.608 22.4233 235.168 22.8033 235.648 23.29C236.128 23.77 236.505 24.3267 236.778 24.96C237.051 25.5933 237.188 26.2733 237.188 27C237.188 27.7267 237.051 28.41 236.778 29.05C236.505 29.69 236.128 30.2533 235.648 30.74C235.168 31.22 234.608 31.5967 233.968 31.87C233.335 32.1433 232.655 32.28 231.928 32.28C231.148 32.28 230.475 32.1 229.908 31.74C229.341 31.3733 228.888 30.8967 228.548 30.31V37ZM231.908 23.37C231.261 23.37 230.695 23.5333 230.208 23.86C229.721 24.1867 229.345 24.6233 229.078 25.17C228.818 25.7167 228.688 26.3267 228.688 27C228.688 27.6667 228.818 28.2767 229.078 28.83C229.345 29.3833 229.718 29.8233 230.198 30.15C230.685 30.4767 231.255 30.64 231.908 30.64C232.555 30.64 233.148 30.48 233.688 30.16C234.228 29.8333 234.661 29.3967 234.988 28.85C235.315 28.2967 235.478 27.68 235.478 27C235.478 26.3333 235.318 25.7267 234.998 25.18C234.678 24.6267 234.248 24.1867 233.708 23.86C233.168 23.5333 232.568 23.37 231.908 23.37ZM243.202 32.26C242.282 32.26 241.442 32.0233 240.682 31.55C239.928 31.0767 239.325 30.4433 238.872 29.65C238.425 28.85 238.202 27.9667 238.202 27C238.202 26.2667 238.332 25.5833 238.592 24.95C238.852 24.31 239.208 23.75 239.662 23.27C240.122 22.7833 240.655 22.4033 241.262 22.13C241.868 21.8567 242.515 21.72 243.202 21.72C244.122 21.72 244.958 21.9567 245.712 22.43C246.472 22.9033 247.075 23.54 247.522 24.34C247.975 25.14 248.202 26.0267 248.202 27C248.202 27.7267 248.072 28.4067 247.812 29.04C247.552 29.6733 247.192 30.2333 246.732 30.72C246.278 31.2 245.748 31.5767 245.142 31.85C244.542 32.1233 243.895 32.26 243.202 32.26ZM243.202 30.58C243.828 30.58 244.392 30.4167 244.892 30.09C245.398 29.7567 245.795 29.32 246.082 28.78C246.375 28.2333 246.522 27.64 246.522 27C246.522 26.3467 246.372 25.7467 246.072 25.2C245.778 24.6533 245.382 24.2167 244.882 23.89C244.382 23.5633 243.822 23.4 243.202 23.4C242.575 23.4 242.012 23.5667 241.512 23.9C241.012 24.2267 240.615 24.6633 240.322 25.21C240.028 25.7567 239.882 26.3533 239.882 27C239.882 27.6667 240.032 28.2733 240.332 28.82C240.632 29.36 241.035 29.79 241.542 30.11C242.048 30.4233 242.602 30.58 243.202 30.58ZM249.856 32V22H251.536V23.25C251.89 22.7833 252.336 22.4133 252.876 22.14C253.416 21.86 254.003 21.72 254.636 21.72C255.023 21.72 255.396 21.77 255.756 21.87L255.076 23.55C254.803 23.4633 254.536 23.42 254.276 23.42C253.776 23.42 253.316 23.5433 252.896 23.79C252.483 24.03 252.153 24.3567 251.906 24.77C251.66 25.1833 251.536 25.6433 251.536 26.15V32H249.856ZM262.341 23.68H260.071L260.061 32H258.381L258.391 23.68H256.671V22H258.391L258.381 18.86H260.061L260.071 22H262.341V23.68ZM268.28 32.26C267.36 32.26 266.52 32.0233 265.76 31.55C265.006 31.0767 264.403 30.4433 263.95 29.65C263.503 28.85 263.28 27.9667 263.28 27C263.28 26.2667 263.41 25.5833 263.67 24.95C263.93 24.31 264.286 23.75 264.74 23.27C265.2 22.7833 265.733 22.4033 266.34 22.13C266.946 21.8567 267.593 21.72 268.28 21.72C269.033 21.72 269.723 21.8733 270.35 22.18C270.983 22.48 271.523 22.9 271.97 23.44C272.423 23.98 272.76 24.6067 272.98 25.32C273.206 26.0333 273.29 26.7967 273.23 27.61H265.07C265.15 28.1767 265.336 28.6833 265.63 29.13C265.923 29.57 266.296 29.92 266.75 30.18C267.21 30.44 267.72 30.5733 268.28 30.58C268.88 30.58 269.423 30.4267 269.91 30.12C270.396 29.8067 270.79 29.38 271.09 28.84L272.8 29.24C272.4 30.1267 271.796 30.8533 270.99 31.42C270.183 31.98 269.28 32.26 268.28 32.26ZM265.02 26.29H271.54C271.486 25.73 271.306 25.22 271 24.76C270.693 24.2933 270.303 23.92 269.83 23.64C269.356 23.36 268.84 23.22 268.28 23.22C267.72 23.22 267.206 23.3567 266.74 23.63C266.273 23.9033 265.886 24.2733 265.58 24.74C265.28 25.2 265.093 25.7167 265.02 26.29Z" fill="#FFF000"/>
</svg>
