<svg width="358" height="155" viewBox="0 0 358 155" fill="none" xmlns="http://www.w3.org/2000/svg">
<path d="M261.323 96.3622C255.075 92.8148 249.98 87.2112 247.02 80.6135C246.636 79.7662 246.331 78.6703 246.964 77.9924C247.754 77.1451 249.155 77.8004 250.059 78.5122C254.917 82.3307 258.894 87.3016 261.571 92.8939C262.136 94.0801 262.577 95.6731 261.312 96.3509L261.323 96.3622Z" fill="#7D8083"/>
<path d="M94.8995 96.0005C100.142 94.995 102.661 93.1761 104.819 89.7868C108.863 83.4602 108.264 81.1895 108.095 76.7608C107.428 76.1847 106.536 76.3202 105.734 76.6591C104.932 76.998 104.265 77.6194 103.632 78.2182C99.9043 81.7769 96.0519 85.539 94.2894 90.4082C93.5664 92.4078 93.5212 94.7803 94.8995 96.0005Z" fill="#7D8083"/>
<path d="M246.443 78.2295C248.793 85.4487 254.442 92.8372 261.966 96.6106C261.887 95.2436 261.91 95.1758 261.944 95.108C257.696 109.478 251.335 123.216 243.551 136.073C240.761 140.671 237.665 145.303 233.169 148.218C228.672 151.144 222.436 151.957 218.075 148.839C217.104 149.506 216.686 149.924 216.268 150.33C192.159 153.177 167.7 152.94 143.557 150.059C135.389 153.211 125.662 149.596 119.324 143.348C112.986 137.101 109.303 128.684 105.767 120.482C102.14 112.054 98.5024 103.638 94.8872 96.0118C98.5137 94.2268 102.818 91.5041 104.806 87.968C106.806 84.4319 107.586 81.1669 108.083 76.7609C111.63 78.2973 121.165 106.564 130.712 112.619C129.446 107.355 128.17 102.033 128.136 96.6219C128.102 91.2104 129.412 85.6068 132.813 81.4154C136.214 77.2241 141.953 74.7499 147.127 76.1847C152.177 77.5856 155.634 82.1611 158.707 86.4429C162.435 91.6623 166.175 96.8704 169.903 102.09C171.349 104.112 172.998 106.281 175.405 106.88C177.608 107.434 179.957 106.485 181.652 104.971C183.347 103.457 184.522 101.446 185.81 100.361C190.283 99.1638 194.362 96.5089 197.288 92.8937C200.214 89.2785 201.976 84.7256 201.909 80.3873C204.371 78.06 206.891 75.6876 209.941 74.2302C212.991 72.7615 216.72 72.3209 219.713 73.9026C222.719 75.4842 224.447 78.7379 225.78 81.8786C228.876 89.1881 230.842 96.9834 231.824 104.982C236.535 96.2604 241.258 87.5274 246.116 78.8848C246.161 78.93 246.206 78.9752 246.443 78.2408V78.2295Z" fill="#999DA3"/>
<path d="M155.85 54.0419C155.725 58.1542 158.087 62.2552 161.702 64.1645C160.809 60.2216 159.905 56.2336 160.03 52.1891C160.154 48.1446 161.419 43.9871 164.3 41.174C167.418 38.1237 171.903 37.073 176.163 36.2822C180.523 35.4801 185.008 34.8248 189.369 35.6269C193.73 36.4291 198.001 38.9484 199.876 42.9929C201.311 46.0772 201.627 50.2346 204.689 51.6694C207.016 52.7653 209.953 51.4548 211.343 49.2744C212.733 47.0939 212.868 44.3147 212.428 42.123C209.829 41.9422 207.988 39.2647 207.728 36.655C207.468 34.0453 208.349 31.4808 209.061 28.9501C209.773 26.4195 210.315 23.6742 209.377 21.2226C208.417 18.692 205.965 16.9183 203.333 16.376C199.616 15.6078 195.832 17.0199 192.352 18.5451C179.574 24.1148 167.52 31.3791 156.618 40.7786L156.03 33.7967C156.008 33.5482 155.963 33.2658 155.748 33.1528C155.319 32.9155 154.968 33.5821 154.912 34.0792C154.731 35.8303 154.55 37.5814 154.415 39.7506C152.743 39.615 151.048 39.9087 149.512 40.5866C151.319 40.6205 153.116 41.2757 154.935 42.9252C153.556 44.4729 153.793 46.8906 154.449 48.8564C155.104 50.8221 155.884 52.7653 155.85 54.0306V54.0419Z" fill="#999DA3"/>
<path d="M157.601 85.2907C159.883 81.2462 160.425 76.2301 159.103 72.1404C157.137 72.9199 154.776 72.3212 153.217 70.8977C151.658 69.4742 150.856 67.2938 150.833 65.1698C150.822 63.7577 151.138 62.3229 151.918 61.1479C152.697 59.973 153.963 59.103 155.364 58.9901C156.844 58.8658 158.301 59.6115 159.374 60.6508C160.447 61.6902 161.204 63.012 162.56 64.3451C159.499 59.7244 159.137 55.0246 160.334 48.4043C161.317 42.9589 166.153 38.6772 171.293 36.7001C176.659 34.6326 181.935 34.8021 187.652 35.4009C191.132 35.7624 195.605 36.6662 198.057 39.1968C201.491 42.7443 200.949 48.9353 204.734 52.9008C203.853 59.024 203.954 65.2489 203.525 71.4173C203.107 77.5971 202.113 84.5338 199.266 90.0244C196.419 95.5037 191.448 99.4578 185.415 100.576C185.415 100.576 185.528 100.599 185.607 100.678C184.161 102.474 181.664 104.971 181.664 104.971C181.664 104.971 177.236 108.88 174.117 106.428C172.378 105.061 170.683 103.706 169.418 101.887C165.486 96.2493 161.566 90.6005 157.51 85.0534C157.544 85.0534 157.578 85.0535 157.601 85.302V85.2907Z" fill="#ECEDF0"/>
<path d="M104.468 80.4213C104.976 76.3655 105.315 71.7448 102.615 68.6832C101.61 67.5421 100.277 66.7513 99.2033 65.6893C97.2714 63.78 96.2772 61.08 95.9383 58.3799C95.5994 55.6798 95.8479 52.9457 96.1078 50.2343C93.2721 48.438 90.1879 48.9351 88.1769 50.754C86.0756 52.6407 85.2622 55.6572 85.3864 58.4816C85.5107 61.306 86.4823 64.0286 87.5329 66.853C81.1837 63.3734 74.5634 60.4021 67.751 57.9732C65.3447 57.1146 62.5541 56.3576 60.3737 57.6907C58.2046 59.0238 57.6397 62.3904 59.3231 64.3449C58.1707 65.1696 57.4025 66.5253 57.2669 67.9488C57.1313 69.3723 57.6397 70.841 58.7469 72.208C57.8092 72.6486 57.1313 73.6089 57.0522 74.6483C56.9732 75.6877 57.4589 76.7496 58.5096 77.7099C57.4815 78.0714 57.0749 79.4158 57.4138 80.4552C57.7527 81.4946 58.6113 82.2741 59.4812 82.9068C65.3898 87.245 73.1512 87.8664 79.9184 90.6456C83.7031 92.2046 87.4087 94.498 91.4984 94.4302C95.0119 94.3737 98.3447 92.487 100.615 89.7869C102.886 87.0868 104.174 83.6524 104.66 80.1389C104.66 80.1163 104.66 80.0937 104.479 80.41L104.468 80.4213Z" fill="#ECEDF0"/>
<path d="M250.33 80.1731C249.799 75.9139 249.438 71.0787 252.262 67.8702C253.313 66.6726 254.714 65.8479 255.844 64.7294C257.866 62.7298 258.905 59.9054 259.267 57.0697C259.628 54.2341 259.357 51.3758 259.097 48.5288C262.069 46.6534 265.3 47.1731 267.412 49.0711C269.615 51.0481 270.474 54.2114 270.338 57.1714C270.203 60.1426 269.197 62.9896 268.079 65.9496C274.733 62.3005 281.67 59.1937 288.81 56.6404C291.329 55.7366 294.266 54.9458 296.537 56.3467C298.808 57.7363 299.396 61.2724 297.644 63.3172C298.853 64.1871 299.655 65.5994 299.791 67.0906C299.926 68.5819 299.396 70.1183 298.243 71.5531C299.226 72.005 299.927 73.0218 300.028 74.1063C300.119 75.1909 299.599 76.3094 298.503 77.3149C299.576 77.6877 300.006 79.0999 299.655 80.1957C299.305 81.2916 298.401 82.0937 297.486 82.7716C291.284 87.3132 283.161 87.9684 276.066 90.8832C272.101 92.5213 268.214 94.9276 263.933 94.8486C260.25 94.7921 256.759 92.815 254.375 89.9793C251.991 87.155 250.647 83.5511 250.138 79.8681C250.138 79.8455 250.138 79.8116 250.33 80.1506V80.1731Z" fill="#ECEDF0"/>
<path d="M39.2795 98C36.1318 110.398 37.2979 123.173 42.2958 135.887C43.4093 123.287 42.4887 110.617 39.5075 98.1227C39.5163 98.1578 39.5338 98.1929 39.2795 98Z" fill="#FFF100"/>
<path d="M28.8715 98.149C27.302 106.102 27.8807 114.309 30.3796 122.472C30.932 114.379 30.4761 106.251 28.9855 98.2279C28.9855 98.2542 28.9942 98.2717 28.8715 98.149Z" fill="#FFF100"/>
<path d="M324.21 33.0993C319.539 44.2239 318.826 56.3258 321.717 68.9166C324.525 57.3033 325.445 45.3421 324.409 33.2401C324.409 33.2733 324.418 33.3064 324.219 33.091L324.21 33.0993Z" fill="#FFF100"/>
<path d="M338.069 33.0083C333.174 45.6073 332.238 59.2334 334.897 73.3317C337.928 60.2191 339.071 46.7504 338.26 33.1657C338.26 33.2071 338.268 33.2402 338.069 33V33.0083Z" fill="#FFF100"/>
<path d="M130.068 112.868C132.452 117.138 133.661 122.053 133.525 126.956C133.864 121.793 132.961 116.562 130.848 111.84C130.904 112.506 130.215 113.116 130.068 112.879V112.868Z" fill="#878B90"/>
<path d="M231.283 104.158C226.82 110.495 223.645 117.737 221.352 126.47C223.318 119.127 226.899 112.224 231.791 106.485L232.085 105.412C231.802 104.926 231.52 104.44 231.283 104.158Z" fill="#878B90"/>
<path d="M133.028 119.206C130.69 115.139 127.391 111.749 124.487 108.078C121.572 104.417 118.963 100.271 118.5 95.6166C120.94 102.09 125.086 107.897 130.554 112.235C131.277 114.393 132 116.562 133.039 119.206H133.028Z" fill="#8C9095"/>
<path d="M175.439 107.467C170.095 106.18 165.904 102.045 162.56 97.6499C159.216 93.2552 156.414 88.3972 152.381 84.6351C150.087 82.4999 147.331 80.7149 144.235 80.2856C139.863 79.6755 135.412 81.9463 132.644 85.426C129.887 88.9056 128.656 93.402 128.678 98.1583C127.628 91.6057 129.311 84.3979 134.056 79.7998C138.801 75.2017 146.8 73.9703 152.132 77.8453C155.386 80.2065 157.284 83.9686 159.295 87.4821C163.588 94.995 168.909 101.909 175.428 107.479L175.439 107.467Z" fill="#8C9095"/>
<path d="M202.531 82.9185C205.039 79.3484 208.767 76.253 213.094 76.0496C217.138 75.8689 220.957 78.2865 223.499 81.4724C226.041 84.6583 227.521 88.5447 229.001 92.6344C228.221 88.0928 227.396 83.4382 225.035 79.4953C222.674 75.5525 218.392 72.4344 213.839 72.8411C209.253 73.2478 205.717 76.9534 202.519 80.32C202.124 81.3255 202.09 82.4666 202.531 82.9185Z" fill="#8C9095"/>
<path d="M231.441 107.027C236.378 98.3846 242.196 89.5386 248.331 82.7262C246.975 79.9922 246.602 77.9361 246.602 77.9361C246.602 77.9361 236.22 96.8256 231 106.056C231.226 106.44 231.464 106.824 231.441 107.016V107.027Z" fill="#8C9095"/>
<path d="M155.849 54.279C155.849 59.3855 160.504 61.9839 159.882 57.318C156.019 28.532 191.188 27.6169 195.503 26.4984C199.311 25.5042 196.758 29.8877 201.243 30.8253C205.988 31.8195 206.293 31.3225 207.637 30.4525C210.134 28.8257 209.738 22.6686 209.366 21.7761C207.931 17.6186 204.067 16.0821 200.26 16.003C196.452 15.9239 192.781 17.4152 189.324 19.0307C177.315 24.6682 166.164 32.1246 156.086 41.1739C156.945 38.5867 156.685 35.6494 155.375 33.2656C154.832 33.5142 154.618 34.2146 154.697 34.8021C154.776 35.3896 155.081 35.9431 155.284 36.4967C155.793 37.8524 155.804 39.3889 155.307 40.7446C153.691 39.547 151.33 39.4905 149.658 40.609C151.511 40.4847 153.386 40.8011 155.092 41.5354C155.759 41.8178 156.504 42.3488 156.312 43.1736C155.51 42.8007 154.527 43.3882 154.166 44.2016C153.804 45.0151 153.906 45.9527 154.042 46.8226C154.335 48.6528 155.815 52.6296 155.815 54.2677L155.849 54.279Z" fill="#8C9095"/>
<path d="M161.701 64.1754C161.882 57.7358 161.035 48.6865 165.565 44.1449C168.209 41.5013 171.801 38.6769 175.439 37.8748C184.229 35.9429 194.724 36.9484 201.898 55.1825C202.836 51.6916 201.491 39.5242 195.526 37.1404C192.216 35.8186 188.782 34.9261 185.223 34.8131C180.094 34.6437 174.84 35.1295 170.152 37.2421C165.463 39.3548 161.408 43.2863 160.041 48.2798C158.764 52.9344 159.419 59.7581 161.701 64.1867V64.1754Z" fill="#CED0D6"/>
<path d="M162.774 79.7891C162.763 85.901 164.797 92.1711 169.09 96.4754C173.383 100.78 180.094 102.791 185.697 100.667C180.048 101.006 174.287 98.9609 170.095 95.1085C165.904 91.2673 163.339 85.675 163.102 79.9698C163.136 79.9924 163.181 80.0263 162.763 79.7891H162.774Z" fill="#CED0D6"/>
<path d="M159.069 72.1856C160.086 71.8241 161.001 71.1689 161.656 70.3102C162.413 74.9535 161.261 79.8905 158.73 83.5509C159.103 82.2969 159.476 81.0429 159.848 79.6081C160.018 76.8741 160.097 75.2021 159.295 72.1517C159.317 72.1856 159.34 72.2195 159.069 72.1969V72.1856Z" fill="#CED0D6"/>
<path d="M254.138 90.2392C251.754 84.7825 252.545 78.0379 256.137 73.2929C260.543 70.2313 264.769 66.842 267.186 62.1988C269.604 57.5555 269.762 51.3419 266.283 47.4442C264.882 47.1844 263.594 46.8906 262.317 47.0488C261.041 47.207 259.753 47.9413 259.278 49.1615C258.905 50.1443 259.109 51.2289 259.278 52.2683C259.73 54.9119 259.899 57.7476 258.758 60.1765C257.38 63.0913 254.409 64.8424 252.364 67.3278C249.596 70.6945 248.67 75.5185 250.206 79.563C249.811 81.4158 250.251 83.359 251.054 85.0649C251.856 86.7709 253.031 88.2734 254.126 90.2279L254.138 90.2392Z" fill="#CED0D6"/>
<path d="M298.187 58.8546C297.656 57.047 295.78 55.906 293.927 55.68C292.075 55.4541 290.222 55.9851 288.437 56.5613C281.432 58.8321 274.71 61.984 268.372 66.2545C268.067 67.7118 267.13 69.0111 265.921 69.9149C276.168 65.4976 286.697 61.7468 297.656 59.1032C297.712 59.1032 297.769 59.1031 298.187 58.8433V58.8546Z" fill="#CED0D6"/>
<path d="M299.61 66.774C299.531 65.2714 298.65 63.8366 297.362 63.091C290.199 66.3447 282.63 68.9205 274.722 70.8637C283.127 70.9089 291.532 69.5645 299.61 66.774Z" fill="#CED0D6"/>
<path d="M300.062 73.8801C299.927 72.7164 298.955 71.6997 297.803 71.5189C291.589 74.7161 284.63 76.7271 277.162 77.5744C279.309 78.7719 281.93 78.5234 284.359 78.2296C289.781 77.5857 295.374 76.8853 300.073 73.8688L300.062 73.8801Z" fill="#CED0D6"/>
<path d="M277.964 83.5396C285.104 83.0086 292.12 80.9863 298.695 77.8569C299.361 77.631 299.971 78.5122 299.791 79.2013C299.61 79.8905 298.966 80.3311 298.356 80.6813C292.38 84.2061 285.059 85.3359 277.964 83.5396Z" fill="#CED0D6"/>
<path d="M105.067 78.4219C104.976 77.134 104.886 75.8348 104.796 74.434C104.683 73.146 104.298 71.892 103.813 70.3668C99.5761 66.9324 95.8592 62.1309 95.8931 56.6516C95.9044 54.4147 96.458 51.8389 94.9554 50.1895C93.7579 48.8789 91.5888 48.7999 90.0975 49.7601C88.6062 50.7204 87.7815 52.5054 87.6007 54.2792C87.4312 56.0529 87.8267 57.8379 88.369 59.5325C89.3971 62.7749 91.0352 65.9947 93.837 67.8701C95.1927 68.7852 96.7856 69.35 97.9606 70.5024C99.2598 71.779 99.8585 73.5979 100.762 75.1796C101.666 76.7612 103.18 78.2864 105.067 78.4332V78.4219Z" fill="#CED0D6"/>
<path d="M87.4763 66.9885C81.2966 63.3055 74.7779 60.2099 68.0446 57.7132C66.5194 57.1483 64.9378 56.5948 63.2997 56.64C61.6615 56.6852 59.9669 57.4421 59.5376 59.4417C66.6211 59.792 73.6256 61.6787 79.9296 64.9549C82.3021 66.1864 84.9005 67.655 87.465 66.9885H87.4763Z" fill="#CED0D6"/>
<path d="M80.3816 71.8014C74.8684 68.9431 69.0502 66.6949 63.0625 65.0907C61.9553 64.797 60.7804 64.5145 59.6619 64.7969C58.5435 65.0794 57.5267 66.1075 57.956 67.8021C65.6157 68.6042 73.219 69.8695 80.3816 71.7901V71.8014Z" fill="#CED0D6"/>
<path d="M79.9412 78.5006C74.1456 75.8231 68.0563 73.8122 61.8087 72.513C60.7807 72.2983 59.6848 72.1062 58.7019 72.5016C57.719 72.8971 56.9846 74.0833 57.4478 75.0323C64.9268 75.552 72.3493 76.7043 79.9412 78.5006Z" fill="#CED0D6"/>
<path d="M80.1784 84.5001C73.0836 81.7661 65.8192 79.4501 58.4532 77.5973C57.7415 77.507 57.1089 78.23 57.1314 78.9531C57.154 79.6761 57.6625 80.3087 58.2838 80.6589C58.9052 81.0091 59.6282 81.1448 60.3287 81.269C66.9377 82.4214 73.5355 83.585 80.1784 84.5001C80.1897 84.4549 80.1784 84.4775 80.1784 84.5001Z" fill="#CED0D6"/>
<path d="M144.359 149.799C149.183 148.658 152.821 144.331 154.324 139.564C155.826 134.796 155.488 129.633 154.663 124.708C153.838 119.771 152.528 114.913 152.121 109.93C152.528 120.132 152.697 130.492 150.155 140.377C149.251 143.913 147.85 147.562 144.348 149.799H144.359Z" fill="#8C9095"/>
<path d="M204.293 104.632C201.999 112.834 200.994 121.578 202.903 129.882C204.813 138.186 209.953 145.981 217.488 148.93C207.535 136.728 202.7 120.403 204.293 104.632Z" fill="#8C9095"/>
<path d="M193.108 70.3215C192.476 69.3838 191.312 68.9206 190.182 68.898C189.052 68.8754 187.957 69.2369 186.917 69.6549C184.929 70.4683 183.042 71.5303 181.122 72.9764C183.223 73.5864 185.324 74.1852 187.414 74.7952C188.149 75.0099 188.928 75.2246 189.674 75.0664C190.679 74.8631 191.436 74.0496 192.125 73.2701C192.814 72.4906 193.843 71.406 193.108 70.3102V70.3215Z" fill="#CED0D6"/>
<path d="M217.489 149.562C207.185 139.53 201.469 118.822 204.169 101.378L205.287 101.548C202.632 118.652 208.213 138.943 218.279 148.738L217.489 149.551V149.562Z" fill="#7A7E80"/>
<path d="M144.246 150.67L143.557 149.777C147.161 147.009 148.946 142.897 149.816 139.937C150.991 135.915 151.206 131.645 151.33 127.962C151.556 120.799 151.386 113.546 150.833 106.406L151.962 106.316C152.527 113.501 152.697 120.788 152.46 127.996C152.347 131.746 152.109 136.096 150.901 140.253C149.997 143.383 148.099 147.721 144.246 150.681V150.67Z" fill="#7A7E80"/>
<path d="M260.227 73.8574L259.876 72.7842C263.526 71.5866 266.587 68.7509 268.09 65.1922L269.129 65.6328C267.502 69.4853 264.181 72.5695 260.227 73.8574Z" fill="#7A7E80"/>
<path d="M202.203 91.2443C201.547 87.4258 201.401 83.5281 201.773 79.6644L202.903 79.7773C202.542 83.5394 202.677 87.3353 203.321 91.0522L202.203 91.2443Z" fill="#7A7E80"/>
<path d="M156.64 92.6564C158.753 87.2223 157.657 87.3579 157.6 85.2904C157.951 84.8159 157.883 84.5222 158.233 84.0477C161.532 89.0751 165.577 94.2606 169.237 99.0169C170.762 101.005 172.412 103.039 174.671 104.101C178.433 105.863 183.438 104.146 185.822 100.723C184.692 102.632 183.415 104.496 181.653 105.818C179.89 107.14 177.574 107.874 175.451 107.287C173.157 106.643 171.519 104.643 170.073 102.734C166.096 97.4579 162.165 92.3853 159.024 87.1319C158.617 90.9053 158.244 90.2049 156.629 92.6451L156.64 92.6564Z" fill="#7A7E80"/>
<path d="M184.466 101.096C178.964 101.096 173.428 98.8928 169.44 95.0855C165.159 90.9958 162.628 84.9968 162.651 79.0543H163.78C163.746 84.7031 166.153 90.3858 170.22 94.2721C174.276 98.1472 180.037 100.271 185.618 99.9321L185.686 101.062C185.279 101.084 184.873 101.096 184.466 101.096Z" fill="#999DA3"/>
<path d="M155.036 64.1982C157.408 63.1476 160.538 64.7744 161.057 67.3276" stroke="#999DA3" stroke-width="1.12975" stroke-miterlimit="10"/>
<path d="M154.663 68.2653C156.357 66.8418 158.764 66.3447 160.876 66.9773" stroke="#999DA3" stroke-width="1.12975" stroke-miterlimit="10"/>
<path d="M189.155 76.0721L188.59 75.1005C189.606 74.5017 190.77 73.8352 191.64 72.8975C192.533 71.9372 192.984 70.7962 192.872 69.7568C192.668 67.8249 190.736 66.5596 188.861 65.5654C187.144 64.6503 184.534 63.2607 184.003 60.7526L185.11 60.5154C185.505 62.3682 187.37 63.4867 189.403 64.5712C191.403 65.6332 193.741 67.1809 194.001 69.6438C194.148 70.9995 193.595 72.4682 192.476 73.6657C191.493 74.7277 190.205 75.4733 189.166 76.0721H189.155Z" fill="#999DA3"/>
<path d="M193.605 84.5563L193.04 83.5734C193.628 83.2345 194.238 82.8842 194.622 82.3759C194.904 81.9804 195.062 81.3478 194.769 80.9524C194.441 80.5118 193.684 80.4779 192.916 80.5005C187.211 80.7152 181.438 81.0541 175.755 81.4834L175.665 80.3536C181.358 79.913 187.154 79.5854 192.871 79.3707C193.537 79.3482 194.927 79.2917 195.672 80.2745C196.328 81.1444 196.057 82.3194 195.537 83.0424C195.017 83.7542 194.272 84.1835 193.605 84.5676V84.5563Z" fill="#999DA3"/>
<path d="M170.311 49.4551C169.588 50.6752 168.876 51.8841 168.153 53.1042C170.966 51.5339 173.519 49.489 175.677 47.0713C176.242 46.4386 176.818 45.5575 176.423 44.7892C176.106 44.1792 175.27 43.9984 174.626 44.2243C173.982 44.4503 173.485 44.9813 173.045 45.501C171.734 47.06 170.672 48.8112 170.299 49.4438L170.311 49.4551Z" fill="#999DA3"/>
<path d="M197.898 49.6472L193.899 44.1453C193.73 43.9081 193.549 43.6708 193.3 43.5352C192.78 43.2641 192.091 43.5691 191.786 44.0775C191.481 44.5859 191.515 45.2412 191.685 45.806C192.091 47.2295 193.278 48.3141 194.599 48.9468C195.921 49.5794 197.39 49.8393 197.898 49.6246V49.6472Z" fill="#999DA3"/>
<path d="M274.914 71.1803L274.665 70.0844C282.472 68.2994 290.097 65.6445 297.339 62.1874L297.825 63.2042C290.515 66.6952 282.811 69.384 274.925 71.1803H274.914Z" fill="#999DA3"/>
<path d="M277.411 78.1509L277.252 77.0325C284.438 76.027 291.397 73.9143 297.938 70.751L298.435 71.7678C291.792 74.9876 284.72 77.1341 277.411 78.1509Z" fill="#999DA3"/>
<path d="M277.873 84.0591L277.828 82.9293C285.126 82.6469 292.323 80.5569 298.638 76.8852L299.203 77.8568C292.718 81.6301 285.341 83.7766 277.862 84.0591H277.873Z" fill="#999DA3"/>
<path d="M80.3254 72.2306C73.5469 69.1463 66.4408 66.6722 59.2217 64.8759L59.4929 63.78C66.7798 65.5989 73.9537 68.0956 80.8 71.2024L80.3367 72.2306H80.3254Z" fill="#999DA3"/>
<path d="M79.8282 79.0094C72.8463 76.0946 65.5029 74.0498 58.0239 72.9313L58.1934 71.8129C65.7628 72.9426 73.1965 75.0101 80.2687 77.97L79.8282 79.0094Z" fill="#999DA3"/>
<path d="M58.408 76.8284L58.0698 77.9063L80.0921 84.8161L80.4303 83.7382L58.408 76.8284Z" fill="#999DA3"/>
<path d="M87.522 66.6948C89.6798 69.2142 92.5607 71.0896 95.7127 72.0386" stroke="#999DA3" stroke-width="1.12975" stroke-miterlimit="10"/>
<path d="M176.197 62.0968C176.764 62.0968 177.225 59.6538 177.225 56.6401C177.225 53.6265 176.764 51.1834 176.197 51.1834C175.629 51.1834 175.168 53.6265 175.168 56.6401C175.168 59.6538 175.629 62.0968 176.197 62.0968Z" fill="#7A7E80"/>
<path d="M192.894 62.0968C193.462 62.0968 193.922 59.6538 193.922 56.6401C193.922 53.6265 193.462 51.1834 192.894 51.1834C192.326 51.1834 191.866 53.6265 191.866 56.6401C191.866 59.6538 192.326 62.0968 192.894 62.0968Z" fill="#7A7E80"/>
<g style="mix-blend-mode:hard-light" opacity="0.36">
<path d="M299.158 81.1556C295.17 79.8677 290.448 80.2518 286.279 81.3251C277.433 83.5959 269.243 88.307 262.747 94.7691C263.142 94.8256 263.537 94.8595 263.933 94.8708C268.226 94.9386 272.101 92.5322 276.066 90.9053C283.161 87.9906 291.284 87.3353 297.486 82.7937C298.119 82.3305 298.718 81.7995 299.17 81.1669L299.158 81.1556Z" fill="#FFF100"/>
<path d="M261.413 96.3056C261.764 96.0909 261.956 95.7859 262.046 95.447C261.956 95.5486 261.843 95.639 261.752 95.7294C255.494 102.305 250.816 110.642 243.179 115.523C235.542 120.403 223.126 119.612 219.918 111.083C213.693 98.9718 200.949 70.6263 188.816 70.6263C175.383 70.6263 164.673 77.6082 155.77 87.7533C151.963 92.0916 149.692 97.5483 147.376 102.847C145.06 108.157 142.552 113.546 138.406 117.556C134.271 121.578 128.103 123.984 122.657 122.143C115.032 119.567 112.106 110.563 108.536 103.299C105.225 96.5654 100.413 90.4082 94.0182 86.5332C87.6238 82.6581 79.5574 81.2799 72.5529 83.867C70.7114 84.5448 68.9829 85.5277 67.4238 86.7365C71.5361 88.0922 75.897 88.9848 79.8963 90.6342C83.681 92.1933 87.3866 94.4867 91.4763 94.4189C92.2897 94.4076 93.0805 94.2946 93.86 94.0912C94.0069 94.8369 94.3233 95.5034 94.8655 95.9779C98.4807 103.604 102.107 112.032 105.745 120.448C109.281 128.65 112.964 137.067 119.302 143.315C125.64 149.562 135.367 153.189 143.535 150.025C143.659 150.037 143.772 150.048 143.897 150.07L143.874 150.195C143.874 150.195 143.965 150.127 144.01 150.082C168.006 152.895 192.295 153.121 216.246 150.296C216.619 149.935 216.992 149.562 217.76 149.02C217.794 149.054 217.828 149.088 217.862 149.121L217.828 148.975C217.907 148.918 217.986 148.862 218.076 148.805C222.437 151.923 228.673 151.11 233.17 148.184C237.666 145.258 240.762 140.637 243.552 136.039C251.11 123.566 257.301 110.258 261.549 96.3507C261.493 96.3281 261.447 96.2942 261.402 96.2716L261.413 96.3056ZM185.539 100.621C185.483 100.587 185.415 100.576 185.415 100.576C185.494 100.565 185.562 100.542 185.641 100.531C185.607 100.565 185.573 100.599 185.539 100.633V100.621ZM199.266 90.0242C200.215 88.194 200.96 86.2056 201.537 84.1381C201.107 86.1604 200.328 88.1601 199.266 90.0242Z" fill="#FFF100"/>
</g>
</svg>
