<svg width="115" height="32" viewBox="0 0 115 32" fill="none" xmlns="http://www.w3.org/2000/svg">
<path d="M49.367 0.129271H46.3073C46.1077 0.129271 45.9188 0.220277 45.7939 0.375929L43.0455 3.80592V0.129271H39.9494V10.1268H43.0455V6.49279L45.9916 10.1268H49.367L45.5548 5.3706C45.4456 5.2344 45.4456 5.04109 45.5548 4.9049L49.3676 0.128643L49.367 0.129271Z" fill="#F4F4F4"/>
<path d="M50.6543 0.722372V10.1261H53.6651V2.49291C53.6651 2.17847 53.4103 1.92302 53.0952 1.92302H51.7514V1.68076C51.7514 1.5772 51.8355 1.4931 51.9391 1.4931H53.0952C53.4096 1.4931 53.6651 1.23828 53.6651 0.923213V0.0646172H51.3127C50.9493 0.0646172 50.6543 0.358975 50.6543 0.722999V0.722372Z" fill="#F4F4F4"/>
<path d="M42.256 14.4066L40.5558 16.1069C40.1673 16.4954 39.9489 17.0219 39.9489 17.5717V31.416H45.4915V26.9322C45.4915 26.3579 45.0258 25.8922 44.4515 25.8922H41.6868C41.6868 25.5131 41.9943 25.2062 42.3728 25.2062H52.7412V20.8762H45.4915V18.3776H54.25V13.801H43.7203C43.1711 13.801 42.6439 14.0194 42.2554 14.4079L42.256 14.4066Z" fill="#F4F4F4"/>
<path d="M69.7637 26.6655V31.4154H59.7286C59.1869 31.4154 58.6673 31.2032 58.28 30.8248L56.9764 29.5494C56.5779 29.1597 56.3532 28.6262 56.3532 28.0689V13.8004H61.8958V24.8943C61.8958 25.4937 61.41 25.9795 60.8106 25.9795H58.3842C58.2229 25.9795 58.0917 26.1113 58.0917 26.2738V26.6661H69.7644L69.7637 26.6655Z" fill="#F4F4F4"/>
<path d="M86.5892 15.9029C84.9228 14.2196 82.7368 13.3785 80.0323 13.3785C77.3279 13.3785 75.15 14.2196 73.5006 15.9029C71.8342 17.6012 71.002 19.8613 71.002 22.6813C71.002 25.5012 71.8349 27.7619 73.5006 29.4609C75.15 31.1436 77.3272 31.984 80.0323 31.984C82.7374 31.984 84.9228 31.1436 86.5892 29.4609C88.2379 27.7945 89.0633 25.5351 89.0633 22.6813C89.0633 19.8274 88.2379 17.568 86.5892 15.9029ZM82.6301 26.319C82.0188 27.16 81.1539 27.5811 80.0317 27.5811C78.9095 27.5811 78.0521 27.16 77.4584 26.319C76.8477 25.5106 76.5433 24.2899 76.5433 22.6568C76.5433 21.0237 76.844 19.8657 77.4459 19.0322C78.0478 18.1987 78.9095 17.7826 80.0317 17.7826C81.1539 17.7826 82.015 18.1987 82.6175 19.0322C83.2188 19.8657 83.5207 21.0733 83.5207 22.6568C83.5207 24.2403 83.2232 25.4937 82.6301 26.319Z" fill="#F4F4F4"/>
<path d="M109.451 13.7997L107.818 20.5047L107.1 24.9583L106.408 20.5298L104.923 13.7997H100.024L98.6629 20.5298L97.9455 25.0575L97.1541 20.5047L95.4959 13.7997H90.0525L95.15 31.4153H100.642L102.498 21.0237L104.478 31.4153H109.822L114.918 13.7997H109.451Z" fill="#F4F4F4"/>
<path d="M32.6738 3.75041L28.9502 0.0274281L5.05789 0C4.28304 0 3.55438 0.301769 3.0057 0.84911L0.84911 3.00635C0.301769 3.55369 0 4.28237 0 5.05788V26.4249L5.57511 32H8.55203C9.31951 32 10.0689 31.6855 10.6076 31.1368L11.2372 30.4952C11.9331 29.7859 12.3158 28.8478 12.3158 27.8548V20.2469C12.8036 20.6939 13.4312 20.9381 14.0957 20.9381H24.7715C25.9967 20.9381 27.1315 20.2248 27.6628 19.1201L33.2968 7.41118C33.8869 6.18401 33.6367 4.71328 32.6738 3.75041ZM27.0017 5.31951C26.621 6.10907 25.8093 6.6196 24.9314 6.6196H9.454C9.0077 6.6196 8.57946 6.44296 8.26431 6.12713L7.13551 4.99833C7.07662 4.93944 7.01306 4.9274 6.9689 4.9274C6.84979 4.9274 6.72667 5.01706 6.72667 5.16828V9.89227H25.6112L23.6762 13.9144C23.2968 14.7039 22.4838 15.2145 21.6066 15.2145H9.51021C9.07662 15.2145 8.66043 15.0425 8.35397 14.7354L7.40182 13.7832C7.15223 13.5336 6.72667 13.7103 6.72667 14.0622V23.1355C6.72667 23.8642 6.44563 24.552 5.93509 25.0726L5.30546 25.715C4.95417 26.0716 4.46705 26.2764 3.96655 26.2764H1.40515V5.32553C1.40515 4.81833 1.60255 4.34125 1.96053 3.98327L4.1171 1.82736C4.47575 1.46871 4.95216 1.27133 5.45936 1.27133L28.9361 1.29876L27.0017 5.31951Z" fill="white"/>
<path d="M28.9361 1.29874L27.0017 5.31949C26.621 6.10905 25.8093 6.61959 24.9314 6.61959H9.45403C9.00773 6.61959 8.57949 6.44294 8.26434 6.12711L7.13554 4.99831C7.07666 4.93943 7.01309 4.92739 6.96893 4.92739C6.84982 4.92739 6.7267 5.01705 6.7267 5.16827V9.89225H25.6113L23.6762 13.9143C23.2968 14.7039 22.4838 15.2144 21.6066 15.2144H9.51025C9.07666 15.2144 8.66046 15.0425 8.354 14.7353L7.40185 13.7832C7.15227 13.5336 6.7267 13.7103 6.7267 14.0622V23.1355C6.7267 23.8641 6.44566 24.552 5.93512 25.0726L5.30549 25.7149C4.9542 26.0716 4.46708 26.2763 3.96658 26.2763H1.40518V5.32551C1.40518 4.81832 1.60258 4.34123 1.96056 3.98325L4.11713 1.82735C4.47578 1.4687 4.9522 1.27131 5.45939 1.27131L28.9361 1.29874Z" fill="#2A2A2A"/>
</svg>
