<svg width="1440" height="1182" viewBox="0 0 1440 1182" fill="none" xmlns="http://www.w3.org/2000/svg">
<g clip-path="url(#clip0_7135_632)">
<rect width="1440" height="1182" fill="#2A2A2A"/>
<path d="M967.242 126.561L914.102 85.2234C912.698 84.1285 910.806 83.5252 908.828 83.5252H900.115C898.28 83.5252 896.475 84.0615 895.127 85.0223L894.01 85.8044C892.462 86.8993 891.545 88.4634 891.545 90.0946L891.401 140.482L891.315 168.369C891.315 169.933 892.118 171.452 893.58 172.547L898.28 176.122C899.685 177.173 901.548 177.776 903.468 177.776H932.991C934.94 177.776 936.774 177.195 938.179 176.145L967.156 154.247C968.618 153.152 969.421 151.655 969.421 150.068V130.651C969.421 129.109 968.647 127.634 967.242 126.539V126.561Z" stroke="#3C3C3C" stroke-width="0.436854" stroke-miterlimit="10"/>
<path d="M979.252 154.85L1032.39 196.188C1033.8 197.283 1035.69 197.886 1037.67 197.886H1046.38C1048.21 197.886 1050.02 197.35 1051.37 196.389L1052.48 195.607C1054.03 194.512 1054.95 192.948 1054.95 191.317L1055.09 140.929L1055.18 113.043C1055.18 111.479 1054.38 109.959 1052.91 108.864L1048.21 105.289C1046.81 104.239 1044.95 103.636 1043.03 103.636H1013.5C1011.55 103.636 1009.72 104.217 1008.32 105.267L979.338 127.165C977.876 128.26 977.073 129.757 977.073 131.343V150.761C977.073 152.303 977.847 153.778 979.252 154.872V154.85Z" stroke="#3C3C3C" stroke-width="0.436854" stroke-miterlimit="10"/>
<path d="M902.923 43.6396L849.783 2.30153C848.379 1.20663 846.487 0.603317 844.509 0.603317H835.796C833.962 0.603317 832.156 1.13959 830.809 2.10042L829.691 2.8825C828.143 3.9774 827.226 5.54154 827.226 7.17271L827.083 57.5604L826.997 85.4469C826.997 87.011 827.799 88.5305 829.261 89.6254L833.962 93.2005C835.366 94.2507 837.229 94.8541 839.149 94.8541H868.672C870.621 94.8541 872.455 94.2731 873.86 93.2229L902.837 71.3249C904.299 70.23 905.102 68.7329 905.102 67.1464V47.7287C905.102 46.1869 904.328 44.7121 902.923 43.6172V43.6396Z" stroke="#3C3C3C" stroke-width="0.436854" stroke-miterlimit="10"/>
<path d="M914.933 71.9059L968.073 113.244C969.478 114.339 971.369 114.942 973.347 114.942H982.061C983.895 114.942 985.701 114.406 987.048 113.445L988.166 112.663C989.713 111.568 990.631 110.004 990.631 108.373L990.774 57.985L990.86 30.0986C990.86 28.5344 990.057 27.015 988.596 25.9201L983.895 22.3449C982.49 21.2947 980.627 20.6914 978.707 20.6914H949.185C947.236 20.6914 945.401 21.2723 943.997 22.3226L915.019 44.2205C913.557 45.3154 912.755 46.8126 912.755 48.399V67.8167C912.755 69.3585 913.529 70.8333 914.933 71.9282V71.9059Z" stroke="#3C3C3C" stroke-width="0.436854" stroke-miterlimit="10"/>
<path d="M858.01 207.517L804.87 166.179C803.465 165.084 801.573 164.481 799.596 164.481H790.882C789.048 164.481 787.242 165.017 785.895 165.978L784.777 166.76C783.23 167.855 782.312 169.419 782.312 171.05L782.169 221.438L782.083 249.324C782.083 250.888 782.886 252.408 784.347 253.503L789.048 257.078C790.453 258.128 792.316 258.731 794.236 258.731H823.758C825.707 258.731 827.542 258.15 828.946 257.1L857.924 235.202C859.386 234.107 860.188 232.61 860.188 231.024V211.606C860.188 210.064 859.414 208.59 858.01 207.495V207.517Z" stroke="#3C3C3C" stroke-width="0.436854" stroke-miterlimit="10"/>
<path d="M870.019 235.783L923.159 277.121C924.564 278.216 926.456 278.82 928.433 278.82H937.147C938.981 278.82 940.787 278.283 942.134 277.322L943.252 276.54C944.799 275.445 945.717 273.881 945.717 272.25L945.86 221.862L945.946 193.976C945.946 192.412 945.143 190.892 943.682 189.797L938.981 186.222C937.577 185.172 935.713 184.569 933.793 184.569H904.271C902.322 184.569 900.487 185.15 899.083 186.2L870.105 208.098C868.643 209.193 867.841 210.69 867.841 212.276V231.694C867.841 233.236 868.615 234.711 870.019 235.806V235.783Z" stroke="#3C3C3C" stroke-width="0.436854" stroke-miterlimit="10"/>
<path d="M793.663 124.573L740.522 83.2347C739.118 82.1398 737.226 81.5365 735.249 81.5365H726.535C724.701 81.5365 722.895 82.0728 721.548 83.0336L720.43 83.8157C718.882 84.9106 717.965 86.4747 717.965 88.1059L717.822 138.494L717.736 166.38C717.736 167.944 718.538 169.464 720 170.559L724.701 174.134C726.105 175.184 727.968 175.787 729.889 175.787H759.411C761.36 175.787 763.194 175.206 764.599 174.156L793.577 152.258C795.038 151.163 795.841 149.666 795.841 148.08V128.662C795.841 127.12 795.067 125.645 793.663 124.55V124.573Z" stroke="#3C3C3C" stroke-width="0.436854" stroke-miterlimit="10"/>
<path d="M805.672 152.861L858.812 194.199C860.217 195.294 862.108 195.898 864.086 195.898H872.799C874.634 195.898 876.44 195.361 877.787 194.401L878.905 193.618C880.452 192.524 881.369 190.959 881.369 189.328L881.513 138.941L881.599 111.054C881.599 109.49 880.796 107.971 879.334 106.876L874.634 103.3C873.229 102.25 871.366 101.647 869.446 101.647H839.924C837.975 101.647 836.14 102.228 834.736 103.278L805.758 125.176C804.296 126.271 803.494 127.768 803.494 129.355V148.772C803.494 150.314 804.268 151.789 805.672 152.884V152.861Z" stroke="#3C3C3C" stroke-width="0.436854" stroke-miterlimit="10"/>
<path d="M748.749 291.176L695.608 249.838C694.204 248.743 692.312 248.14 690.335 248.14H681.621C679.787 248.14 677.981 248.676 676.634 249.637L675.516 250.419C673.968 251.514 673.051 253.078 673.051 254.709L672.908 305.097L672.822 332.984C672.822 334.548 673.624 336.067 675.086 337.162L679.787 340.737C681.191 341.787 683.054 342.391 684.975 342.391H714.497C716.446 342.391 718.28 341.81 719.685 340.76L748.663 318.862C750.124 317.767 750.927 316.27 750.927 314.683V295.265C750.927 293.724 750.153 292.249 748.749 291.154V291.176Z" stroke="#3C3C3C" stroke-width="0.436854" stroke-miterlimit="10"/>
<path d="M760.758 319.465L813.898 360.803C815.302 361.898 817.194 362.501 819.172 362.501H827.885C829.72 362.501 831.525 361.965 832.873 361.004L833.99 360.222C835.538 359.127 836.455 357.563 836.455 355.932L836.599 305.544L836.685 277.658C836.685 276.093 835.882 274.574 834.42 273.479L829.72 269.904C828.315 268.854 826.452 268.25 824.532 268.25H795.01C793.06 268.25 791.226 268.831 789.822 269.882L760.844 291.78C759.382 292.874 758.58 294.372 758.58 295.958V315.376C758.58 316.918 759.354 318.392 760.758 319.487V319.465Z" stroke="#3C3C3C" stroke-width="0.436854" stroke-miterlimit="10"/>
<path d="M684.43 208.254L631.29 166.916C629.886 165.821 627.994 165.218 626.016 165.218H617.303C615.468 165.218 613.663 165.754 612.316 166.715L611.198 167.497C609.65 168.592 608.733 170.156 608.733 171.788L608.589 222.175L608.503 250.062C608.503 251.626 609.306 253.145 610.768 254.24L615.468 257.815C616.873 258.866 618.736 259.469 620.656 259.469H650.179C652.128 259.469 653.962 258.888 655.366 257.838L684.344 235.94C685.806 234.845 686.609 233.348 686.609 231.761V212.344C686.609 210.802 685.835 209.327 684.43 208.232V208.254Z" stroke="#3C3C3C" stroke-width="0.436854" stroke-miterlimit="10"/>
<path d="M696.44 236.543L749.58 277.881C750.984 278.976 752.876 279.579 754.854 279.579H763.567C765.401 279.579 767.207 279.043 768.554 278.082L769.672 277.3C771.22 276.205 772.137 274.641 772.137 273.01L772.28 222.622L772.366 194.736C772.366 193.172 771.564 191.652 770.102 190.557L765.401 186.982C763.997 185.932 762.134 185.329 760.213 185.329H730.691C728.742 185.329 726.908 185.91 725.503 186.96L696.526 208.858C695.064 209.953 694.261 211.45 694.261 213.036V232.454C694.261 233.996 695.035 235.47 696.44 236.565V236.543Z" stroke="#3C3C3C" stroke-width="0.436854" stroke-miterlimit="10"/>
<path d="M639.516 372.132L586.375 330.794C584.971 329.699 583.079 329.096 581.102 329.096H572.388C570.554 329.096 568.748 329.632 567.401 330.593L566.283 331.375C564.735 332.47 563.818 334.034 563.818 335.665L563.675 386.053L563.589 413.939C563.589 415.503 564.391 417.023 565.853 418.118L570.554 421.693C571.958 422.743 573.821 423.346 575.742 423.346H605.264C607.213 423.346 609.047 422.765 610.452 421.715L639.43 399.817C640.891 398.722 641.694 397.225 641.694 395.639V376.221C641.694 374.679 640.92 373.204 639.516 372.109V372.132Z" stroke="#3C3C3C" stroke-width="0.436854" stroke-miterlimit="10"/>
<path d="M651.525 400.42L704.666 441.759C706.07 442.853 707.962 443.457 709.94 443.457H718.653C720.487 443.457 722.293 442.92 723.64 441.96L724.758 441.178C726.306 440.083 727.223 438.519 727.223 436.887L727.366 386.5L727.452 358.613C727.452 357.049 726.65 355.53 725.188 354.435L720.487 350.86C719.083 349.809 717.22 349.206 715.299 349.206H685.777C683.828 349.206 681.994 349.787 680.589 350.837L651.611 372.735C650.15 373.83 649.347 375.327 649.347 376.914V396.331C649.347 397.873 650.121 399.348 651.525 400.443V400.42Z" stroke="#3C3C3C" stroke-width="0.436854" stroke-miterlimit="10"/>
<path d="M575.198 289.188L522.058 247.85C520.653 246.755 518.761 246.151 516.784 246.151H508.07C506.236 246.151 504.43 246.688 503.083 247.648L501.965 248.43C500.417 249.525 499.5 251.09 499.5 252.721L499.357 303.108L499.271 330.995C499.271 332.559 500.074 334.078 501.535 335.173L506.236 338.749C507.64 339.799 509.503 340.402 511.424 340.402H540.946C542.895 340.402 544.73 339.821 546.134 338.771L575.112 316.873C576.574 315.778 577.376 314.281 577.376 312.694V293.277C577.376 291.735 576.602 290.26 575.198 289.165V289.188Z" stroke="#3C3C3C" stroke-width="0.436854" stroke-miterlimit="10"/>
<path d="M587.207 317.476L640.347 358.814C641.752 359.909 643.643 360.512 645.621 360.512H654.335C656.169 360.512 657.975 359.976 659.322 359.015L660.44 358.233C661.987 357.138 662.905 355.574 662.905 353.943L663.048 303.555L663.134 275.669C663.134 274.105 662.331 272.585 660.87 271.49L656.169 267.915C654.764 266.865 652.901 266.262 650.981 266.262H621.459C619.51 266.262 617.675 266.843 616.271 267.893L587.293 289.791C585.831 290.886 585.029 292.383 585.029 293.969V313.387C585.029 314.929 585.803 316.404 587.207 317.499V317.476Z" stroke="#3C3C3C" stroke-width="0.436854" stroke-miterlimit="10"/>
<path d="M1095.13 291.176L1041.99 249.838C1040.59 248.743 1038.7 248.14 1036.72 248.14H1028.01C1026.17 248.14 1024.37 248.676 1023.02 249.637L1021.9 250.419C1020.35 251.514 1019.44 253.078 1019.44 254.709L1019.29 305.097L1019.21 332.984C1019.21 334.548 1020.01 336.067 1021.47 337.162L1026.17 340.737C1027.58 341.787 1029.44 342.391 1031.36 342.391H1060.88C1062.83 342.391 1064.67 341.81 1066.07 340.76L1095.05 318.862C1096.51 317.767 1097.31 316.27 1097.31 314.683V295.265C1097.31 293.724 1096.54 292.249 1095.13 291.154V291.176Z" stroke="#3C3C3C" stroke-width="0.436854" stroke-miterlimit="10"/>
<path d="M1107.14 319.465L1160.28 360.803C1161.69 361.898 1163.58 362.501 1165.56 362.501H1174.27C1176.1 362.501 1177.91 361.965 1179.26 361.004L1180.38 360.222C1181.92 359.127 1182.84 357.563 1182.84 355.932L1182.98 305.544L1183.07 277.658C1183.07 276.093 1182.27 274.574 1180.81 273.479L1176.1 269.904C1174.7 268.854 1172.84 268.25 1170.92 268.25H1141.39C1139.45 268.25 1137.61 268.831 1136.21 269.882L1107.23 291.78C1105.77 292.874 1104.96 294.372 1104.96 295.958V315.376C1104.96 316.918 1105.74 318.392 1107.14 319.487V319.465Z" stroke="#3C3C3C" stroke-width="0.436854" stroke-miterlimit="10"/>
<path d="M1030.79 208.254L977.646 166.916C976.242 165.821 974.35 165.218 972.373 165.218H963.659C961.825 165.218 960.019 165.754 958.672 166.715L957.554 167.497C956.006 168.592 955.089 170.156 955.089 171.788L954.946 222.175L954.86 250.062C954.86 251.626 955.662 253.145 957.124 254.24L961.825 257.815C963.229 258.866 965.092 259.469 967.013 259.469H996.535C998.484 259.469 1000.32 258.888 1001.72 257.838L1030.7 235.94C1032.16 234.845 1032.96 233.348 1032.96 231.761V212.344C1032.96 210.802 1032.19 209.327 1030.79 208.232V208.254Z" stroke="#3C3C3C" stroke-width="0.436854" stroke-miterlimit="10"/>
<path d="M1042.8 236.543L1095.94 277.881C1097.34 278.976 1099.23 279.579 1101.21 279.579H1109.92C1111.76 279.579 1113.56 279.043 1114.91 278.082L1116.03 277.3C1117.58 276.205 1118.49 274.641 1118.49 273.01L1118.64 222.622L1118.72 194.736C1118.72 193.172 1117.92 191.652 1116.46 190.557L1111.76 186.982C1110.35 185.932 1108.49 185.329 1106.57 185.329H1077.05C1075.1 185.329 1073.26 185.91 1071.86 186.96L1042.88 208.858C1041.42 209.953 1040.62 211.45 1040.62 213.036V232.454C1040.62 233.996 1041.39 235.47 1042.8 236.565V236.543Z" stroke="#3C3C3C" stroke-width="0.436854" stroke-miterlimit="10"/>
<path d="M985.873 372.132L932.732 330.794C931.328 329.699 929.436 329.096 927.458 329.096H918.745C916.911 329.096 915.105 329.632 913.758 330.593L912.64 331.375C911.092 332.47 910.175 334.034 910.175 335.665L910.032 386.053L909.946 413.939C909.946 415.503 910.748 417.023 912.21 418.118L916.911 421.693C918.315 422.743 920.178 423.346 922.099 423.346H951.621C953.57 423.346 955.404 422.765 956.809 421.715L985.787 399.817C987.248 398.722 988.051 397.225 988.051 395.639V376.221C988.051 374.679 987.277 373.204 985.873 372.109V372.132Z" stroke="#3C3C3C" stroke-width="0.436854" stroke-miterlimit="10"/>
<path d="M997.882 400.42L1051.02 441.759C1052.43 442.853 1054.32 443.457 1056.3 443.457H1065.01C1066.84 443.457 1068.65 442.92 1070 441.96L1071.11 441.178C1072.66 440.083 1073.58 438.519 1073.58 436.887L1073.72 386.5L1073.81 358.613C1073.81 357.049 1073.01 355.53 1071.54 354.435L1066.84 350.86C1065.44 349.809 1063.58 349.206 1061.66 349.206H1032.13C1030.18 349.206 1028.35 349.787 1026.95 350.837L997.968 372.735C996.507 373.83 995.704 375.327 995.704 376.914V396.331C995.704 397.873 996.478 399.348 997.882 400.443V400.42Z" stroke="#3C3C3C" stroke-width="0.436854" stroke-miterlimit="10"/>
<path d="M921.554 289.188L868.414 247.85C867.01 246.755 865.118 246.151 863.14 246.151H854.427C852.592 246.151 850.787 246.688 849.44 247.648L848.322 248.43C846.774 249.525 845.857 251.09 845.857 252.721L845.713 303.108L845.627 330.995C845.627 332.559 846.43 334.078 847.892 335.173L852.592 338.749C853.997 339.799 855.86 340.402 857.78 340.402H887.303C889.252 340.402 891.086 339.821 892.491 338.771L921.468 316.873C922.93 315.778 923.733 314.281 923.733 312.694V293.277C923.733 291.735 922.959 290.26 921.554 289.165V289.188Z" stroke="#3C3C3C" stroke-width="0.436854" stroke-miterlimit="10"/>
<path d="M933.564 317.476L986.704 358.814C988.108 359.909 990 360.512 991.978 360.512H1000.69C1002.53 360.512 1004.33 359.976 1005.68 359.015L1006.8 358.233C1008.34 357.138 1009.26 355.574 1009.26 353.943L1009.4 303.555L1009.49 275.669C1009.49 274.105 1008.69 272.585 1007.23 271.49L1002.53 267.915C1001.12 266.865 999.258 266.262 997.337 266.262H967.815C965.866 266.262 964.032 266.843 962.627 267.893L933.65 289.791C932.188 290.886 931.385 292.383 931.385 293.969V313.387C931.385 314.929 932.159 316.404 933.564 317.499V317.476Z" stroke="#3C3C3C" stroke-width="0.436854" stroke-miterlimit="10"/>
<path d="M876.64 455.813L823.5 414.475C822.096 413.38 820.204 412.777 818.226 412.777H809.513C807.678 412.777 805.873 413.313 804.526 414.274L803.408 415.056C801.86 416.151 800.943 417.715 800.943 419.347L800.799 469.734L800.713 497.621C800.713 499.185 801.516 500.704 802.978 501.799L807.678 505.374C809.083 506.425 810.946 507.028 812.866 507.028H842.389C844.338 507.028 846.172 506.447 847.576 505.397L876.554 483.499C878.016 482.404 878.818 480.907 878.818 479.32V459.903C878.818 458.361 878.045 456.886 876.64 455.791V455.813Z" stroke="#3C3C3C" stroke-width="0.436854" stroke-miterlimit="10"/>
<path d="M888.65 484.08L941.79 525.418C943.195 526.513 945.086 527.116 947.064 527.116H955.777C957.612 527.116 959.418 526.58 960.765 525.619L961.882 524.837C963.43 523.742 964.348 522.178 964.348 520.547L964.491 470.159L964.577 442.272C964.577 440.708 963.774 439.189 962.312 438.094L957.612 434.519C956.207 433.468 954.344 432.865 952.424 432.865H922.902C920.953 432.865 919.118 433.446 917.714 434.496L888.736 456.394C887.274 457.489 886.472 458.986 886.472 460.573V479.991C886.472 481.532 887.246 483.007 888.65 484.102V484.08Z" stroke="#3C3C3C" stroke-width="0.436854" stroke-miterlimit="10"/>
<path d="M812.322 372.869L759.182 331.531C757.777 330.436 755.885 329.833 753.908 329.833H745.194C743.36 329.833 741.554 330.369 740.207 331.33L739.089 332.112C737.541 333.207 736.624 334.771 736.624 336.402L736.481 386.79L736.395 414.676C736.395 416.241 737.198 417.76 738.659 418.855L743.36 422.43C744.764 423.48 746.627 424.084 748.548 424.084H778.07C780.019 424.084 781.854 423.503 783.258 422.453L812.236 400.555C813.698 399.46 814.5 397.963 814.5 396.376V376.958C814.5 375.417 813.726 373.942 812.322 372.847V372.869Z" stroke="#3C3C3C" stroke-width="0.436854" stroke-miterlimit="10"/>
<path d="M824.331 401.158L877.471 442.496C878.876 443.591 880.768 444.194 882.745 444.194H891.459C893.293 444.194 895.099 443.658 896.446 442.697L897.564 441.915C899.111 440.82 900.029 439.256 900.029 437.625L900.172 387.237L900.258 359.351C900.258 357.786 899.455 356.267 897.994 355.172L893.293 351.597C891.889 350.547 890.025 349.943 888.105 349.943H858.583C856.634 349.943 854.799 350.524 853.395 351.575L824.417 373.473C822.955 374.567 822.153 376.065 822.153 377.651V397.069C822.153 398.611 822.927 400.085 824.331 401.18V401.158Z" stroke="#3C3C3C" stroke-width="0.436854" stroke-miterlimit="10"/>
<path d="M767.408 536.747L714.268 495.409C712.863 494.314 710.971 493.71 708.994 493.71H700.28C698.446 493.71 696.64 494.247 695.293 495.207L694.175 495.99C692.627 497.084 691.71 498.649 691.71 500.28L691.567 550.668L691.481 578.554C691.481 580.118 692.283 581.638 693.745 582.732L698.446 586.308C699.85 587.358 701.713 587.961 703.634 587.961H733.156C735.105 587.961 736.94 587.38 738.344 586.33L767.322 564.432C768.783 563.337 769.586 561.84 769.586 560.253V540.836C769.586 539.294 768.812 537.819 767.408 536.724V536.747Z" stroke="#3C3C3C" stroke-width="0.436854" stroke-miterlimit="10"/>
<path d="M779.418 565.035L832.558 606.373C833.962 607.468 835.854 608.072 837.832 608.072H846.545C848.379 608.072 850.185 607.535 851.532 606.574L852.65 605.792C854.198 604.697 855.115 603.133 855.115 601.502L855.258 551.114L855.344 523.228C855.344 521.664 854.542 520.144 853.08 519.049L848.379 515.474C846.975 514.424 845.112 513.821 843.191 513.821H813.669C811.72 513.821 809.886 514.402 808.481 515.452L779.504 537.35C778.042 538.445 777.239 539.942 777.239 541.528V560.946C777.239 562.488 778.013 563.963 779.418 565.058V565.035Z" stroke="#3C3C3C" stroke-width="0.436854" stroke-miterlimit="10"/>
<path d="M703.061 453.802L649.92 412.464C648.516 411.369 646.624 410.766 644.647 410.766H635.933C634.099 410.766 632.293 411.302 630.946 412.263L629.828 413.045C628.28 414.14 627.363 415.704 627.363 417.336L627.22 467.723L627.134 495.61C627.134 497.174 627.936 498.693 629.398 499.788L634.099 503.363C635.503 504.414 637.366 505.017 639.287 505.017H668.809C670.758 505.017 672.592 504.436 673.997 503.386L702.975 481.488C704.436 480.393 705.239 478.896 705.239 477.309V457.892C705.239 456.35 704.465 454.875 703.061 453.78V453.802Z" stroke="#3C3C3C" stroke-width="0.436854" stroke-miterlimit="10"/>
<path d="M715.07 482.091L768.21 523.429C769.614 524.524 771.506 525.127 773.484 525.127H782.197C784.032 525.127 785.837 524.591 787.185 523.63L788.302 522.848C789.85 521.753 790.767 520.189 790.767 518.558L790.911 468.17L790.997 440.284C790.997 438.72 790.194 437.2 788.732 436.105L784.032 432.53C782.627 431.48 780.764 430.877 778.844 430.877H749.322C747.372 430.877 745.538 431.457 744.134 432.508L715.156 454.406C713.694 455.501 712.892 456.998 712.892 458.584V478.002C712.892 479.544 713.665 481.018 715.07 482.113V482.091Z" stroke="#3C3C3C" stroke-width="0.436854" stroke-miterlimit="10"/>
<path d="M1223.4 454.205L1170.26 412.867C1168.85 411.772 1166.96 411.168 1164.98 411.168H1156.27C1154.44 411.168 1152.63 411.705 1151.28 412.665L1150.17 413.448C1148.62 414.542 1147.7 416.107 1147.7 417.738L1147.56 468.126L1147.47 496.012C1147.47 497.576 1148.27 499.096 1149.74 500.19L1154.44 503.766C1155.84 504.816 1157.7 505.419 1159.62 505.419H1189.15C1191.1 505.419 1192.93 504.838 1194.33 503.788L1223.31 481.89C1224.77 480.795 1225.58 479.298 1225.58 477.711V458.294C1225.58 456.752 1224.8 455.277 1223.4 454.182V454.205Z" stroke="#3C3C3C" stroke-width="0.436854" stroke-miterlimit="10"/>
<path d="M1235.41 482.493L1288.55 523.831C1289.95 524.926 1291.84 525.53 1293.82 525.53H1302.53C1304.37 525.53 1306.17 524.993 1307.52 524.032L1308.64 523.25C1310.19 522.155 1311.1 520.591 1311.1 518.96L1311.25 468.572L1311.33 440.686C1311.33 439.122 1310.53 437.602 1309.07 436.507L1304.37 432.932C1302.96 431.882 1301.1 431.279 1299.18 431.279H1269.66C1267.71 431.279 1265.88 431.86 1264.47 432.91L1235.49 454.808C1234.03 455.903 1233.23 457.4 1233.23 458.986V478.404C1233.23 479.946 1234 481.421 1235.41 482.516V482.493Z" stroke="#3C3C3C" stroke-width="0.436854" stroke-miterlimit="10"/>
<path d="M1159.08 371.26L1105.94 329.922C1104.54 328.827 1102.64 328.224 1100.67 328.224H1091.95C1090.12 328.224 1088.31 328.76 1086.96 329.721L1085.85 330.503C1084.3 331.598 1083.38 333.162 1083.38 334.793L1083.24 385.181L1083.15 413.068C1083.15 414.632 1083.96 416.151 1085.42 417.246L1090.12 420.821C1091.52 421.872 1093.39 422.475 1095.31 422.475H1124.83C1126.78 422.475 1128.61 421.894 1130.02 420.844L1158.99 398.946C1160.46 397.851 1161.26 396.354 1161.26 394.767V375.349C1161.26 373.808 1160.48 372.333 1159.08 371.238V371.26Z" stroke="#3C3C3C" stroke-width="0.436854" stroke-miterlimit="10"/>
<path d="M1171.09 399.549L1224.23 440.887C1225.63 441.982 1227.53 442.585 1229.5 442.585H1238.22C1240.05 442.585 1241.86 442.049 1243.2 441.088L1244.32 440.306C1245.87 439.211 1246.79 437.647 1246.79 436.016L1246.93 385.628L1247.02 357.742C1247.02 356.178 1246.21 354.658 1244.75 353.563L1240.05 349.988C1238.65 348.938 1236.78 348.335 1234.86 348.335H1205.34C1203.39 348.335 1201.56 348.915 1200.15 349.966L1171.18 371.864C1169.71 372.959 1168.91 374.456 1168.91 376.042V395.46C1168.91 397.002 1169.68 398.476 1171.09 399.571V399.549Z" stroke="#3C3C3C" stroke-width="0.436854" stroke-miterlimit="10"/>
<path d="M1114.17 535.138L1061.03 493.8C1059.62 492.705 1057.73 492.102 1055.75 492.102H1047.04C1045.2 492.102 1043.4 492.638 1042.05 493.599L1040.93 494.381C1039.39 495.476 1038.47 497.04 1038.47 498.671L1038.33 549.059L1038.24 576.945C1038.24 578.509 1039.04 580.029 1040.5 581.124L1045.2 584.699C1046.61 585.749 1048.47 586.352 1050.39 586.352H1079.91C1081.86 586.352 1083.7 585.771 1085.1 584.721L1114.08 562.823C1115.54 561.728 1116.34 560.231 1116.34 558.645V539.227C1116.34 537.685 1115.57 536.21 1114.17 535.115V535.138Z" stroke="#3C3C3C" stroke-width="0.436854" stroke-miterlimit="10"/>
<path d="M1126.17 563.426L1179.32 604.764C1180.72 605.859 1182.61 606.463 1184.59 606.463H1193.3C1195.14 606.463 1196.94 605.926 1198.29 604.966L1199.41 604.184C1200.96 603.089 1201.87 601.524 1201.87 599.893L1202.02 549.506L1202.1 521.619C1202.1 520.055 1201.3 518.536 1199.84 517.441L1195.14 513.865C1193.73 512.815 1191.87 512.212 1189.95 512.212H1160.43C1158.48 512.212 1156.64 512.793 1155.24 513.843L1126.26 535.741C1124.8 536.836 1124 538.333 1124 539.92V559.337C1124 560.879 1124.77 562.354 1126.17 563.449V563.426Z" stroke="#3C3C3C" stroke-width="0.436854" stroke-miterlimit="10"/>
<path d="M1049.82 452.216L996.678 410.878C995.274 409.783 993.382 409.18 991.404 409.18H982.691C980.857 409.18 979.051 409.716 977.704 410.677L976.586 411.459C975.038 412.554 974.121 414.118 974.121 415.749L973.978 466.137L973.892 494.023C973.892 495.587 974.694 497.107 976.156 498.202L980.857 501.777C982.261 502.827 984.124 503.43 986.044 503.43H1015.57C1017.52 503.43 1019.35 502.849 1020.75 501.799L1049.73 479.901C1051.19 478.806 1052 477.309 1052 475.723V456.305C1052 454.763 1051.22 453.288 1049.82 452.194V452.216Z" stroke="#3C3C3C" stroke-width="0.436854" stroke-miterlimit="10"/>
<path d="M1061.83 480.505L1114.97 521.843C1116.37 522.937 1118.26 523.541 1120.24 523.541H1128.96C1130.79 523.541 1132.6 523.005 1133.94 522.044L1135.06 521.262C1136.61 520.167 1137.53 518.603 1137.53 516.971L1137.67 466.584L1137.75 438.697C1137.75 437.133 1136.95 435.614 1135.49 434.519L1130.79 430.944C1129.39 429.893 1127.52 429.29 1125.6 429.29H1096.08C1094.13 429.29 1092.3 429.871 1090.89 430.921L1061.91 452.819C1060.45 453.914 1059.65 455.411 1059.65 456.998V476.415C1059.65 477.957 1060.42 479.432 1061.83 480.527V480.505Z" stroke="#3C3C3C" stroke-width="0.436854" stroke-miterlimit="10"/>
<path d="M1004.9 618.819L951.764 577.481C950.36 576.386 948.468 575.783 946.49 575.783H937.777C935.943 575.783 934.137 576.319 932.79 577.28L931.672 578.062C930.124 579.157 929.207 580.721 929.207 582.353L929.064 632.74L928.978 660.627C928.978 662.191 929.78 663.71 931.242 664.805L935.943 668.38C937.347 669.431 939.21 670.034 941.13 670.034H970.653C972.602 670.034 974.436 669.453 975.841 668.403L1004.82 646.505C1006.28 645.41 1007.08 643.913 1007.08 642.326V622.909C1007.08 621.367 1006.31 619.892 1004.9 618.797V618.819Z" stroke="#3C3C3C" stroke-width="0.436854" stroke-miterlimit="10"/>
<path d="M1016.91 647.108L1070.05 688.446C1071.46 689.541 1073.35 690.144 1075.33 690.144H1084.04C1085.88 690.144 1087.68 689.608 1089.03 688.647L1090.15 687.865C1091.69 686.77 1092.61 685.206 1092.61 683.575L1092.75 633.187L1092.84 605.301C1092.84 603.737 1092.04 602.217 1090.58 601.122L1085.88 597.547C1084.47 596.497 1082.61 595.894 1080.69 595.894H1051.17C1049.22 595.894 1047.38 596.475 1045.98 597.525L1017 619.423C1015.54 620.518 1014.74 622.015 1014.74 623.601V643.019C1014.74 644.561 1015.51 646.035 1016.91 647.13V647.108Z" stroke="#3C3C3C" stroke-width="0.436854" stroke-miterlimit="10"/>
<path d="M940.586 535.898L887.446 494.559C886.041 493.465 884.15 492.861 882.172 492.861H873.458C871.624 492.861 869.818 493.398 868.471 494.358L867.353 495.14C865.806 496.235 864.888 497.799 864.888 499.431L864.745 549.818L864.659 577.705C864.659 579.269 865.462 580.788 866.923 581.883L871.624 585.458C873.029 586.509 874.892 587.112 876.812 587.112H906.334C908.283 587.112 910.118 586.531 911.522 585.481L940.5 563.583C941.962 562.488 942.764 560.991 942.764 559.404V539.987C942.764 538.445 941.99 536.97 940.586 535.875V535.898Z" stroke="#3C3C3C" stroke-width="0.436854" stroke-miterlimit="10"/>
<path d="M952.595 564.164L1005.74 605.502C1007.14 606.597 1009.03 607.2 1011.01 607.2H1019.72C1021.56 607.2 1023.36 606.664 1024.71 605.703L1025.83 604.921C1027.38 603.826 1028.29 602.262 1028.29 600.631L1028.44 550.243L1028.52 522.356C1028.52 520.792 1027.72 519.273 1026.26 518.178L1021.56 514.603C1020.15 513.553 1018.29 512.949 1016.37 512.949H986.847C984.898 512.949 983.063 513.53 981.659 514.58L952.681 536.478C951.22 537.573 950.417 539.07 950.417 540.657V560.075C950.417 561.616 951.191 563.091 952.595 564.186V564.164Z" stroke="#3C3C3C" stroke-width="0.436854" stroke-miterlimit="10"/>
<path d="M895.672 699.775L842.532 658.437C841.127 657.342 839.236 656.739 837.258 656.739H828.545C826.71 656.739 824.904 657.275 823.557 658.236L822.439 659.018C820.892 660.113 819.974 661.677 819.974 663.308L819.831 713.696L819.745 741.582C819.745 743.146 820.548 744.666 822.009 745.761L826.71 749.336C828.115 750.386 829.978 750.989 831.898 750.989H861.42C863.369 750.989 865.204 750.408 866.608 749.358L895.586 727.46C897.048 726.365 897.85 724.868 897.85 723.282V703.864C897.85 702.322 897.076 700.848 895.672 699.753V699.775Z" stroke="#3C3C3C" stroke-width="0.436854" stroke-miterlimit="10"/>
<path d="M907.682 728.041L960.822 769.379C962.226 770.474 964.118 771.077 966.096 771.077H974.809C976.644 771.077 978.449 770.541 979.796 769.58L980.914 768.798C982.462 767.703 983.379 766.139 983.379 764.508L983.523 714.12L983.609 686.234C983.609 684.67 982.806 683.15 981.344 682.055L976.643 678.48C975.239 677.43 973.376 676.827 971.456 676.827H941.933C939.984 676.827 938.15 677.408 936.745 678.458L907.768 700.356C906.306 701.451 905.503 702.948 905.503 704.534V723.952C905.503 725.494 906.277 726.969 907.682 728.064V728.041Z" stroke="#3C3C3C" stroke-width="0.436854" stroke-miterlimit="10"/>
<path d="M831.353 616.831L778.213 575.493C776.809 574.398 774.917 573.794 772.94 573.794H764.226C762.392 573.794 760.586 574.331 759.239 575.292L758.121 576.074C756.573 577.169 755.656 578.733 755.656 580.364L755.513 630.752L755.427 658.638C755.427 660.202 756.229 661.722 757.691 662.817L762.392 666.392C763.796 667.442 765.659 668.045 767.58 668.045H797.102C799.051 668.045 800.885 667.464 802.29 666.414L831.267 644.516C832.729 643.421 833.532 641.924 833.532 640.338V620.92C833.532 619.378 832.758 617.903 831.353 616.808V616.831Z" stroke="#3C3C3C" stroke-width="0.436854" stroke-miterlimit="10"/>
<path d="M843.363 645.119L896.503 686.457C897.907 687.552 899.799 688.156 901.777 688.156H910.49C912.325 688.156 914.13 687.619 915.478 686.659L916.595 685.876C918.143 684.782 919.06 683.217 919.06 681.586L919.204 631.199L919.29 603.312C919.29 601.748 918.487 600.229 917.025 599.134L912.325 595.558C910.92 594.508 909.057 593.905 907.137 593.905H877.614C875.665 593.905 873.831 594.486 872.427 595.536L843.449 617.434C841.987 618.529 841.185 620.026 841.185 621.613V641.03C841.185 642.572 841.958 644.047 843.363 645.142V645.119Z" stroke="#3C3C3C" stroke-width="0.436854" stroke-miterlimit="10"/>
<path d="M1351.29 618.819L1298.15 577.481C1296.74 576.386 1294.85 575.783 1292.88 575.783H1284.16C1282.33 575.783 1280.52 576.319 1279.17 577.28L1278.06 578.062C1276.51 579.157 1275.59 580.721 1275.59 582.353L1275.45 632.74L1275.36 660.627C1275.36 662.191 1276.17 663.71 1277.63 664.805L1282.33 668.38C1283.73 669.431 1285.6 670.034 1287.52 670.034H1317.04C1318.99 670.034 1320.82 669.453 1322.23 668.403L1351.2 646.505C1352.67 645.41 1353.47 643.913 1353.47 642.326V622.909C1353.47 621.367 1352.69 619.892 1351.29 618.797V618.819Z" stroke="#3C3C3C" stroke-width="0.436854" stroke-miterlimit="10"/>
<path d="M1363.3 647.108L1416.44 688.446C1417.84 689.541 1419.74 690.144 1421.71 690.144H1430.43C1432.26 690.144 1434.07 689.608 1435.41 688.647L1436.53 687.865C1438.08 686.77 1439 685.206 1439 683.575L1439.14 633.187L1439.23 605.301C1439.23 603.737 1438.42 602.217 1436.96 601.122L1432.26 597.547C1430.86 596.497 1428.99 595.894 1427.07 595.894H1397.55C1395.6 595.894 1393.77 596.475 1392.36 597.525L1363.39 619.423C1361.92 620.518 1361.12 622.015 1361.12 623.601V643.019C1361.12 644.561 1361.9 646.035 1363.3 647.13V647.108Z" stroke="#3C3C3C" stroke-width="0.436854" stroke-miterlimit="10"/>
<path d="M1286.94 535.898L1233.8 494.559C1232.4 493.465 1230.51 492.861 1228.53 492.861H1219.81C1217.98 492.861 1216.17 493.398 1214.83 494.358L1213.71 495.14C1212.16 496.235 1211.24 497.799 1211.24 499.431L1211.1 549.818L1211.02 577.705C1211.02 579.269 1211.82 580.788 1213.28 581.883L1217.98 585.458C1219.39 586.509 1221.25 587.112 1223.17 587.112H1252.69C1254.64 587.112 1256.47 586.531 1257.88 585.481L1286.86 563.583C1288.32 562.488 1289.12 560.991 1289.12 559.404V539.987C1289.12 538.445 1288.35 536.97 1286.94 535.875V535.898Z" stroke="#3C3C3C" stroke-width="0.436854" stroke-miterlimit="10"/>
<path d="M1298.95 564.164L1352.09 605.502C1353.5 606.597 1355.39 607.2 1357.37 607.2H1366.08C1367.91 607.2 1369.72 606.664 1371.07 605.703L1372.18 604.921C1373.73 603.826 1374.65 602.262 1374.65 600.631L1374.79 550.243L1374.88 522.356C1374.88 520.792 1374.08 519.273 1372.61 518.178L1367.91 514.603C1366.51 513.553 1364.65 512.949 1362.73 512.949H1333.2C1331.25 512.949 1329.42 513.53 1328.02 514.58L1299.04 536.478C1297.58 537.573 1296.77 539.07 1296.77 540.657V560.075C1296.77 561.616 1297.55 563.091 1298.95 564.186V564.164Z" stroke="#3C3C3C" stroke-width="0.436854" stroke-miterlimit="10"/>
<path d="M1242.03 699.775L1188.89 658.437C1187.48 657.342 1185.59 656.739 1183.61 656.739H1174.9C1173.07 656.739 1171.26 657.275 1169.91 658.236L1168.8 659.018C1167.25 660.113 1166.33 661.677 1166.33 663.308L1166.19 713.696L1166.1 741.582C1166.1 743.146 1166.9 744.666 1168.37 745.761L1173.07 749.336C1174.47 750.386 1176.33 750.989 1178.25 750.989H1207.78C1209.73 750.989 1211.56 750.408 1212.97 749.358L1241.94 727.46C1243.4 726.365 1244.21 724.868 1244.21 723.282V703.864C1244.21 702.322 1243.43 700.848 1242.03 699.753V699.775Z" stroke="#3C3C3C" stroke-width="0.436854" stroke-miterlimit="10"/>
<path d="M1254.04 728.041L1307.18 769.379C1308.58 770.474 1310.47 771.077 1312.45 771.077H1321.17C1323 771.077 1324.81 770.541 1326.15 769.58L1327.27 768.798C1328.82 767.703 1329.74 766.139 1329.74 764.508L1329.88 714.12L1329.96 686.234C1329.96 684.67 1329.16 683.15 1327.7 682.055L1323 678.48C1321.6 677.43 1319.73 676.827 1317.81 676.827H1288.29C1286.34 676.827 1284.51 677.408 1283.1 678.458L1254.12 700.356C1252.66 701.451 1251.86 702.948 1251.86 704.534V723.952C1251.86 725.494 1252.63 726.969 1254.04 728.064V728.041Z" stroke="#3C3C3C" stroke-width="0.436854" stroke-miterlimit="10"/>
<path d="M1177.71 616.831L1124.57 575.493C1123.17 574.398 1121.27 573.794 1119.3 573.794H1110.58C1108.75 573.794 1106.94 574.331 1105.6 575.292L1104.48 576.074C1102.93 577.169 1102.01 578.733 1102.01 580.364L1101.87 630.752L1101.78 658.638C1101.78 660.202 1102.59 661.722 1104.05 662.817L1108.75 666.392C1110.15 667.442 1112.02 668.045 1113.94 668.045H1143.46C1145.41 668.045 1147.24 667.464 1148.65 666.414L1177.62 644.516C1179.09 643.421 1179.89 641.924 1179.89 640.338V620.92C1179.89 619.378 1179.11 617.903 1177.71 616.808V616.831Z" stroke="#3C3C3C" stroke-width="0.436854" stroke-miterlimit="10"/>
<path d="M1189.72 645.119L1242.86 686.457C1244.26 687.552 1246.16 688.156 1248.13 688.156H1256.85C1258.68 688.156 1260.49 687.619 1261.83 686.658L1262.95 685.876C1264.5 684.782 1265.42 683.217 1265.42 681.586L1265.56 631.199L1265.65 603.312C1265.65 601.748 1264.84 600.229 1263.38 599.134L1258.68 595.558C1257.28 594.508 1255.41 593.905 1253.49 593.905H1223.97C1222.02 593.905 1220.19 594.486 1218.78 595.536L1189.81 617.434C1188.34 618.529 1187.54 620.026 1187.54 621.613V641.03C1187.54 642.572 1188.32 644.047 1189.72 645.142V645.119Z" stroke="#3C3C3C" stroke-width="0.436854" stroke-miterlimit="10"/>
<path d="M1132.8 783.434L1079.66 742.096C1078.25 741.001 1076.36 740.398 1074.38 740.398H1065.67C1063.83 740.398 1062.03 740.934 1060.68 741.895L1059.56 742.677C1058.02 743.772 1057.1 745.336 1057.1 746.967L1056.96 797.355L1056.87 825.241C1056.87 826.806 1057.67 828.325 1059.13 829.42L1063.83 832.995C1065.24 834.045 1067.1 834.649 1069.02 834.649H1098.54C1100.49 834.649 1102.33 834.068 1103.73 833.017L1132.71 811.12C1134.17 810.025 1134.97 808.528 1134.97 806.941V787.523C1134.97 785.982 1134.2 784.507 1132.8 783.412V783.434Z" stroke="#3C3C3C" stroke-width="0.436854" stroke-miterlimit="10"/>
<path d="M1144.81 811.723L1197.95 853.061C1199.35 854.156 1201.24 854.759 1203.22 854.759H1211.93C1213.77 854.759 1215.57 854.223 1216.92 853.262L1218.04 852.48C1219.59 851.385 1220.5 849.821 1220.5 848.19L1220.65 797.802L1220.73 769.916C1220.73 768.351 1219.93 766.832 1218.47 765.737L1213.77 762.162C1212.36 761.112 1210.5 760.508 1208.58 760.508H1179.06C1177.11 760.508 1175.27 761.089 1173.87 762.139L1144.89 784.038C1143.43 785.132 1142.63 786.63 1142.63 788.216V807.634C1142.63 809.176 1143.4 810.65 1144.81 811.745V811.723Z" stroke="#3C3C3C" stroke-width="0.436854" stroke-miterlimit="10"/>
<path d="M1068.48 700.512L1015.34 659.174C1013.93 658.079 1012.04 657.476 1010.06 657.476H1001.35C999.516 657.476 997.71 658.012 996.363 658.973L995.245 659.755C993.697 660.85 992.78 662.414 992.78 664.045L992.637 714.433L992.551 742.32C992.551 743.884 993.353 745.403 994.815 746.498L999.516 750.073C1000.92 751.124 1002.78 751.727 1004.7 751.727H1034.23C1036.17 751.727 1038.01 751.146 1039.41 750.096L1068.39 728.198C1069.85 727.103 1070.66 725.606 1070.66 724.019V704.601C1070.66 703.06 1069.88 701.585 1068.48 700.49V700.512Z" stroke="#3C3C3C" stroke-width="0.436854" stroke-miterlimit="10"/>
<path d="M1080.49 728.801L1133.63 770.139C1135.03 771.234 1136.92 771.837 1138.9 771.837H1147.61C1149.45 771.837 1151.25 771.301 1152.6 770.34L1153.72 769.558C1155.27 768.463 1156.18 766.899 1156.18 765.268L1156.33 714.88L1156.41 686.994C1156.41 685.43 1155.61 683.91 1154.15 682.815L1149.45 679.24C1148.04 678.19 1146.18 677.586 1144.26 677.586H1114.74C1112.79 677.586 1110.96 678.167 1109.55 679.218L1080.57 701.116C1079.11 702.21 1078.31 703.708 1078.31 705.294V724.712C1078.31 726.254 1079.08 727.728 1080.49 728.823V728.801Z" stroke="#3C3C3C" stroke-width="0.436854" stroke-miterlimit="10"/>
<path d="M1023.56 864.39L970.424 823.052C969.019 821.957 967.128 821.353 965.15 821.353H956.437C954.602 821.353 952.796 821.89 951.449 822.851L950.331 823.633C948.784 824.728 947.867 826.292 947.867 827.923L947.723 878.311L947.637 906.197C947.637 907.761 948.44 909.281 949.902 910.376L954.602 913.951C956.007 915.001 957.87 915.604 959.79 915.604H989.312C991.261 915.604 993.096 915.023 994.5 913.973L1023.48 892.075C1024.94 890.98 1025.74 889.483 1025.74 887.897V868.479C1025.74 866.937 1024.97 865.462 1023.56 864.367V864.39Z" stroke="#3C3C3C" stroke-width="0.436854" stroke-miterlimit="10"/>
<path d="M1035.57 892.678L1088.71 934.016C1090.12 935.111 1092.01 935.715 1093.99 935.715H1102.7C1104.54 935.715 1106.34 935.178 1107.69 934.218L1108.81 933.435C1110.35 932.341 1111.27 930.776 1111.27 929.145L1111.41 878.757L1111.5 850.871C1111.5 849.307 1110.7 847.788 1109.24 846.693L1104.54 843.117C1103.13 842.067 1101.27 841.464 1099.35 841.464H1069.82C1067.88 841.464 1066.04 842.045 1064.64 843.095L1035.66 864.993C1034.2 866.088 1033.4 867.585 1033.4 869.172V888.589C1033.4 890.131 1034.17 891.606 1035.57 892.701V892.678Z" stroke="#3C3C3C" stroke-width="0.436854" stroke-miterlimit="10"/>
<path d="M959.216 781.446L906.076 740.108C904.672 739.013 902.78 738.409 900.802 738.409H892.089C890.254 738.409 888.449 738.946 887.102 739.906L885.984 740.689C884.436 741.783 883.519 743.348 883.519 744.979L883.376 795.366L883.29 823.253C883.29 824.817 884.092 826.336 885.554 827.431L890.254 831.007C891.659 832.057 893.522 832.66 895.442 832.66H924.965C926.914 832.66 928.748 832.079 930.153 831.029L959.13 809.131C960.592 808.036 961.395 806.539 961.395 804.952V785.535C961.395 783.993 960.621 782.518 959.216 781.423V781.446Z" stroke="#3C3C3C" stroke-width="0.436854" stroke-miterlimit="10"/>
<path d="M-0.000244141 0.00020175V705.438L421.008 705.438C475.223 705.438 527.183 683.858 565.514 645.453L958.648 251.552C996.979 213.147 1018.52 161.052 1018.52 106.765V0L-0.000244141 0.00020175Z" fill="url(#paint0_linear_7135_632)"/>
<path d="M971.226 809.734L1024.37 851.072C1025.77 852.167 1027.66 852.77 1029.64 852.77H1038.35C1040.19 852.77 1041.99 852.234 1043.34 851.273L1044.46 850.491C1046.01 849.396 1046.92 847.832 1046.92 846.201L1047.07 795.813L1047.15 767.927C1047.15 766.363 1046.35 764.843 1044.89 763.748L1040.19 760.173C1038.78 759.123 1036.92 758.52 1035 758.52H1005.48C1003.53 758.52 1001.69 759.101 1000.29 760.151L971.312 782.049C969.85 783.144 969.048 784.641 969.048 786.227V805.645C969.048 807.187 969.822 808.662 971.226 809.757V809.734Z" stroke="#3C3C3C" stroke-width="0.436854" stroke-miterlimit="10"/>
<path d="M469.095 372.456L415.955 331.118C414.551 330.024 412.659 329.42 410.681 329.42H401.968C400.133 329.42 398.328 329.956 396.981 330.917L395.863 331.699C394.315 332.794 393.398 334.358 393.398 335.99L393.254 386.377L393.168 414.264C393.168 415.828 393.971 417.347 395.433 418.442L400.133 422.017C401.538 423.068 403.401 423.671 405.321 423.671H434.844C436.793 423.671 438.627 423.09 440.031 422.04L469.009 400.142C470.471 399.047 471.274 397.55 471.274 395.963V376.546C471.274 375.004 470.5 373.529 469.095 372.434V372.456Z" stroke="#3C3C3C" stroke-width="0.436854" stroke-miterlimit="10"/>
<path d="M480.755 400.532L533.895 441.87C535.3 442.965 537.191 443.568 539.169 443.568H547.882C549.717 443.568 551.523 443.032 552.87 442.071L553.987 441.289C555.535 440.194 556.452 438.63 556.452 436.999L556.596 386.611L556.682 358.725C556.682 357.161 555.879 355.641 554.417 354.546L549.717 350.971C548.312 349.921 546.449 349.318 544.529 349.318H515.007C513.058 349.318 511.223 349.899 509.819 350.949L480.841 372.847C479.379 373.942 478.577 375.439 478.577 377.025V396.443C478.577 397.985 479.351 399.46 480.755 400.555V400.532Z" stroke="#3C3C3C" stroke-width="0.436854" stroke-miterlimit="10"/>
<path d="M404.427 289.322L351.287 247.984C349.882 246.889 347.99 246.285 346.013 246.285H337.299C335.465 246.285 333.659 246.822 332.312 247.783L331.194 248.565C329.647 249.659 328.729 251.224 328.729 252.855L328.586 303.243L328.5 331.129C328.5 332.693 329.303 334.213 330.764 335.307L335.465 338.883C336.869 339.933 338.732 340.536 340.653 340.536H370.175C372.124 340.536 373.959 339.955 375.363 338.905L404.341 317.007C405.803 315.912 406.605 314.415 406.605 312.828V293.411C406.605 291.869 405.831 290.394 404.427 289.299V289.322Z" stroke="#3C3C3C" stroke-width="0.436854" stroke-miterlimit="10"/>
<path d="M416.436 317.61L469.576 358.948C470.981 360.043 472.872 360.647 474.85 360.647H483.564C485.398 360.647 487.204 360.11 488.551 359.149L489.669 358.367C491.216 357.272 492.134 355.708 492.134 354.077L492.277 303.689L492.363 275.803C492.363 274.239 491.56 272.719 490.099 271.625L485.398 268.049C483.993 266.999 482.13 266.396 480.21 266.396H450.688C448.739 266.396 446.904 266.977 445.5 268.027L416.522 289.925C415.06 291.02 414.258 292.517 414.258 294.103V313.521C414.258 315.063 415.032 316.538 416.436 317.633V317.61Z" stroke="#3C3C3C" stroke-width="0.436854" stroke-miterlimit="10"/>
<path d="M359.513 453.199L306.373 411.861C304.968 410.766 303.076 410.163 301.099 410.163H292.385C290.551 410.163 288.745 410.699 287.398 411.66L286.28 412.442C284.732 413.537 283.815 415.101 283.815 416.732L283.672 467.12L283.586 495.006C283.586 496.57 284.388 498.09 285.85 499.185L290.551 502.76C291.955 503.81 293.818 504.414 295.739 504.414H325.261C327.21 504.414 329.045 503.833 330.449 502.782L359.427 480.884C360.888 479.789 361.691 478.292 361.691 476.706V457.288C361.691 455.746 360.917 454.272 359.513 453.177V453.199Z" stroke="#3C3C3C" stroke-width="0.436854" stroke-miterlimit="10"/>
<path d="M371.523 481.488L424.663 522.826C426.067 523.921 427.959 524.524 429.937 524.524H438.65C440.484 524.524 442.29 523.988 443.637 523.027L444.755 522.245C446.303 521.15 447.22 519.586 447.22 517.955L447.363 467.567L447.449 439.68C447.449 438.116 446.647 436.597 445.185 435.502L440.484 431.927C439.08 430.877 437.217 430.273 435.296 430.273H405.774C403.825 430.273 401.991 430.854 400.586 431.904L371.609 453.802C370.147 454.897 369.344 456.394 369.344 457.981V477.399C369.344 478.94 370.118 480.415 371.523 481.51V481.488Z" stroke="#3C3C3C" stroke-width="0.436854" stroke-miterlimit="10"/>
<path d="M295.194 370.255L242.054 328.917C240.65 327.822 238.758 327.219 236.78 327.219H228.067C226.233 327.219 224.427 327.755 223.08 328.716L221.962 329.498C220.414 330.593 219.497 332.157 219.497 333.788L219.354 384.176L219.268 412.062C219.268 413.626 220.07 415.146 221.532 416.241L226.233 419.816C227.637 420.866 229.5 421.469 231.42 421.469H260.943C262.892 421.469 264.726 420.888 266.131 419.838L295.108 397.94C296.57 396.845 297.373 395.348 297.373 393.762V374.344C297.373 372.802 296.599 371.327 295.194 370.232V370.255Z" stroke="#3C3C3C" stroke-width="0.436854" stroke-miterlimit="10"/>
<path d="M307.204 398.544L360.344 439.882C361.748 440.976 363.64 441.58 365.618 441.58H374.331C376.166 441.58 377.971 441.043 379.318 440.083L380.436 439.301C381.984 438.206 382.901 436.642 382.901 435.01L383.044 384.623L383.13 356.736C383.13 355.172 382.328 353.653 380.866 352.558L376.166 348.983C374.761 347.932 372.898 347.329 370.978 347.329H341.455C339.506 347.329 337.672 347.91 336.267 348.96L307.29 370.858C305.828 371.953 305.025 373.45 305.025 375.037V394.454C305.025 395.996 305.799 397.471 307.204 398.566V398.544Z" stroke="#3C3C3C" stroke-width="0.436854" stroke-miterlimit="10"/>
<path d="M250.28 536.881L197.14 495.543C195.736 494.448 193.844 493.844 191.866 493.844H183.153C181.318 493.844 179.513 494.381 178.166 495.342L177.048 496.124C175.5 497.219 174.583 498.783 174.583 500.414L174.439 550.802L174.354 578.688C174.354 580.252 175.156 581.772 176.618 582.866L181.318 586.442C182.723 587.492 184.586 588.095 186.506 588.095H216.029C217.978 588.095 219.812 587.514 221.217 586.464L250.194 564.566C251.656 563.471 252.459 561.974 252.459 560.388V540.97C252.459 539.428 251.685 537.953 250.28 536.858V536.881Z" stroke="#3C3C3C" stroke-width="0.436854" stroke-miterlimit="10"/>
<path d="M262.29 565.169L315.43 606.507C316.835 607.602 318.726 608.206 320.704 608.206H329.418C331.252 608.206 333.058 607.669 334.405 606.708L335.523 605.926C337.07 604.832 337.988 603.267 337.988 601.636L338.131 551.248L338.217 523.362C338.217 521.798 337.414 520.278 335.953 519.184L331.252 515.608C329.847 514.558 327.984 513.955 326.064 513.955H296.542C294.593 513.955 292.758 514.536 291.354 515.586L262.376 537.484C260.914 538.579 260.112 540.076 260.112 541.663V561.08C260.112 562.622 260.886 564.097 262.29 565.192V565.169Z" stroke="#3C3C3C" stroke-width="0.436854" stroke-miterlimit="10"/>
<path d="M185.933 453.936L132.793 412.598C131.389 411.504 129.497 410.9 127.519 410.9H118.806C116.971 410.9 115.166 411.436 113.818 412.397L112.701 413.179C111.153 414.274 110.236 415.838 110.236 417.47L110.092 467.857L110.006 495.744C110.006 497.308 110.809 498.827 112.271 499.922L116.971 503.497C118.376 504.548 120.239 505.151 122.159 505.151H151.682C153.631 505.151 155.465 504.57 156.869 503.52L185.847 481.622C187.309 480.527 188.111 479.03 188.111 477.443V458.026C188.111 456.484 187.338 455.009 185.933 453.914V453.936Z" stroke="#3C3C3C" stroke-width="0.436854" stroke-miterlimit="10"/>
<path d="M197.942 482.225L251.083 523.563C252.487 524.658 254.379 525.261 256.357 525.261H265.07C266.904 525.261 268.71 524.725 270.057 523.764L271.175 522.982C272.723 521.887 273.64 520.323 273.64 518.692L273.783 468.304L273.869 440.418C273.869 438.854 273.067 437.334 271.605 436.239L266.904 432.664C265.5 431.614 263.637 431.011 261.716 431.011H232.194C230.245 431.011 228.411 431.592 227.006 432.642L198.028 454.54C196.567 455.635 195.764 457.132 195.764 458.718V478.136C195.764 479.678 196.538 481.153 197.942 482.247V482.225Z" stroke="#3C3C3C" stroke-width="0.436854" stroke-miterlimit="10"/>
<path d="M141.019 617.814L87.8789 576.476C86.4745 575.381 84.5827 574.778 82.605 574.778H73.8917C72.0573 574.778 70.2515 575.314 68.9044 576.275L67.7866 577.057C66.2388 578.152 65.3216 579.716 65.3216 581.347L65.1783 631.735L65.0923 659.621C65.0923 661.185 65.8948 662.705 67.3566 663.8L72.0573 667.375C73.4617 668.425 75.3248 669.028 77.2452 669.028H106.767C108.716 669.028 110.551 668.447 111.955 667.397L140.933 645.499C142.395 644.404 143.197 642.907 143.197 641.321V621.903C143.197 620.361 142.423 618.886 141.019 617.792V617.814Z" stroke="#3C3C3C" stroke-width="0.436854" stroke-miterlimit="10"/>
<path d="M153.028 646.103L206.169 687.441C207.573 688.535 209.465 689.139 211.442 689.139H220.156C221.99 689.139 223.796 688.602 225.143 687.642L226.261 686.86C227.809 685.765 228.726 684.201 228.726 682.569L228.869 632.182L228.955 604.295C228.955 602.731 228.153 601.212 226.691 600.117L221.99 596.542C220.586 595.491 218.723 594.888 216.802 594.888H187.28C185.331 594.888 183.497 595.469 182.092 596.519L153.114 618.417C151.653 619.512 150.85 621.009 150.85 622.596V642.013C150.85 643.555 151.624 645.03 153.028 646.125V646.103Z" stroke="#3C3C3C" stroke-width="0.436854" stroke-miterlimit="10"/>
<path d="M76.7007 534.87L23.5605 493.532C22.1561 492.437 20.2644 491.833 18.2867 491.833H9.57329C7.73889 491.833 5.93316 492.37 4.58603 493.331L3.46819 494.113C1.92042 495.208 1.00323 496.772 1.00323 498.403L0.859913 548.791L0.773926 576.677C0.773926 578.241 1.57647 579.761 3.03826 580.856L7.73889 584.431C9.14335 585.481 11.0064 586.084 12.9268 586.084H42.4491C44.3981 586.084 46.2325 585.503 47.637 584.453L76.6147 562.555C78.0765 561.46 78.879 559.963 78.879 558.377V538.959C78.879 537.417 78.1051 535.942 76.7007 534.847V534.87Z" stroke="#3C3C3C" stroke-width="0.436854" stroke-miterlimit="10"/>
<path d="M88.7101 563.158L141.85 604.496C143.255 605.591 145.146 606.195 147.124 606.195H155.837C157.672 606.195 159.478 605.658 160.825 604.697L161.943 603.915C163.49 602.82 164.408 601.256 164.408 599.625L164.551 549.237L164.637 521.351C164.637 519.787 163.834 518.267 162.373 517.172L157.672 513.597C156.267 512.547 154.404 511.944 152.484 511.944H122.962C121.013 511.944 119.178 512.525 117.774 513.575L88.7961 535.473C87.3343 536.568 86.5317 538.065 86.5317 539.651V559.069C86.5317 560.611 87.3056 562.086 88.7101 563.181V563.158Z" stroke="#3C3C3C" stroke-width="0.436854" stroke-miterlimit="10"/>
<path d="M596.637 536.881L543.497 495.543C542.093 494.448 540.201 493.844 538.223 493.844H529.51C527.675 493.844 525.87 494.381 524.523 495.342L523.405 496.124C521.857 497.219 520.94 498.783 520.94 500.414L520.796 550.802L520.71 578.688C520.71 580.252 521.513 581.772 522.975 582.866L527.675 586.442C529.08 587.492 530.943 588.095 532.863 588.095H562.386C564.335 588.095 566.169 587.514 567.574 586.464L596.551 564.566C598.013 563.471 598.816 561.974 598.816 560.388V540.97C598.816 539.428 598.042 537.953 596.637 536.858V536.881Z" stroke="#3C3C3C" stroke-width="0.436854" stroke-miterlimit="10"/>
<path d="M608.647 565.169L661.787 606.507C663.191 607.602 665.083 608.206 667.061 608.206H675.774C677.608 608.206 679.414 607.669 680.761 606.708L681.879 605.926C683.427 604.832 684.344 603.267 684.344 601.636L684.487 551.248L684.573 523.362C684.573 521.798 683.771 520.278 682.309 519.184L677.608 515.608C676.204 514.558 674.341 513.955 672.421 513.955H642.898C640.949 513.955 639.115 514.536 637.71 515.586L608.733 537.484C607.271 538.579 606.468 540.076 606.468 541.663V561.08C606.468 562.622 607.242 564.097 608.647 565.192V565.169Z" stroke="#3C3C3C" stroke-width="0.436854" stroke-miterlimit="10"/>
<path d="M532.318 453.936L479.178 412.598C477.774 411.504 475.882 410.9 473.904 410.9H465.191C463.357 410.9 461.551 411.436 460.204 412.397L459.086 413.179C457.538 414.274 456.621 415.838 456.621 417.47L456.478 467.857L456.392 495.744C456.392 497.308 457.194 498.827 458.656 499.922L463.357 503.497C464.761 504.548 466.624 505.151 468.544 505.151H498.067C500.016 505.151 501.85 504.57 503.255 503.52L532.232 481.622C533.694 480.527 534.497 479.03 534.497 477.443V458.026C534.497 456.484 533.723 455.009 532.318 453.914V453.936Z" stroke="#3C3C3C" stroke-width="0.436854" stroke-miterlimit="10"/>
<path d="M544.328 482.225L597.468 523.563C598.872 524.658 600.764 525.261 602.742 525.261H611.455C613.29 525.261 615.095 524.725 616.442 523.764L617.56 522.982C619.108 521.887 620.025 520.323 620.025 518.692L620.169 468.304L620.255 440.418C620.255 438.854 619.452 437.334 617.99 436.239L613.29 432.664C611.885 431.614 610.022 431.011 608.102 431.011H578.579C576.63 431.011 574.796 431.592 573.391 432.642L544.414 454.54C542.952 455.635 542.149 457.132 542.149 458.718V478.136C542.149 479.678 542.923 481.153 544.328 482.247V482.225Z" stroke="#3C3C3C" stroke-width="0.436854" stroke-miterlimit="10"/>
<path d="M487.405 617.814L434.265 576.476C432.86 575.381 430.968 574.778 428.991 574.778H420.277C418.443 574.778 416.637 575.314 415.29 576.275L414.172 577.057C412.625 578.152 411.707 579.716 411.707 581.347L411.564 631.735L411.478 659.621C411.478 661.185 412.281 662.705 413.742 663.8L418.443 667.375C419.847 668.425 421.711 669.028 423.631 669.028H453.153C455.102 669.028 456.937 668.447 458.341 667.397L487.319 645.499C488.781 644.404 489.583 642.907 489.583 641.321V621.903C489.583 620.361 488.809 618.886 487.405 617.792V617.814Z" stroke="#3C3C3C" stroke-width="0.436854" stroke-miterlimit="10"/>
<path d="M499.414 646.103L552.554 687.441C553.959 688.535 555.85 689.139 557.828 689.139H566.542C568.376 689.139 570.182 688.602 571.529 687.642L572.647 686.86C574.194 685.765 575.112 684.201 575.112 682.569L575.255 632.182L575.341 604.295C575.341 602.731 574.538 601.212 573.077 600.117L568.376 596.542C566.972 595.491 565.108 594.888 563.188 594.888H533.666C531.717 594.888 529.882 595.469 528.478 596.519L499.5 618.417C498.038 619.512 497.236 621.009 497.236 622.596V642.013C497.236 643.555 498.01 645.03 499.414 646.125V646.103Z" stroke="#3C3C3C" stroke-width="0.436854" stroke-miterlimit="10"/>
<path d="M423.057 534.87L369.917 493.532C368.513 492.437 366.621 491.833 364.643 491.833H355.93C354.095 491.833 352.29 492.37 350.942 493.331L349.825 494.113C348.277 495.208 347.36 496.772 347.36 498.403L347.216 548.791L347.13 576.677C347.13 578.241 347.933 579.761 349.395 580.856L354.095 584.431C355.5 585.481 357.363 586.084 359.283 586.084H388.806C390.755 586.084 392.589 585.503 393.993 584.453L422.971 562.555C424.433 561.46 425.235 559.963 425.235 558.377V538.959C425.235 537.417 424.462 535.942 423.057 534.847V534.87Z" stroke="#3C3C3C" stroke-width="0.436854" stroke-miterlimit="10"/>
<path d="M435.067 563.158L488.207 604.496C489.611 605.591 491.503 606.195 493.481 606.195H502.194C504.028 606.195 505.834 605.658 507.181 604.697L508.299 603.915C509.847 602.82 510.764 601.256 510.764 599.625L510.907 549.237L510.993 521.351C510.993 519.787 510.191 518.267 508.729 517.172L504.028 513.597C502.624 512.547 500.761 511.944 498.84 511.944H469.318C467.369 511.944 465.535 512.525 464.13 513.575L435.153 535.473C433.691 536.568 432.888 538.065 432.888 539.651V559.069C432.888 560.611 433.662 562.086 435.067 563.181V563.158Z" stroke="#3C3C3C" stroke-width="0.436854" stroke-miterlimit="10"/>
<path d="M378.144 701.496L325.003 660.158C323.599 659.063 321.707 658.459 319.73 658.459H311.016C309.182 658.459 307.376 658.996 306.029 659.956L304.911 660.739C303.363 661.833 302.446 663.398 302.446 665.029L302.303 715.416L302.217 743.303C302.217 744.867 303.019 746.386 304.481 747.481L309.182 751.057C310.586 752.107 312.449 752.71 314.37 752.71H343.892C345.841 752.71 347.675 752.129 349.08 751.079L378.058 729.181C379.519 728.086 380.322 726.589 380.322 725.002V705.585C380.322 704.043 379.548 702.568 378.144 701.473V701.496Z" stroke="#3C3C3C" stroke-width="0.436854" stroke-miterlimit="10"/>
<path d="M390.153 729.784L443.293 771.122C444.698 772.217 446.589 772.82 448.567 772.82H457.28C459.115 772.82 460.92 772.284 462.268 771.323L463.385 770.541C464.933 769.446 465.85 767.882 465.85 766.251L465.994 715.863L466.08 687.977C466.08 686.413 465.277 684.893 463.815 683.798L459.115 680.223C457.71 679.173 455.847 678.57 453.927 678.57H424.405C422.456 678.57 420.621 679.151 419.217 680.201L390.239 702.099C388.777 703.194 387.975 704.691 387.975 706.277V725.695C387.975 727.237 388.748 728.712 390.153 729.806V729.784Z" stroke="#3C3C3C" stroke-width="0.436854" stroke-miterlimit="10"/>
<path d="M313.825 618.551L260.685 577.213C259.28 576.118 257.388 575.515 255.411 575.515H246.697C244.863 575.515 243.057 576.051 241.71 577.012L240.592 577.794C239.044 578.889 238.127 580.453 238.127 582.084L237.984 632.472L237.898 660.359C237.898 661.923 238.7 663.442 240.162 664.537L244.863 668.112C246.267 669.162 248.13 669.766 250.051 669.766H279.573C281.522 669.766 283.357 669.185 284.761 668.135L313.739 646.237C315.2 645.142 316.003 643.645 316.003 642.058V622.64C316.003 621.099 315.229 619.624 313.825 618.529V618.551Z" stroke="#3C3C3C" stroke-width="0.436854" stroke-miterlimit="10"/>
<path d="M325.834 646.84L378.974 688.178C380.379 689.273 382.27 689.876 384.248 689.876H392.962C394.796 689.876 396.602 689.34 397.949 688.379L399.067 687.597C400.614 686.502 401.532 684.938 401.532 683.307L401.675 632.919L401.761 605.033C401.761 603.468 400.958 601.949 399.497 600.854L394.796 597.279C393.391 596.229 391.528 595.625 389.608 595.625H360.086C358.137 595.625 356.302 596.206 354.898 597.257L325.92 619.155C324.458 620.249 323.656 621.747 323.656 623.333V642.751C323.656 644.293 324.43 645.767 325.834 646.862V646.84Z" stroke="#3C3C3C" stroke-width="0.436854" stroke-miterlimit="10"/>
<path d="M268.911 782.429L215.771 741.091C214.366 739.996 212.474 739.392 210.497 739.392H201.783C199.949 739.392 198.143 739.929 196.796 740.89L195.678 741.672C194.13 742.767 193.213 744.331 193.213 745.962L193.07 796.35L192.984 824.236C192.984 825.8 193.786 827.32 195.248 828.414L199.949 831.99C201.353 833.04 203.216 833.643 205.137 833.643H234.659C236.608 833.643 238.442 833.062 239.847 832.012L268.825 810.114C270.286 809.019 271.089 807.522 271.089 805.935V786.518C271.089 784.976 270.315 783.501 268.911 782.406V782.429Z" stroke="#3C3C3C" stroke-width="0.436854" stroke-miterlimit="10"/>
<path d="M280.921 810.717L334.061 852.055C335.465 853.15 337.357 853.754 339.335 853.754H348.048C349.882 853.754 351.688 853.217 353.035 852.257L354.153 851.474C355.701 850.38 356.618 848.815 356.618 847.184L356.761 796.796L356.847 768.91C356.847 767.346 356.045 765.826 354.583 764.732L349.882 761.156C348.478 760.106 346.615 759.503 344.694 759.503H315.172C313.223 759.503 311.389 760.084 309.984 761.134L281.007 783.032C279.545 784.127 278.742 785.624 278.742 787.211V806.628C278.742 808.17 279.516 809.645 280.921 810.74V810.717Z" stroke="#3C3C3C" stroke-width="0.436854" stroke-miterlimit="10"/>
<path d="M204.592 699.507L151.452 658.169C150.048 657.074 148.156 656.471 146.178 656.471H137.465C135.63 656.471 133.825 657.007 132.478 657.968L131.36 658.75C129.812 659.845 128.895 661.409 128.895 663.04L128.752 713.428L128.666 741.314C128.666 742.878 129.468 744.398 130.93 745.493L135.63 749.068C137.035 750.118 138.898 750.721 140.818 750.721H170.341C172.29 750.721 174.124 750.14 175.529 749.09L204.506 727.192C205.968 726.097 206.771 724.6 206.771 723.014V703.596C206.771 702.054 205.997 700.579 204.592 699.485V699.507Z" stroke="#3C3C3C" stroke-width="0.436854" stroke-miterlimit="10"/>
<path d="M216.602 727.773L269.742 769.111C271.146 770.206 273.038 770.809 275.016 770.809H283.729C285.563 770.809 287.369 770.273 288.716 769.312L289.834 768.53C291.382 767.435 292.299 765.871 292.299 764.24L292.442 713.852L292.528 685.966C292.528 684.402 291.726 682.882 290.264 681.787L285.563 678.212C284.159 677.162 282.296 676.559 280.376 676.559H250.853C248.904 676.559 247.07 677.14 245.665 678.19L216.688 700.088C215.226 701.183 214.423 702.68 214.423 704.266V723.684C214.423 725.226 215.197 726.701 216.602 727.795V727.773Z" stroke="#3C3C3C" stroke-width="0.436854" stroke-miterlimit="10"/>
<path d="M724.901 699.887L671.761 658.549C670.357 657.454 668.465 656.85 666.487 656.85H657.774C655.94 656.85 654.134 657.387 652.787 658.348L651.669 659.13C650.121 660.225 649.204 661.789 649.204 663.42L649.061 713.808L648.975 741.694C648.975 743.258 649.777 744.778 651.239 745.872L655.94 749.448C657.344 750.498 659.207 751.101 661.127 751.101H690.65C692.599 751.101 694.433 750.52 695.838 749.47L724.815 727.572C726.277 726.477 727.08 724.98 727.08 723.393V703.976C727.08 702.434 726.306 700.959 724.901 699.864V699.887Z" stroke="#3C3C3C" stroke-width="0.436854" stroke-miterlimit="10"/>
<path d="M736.911 728.175L790.051 769.513C791.455 770.608 793.347 771.212 795.325 771.212H804.038C805.873 771.212 807.678 770.675 809.025 769.714L810.143 768.932C811.691 767.837 812.608 766.273 812.608 764.642L812.752 714.254L812.838 686.368C812.838 684.804 812.035 683.284 810.573 682.19L805.873 678.614C804.468 677.564 802.605 676.961 800.685 676.961H771.162C769.213 676.961 767.379 677.542 765.974 678.592L736.997 700.49C735.535 701.585 734.732 703.082 734.732 704.668V724.086C734.732 725.628 735.506 727.103 736.911 728.198V728.175Z" stroke="#3C3C3C" stroke-width="0.436854" stroke-miterlimit="10"/>
<path d="M660.583 616.965L607.442 575.627C606.038 574.532 604.146 573.929 602.169 573.929H593.455C591.621 573.929 589.815 574.465 588.468 575.426L587.35 576.208C585.802 577.303 584.885 578.867 584.885 580.498L584.742 630.886L584.656 658.772C584.656 660.336 585.458 661.856 586.92 662.951L591.621 666.526C593.025 667.576 594.888 668.179 596.809 668.179H626.331C628.28 668.179 630.114 667.598 631.519 666.548L660.497 644.65C661.958 643.555 662.761 642.058 662.761 640.472V621.054C662.761 619.512 661.987 618.037 660.583 616.942V616.965Z" stroke="#3C3C3C" stroke-width="0.436854" stroke-miterlimit="10"/>
<path d="M672.592 645.253L725.733 686.591C727.137 687.686 729.029 688.29 731.006 688.29H739.72C741.554 688.29 743.36 687.753 744.707 686.793L745.825 686.011C747.373 684.916 748.29 683.351 748.29 681.72L748.433 631.333L748.519 603.446C748.519 601.882 747.717 600.363 746.255 599.268L741.554 595.692C740.15 594.642 738.287 594.039 736.366 594.039H706.844C704.895 594.039 703.061 594.62 701.656 595.67L672.678 617.568C671.217 618.663 670.414 620.16 670.414 621.747V641.164C670.414 642.706 671.188 644.181 672.592 645.276V645.253Z" stroke="#3C3C3C" stroke-width="0.436854" stroke-miterlimit="10"/>
<path d="M615.669 780.842L562.529 739.504C561.124 738.409 559.233 737.806 557.255 737.806H548.542C546.707 737.806 544.901 738.342 543.554 739.303L542.436 740.085C540.889 741.18 539.971 742.744 539.971 744.375L539.828 794.763L539.742 822.649C539.742 824.214 540.545 825.733 542.007 826.828L546.707 830.403C548.112 831.453 549.975 832.057 551.895 832.057H581.417C583.366 832.057 585.201 831.476 586.605 830.426L615.583 808.527C617.045 807.433 617.847 805.935 617.847 804.349V784.931C617.847 783.389 617.073 781.915 615.669 780.82V780.842Z" stroke="#3C3C3C" stroke-width="0.436854" stroke-miterlimit="10"/>
<path d="M627.678 809.131L680.818 850.469C682.223 851.564 684.115 852.167 686.092 852.167H694.806C696.64 852.167 698.446 851.631 699.793 850.67L700.911 849.888C702.459 848.793 703.376 847.229 703.376 845.598L703.519 795.21L703.605 767.324C703.605 765.759 702.803 764.24 701.341 763.145L696.64 759.57C695.236 758.52 693.373 757.916 691.452 757.916H661.93C659.981 757.916 658.147 758.497 656.742 759.548L627.764 781.446C626.303 782.54 625.5 784.038 625.5 785.624V805.042C625.5 806.584 626.274 808.058 627.678 809.153V809.131Z" stroke="#3C3C3C" stroke-width="0.436854" stroke-miterlimit="10"/>
<path d="M551.35 697.898L498.21 656.56C496.806 655.465 494.914 654.862 492.936 654.862H484.223C482.388 654.862 480.583 655.398 479.235 656.359L478.118 657.141C476.57 658.236 475.653 659.8 475.653 661.431L475.509 711.819L475.423 739.705C475.423 741.269 476.226 742.789 477.688 743.884L482.388 747.459C483.793 748.509 485.656 749.112 487.576 749.112H517.099C519.048 749.112 520.882 748.531 522.286 747.481L551.264 725.583C552.726 724.488 553.528 722.991 553.528 721.405V701.987C553.528 700.445 552.755 698.971 551.35 697.876V697.898Z" stroke="#3C3C3C" stroke-width="0.436854" stroke-miterlimit="10"/>
<path d="M563.36 726.187L616.5 767.525C617.905 768.62 619.796 769.223 621.774 769.223H630.487C632.322 769.223 634.128 768.687 635.475 767.726L636.593 766.944C638.14 765.849 639.057 764.285 639.057 762.653L639.201 712.266L639.287 684.379C639.287 682.815 638.484 681.296 637.022 680.201L632.322 676.626C630.917 675.575 629.054 674.972 627.134 674.972H597.612C595.663 674.972 593.828 675.553 592.424 676.603L563.446 698.501C561.984 699.596 561.182 701.093 561.182 702.68V722.098C561.182 723.639 561.956 725.114 563.36 726.209V726.187Z" stroke="#3C3C3C" stroke-width="0.436854" stroke-miterlimit="10"/>
<path d="M506.437 864.524L453.296 823.186C451.892 822.091 450 821.488 448.023 821.488H439.309C437.475 821.488 435.669 822.024 434.322 822.985L433.204 823.767C431.656 824.862 430.739 826.426 430.739 828.057L430.596 878.445L430.51 906.331C430.51 907.895 431.312 909.415 432.774 910.51L437.475 914.085C438.879 915.135 440.742 915.738 442.663 915.738H472.185C474.134 915.738 475.968 915.157 477.373 914.107L506.351 892.209C507.812 891.114 508.615 889.617 508.615 888.031V868.613C508.615 867.071 507.841 865.596 506.437 864.502V864.524Z" stroke="#3C3C3C" stroke-width="0.436854" stroke-miterlimit="10"/>
<path d="M518.446 892.79L571.586 934.128C572.991 935.223 574.882 935.826 576.86 935.826H585.573C587.408 935.826 589.213 935.29 590.561 934.329L591.678 933.547C593.226 932.452 594.143 930.888 594.143 929.257L594.287 878.869L594.373 850.983C594.373 849.419 593.57 847.899 592.108 846.804L587.408 843.229C586.003 842.179 584.14 841.576 582.22 841.576H552.698C550.748 841.576 548.914 842.157 547.51 843.207L518.532 865.105C517.07 866.2 516.268 867.697 516.268 869.283V888.701C516.268 890.243 517.041 891.718 518.446 892.812V892.79Z" stroke="#3C3C3C" stroke-width="0.436854" stroke-miterlimit="10"/>
<path d="M442.089 781.58L388.949 740.242C387.544 739.147 385.653 738.543 383.675 738.543H374.961C373.127 738.543 371.321 739.08 369.974 740.04L368.856 740.822C367.309 741.917 366.391 743.481 366.391 745.113L366.248 795.5L366.162 823.387C366.162 824.951 366.965 826.47 368.426 827.565L373.127 831.141C374.532 832.191 376.395 832.794 378.315 832.794H407.837C409.786 832.794 411.621 832.213 413.025 831.163L442.003 809.265C443.465 808.17 444.267 806.673 444.267 805.086V785.669C444.267 784.127 443.493 782.652 442.089 781.557V781.58Z" stroke="#3C3C3C" stroke-width="0.436854" stroke-miterlimit="10"/>
<path d="M454.099 809.868L507.239 851.206C508.643 852.301 510.535 852.904 512.513 852.904H521.226C523.061 852.904 524.866 852.368 526.213 851.407L527.331 850.625C528.879 849.53 529.796 847.966 529.796 846.335L529.94 795.947L530.026 768.061C530.026 766.497 529.223 764.977 527.761 763.882L523.061 760.307C521.656 759.257 519.793 758.654 517.873 758.654H488.35C486.401 758.654 484.567 759.235 483.162 760.285L454.185 782.183C452.723 783.278 451.92 784.775 451.92 786.361V805.779C451.92 807.321 452.694 808.796 454.099 809.891V809.868Z" stroke="#3C3C3C" stroke-width="0.436854" stroke-miterlimit="10"/>
<path d="M397.175 945.457L344.035 904.119C342.631 903.024 340.739 902.421 338.761 902.421H330.048C328.214 902.421 326.408 902.957 325.061 903.918L323.943 904.7C322.395 905.795 321.478 907.359 321.478 908.99L321.335 959.378L321.249 987.264C321.249 988.828 322.051 990.348 323.513 991.443L328.214 995.018C329.618 996.068 331.481 996.672 333.401 996.672H362.924C364.873 996.672 366.707 996.091 368.112 995.04L397.089 973.142C398.551 972.047 399.354 970.55 399.354 968.964V949.546C399.354 948.004 398.58 946.53 397.175 945.435V945.457Z" stroke="#3C3C3C" stroke-width="0.436854" stroke-miterlimit="10"/>
<path d="M409.185 973.746L462.325 1015.08C463.729 1016.18 465.621 1016.78 467.599 1016.78H476.312C478.146 1016.78 479.952 1016.25 481.299 1015.28L482.417 1014.5C483.965 1013.41 484.882 1011.84 484.882 1010.21L485.025 959.825L485.111 931.938C485.111 930.374 484.309 928.855 482.847 927.76L478.146 924.185C476.742 923.134 474.879 922.531 472.959 922.531H443.436C441.487 922.531 439.653 923.112 438.248 924.162L409.271 946.06C407.809 947.155 407.006 948.652 407.006 950.239V969.656C407.006 971.198 407.78 972.673 409.185 973.768V973.746Z" stroke="#3C3C3C" stroke-width="0.436854" stroke-miterlimit="10"/>
<path d="M332.856 862.513L279.716 821.175C278.312 820.08 276.42 819.477 274.442 819.477H265.729C263.895 819.477 262.089 820.013 260.742 820.974L259.624 821.756C258.076 822.851 257.159 824.415 257.159 826.046L257.016 876.434L256.93 904.32C256.93 905.884 257.732 907.404 259.194 908.499L263.895 912.074C265.299 913.124 267.162 913.727 269.083 913.727H298.605C300.554 913.727 302.388 913.146 303.793 912.096L332.77 890.198C334.232 889.103 335.035 887.606 335.035 886.02V866.602C335.035 865.06 334.261 863.585 332.856 862.49V862.513Z" stroke="#3C3C3C" stroke-width="0.436854" stroke-miterlimit="10"/>
<path d="M344.866 890.801L398.006 932.139C399.41 933.234 401.302 933.838 403.28 933.838H411.993C413.828 933.838 415.633 933.301 416.98 932.341L418.098 931.558C419.646 930.464 420.563 928.899 420.563 927.268L420.707 876.88L420.793 848.994C420.793 847.43 419.99 845.91 418.528 844.816L413.828 841.24C412.423 840.19 410.56 839.587 408.64 839.587H379.117C377.168 839.587 375.334 840.168 373.93 841.218L344.952 863.116C343.49 864.211 342.688 865.708 342.688 867.295V886.712C342.688 888.254 343.461 889.729 344.866 890.824V890.801Z" stroke="#3C3C3C" stroke-width="0.436854" stroke-miterlimit="10"/>
<path d="M852.793 864.524L799.653 823.186C798.248 822.091 796.357 821.488 794.379 821.488H785.666C783.831 821.488 782.025 822.024 780.678 822.985L779.56 823.767C778.013 824.862 777.095 826.426 777.095 828.057L776.952 878.445L776.866 906.331C776.866 907.895 777.669 909.415 779.13 910.51L783.831 914.085C785.236 915.135 787.099 915.738 789.019 915.738H818.541C820.49 915.738 822.325 915.157 823.729 914.107L852.707 892.209C854.169 891.114 854.971 889.617 854.971 888.031V868.613C854.971 867.071 854.197 865.596 852.793 864.502V864.524Z" stroke="#3C3C3C" stroke-width="0.436854" stroke-miterlimit="10"/>
<path d="M788.475 781.58L735.334 740.242C733.93 739.147 732.038 738.543 730.061 738.543H721.347C719.513 738.543 717.707 739.08 716.36 740.04L715.242 740.822C713.694 741.917 712.777 743.481 712.777 745.113L712.634 795.5L712.548 823.387C712.548 824.951 713.35 826.47 714.812 827.565L719.513 831.141C720.917 832.191 722.78 832.794 724.701 832.794H754.223C756.172 832.794 758.006 832.213 759.411 831.163L788.389 809.265C789.85 808.17 790.653 806.673 790.653 805.086V785.669C790.653 784.127 789.879 782.652 788.475 781.557V781.58Z" stroke="#3C3C3C" stroke-width="0.436854" stroke-miterlimit="10"/>
<path d="M800.484 809.868L853.624 851.206C855.029 852.301 856.92 852.904 858.898 852.904H867.611C869.446 852.904 871.252 852.368 872.599 851.407L873.716 850.625C875.264 849.53 876.181 847.966 876.181 846.335L876.325 795.947L876.411 768.061C876.411 766.497 875.608 764.977 874.146 763.882L869.446 760.307C868.041 759.257 866.178 758.654 864.258 758.654H834.736C832.787 758.654 830.952 759.235 829.548 760.285L800.57 782.183C799.108 783.278 798.306 784.775 798.306 786.361V805.779C798.306 807.321 799.08 808.796 800.484 809.891V809.868Z" stroke="#3C3C3C" stroke-width="0.436854" stroke-miterlimit="10"/>
<path d="M743.561 945.457L690.42 904.119C689.016 903.024 687.124 902.421 685.147 902.421H676.433C674.599 902.421 672.793 902.957 671.446 903.918L670.328 904.7C668.78 905.795 667.863 907.359 667.863 908.99L667.72 959.378L667.634 987.264C667.634 988.828 668.436 990.348 669.898 991.443L674.599 995.018C676.003 996.068 677.866 996.672 679.787 996.672H709.309C711.258 996.672 713.092 996.091 714.497 995.04L743.475 973.142C744.936 972.047 745.739 970.55 745.739 968.964V949.546C745.739 948.004 744.965 946.53 743.561 945.435V945.457Z" stroke="#3C3C3C" stroke-width="0.436854" stroke-miterlimit="10"/>
<path d="M755.57 973.746L808.71 1015.08C810.114 1016.18 812.006 1016.78 813.984 1016.78H822.697C824.532 1016.78 826.337 1016.25 827.685 1015.28L828.802 1014.5C830.35 1013.41 831.267 1011.84 831.267 1010.21L831.411 959.825L831.497 931.938C831.497 930.374 830.694 928.855 829.232 927.76L824.532 924.185C823.127 923.134 821.264 922.531 819.344 922.531H789.822C787.872 922.531 786.038 923.112 784.634 924.162L755.656 946.06C754.194 947.155 753.392 948.652 753.392 950.239V969.656C753.392 971.198 754.165 972.673 755.57 973.768V973.746Z" stroke="#3C3C3C" stroke-width="0.436854" stroke-miterlimit="10"/>
<path d="M679.213 862.513L626.073 821.175C624.669 820.08 622.777 819.477 620.799 819.477H612.086C610.252 819.477 608.446 820.013 607.099 820.974L605.981 821.756C604.433 822.851 603.516 824.415 603.516 826.046L603.373 876.434L603.287 904.32C603.287 905.884 604.089 907.404 605.551 908.499L610.252 912.074C611.656 913.124 613.519 913.727 615.44 913.727H644.962C646.911 913.727 648.745 913.146 650.15 912.096L679.127 890.198C680.589 889.103 681.392 887.606 681.392 886.02V866.602C681.392 865.06 680.618 863.585 679.213 862.49V862.513Z" stroke="#3C3C3C" stroke-width="0.436854" stroke-miterlimit="10"/>
<path d="M691.223 890.801L744.363 932.139C745.768 933.234 747.66 933.838 749.637 933.838H758.351C760.185 933.838 761.991 933.301 763.338 932.341L764.456 931.558C766.004 930.464 766.921 928.899 766.921 927.268L767.064 876.88L767.15 848.994C767.15 847.43 766.347 845.91 764.886 844.816L760.185 841.24C758.781 840.19 756.918 839.587 754.997 839.587H725.475C723.526 839.587 721.691 840.168 720.287 841.218L691.309 863.116C689.847 864.211 689.045 865.708 689.045 867.295V886.712C689.045 888.254 689.819 889.729 691.223 890.824V890.801Z" stroke="#3C3C3C" stroke-width="0.436854" stroke-miterlimit="10"/>
<path d="M634.299 1029.14L581.159 987.801C579.755 986.706 577.863 986.102 575.885 986.102H567.172C565.338 986.102 563.532 986.639 562.185 987.599L561.067 988.382C559.519 989.476 558.602 991.041 558.602 992.672L558.459 1043.06L558.373 1070.95C558.373 1072.51 559.175 1074.03 560.637 1075.12L565.338 1078.7C566.742 1079.75 568.605 1080.35 570.525 1080.35H600.048C601.997 1080.35 603.831 1079.77 605.236 1078.72L634.213 1056.82C635.675 1055.73 636.478 1054.23 636.478 1052.65V1033.23C636.478 1031.69 635.704 1030.21 634.299 1029.12V1029.14Z" stroke="#3C3C3C" stroke-width="0.436854" stroke-miterlimit="10"/>
<path d="M646.309 1057.43L699.449 1098.77C700.853 1099.86 702.745 1100.46 704.723 1100.46H713.436C715.271 1100.46 717.076 1099.93 718.423 1098.97L719.541 1098.18C721.089 1097.09 722.006 1095.53 722.006 1093.89L722.149 1043.51L722.235 1015.62C722.235 1014.06 721.433 1012.54 719.971 1011.44L715.271 1007.87C713.866 1006.82 712.003 1006.21 710.083 1006.21H680.56C678.611 1006.21 676.777 1006.79 675.372 1007.84L646.395 1029.74C644.933 1030.84 644.13 1032.33 644.13 1033.92V1053.34C644.13 1054.88 644.904 1056.35 646.309 1057.45V1057.43Z" stroke="#3C3C3C" stroke-width="0.436854" stroke-miterlimit="10"/>
<path d="M569.981 946.194L516.841 904.856C515.436 903.761 513.545 903.158 511.567 903.158H502.854C501.019 903.158 499.213 903.694 497.866 904.655L496.748 905.437C495.201 906.532 494.284 908.096 494.284 909.728L494.14 960.115L494.054 988.002C494.054 989.566 494.857 991.085 496.319 992.18L501.019 995.755C502.424 996.806 504.287 997.409 506.207 997.409H535.729C537.678 997.409 539.513 996.828 540.917 995.778L569.895 973.88C571.357 972.785 572.159 971.288 572.159 969.701V950.284C572.159 948.742 571.385 947.267 569.981 946.172V946.194Z" stroke="#3C3C3C" stroke-width="0.436854" stroke-miterlimit="10"/>
<path d="M581.99 974.483L635.13 1015.82C636.535 1016.92 638.427 1017.52 640.404 1017.52H649.118C650.952 1017.52 652.758 1016.98 654.105 1016.02L655.223 1015.24C656.771 1014.15 657.688 1012.58 657.688 1010.95L657.831 960.562L657.917 932.676C657.917 931.112 657.115 929.592 655.653 928.497L650.952 924.922C649.548 923.872 647.685 923.269 645.764 923.269H616.242C614.293 923.269 612.459 923.85 611.054 924.9L582.076 946.798C580.615 947.893 579.812 949.39 579.812 950.976V970.394C579.812 971.936 580.586 973.411 581.99 974.505V974.483Z" stroke="#3C3C3C" stroke-width="0.436854" stroke-miterlimit="10"/>
<path d="M525.067 1110.07L471.927 1068.73C470.522 1067.64 468.631 1067.04 466.653 1067.04H457.94C456.105 1067.04 454.299 1067.57 452.952 1068.53L451.834 1069.31C450.287 1070.41 449.369 1071.97 449.369 1073.6L449.226 1123.99L449.14 1151.88C449.14 1153.44 449.943 1154.96 451.404 1156.06L456.105 1159.63C457.51 1160.68 459.373 1161.29 461.293 1161.29H490.815C492.764 1161.29 494.599 1160.71 496.003 1159.65L524.981 1137.76C526.443 1136.66 527.245 1135.17 527.245 1133.58V1114.16C527.245 1112.62 526.471 1111.14 525.067 1110.05V1110.07Z" stroke="#3C3C3C" stroke-width="0.436854" stroke-miterlimit="10"/>
<path d="M537.076 1138.36L590.216 1179.7C591.621 1180.79 593.513 1181.4 595.49 1181.4H604.204C606.038 1181.4 607.844 1180.86 609.191 1179.9L610.309 1179.12C611.857 1178.02 612.774 1176.46 612.774 1174.83L612.917 1124.44L613.003 1096.55C613.003 1094.99 612.201 1093.47 610.739 1092.37L606.038 1088.8C604.634 1087.75 602.771 1087.15 600.85 1087.15H571.328C569.379 1087.15 567.544 1087.73 566.14 1088.78L537.162 1110.68C535.701 1111.77 534.898 1113.27 534.898 1114.85V1134.27C534.898 1135.81 535.672 1137.29 537.076 1138.38V1138.36Z" stroke="#3C3C3C" stroke-width="0.436854" stroke-miterlimit="10"/>
<path d="M460.748 1027.13L407.608 985.79C406.203 984.695 404.312 984.091 402.334 984.091H393.621C391.786 984.091 389.981 984.628 388.633 985.588L387.516 986.371C385.968 987.465 385.051 989.03 385.051 990.661L384.907 1041.05L384.821 1068.93C384.821 1070.5 385.624 1072.02 387.086 1073.11L391.786 1076.69C393.191 1077.74 395.054 1078.34 396.974 1078.34H426.496C428.446 1078.34 430.28 1077.76 431.684 1076.71L460.662 1054.81C462.124 1053.72 462.926 1052.22 462.926 1050.63V1031.22C462.926 1029.67 462.153 1028.2 460.748 1027.11V1027.13Z" stroke="#3C3C3C" stroke-width="0.436854" stroke-miterlimit="10"/>
<path d="M472.758 1055.42L525.898 1096.75C527.303 1097.85 529.194 1098.45 531.172 1098.45H539.885C541.72 1098.45 543.525 1097.92 544.873 1096.96L545.99 1096.17C547.538 1095.08 548.455 1093.51 548.455 1091.88L548.599 1041.5L548.685 1013.61C548.685 1012.04 547.882 1010.53 546.42 1009.43L541.72 1005.86C540.315 1004.81 538.452 1004.2 536.532 1004.2H507.01C505.06 1004.2 503.226 1004.78 501.822 1005.83L472.844 1027.73C471.382 1028.83 470.58 1030.32 470.58 1031.91V1051.33C470.58 1052.87 471.354 1054.34 472.758 1055.44V1055.42Z" stroke="#3C3C3C" stroke-width="0.436854" stroke-miterlimit="10"/>
</g>
<defs>
<linearGradient id="paint0_linear_7135_632" x1="217.617" y1="184.045" x2="818.291" y2="446.158" gradientUnits="userSpaceOnUse">
<stop stop-color="#4C4C4C"/>
<stop offset="1" stop-color="#212020"/>
</linearGradient>
<clipPath id="clip0_7135_632">
<rect width="1440" height="1182" fill="white"/>
</clipPath>
</defs>
</svg>
