<svg width="22" height="10" viewBox="0 0 22 10" fill="none" xmlns="http://www.w3.org/2000/svg">
<path d="M6.89512 6.88529C5.53182 6.30394 4.34957 5.49744 3.38009 4.68187L1.53176 6.5302C1.38576 6.6762 1.19378 6.75022 1.00178 6.75022H1.00071C0.808707 6.75022 0.616727 6.6772 0.470727 6.5302C0.177727 6.2372 0.177727 5.76226 0.470727 5.46926L2.274 3.66599C1.10969 2.50192 0.442338 1.51728 0.375293 1.41632C0.145293 1.07132 0.238203 0.606283 0.583203 0.376283C0.928203 0.146283 1.39324 0.239291 1.62324 0.584291C1.66124 0.640291 5.48122 6.25031 10.9992 6.25031C16.5172 6.25031 20.3373 0.640314 20.3753 0.583314C20.6053 0.239314 21.0712 0.146283 21.4152 0.376283C21.7592 0.606283 21.8522 1.07135 21.6232 1.41535C21.5562 1.51626 20.8894 2.50009 19.726 3.66351L21.5318 5.46926C21.8248 5.76226 21.8248 6.2372 21.5318 6.5302C21.3858 6.6762 21.1938 6.75022 21.0018 6.75022H21.0007C20.8087 6.75022 20.6167 6.6772 20.4707 6.5302L18.62 4.67952C17.6508 5.4951 16.4687 6.30173 15.1056 6.88333L16.144 8.61392C16.357 8.96892 16.2419 9.42992 15.8869 9.64292C15.7659 9.71492 15.633 9.74996 15.502 9.74996C15.247 9.74996 14.9989 9.61999 14.8579 9.38599L13.6594 7.38847C12.8248 7.61618 11.9362 7.74933 10.9992 7.74933C10.0632 7.74933 9.17538 7.61742 8.34149 7.39013L7.14397 9.38599C7.00297 9.61999 6.75493 9.74996 6.49993 9.74996C6.36893 9.74996 6.23597 9.71592 6.11497 9.64292C5.75997 9.42992 5.64494 8.96892 5.85794 8.61392L6.89512 6.88529Z" fill="#FFF000"/>
</svg>
