<svg width="24" height="24" viewBox="0 0 22 22" fill="none" xmlns="http://www.w3.org/2000/svg">
<circle cx="10.8642" cy="10.8642" r="10.8642" fill="#F2F0F2"/>
<mask id="mask0_7950_607" style="mask-type:alpha" maskUnits="userSpaceOnUse" x="0" y="0" width="22" height="22">
<circle cx="10.8642" cy="10.8642" r="10.8642" fill="#FCFCFC"/>
</mask>
<g mask="url(#mask0_7950_607)">
<rect x="3.53082" y="19.2839" width="14.9382" height="2.71604" fill="#D90026"/>
<rect x="3.53082" y="19.2839" width="14.9382" height="2.71604" fill="#D90026"/>
<rect x="0.271606" y="13.8518" width="21.4567" height="2.71604" fill="#D90026"/>
<rect x="0.271606" y="13.8518" width="21.4567" height="2.71604" fill="#D90026"/>
<rect x="0.271606" y="8.14819" width="21.4567" height="2.71604" fill="#D90026"/>
<rect x="0.271606" y="8.14819" width="21.4567" height="2.71604" fill="#D90026"/>
<rect x="0.271606" y="2.71606" width="21.4567" height="2.71604" fill="#D90026"/>
<rect x="0.271606" y="2.71606" width="21.4567" height="2.71604" fill="#D90026"/>
<rect width="11.1358" height="10.8642" fill="#0052B5"/>
<path d="M8.96294 9.09892L8.14813 9.50633L8.41973 8.69152L7.87653 8.14831H8.69134L8.96294 7.3335L9.37035 8.14831H10.0494L9.50615 8.69152L9.77776 9.50633L8.96294 9.09892Z" fill="#EFEFEF"/>
<path d="M5.16045 9.09892L4.34564 9.50633L4.61724 8.69152L4.07404 8.14831H4.88885L5.16045 7.3335L5.56786 8.14831H6.24687L5.70366 8.69152L5.97527 9.50633L5.16045 9.09892Z" fill="#EFEFEF"/>
<path d="M1.35802 9.09892L0.543211 9.50633L0.814815 8.69152L0.271606 8.14831H1.08642L1.35802 7.3335L1.76543 8.14831H2.44444L1.90123 8.69152L2.17284 9.50633L1.35802 9.09892Z" fill="#EFEFEF"/>
<path d="M8.96294 6.11113L8.14813 6.51854L8.41973 5.70373L7.87653 5.16052H8.69134L8.96294 4.3457L9.37035 5.16052H10.0494L9.50615 5.70373L9.77776 6.51854L8.96294 6.11113Z" fill="#EFEFEF"/>
<path d="M8.96294 3.12358L8.14813 3.53099L8.41973 2.71618L7.87653 2.17297H8.69134L8.96294 1.35815L9.37035 2.17297H10.0494L9.50615 2.71618L9.77776 3.53099L8.96294 3.12358Z" fill="#EFEFEF"/>
<path d="M8.96294 0.13579L8.14813 0.543197L8.41973 -0.271617L7.87653 -0.814825H8.69134L8.96294 -1.62964L9.37035 -0.814825H10.0494L9.50615 -0.271617L9.77776 0.543197L8.96294 0.13579Z" fill="#EFEFEF"/>
<path d="M5.16045 3.12358L4.34564 3.53099L4.61724 2.71618L4.07404 2.17297H4.88885L5.16045 1.35815L5.56786 2.17297H6.24687L5.70366 2.71618L5.97527 3.53099L5.16045 3.12358Z" fill="#EFEFEF"/>
<path d="M5.16045 6.11113L4.34564 6.51854L4.61724 5.70373L4.07404 5.16052H4.88885L5.16045 4.3457L5.56786 5.16052H6.24687L5.70366 5.70373L5.97527 6.51854L5.16045 6.11113Z" fill="#EFEFEF"/>
<path d="M1.35802 6.11113L0.543211 6.51854L0.814815 5.70373L0.271606 5.16052H1.08642L1.35802 4.3457L1.76543 5.16052H2.44444L1.90123 5.70373L2.17284 6.51854L1.35802 6.11113Z" fill="#EFEFEF"/>
</g>
</svg>
